<svg width="330" height="151" viewBox="0 0 330 151" fill="none" xmlns="http://www.w3.org/2000/svg">
<g id="Group 5176">
<path id="Vector" d="M298.87 79.8719C300.454 111.373 279.28 127.555 248.729 131.394C214.465 135.702 179.277 129.886 145.165 126.934C132.304 125.819 119.417 124.982 106.504 125.046C94.3398 125.122 81.1615 128.454 69.2123 126.604C39.333 121.992 23.9371 91.3395 28.5876 64.6027C30.767 52.1087 35.5695 38.2841 46.3656 30.7065C57.1617 23.129 69.8585 25.0297 81.757 28.337C103.438 34.3686 127.058 45.6842 150.031 41.2619C163.197 38.7149 174.677 31.2641 187.171 26.8037C199.665 22.3434 212.957 19.581 226.212 19.3782C243.546 19.1121 261.274 23.6359 275.288 34.2292C290.063 45.3928 297.983 62.2965 298.87 79.8719Z" fill="#373835"/>
<path id="Vector_2" d="M276.941 106.293C276.941 106.293 265.004 114.72 251.281 107.421L264.117 100.262L276.941 106.293Z" fill="#183875"/>
<path id="Vector_3" d="M189.02 50.0195C189.02 50.0195 177.4 71.8018 181.037 78.2389L194.266 70.9021L189.02 50.0195Z" fill="#183875"/>
<path id="Vector_4" d="M184.018 72.1302C182.537 71.0168 181.136 69.8017 179.824 68.4935C177.176 65.8705 174.743 62.8293 172.525 59.5727C171.03 57.3932 169.636 55.1124 168.344 52.8062C164.605 46.1537 161.691 39.2604 159.613 33.7483C157.446 27.9954 156.192 23.7251 155.849 22.7368C155.832 22.6666 155.806 22.5986 155.773 22.534L162.059 4.48984C165.1 -0.363333 166.798 15.4127 166.798 15.4127C167.634 14.9185 168.648 13.4866 169.256 12.701C169.864 11.9153 170.447 13.2205 170.536 13.7147C171.055 16.6164 168.724 22.1285 168.724 22.1285L183.714 44.0882C184.625 45.4334 185.647 46.7007 186.768 47.877C187.479 48.6366 188.232 49.3558 189.023 50.0311C190.354 55.6699 190.227 66.5547 184.018 72.1302Z" fill="#FFCEAC"/>
<path id="Vector_5" opacity="0.6" d="M184.018 72.1287C182.538 71.0153 181.136 69.8001 179.824 68.4919C184.525 63.1066 188.124 54.1605 189.024 50.0169C188.238 49.3453 189.746 50.7772 189.024 50.0169C190.354 55.6684 190.227 66.5532 184.018 72.1287Z" fill="#E28B6D"/>
<path id="Vector_6" d="M276.936 106.294C268.75 104.697 262.3 104.811 256.852 105.888C254.958 106.263 253.095 106.776 251.276 107.421L249.629 113.326L246.385 125.009L244.269 132.587L242.343 139.48L241.266 143.37H183.192L192.379 83.4722L181.051 78.2389C181.829 77.0536 182.503 75.8029 183.066 74.5008C186.512 66.7459 188.35 54.9994 189.021 50.0195C192.28 52.8285 196.111 54.8952 200.248 56.0765C205.203 57.4957 211.158 58.7122 216.734 58.5855H217.304C230.203 58.0786 235.956 61.9941 235.956 61.9941C238.883 62.577 246.486 65.4914 253.126 68.4185C256.053 69.6983 258.79 70.9908 260.868 72.0679C263.626 73.5086 266.045 75.5208 267.963 77.9703C269.882 80.4197 271.256 83.2501 271.994 86.2726L276.936 106.294Z" fill="#467DE7"/>
<path id="Vector_7" opacity="0.6" d="M256.857 105.886C254.963 106.262 253.1 106.774 251.281 107.42L254.779 94.875L256.857 105.886Z" fill="#19315E"/>
<path id="Vector_8" opacity="0.3" d="M172.525 59.5612C171.03 57.3817 169.864 55.4176 167.051 50.4377C171.448 48.9298 174.083 55.4176 172.525 59.5612Z" fill="#EE6F57"/>
<path id="Vector_9" opacity="0.6" d="M250.263 111.07L246.386 125.009L244.27 132.586L192.165 136.565L186.234 126.2C224.337 125.414 240.278 119.978 250.263 111.07Z" fill="#19315E"/>
<path id="Vector_10" opacity="0.6" d="M159.611 33.7345C157.444 27.9817 156.19 23.7114 155.848 22.723L165.605 16.6914C165.972 22.1908 161.626 30.0218 159.611 33.7345Z" fill="#E28B6D"/>
<path id="Vector_11" d="M221.273 72.0938C221.85 74.0951 223.043 75.8639 224.681 77.1497C226.302 78.422 228.214 79.2712 230.244 79.6206C232.282 79.9866 234.376 79.9001 236.377 79.3672C237.382 79.1021 238.351 78.7193 239.266 78.2267C240.197 77.739 241.076 77.1573 241.889 76.4907L242.181 76.8075C241.421 77.5981 240.57 78.2957 239.646 78.8857C238.702 79.4602 237.694 79.9237 236.643 80.2668C234.515 80.9491 232.251 81.0928 230.054 80.685C227.875 80.2795 225.758 79.3418 224.086 77.8466C223.246 77.1138 222.532 76.2493 221.97 75.287C221.418 74.3269 221.045 73.2752 220.867 72.1824L221.273 72.0938Z" fill="#17102C"/>
<path id="Vector_12" d="M244.955 51.4492L243.345 64.07C243.069 66.4234 241.902 68.5815 240.083 70.1004C238.265 71.6193 235.933 72.3835 233.568 72.2358C231.203 72.0881 228.985 71.0397 227.369 69.3063C225.754 67.5729 224.864 65.2863 224.883 62.9169C224.884 62.4248 224.922 61.9334 224.997 61.447L225.289 59.597L226.429 52.3996L232.841 52.0701L244.955 51.4492Z" fill="#FFCEAC"/>
<path id="Vector_13" d="M222.477 30.6432C222.654 28.7805 223.528 26.563 224.517 24.5482C225.453 22.6526 226.836 21.0128 228.547 19.7701C230.258 18.5274 232.245 17.7189 234.337 17.4142C240.711 16.5018 248.947 17.3888 253.446 23.5218C258.502 30.4278 254.295 44.227 248.871 45.4055C243.448 46.5839 222.477 30.6432 222.477 30.6432Z" fill="#102048"/>
<path id="Vector_14" d="M239.099 54.6806C236.933 56.7334 231.94 61.5486 224.996 61.4472L226.428 52.3998L232.84 52.0703L239.099 54.6806Z" fill="#E28B6D"/>
<path id="Vector_15" d="M248.34 33.8887L247.377 38.9193L247.136 40.1611L246.186 45.103L245.641 47.9414L244.956 51.4514L241.662 53.4281C241.662 53.4281 240.762 54.0363 239.102 54.6826C239.102 54.686 239.101 54.6892 239.099 54.6915C239.096 54.6939 239.093 54.6953 239.09 54.6953C236.593 55.6836 232.374 56.7861 226.95 56.0765C226.588 56.025 226.232 55.9401 225.886 55.823C223.339 54.9487 222.034 52.2623 221.451 48.9171C221.033 46.4588 221.007 43.6457 221.159 40.934C221.4 36.6638 222.11 32.6469 222.477 30.6448C228.154 25.5635 235.909 24.6385 241.662 23.5234L248.34 33.8887Z" fill="#FFCEAC"/>
<path id="Vector_16" d="M222.477 30.6454C231.524 23.524 243.714 30.7341 243.714 30.7341C243.714 30.7341 241.851 41.9483 245.45 41.0233C249.049 40.0983 252.711 32.5968 252.711 32.5968L244.462 20.7109L226.43 23.8154L222.477 30.6454Z" fill="#102048"/>
<path id="Vector_17" d="M244.977 41.3891C246.751 38.2719 250.198 37.2835 252.061 39.6404C253.923 41.9973 253.987 49.4228 244.863 47.8262L244.977 41.3891Z" fill="#FFCEAC"/>
<path id="Vector_18" d="M246.387 43.7601C246.398 43.2457 246.492 42.7366 246.665 42.2522C246.846 41.7384 247.151 41.2772 247.552 40.909C247.987 40.5115 248.561 40.302 249.149 40.3261C249.695 40.3534 250.214 40.5683 250.619 40.9343L250.467 41.2131C249.998 41.0737 249.567 40.985 249.162 41.0357C248.761 41.0804 248.385 41.2487 248.085 41.5172C247.762 41.8085 247.496 42.1564 247.299 42.5436C247.075 42.958 246.877 43.3854 246.704 43.8234L246.387 43.7601Z" fill="#E28B6D"/>
<path id="Vector_19" d="M141.023 27.7305C141.023 27.7305 152.808 33.5087 150.628 43.0756L142.823 45.2678L141.023 27.7305Z" fill="#223706"/>
<path id="Vector_20" d="M141.023 27.7293C142.278 26.4875 148.778 19.3155 148.55 10.3441C148.373 3.55215 151.389 6.61864 151.782 11.3071C151.782 11.3071 153.429 1.71478 158.003 2.69048L156.66 4.52785C156.66 4.52785 158.396 1.28395 159.79 2.14561C161.184 3.00727 159.929 5.79499 159.929 5.79499C159.929 5.79499 160.576 3.38742 161.779 3.21002C162.983 3.03262 164.073 6.79604 161.386 16.6544C161.386 16.6544 164.301 13.7654 165.441 13.2838C166.582 12.8023 166.518 20.3419 158.371 28.3629C150.223 36.3839 144.47 42.5803 144.47 42.5803L141.023 27.7293Z" fill="#FFCEAC"/>
<path id="Vector_21" d="M93.4922 67.0247C93.7836 67.4682 141.023 27.7305 141.023 27.7305L150.628 43.0756L102.413 99.8565L93.4922 67.0247Z" fill="#4B8700"/>
<path id="Vector_22" d="M158.091 2.75466C157.521 3.629 157.001 4.52867 156.52 5.44102C156.038 6.35336 155.607 7.30372 155.227 8.26675C154.84 9.22054 154.514 10.1983 154.251 11.1939L154.061 11.9415L153.909 12.7018C153.783 13.2086 153.757 13.7282 153.656 14.235H153.453C153.453 13.1824 153.568 12.133 153.795 11.1052C154.029 10.0729 154.343 9.06041 154.733 8.07668C155.133 7.10039 155.599 6.15213 156.127 5.23828C156.65 4.32502 157.248 3.45623 157.913 2.64062L158.091 2.75466Z" fill="#E28B6D"/>
<path id="Vector_23" d="M160.03 5.82022C159.865 6.68188 159.688 7.53087 159.498 8.37986C159.308 9.22885 159.092 10.0778 158.902 10.9142L158.256 13.4484C158.028 14.2848 157.8 15.1211 157.546 15.9574L157.344 15.9067C157.458 15.045 157.623 14.1834 157.8 13.3344C157.977 12.4854 158.167 11.6364 158.383 10.7874C158.598 9.93845 158.801 9.10213 159.054 8.26581C159.308 7.4295 159.536 6.59318 159.815 5.76953L160.03 5.82022Z" fill="#E28B6D"/>
<path id="Vector_24" d="M162.896 3.58984C163.2 6.55497 163.06 9.53276 162.63 12.4725C162.503 13.2075 162.376 13.9424 162.211 14.6647C162.123 15.0195 162.034 15.387 161.933 15.7418L161.857 16.0079L161.819 16.1346C161.819 16.1128 161.815 16.0911 161.806 16.0712C161.793 16.0332 161.717 16.0206 161.679 16.0459L161.869 15.8812L163.555 14.424L164.416 13.727L164.872 13.3722C164.998 13.2863 165.15 13.2458 165.302 13.2573C165.454 13.2688 165.597 13.3317 165.709 13.4356C165.812 13.5396 165.883 13.6719 165.911 13.8157L165.962 14.1072C166.04 14.6785 166.049 15.2571 165.988 15.8305C165.914 16.5848 165.757 17.3286 165.519 18.048C165.04 19.4673 164.393 20.8244 163.593 22.0902C162.796 23.3445 161.92 24.5465 160.97 25.6889C160.488 26.2464 159.981 26.7913 159.487 27.3489L157.941 28.9328L157.789 28.7807L159.272 27.1461C159.74 26.5759 160.222 26.031 160.678 25.4481C161.597 24.3053 162.439 23.1031 163.2 21.8494C163.935 20.5823 164.594 19.2771 165.024 17.8959C165.246 17.208 165.395 16.4988 165.468 15.7798C165.493 15.4256 165.502 15.0704 165.493 14.7154C165.481 14.538 165.455 14.3606 165.43 14.1959L165.392 13.9298C165.383 13.8924 165.366 13.8577 165.341 13.8284C165.317 13.8079 165.286 13.7957 165.255 13.7934C165.223 13.7911 165.191 13.7989 165.164 13.8157L164.746 14.1325L163.884 14.8294L162.211 16.2613L161.983 16.4641C161.911 16.5121 161.827 16.5374 161.74 16.5367C161.654 16.5359 161.57 16.5093 161.499 16.4601C161.428 16.4109 161.373 16.3414 161.342 16.2608C161.311 16.1802 161.305 16.092 161.324 16.0079L161.375 15.8685L161.451 15.6024C161.552 15.2603 161.641 14.9055 161.73 14.5507C161.895 13.8411 162.047 13.1188 162.173 12.3965C162.421 10.9498 162.586 9.49026 162.668 8.02486C162.773 6.55701 162.777 5.08361 162.68 3.61518L162.896 3.58984Z" fill="#E28B6D"/>
<path id="Vector_25" d="M74.4228 101.541C74.4228 101.541 58.102 95.1036 51.4368 107.42C43.0609 122.905 55.6564 141.101 55.6564 141.101H77.8061L74.4228 101.541Z" fill="#A8FE3B"/>
<path id="Vector_26" d="M58.4428 106.609C58.0301 107.047 57.6648 107.527 57.353 108.041C57.0385 108.552 56.7632 109.085 56.5294 109.638C56.0502 110.739 55.6809 111.885 55.4269 113.059C54.9313 115.42 54.7439 117.835 54.8694 120.244C54.9993 122.657 55.3729 125.052 55.9845 127.39C56.6171 129.729 57.448 132.01 58.4681 134.208L58.278 134.296C57.9993 133.751 57.7078 133.219 57.4671 132.662C57.3403 132.383 57.201 132.104 57.0869 131.825L56.7194 130.989C56.2759 129.849 55.8704 128.695 55.5283 127.517C54.853 125.155 54.4533 122.723 54.3372 120.269C54.2161 117.814 54.4336 115.353 54.9834 112.958C55.2688 111.762 55.6765 110.598 56.1999 109.486C56.4591 108.925 56.7642 108.387 57.1123 107.876C57.4559 107.361 57.8554 106.885 58.3034 106.457L58.4428 106.609Z" fill="#102048"/>
<path id="Vector_27" d="M116.517 47.5208C121.864 50.79 125.565 48.8513 126.654 45.3286C127.744 41.8059 131.685 28.5262 115.161 30.6677C115.161 30.6677 94.9249 22.5073 86.359 34.5452C78.8068 45.1639 85.7381 52.5007 74.1944 61.3073C66.148 67.453 57.0245 78.2364 75.1194 96.6861L94.7602 91.2754L116.517 47.5208Z" fill="#17282F"/>
<path id="Vector_28" d="M110.421 62.9297C110.826 64.7924 115.147 69.6329 116.883 71.4449C122.116 76.9317 123.282 87.2209 108.343 90.3761L99.9414 70.7987L110.421 62.9297Z" fill="#17282F"/>
<path id="Vector_29" d="M111.171 65.375L109.397 73.5101L106.66 86.1562L91.3398 82.925L94.9385 58.1016L110.562 65.0962L111.171 65.375Z" fill="#FFCEAC"/>
<path id="Vector_30" d="M120.598 49.2969C120.598 49.2969 125.007 54.2514 124.855 55.5186C124.703 56.7857 120.598 59.0412 120.598 59.0412V49.2969Z" fill="#E28B6D"/>
<path id="Vector_31" d="M111.168 65.3759L109.394 73.5109C104.68 71.002 101.246 64.793 101.246 64.793L110.56 65.0971L111.168 65.3759Z" fill="#E28B6D"/>
<path id="Vector_32" d="M121.623 60.5741C121.002 65.2879 119.443 68.9119 116.085 69.2287C106.823 70.1284 93.4922 59.7504 93.4922 59.7504L94.2145 40.7559L104.288 34.5469L120.584 37.5627C120.787 39.7168 121.788 46.268 121.94 52.8698C122.016 55.5308 121.94 58.1918 121.623 60.5741Z" fill="#FFCEAC"/>
<path id="Vector_33" d="M123.156 40.7576L121.141 42.3035C110.661 34.1304 112.841 45.9022 111.865 49.6783C110.89 53.4544 105.922 52.4534 102.045 50.0205L101.361 55.2918L89.7155 55.6593L89.0312 40.9097L100.651 31.8242L122.142 36.0185L123.156 40.7576Z" fill="#17282F"/>
<path id="Vector_34" d="M108.103 95.5481C113.831 92.4816 112.209 84.4733 109.979 81.7362C107.748 78.9992 98.2954 74.3868 97.1423 65.7575C96.5087 60.9677 101.362 55.2909 101.362 55.2909L91.5162 50.0195L81.4297 65.8715L89.0326 93.1152L108.103 95.5481Z" fill="#17282F"/>
<path id="Vector_35" d="M115.238 139.506L67.2261 139.544C65.1353 108.803 72.7889 93.0779 79.4161 85.361C83.585 80.4952 89.8827 78.1003 96.2438 78.8732C101.769 79.5575 106.571 82.1805 111.437 93.6228L88.7043 104.191L103.289 129.889C104.765 132.466 106.888 134.615 109.447 136.123L115.238 139.506Z" fill="#4B8700"/>
<path id="Vector_36" d="M88.7031 104.188C88.7031 104.188 95.8498 132.787 98.4982 136.55C101.147 140.314 107.165 139.478 117.48 139.503L104.454 110.473L88.7031 104.188Z" fill="#A1C36F"/>
<path id="Vector_37" d="M146.992 131.737L144.926 139.327L117.48 139.504H115.237L109.446 136.121C106.887 134.614 104.764 132.465 103.288 129.887L88.7031 104.189L111.436 93.6211C113.869 99.3613 116.327 107.306 118.899 118.33C119.068 119.066 119.407 119.752 119.889 120.333C120.371 120.914 120.982 121.374 121.674 121.676L146.992 131.737Z" fill="#4B8700"/>
<path id="Vector_38" d="M104.451 52.111C103.627 47.5239 98.1911 46.9283 97.2534 50.0202C96.3157 53.112 96.5311 58.4213 103.361 58.1046L104.451 52.111Z" fill="#FFCEAC"/>
<path id="Vector_39" d="M102.275 52.4639L101.426 51.4882C101.166 51.1966 100.867 50.941 100.539 50.7279C100.235 50.5505 99.9944 50.4998 99.7029 50.6519C99.4115 50.8039 99.1327 51.1207 98.8413 51.4502L98.5625 51.2981C98.6661 50.8092 98.9345 50.3708 99.3228 50.0563C99.5569 49.871 99.8479 49.7725 100.146 49.7775C100.434 49.7919 100.713 49.8791 100.957 50.031C101.368 50.2976 101.715 50.6526 101.971 51.07C102.219 51.4568 102.415 51.8743 102.554 52.3118L102.275 52.4639Z" fill="#E28B6D"/>
<path id="Vector_40" d="M200.528 139.794H143.418L154.201 93.3281H211.312L200.528 139.794Z" fill="#1B3247"/>
<path id="Vector_41" opacity="0.6" d="M200.528 139.794L211.312 93.3281C194.991 131.102 170.738 135.296 143.418 139.794" fill="#102048"/>
<path id="Vector_42" d="M180.429 117.665C181.296 115.593 180.586 113.322 178.843 112.593C177.099 111.864 174.983 112.952 174.117 115.025C173.25 117.097 173.96 119.368 175.703 120.098C177.446 120.827 179.562 119.738 180.429 117.665Z" fill="white"/>
<path id="Vector_43" d="M271.324 105.432L271.147 110.158L270.361 131.32V131.345C270.298 132.927 269.887 134.476 269.157 135.881C268.435 137.292 267.404 138.522 266.141 139.48H242.344L192.647 139.645C191.76 139.645 190.847 137.579 192.165 136.566C195.067 134.297 199.603 131.801 202.771 129.774C204.515 128.654 206.596 128.183 208.651 128.443C212.072 128.874 217.001 130.61 223.134 128.798C224.199 128.488 225.283 128.247 226.378 128.076L246.387 125.009L254.256 123.793L254.471 110.462L254.547 106.42C255.295 106.217 256.068 106.04 256.853 105.888C260.984 105.064 265.698 104.811 271.324 105.432Z" fill="#FFCEAC"/>
<path id="Vector_44" opacity="0.6" d="M271.324 105.432L271.147 110.158C268.232 109.132 257.005 105.939 254.547 106.42C255.294 106.217 256.067 106.04 256.853 105.888C260.984 105.064 265.698 104.811 271.324 105.432Z" fill="#E28B6D"/>
<path id="Vector_45" opacity="0.3" d="M270.361 131.318V131.343C270.298 132.925 269.887 134.474 269.157 135.88C268.435 137.291 267.405 138.521 266.142 139.478H258.906C260.173 132.522 265.445 130.368 270.361 131.318Z" fill="#EE6F57"/>
<path id="Vector_46" d="M251.227 124.097C252.938 123.379 254.806 123.113 256.65 123.324C257.572 123.426 258.478 123.638 259.349 123.958C260.222 124.272 261.042 124.717 261.782 125.276L261.604 125.542C260.805 125.18 259.979 124.879 259.134 124.642C258.292 124.4 257.431 124.226 256.561 124.123C255.695 124.021 254.822 123.996 253.951 124.047C253.069 124.103 252.193 124.222 251.328 124.401L251.227 124.097Z" fill="#E28B6D"/>
<path id="Vector_47" d="M310.415 141.094H22V143.536H310.415V141.094Z" fill="#1B3247"/>
<path id="Vector_48" d="M22 140.336H310.415" stroke="#17282F" stroke-width="3" stroke-miterlimit="10"/>
</g>
</svg>
