<svg width="330" height="181" viewBox="0 0 330 181" fill="none" xmlns="http://www.w3.org/2000/svg">
<g id="Group 42285">
<g id="shadow">
<path id="Vector" d="M240.285 173.88H73.1651C73.0126 173.881 72.8613 173.862 72.72 173.824C72.5787 173.786 72.4502 173.73 72.3419 173.659C72.2336 173.589 72.1476 173.505 72.0889 173.412C72.0302 173.319 72 173.22 72 173.119C72 172.916 72.1228 172.72 72.3413 172.576C72.5598 172.432 72.8561 172.352 73.1651 172.352H240.285C240.437 172.352 240.588 172.371 240.729 172.41C240.87 172.449 240.997 172.505 241.105 172.577C241.212 172.648 241.297 172.733 241.354 172.826C241.412 172.919 241.441 173.019 241.439 173.119C241.439 173.321 241.318 173.514 241.101 173.657C240.885 173.8 240.591 173.88 240.285 173.88Z" fill="#17282F"/>
</g>
<g id="elements">
<g id="card">
<path id="Vector_2" d="M155.393 49.6237H153.878C153.825 49.6237 153.774 49.6025 153.736 49.5648C153.698 49.527 153.677 49.4758 153.677 49.4224C153.676 49.3956 153.68 49.3688 153.689 49.3437C153.699 49.3185 153.714 49.2957 153.733 49.2767C153.752 49.2577 153.774 49.243 153.8 49.2334C153.825 49.2238 153.852 49.2197 153.878 49.2212H155.393C155.42 49.2197 155.447 49.2238 155.472 49.2334C155.497 49.243 155.52 49.2577 155.539 49.2767C155.558 49.2957 155.572 49.3185 155.582 49.3437C155.592 49.3688 155.596 49.3956 155.594 49.4224C155.594 49.4758 155.573 49.527 155.535 49.5648C155.498 49.6025 155.446 49.6237 155.393 49.6237ZM152.364 49.6237H150.849C150.795 49.6238 150.742 49.6029 150.703 49.5654C150.663 49.528 150.64 49.4768 150.637 49.4224C150.637 49.3951 150.643 49.368 150.653 49.3429C150.664 49.3178 150.68 49.2951 150.7 49.2763C150.72 49.2574 150.743 49.2428 150.769 49.2334C150.794 49.2239 150.822 49.2198 150.849 49.2212H152.364C152.417 49.2212 152.468 49.2424 152.506 49.2801C152.544 49.3179 152.565 49.3691 152.565 49.4224C152.562 49.475 152.54 49.5247 152.503 49.5619C152.466 49.5991 152.416 49.6211 152.364 49.6237ZM149.324 49.6237H147.809C147.757 49.6211 147.707 49.5991 147.67 49.5619C147.633 49.5247 147.611 49.475 147.608 49.4224C147.608 49.3691 147.629 49.3179 147.667 49.2801C147.705 49.2424 147.756 49.2212 147.809 49.2212H149.324C149.351 49.2198 149.378 49.2239 149.404 49.2334C149.43 49.2428 149.453 49.2574 149.473 49.2763C149.493 49.2951 149.509 49.3178 149.519 49.3429C149.53 49.368 149.536 49.3951 149.536 49.4224C149.533 49.4768 149.509 49.528 149.47 49.5654C149.431 49.6029 149.378 49.6238 149.324 49.6237ZM146.295 49.6237H144.78C144.753 49.6237 144.727 49.6185 144.703 49.6084C144.678 49.5983 144.656 49.5834 144.638 49.5648C144.619 49.5461 144.604 49.5239 144.594 49.4995C144.584 49.475 144.579 49.4489 144.579 49.4224C144.577 49.3956 144.581 49.3688 144.591 49.3437C144.6 49.3185 144.615 49.2957 144.634 49.2767C144.653 49.2577 144.676 49.243 144.701 49.2334C144.726 49.2238 144.753 49.2197 144.78 49.2212H146.295C146.321 49.2197 146.348 49.2238 146.373 49.2334C146.398 49.243 146.421 49.2577 146.44 49.2767C146.459 49.2957 146.474 49.3185 146.484 49.3437C146.493 49.3688 146.497 49.3956 146.496 49.4224C146.496 49.4489 146.491 49.475 146.48 49.4995C146.47 49.5239 146.456 49.5461 146.437 49.5648C146.418 49.5834 146.396 49.5983 146.372 49.6084C146.347 49.6185 146.321 49.6237 146.295 49.6237ZM143.265 49.6237H141.751C141.696 49.6238 141.644 49.6029 141.604 49.5654C141.565 49.528 141.541 49.4768 141.539 49.4224C141.539 49.3951 141.544 49.368 141.555 49.3429C141.566 49.3178 141.582 49.2951 141.601 49.2763C141.621 49.2574 141.645 49.2428 141.67 49.2334C141.696 49.2239 141.723 49.2198 141.751 49.2212H143.265C143.319 49.2212 143.37 49.2424 143.408 49.2801C143.445 49.3179 143.466 49.3691 143.466 49.4224C143.464 49.475 143.442 49.5247 143.405 49.5619C143.367 49.5991 143.318 49.6211 143.265 49.6237ZM140.225 49.6237H138.711C138.658 49.6211 138.608 49.5991 138.571 49.5619C138.534 49.5247 138.512 49.475 138.509 49.4224C138.509 49.396 138.515 49.3699 138.525 49.3454C138.535 49.321 138.55 49.2988 138.568 49.2801C138.587 49.2615 138.609 49.2466 138.634 49.2365C138.658 49.2264 138.684 49.2212 138.711 49.2212H140.225C140.253 49.2198 140.28 49.2239 140.306 49.2334C140.331 49.2428 140.355 49.2574 140.375 49.2763C140.394 49.2951 140.41 49.3178 140.421 49.3429C140.432 49.368 140.437 49.3951 140.437 49.4224C140.434 49.4768 140.411 49.528 140.372 49.5654C140.332 49.6029 140.28 49.6238 140.225 49.6237ZM137.196 49.6237H135.681C135.628 49.6237 135.577 49.6025 135.539 49.5648C135.501 49.527 135.48 49.4758 135.48 49.4224C135.479 49.3956 135.483 49.3688 135.492 49.3437C135.502 49.3185 135.517 49.2957 135.536 49.2767C135.555 49.2577 135.578 49.243 135.603 49.2334C135.628 49.2238 135.655 49.2197 135.681 49.2212H137.196C137.223 49.2197 137.25 49.2238 137.275 49.2334C137.3 49.243 137.323 49.2577 137.342 49.2767C137.361 49.2957 137.376 49.3185 137.385 49.3437C137.395 49.3688 137.399 49.3956 137.397 49.4224C137.397 49.4489 137.392 49.475 137.382 49.4995C137.372 49.5239 137.357 49.5461 137.338 49.5648C137.32 49.5834 137.298 49.5983 137.273 49.6084C137.249 49.6185 137.222 49.6237 137.196 49.6237ZM134.167 49.6237H132.642C132.589 49.6211 132.539 49.5991 132.502 49.5619C132.465 49.5247 132.443 49.475 132.44 49.4224C132.44 49.396 132.445 49.3699 132.456 49.3454C132.466 49.321 132.481 49.2988 132.499 49.2801C132.518 49.2615 132.54 49.2466 132.565 49.2365C132.589 49.2264 132.615 49.2212 132.642 49.2212H134.167C134.193 49.2212 134.219 49.2264 134.244 49.2365C134.268 49.2466 134.29 49.2615 134.309 49.2801C134.328 49.2988 134.343 49.321 134.353 49.3454C134.363 49.3699 134.368 49.396 134.368 49.4224C134.365 49.475 134.343 49.5247 134.306 49.5619C134.269 49.5991 134.219 49.6211 134.167 49.6237ZM131.127 49.6237H129.612C129.56 49.6211 129.51 49.5991 129.473 49.5619C129.436 49.5247 129.414 49.475 129.411 49.4224C129.411 49.3691 129.432 49.3179 129.47 49.2801C129.508 49.2424 129.559 49.2212 129.612 49.2212H131.127C131.154 49.2197 131.181 49.2238 131.206 49.2334C131.231 49.243 131.254 49.2577 131.273 49.2767C131.292 49.2957 131.306 49.3185 131.316 49.3437C131.326 49.3688 131.33 49.3956 131.328 49.4224C131.328 49.4758 131.307 49.527 131.269 49.5648C131.231 49.6025 131.18 49.6237 131.127 49.6237ZM128.098 49.6237H126.583C126.53 49.6237 126.478 49.6025 126.441 49.5648C126.403 49.527 126.382 49.4758 126.382 49.4224C126.38 49.3956 126.384 49.3688 126.394 49.3437C126.403 49.3185 126.418 49.2957 126.437 49.2767C126.456 49.2577 126.479 49.243 126.504 49.2334C126.529 49.2238 126.556 49.2197 126.583 49.2212H128.098C128.124 49.2197 128.151 49.2238 128.176 49.2334C128.201 49.243 128.224 49.2577 128.243 49.2767C128.262 49.2957 128.277 49.3185 128.287 49.3437C128.296 49.3688 128.3 49.3956 128.299 49.4224C128.299 49.4758 128.278 49.527 128.24 49.5648C128.202 49.6025 128.151 49.6237 128.098 49.6237ZM125.068 49.6237H123.543C123.491 49.6211 123.441 49.5991 123.404 49.5619C123.366 49.5247 123.344 49.475 123.342 49.4224C123.342 49.3691 123.363 49.3179 123.401 49.2801C123.438 49.2424 123.49 49.2212 123.543 49.2212H125.068C125.122 49.2212 125.173 49.2424 125.211 49.2801C125.248 49.3179 125.27 49.3691 125.27 49.4224C125.267 49.475 125.245 49.5247 125.208 49.5619C125.171 49.5991 125.121 49.6211 125.068 49.6237ZM122.028 49.6237H120.514C120.46 49.6237 120.409 49.6025 120.371 49.5648C120.334 49.527 120.313 49.4758 120.313 49.4224C120.311 49.3956 120.315 49.3688 120.325 49.3437C120.334 49.3185 120.349 49.2957 120.368 49.2767C120.387 49.2577 120.41 49.243 120.435 49.2334C120.46 49.2238 120.487 49.2197 120.514 49.2212H122.028C122.055 49.2197 122.082 49.2238 122.107 49.2334C122.132 49.243 122.155 49.2577 122.174 49.2767C122.193 49.2957 122.208 49.3185 122.217 49.3437C122.227 49.3688 122.231 49.3956 122.23 49.4224C122.23 49.4758 122.208 49.527 122.171 49.5648C122.133 49.6025 122.082 49.6237 122.028 49.6237ZM118.999 49.6237H117.484C117.431 49.6237 117.38 49.6025 117.342 49.5648C117.304 49.527 117.283 49.4758 117.283 49.4224C117.282 49.3956 117.286 49.3688 117.295 49.3437C117.305 49.3185 117.32 49.2957 117.339 49.2767C117.358 49.2577 117.381 49.243 117.406 49.2334C117.431 49.2238 117.458 49.2197 117.484 49.2212H118.999C119.052 49.2212 119.104 49.2424 119.141 49.2801C119.179 49.3179 119.2 49.3691 119.2 49.4224C119.198 49.475 119.176 49.5247 119.139 49.5619C119.101 49.5991 119.052 49.6211 118.999 49.6237ZM115.97 49.6237H114.445C114.392 49.6211 114.342 49.5991 114.305 49.5619C114.268 49.5247 114.246 49.475 114.243 49.4224C114.243 49.3691 114.265 49.3179 114.302 49.2801C114.34 49.2424 114.391 49.2212 114.445 49.2212H115.97C116.023 49.2212 116.074 49.2424 116.112 49.2801C116.15 49.3179 116.171 49.3691 116.171 49.4224C116.168 49.475 116.146 49.5247 116.109 49.5619C116.072 49.5991 116.022 49.6211 115.97 49.6237ZM112.93 49.6237H111.415C111.362 49.6237 111.311 49.6025 111.273 49.5648C111.235 49.527 111.214 49.4758 111.214 49.4224C111.213 49.3956 111.217 49.3688 111.226 49.3437C111.236 49.3185 111.251 49.2957 111.27 49.2767C111.289 49.2577 111.311 49.243 111.336 49.2334C111.362 49.2238 111.388 49.2197 111.415 49.2212H112.93C112.957 49.2197 112.984 49.2238 113.009 49.2334C113.034 49.243 113.057 49.2577 113.076 49.2767C113.095 49.2957 113.109 49.3185 113.119 49.3437C113.129 49.3688 113.133 49.3956 113.131 49.4224C113.131 49.4758 113.11 49.527 113.072 49.5648C113.034 49.6025 112.983 49.6237 112.93 49.6237ZM109.901 49.6237H108.386C108.332 49.6238 108.279 49.6029 108.24 49.5654C108.2 49.528 108.177 49.4768 108.174 49.4224C108.174 49.3951 108.18 49.368 108.19 49.3429C108.201 49.3178 108.217 49.2951 108.237 49.2763C108.257 49.2574 108.28 49.2428 108.306 49.2334C108.331 49.2239 108.359 49.2198 108.386 49.2212H109.901C109.954 49.2212 110.005 49.2424 110.043 49.2801C110.081 49.3179 110.102 49.3691 110.102 49.4224C110.099 49.475 110.077 49.5247 110.04 49.5619C110.003 49.5991 109.953 49.6211 109.901 49.6237ZM106.861 49.6237H105.346C105.294 49.6211 105.244 49.5991 105.207 49.5619C105.169 49.5247 105.147 49.475 105.145 49.4224C105.145 49.3691 105.166 49.3179 105.204 49.2801C105.242 49.2424 105.293 49.2212 105.346 49.2212H106.861C106.888 49.2198 106.915 49.2239 106.941 49.2334C106.967 49.2428 106.99 49.2574 107.01 49.2763C107.03 49.2951 107.046 49.3178 107.056 49.3429C107.067 49.368 107.073 49.3951 107.073 49.4224C107.07 49.4768 107.046 49.528 107.007 49.5654C106.967 49.6029 106.915 49.6238 106.861 49.6237ZM103.831 49.6237H102.317C102.263 49.6237 102.212 49.6025 102.175 49.5648C102.137 49.527 102.116 49.4758 102.116 49.4224C102.114 49.3956 102.118 49.3688 102.128 49.3437C102.137 49.3185 102.152 49.2957 102.171 49.2767C102.19 49.2577 102.213 49.243 102.238 49.2334C102.263 49.2238 102.29 49.2197 102.317 49.2212H103.831C103.858 49.2197 103.885 49.2238 103.91 49.2334C103.935 49.243 103.958 49.2577 103.977 49.2767C103.996 49.2957 104.011 49.3185 104.021 49.3437C104.03 49.3688 104.034 49.3956 104.033 49.4224C104.033 49.4758 104.012 49.527 103.974 49.5648C103.936 49.6025 103.885 49.6237 103.831 49.6237ZM100.802 49.6237H100.548C100.074 49.6236 99.6161 49.4546 99.2557 49.1471C99.215 49.1119 99.1899 49.0621 99.1859 49.0085C99.1819 48.9548 99.1994 48.9018 99.2346 48.8611C99.2697 48.8203 99.3195 48.7952 99.3732 48.7913C99.4268 48.7873 99.4798 48.8048 99.5205 48.8399C99.8065 49.0856 100.171 49.2209 100.548 49.2212H100.802C100.856 49.2212 100.907 49.2424 100.944 49.2801C100.982 49.3179 101.003 49.3691 101.003 49.4224C101.001 49.475 100.979 49.5247 100.942 49.5619C100.904 49.5991 100.855 49.6211 100.802 49.6237ZM156.834 49.2636C156.802 49.2636 156.771 49.2559 156.743 49.2411C156.716 49.2264 156.692 49.205 156.675 49.1788C156.658 49.159 156.645 49.1359 156.638 49.111C156.631 49.0862 156.628 49.0601 156.631 49.0343C156.634 49.0085 156.642 48.9836 156.655 48.9611C156.668 48.9386 156.686 48.919 156.706 48.9034C156.885 48.7708 157.031 48.5984 157.132 48.4C157.233 48.2015 157.287 47.9822 157.289 47.7595C157.289 47.7061 157.31 47.6549 157.348 47.6172C157.386 47.5795 157.437 47.5583 157.49 47.5583H157.501C157.554 47.5583 157.605 47.5795 157.643 47.6172C157.681 47.6549 157.702 47.7061 157.702 47.7595C157.701 48.0452 157.632 48.3265 157.501 48.5806C157.371 48.8346 157.182 49.0541 156.95 49.2212C156.934 49.2357 156.916 49.2469 156.896 49.2542C156.876 49.2615 156.855 49.2647 156.834 49.2636ZM98.8109 47.8548C98.7565 47.8549 98.7042 47.8341 98.6647 47.7966C98.6253 47.7591 98.6018 47.7079 98.599 47.6536V46.1284C98.6018 46.074 98.6253 46.0228 98.6647 45.9854C98.7042 45.9479 98.7565 45.927 98.8109 45.9271C98.8634 45.9297 98.9131 45.9517 98.9503 45.9889C98.9875 46.0261 99.0096 46.0758 99.0121 46.1284V47.6536C99.0096 47.7061 98.9875 47.7558 98.9503 47.793C98.9131 47.8302 98.8634 47.8523 98.8109 47.8548ZM157.49 46.4461C157.438 46.4435 157.388 46.4215 157.351 46.3843C157.314 46.3471 157.292 46.2974 157.289 46.2449V44.7196C157.292 44.6671 157.314 44.6174 157.351 44.5802C157.388 44.543 157.438 44.5209 157.49 44.5184C157.545 44.5183 157.597 44.5392 157.636 44.5766C157.676 44.6141 157.699 44.6653 157.702 44.7196V46.2449C157.699 46.2992 157.676 46.3504 157.636 46.3879C157.597 46.4253 157.545 46.4462 157.49 46.4461ZM98.8109 44.815C98.7836 44.8164 98.7563 44.8123 98.7306 44.8028C98.705 44.7933 98.6815 44.7787 98.6617 44.7599C98.6419 44.7411 98.6261 44.7184 98.6153 44.6932C98.6045 44.6681 98.599 44.641 98.599 44.6137V43.0991C98.6018 43.0447 98.6253 42.9935 98.6647 42.9561C98.7042 42.9186 98.7565 42.8977 98.8109 42.8978C98.8634 42.9004 98.9131 42.9224 98.9503 42.9596C98.9875 42.9968 99.0096 43.0465 99.0121 43.0991V44.6137C99.0121 44.6401 99.0069 44.6663 98.9968 44.6907C98.9867 44.7151 98.9719 44.7373 98.9532 44.756C98.9345 44.7747 98.9123 44.7895 98.8879 44.7996C98.8635 44.8097 98.8373 44.815 98.8109 44.815ZM157.49 43.4062C157.437 43.4062 157.386 43.385 157.348 43.3473C157.31 43.3095 157.289 43.2584 157.289 43.205V41.6903C157.292 41.6378 157.314 41.5881 157.351 41.5509C157.388 41.5137 157.438 41.4917 157.49 41.4891C157.545 41.489 157.597 41.5099 157.636 41.5473C157.676 41.5848 157.699 41.636 157.702 41.6903V43.205C157.702 43.2323 157.697 43.2594 157.686 43.2845C157.675 43.3097 157.659 43.3323 157.639 43.3512C157.62 43.37 157.596 43.3846 157.57 43.3941C157.545 43.4035 157.518 43.4077 157.49 43.4062ZM98.8109 41.7857C98.7836 41.7871 98.7563 41.783 98.7306 41.7735C98.705 41.764 98.6815 41.7494 98.6617 41.7306C98.6419 41.7118 98.6261 41.6891 98.6153 41.664C98.6045 41.6388 98.599 41.6118 98.599 41.5844V40.0698C98.599 40.0424 98.6045 40.0154 98.6153 39.9902C98.6261 39.9651 98.6419 39.9424 98.6617 39.9236C98.6815 39.9048 98.705 39.8902 98.7306 39.8807C98.7563 39.8712 98.7836 39.8671 98.8109 39.8685C98.8643 39.8685 98.9154 39.8897 98.9532 39.9275C98.9909 39.9652 99.0121 40.0164 99.0121 40.0698V41.5844C99.0121 41.6378 98.9909 41.689 98.9532 41.7267C98.9154 41.7645 98.8643 41.7857 98.8109 41.7857ZM157.49 40.3769C157.437 40.3769 157.386 40.3557 157.348 40.318C157.31 40.2803 157.289 40.2291 157.289 40.1757V38.661C157.289 38.6077 157.31 38.5565 157.348 38.5187C157.386 38.481 157.437 38.4598 157.49 38.4598C157.518 38.4584 157.545 38.4625 157.57 38.472C157.596 38.4814 157.62 38.496 157.639 38.5149C157.659 38.5337 157.675 38.5564 157.686 38.5815C157.697 38.6066 157.702 38.6337 157.702 38.661V40.1757C157.702 40.203 157.697 40.2301 157.686 40.2552C157.675 40.2804 157.659 40.303 157.639 40.3219C157.62 40.3407 157.596 40.3553 157.57 40.3648C157.545 40.3742 157.518 40.3784 157.49 40.3769ZM98.8109 38.7564C98.7565 38.7564 98.7042 38.7356 98.6647 38.6981C98.6253 38.6606 98.6018 38.6094 98.599 38.5551V37.0299C98.6018 36.9756 98.6253 36.9244 98.6647 36.8869C98.7042 36.8494 98.7565 36.8286 98.8109 36.8286C98.8634 36.8312 98.9131 36.8532 98.9503 36.8904C98.9875 36.9276 99.0096 36.9773 99.0121 37.0299V38.5551C99.0096 38.6077 98.9875 38.6574 98.9503 38.6946C98.9131 38.7318 98.8634 38.7538 98.8109 38.7564ZM157.49 37.3476C157.438 37.3451 157.388 37.323 157.351 37.2858C157.314 37.2486 157.292 37.1989 157.289 37.1464V35.6212C157.292 35.5686 157.314 35.5189 157.351 35.4817C157.388 35.4445 157.438 35.4225 157.49 35.4199C157.545 35.4198 157.597 35.4407 157.636 35.4782C157.676 35.5156 157.699 35.5668 157.702 35.6212V37.1464C157.699 37.2007 157.676 37.2519 157.636 37.2894C157.597 37.3268 157.545 37.3477 157.49 37.3476ZM98.8109 35.7165C98.7836 35.7179 98.7563 35.7138 98.7306 35.7043C98.705 35.6948 98.6815 35.6803 98.6617 35.6614C98.6419 35.6426 98.6261 35.6199 98.6153 35.5948C98.6045 35.5696 98.599 35.5426 98.599 35.5152V34.0006C98.599 33.9732 98.6045 33.9462 98.6153 33.921C98.6261 33.8959 98.6419 33.8732 98.6617 33.8544C98.6815 33.8356 98.705 33.821 98.7306 33.8115C98.7563 33.802 98.7836 33.7979 98.8109 33.7993C98.8643 33.7993 98.9154 33.8205 98.9532 33.8583C98.9909 33.896 99.0121 33.9472 99.0121 34.0006V35.5152C99.0121 35.5686 98.9909 35.6198 98.9532 35.6575C98.9154 35.6953 98.8643 35.7165 98.8109 35.7165ZM157.49 34.3078C157.437 34.3078 157.386 34.2866 157.348 34.2488C157.31 34.2111 157.289 34.1599 157.289 34.1065V32.5919C157.289 32.5385 157.31 32.4873 157.348 32.4496C157.386 32.4118 157.437 32.3906 157.49 32.3906C157.518 32.3892 157.545 32.3933 157.57 32.4028C157.596 32.4122 157.62 32.4268 157.639 32.4457C157.659 32.4645 157.675 32.4872 157.686 32.5123C157.697 32.5375 157.702 32.5645 157.702 32.5919V34.1065C157.702 34.1339 157.697 34.1609 157.686 34.186C157.675 34.2112 157.659 34.2339 157.639 34.2527C157.62 34.2715 157.596 34.2861 157.57 34.2956C157.545 34.3051 157.518 34.3092 157.49 34.3078ZM98.8109 32.6872C98.7565 32.6873 98.7042 32.6664 98.6647 32.6289C98.6253 32.5915 98.6018 32.5403 98.599 32.4859V30.9713C98.599 30.9439 98.6045 30.9169 98.6153 30.8917C98.6261 30.8666 98.6419 30.8439 98.6617 30.8251C98.6815 30.8063 98.705 30.7917 98.7306 30.7822C98.7563 30.7727 98.7836 30.7686 98.8109 30.77C98.8643 30.77 98.9154 30.7912 98.9532 30.829C98.9909 30.8667 99.0121 30.9179 99.0121 30.9713V32.4859C99.0096 32.5385 98.9875 32.5882 98.9503 32.6254C98.9131 32.6626 98.8634 32.6846 98.8109 32.6872ZM157.49 31.2785C157.438 31.2759 157.388 31.2539 157.351 31.2167C157.314 31.1795 157.292 31.1298 157.289 31.0772V29.5626C157.289 29.5092 157.31 29.458 157.348 29.4203C157.386 29.3825 157.437 29.3613 157.49 29.3613C157.518 29.3599 157.545 29.364 157.57 29.3735C157.596 29.383 157.62 29.3976 157.639 29.4164C157.659 29.4352 157.675 29.4579 157.686 29.483C157.697 29.5082 157.702 29.5352 157.702 29.5626V31.0772C157.699 31.1315 157.676 31.1827 157.636 31.2202C157.597 31.2577 157.545 31.2785 157.49 31.2785ZM98.8109 29.6579C98.7565 29.658 98.7042 29.6371 98.6647 29.5996C98.6253 29.5622 98.6018 29.511 98.599 29.4566V27.9314C98.6018 27.8771 98.6253 27.8259 98.6647 27.7884C98.7042 27.751 98.7565 27.7301 98.8109 27.7302C98.8634 27.7327 98.9131 27.7548 98.9503 27.792C98.9875 27.8292 99.0096 27.8789 99.0121 27.9314V29.4566C99.0096 29.5092 98.9875 29.5589 98.9503 29.5961C98.9131 29.6333 98.8634 29.6553 98.8109 29.6579ZM157.49 28.2492C157.438 28.2466 157.388 28.2246 157.351 28.1874C157.314 28.1502 157.292 28.1005 157.289 28.0479V26.5227C157.292 26.4701 157.314 26.4204 157.351 26.3832C157.388 26.346 157.438 26.324 157.49 26.3214C157.545 26.3214 157.597 26.3422 157.636 26.3797C157.676 26.4172 157.699 26.4684 157.702 26.5227V28.0479C157.699 28.1022 157.676 28.1534 157.636 28.1909C157.597 28.2284 157.545 28.2492 157.49 28.2492ZM98.8109 26.618C98.7836 26.6194 98.7563 26.6153 98.7306 26.6058C98.705 26.5964 98.6815 26.5818 98.6617 26.5629C98.6419 26.5441 98.6261 26.5214 98.6153 26.4963C98.6045 26.4712 98.599 26.4441 98.599 26.4168V24.9021C98.599 24.8748 98.6045 24.8477 98.6153 24.8226C98.6261 24.7974 98.6419 24.7748 98.6617 24.7559C98.6815 24.7371 98.705 24.7225 98.7306 24.713C98.7563 24.7036 98.7836 24.6994 98.8109 24.7009C98.8643 24.7009 98.9154 24.7221 98.9532 24.7598C98.9909 24.7976 99.0121 24.8487 99.0121 24.9021V26.4168C99.0121 26.4701 98.9909 26.5213 98.9532 26.5591C98.9154 26.5968 98.8643 26.618 98.8109 26.618ZM157.49 25.2093C157.437 25.2093 157.386 25.1881 157.348 25.1503C157.31 25.1126 157.289 25.0614 157.289 25.008V23.4934C157.289 23.44 157.31 23.3888 157.348 23.3511C157.386 23.3133 157.437 23.2921 157.49 23.2921C157.518 23.2907 157.545 23.2948 157.57 23.3043C157.596 23.3138 157.62 23.3284 157.639 23.3472C157.659 23.366 157.675 23.3887 157.686 23.4138C157.697 23.439 157.702 23.466 157.702 23.4934V25.008C157.702 25.0354 157.697 25.0624 157.686 25.0876C157.675 25.1127 157.659 25.1354 157.639 25.1542C157.62 25.173 157.596 25.1876 157.57 25.1971C157.545 25.2066 157.518 25.2107 157.49 25.2093ZM98.8109 23.5887C98.7565 23.5888 98.7042 23.5679 98.6647 23.5305C98.6253 23.493 98.6018 23.4418 98.599 23.3875V21.8728C98.592 21.8418 98.592 21.8096 98.5991 21.7786C98.6062 21.7475 98.6201 21.7185 98.64 21.6936C98.6598 21.6688 98.685 21.6487 98.7137 21.6349C98.7424 21.6211 98.7738 21.6139 98.8056 21.6139C98.8374 21.6139 98.8688 21.6211 98.8975 21.6349C98.9262 21.6487 98.9513 21.6688 98.9712 21.6936C98.991 21.7185 99.005 21.7475 99.0121 21.7786C99.0192 21.8096 99.0192 21.8418 99.0121 21.8728V23.3875C99.0096 23.44 98.9875 23.4897 98.9503 23.5269C98.9131 23.5641 98.8634 23.5861 98.8109 23.5887ZM157.49 22.18C157.438 22.1774 157.388 22.1554 157.351 22.1182C157.314 22.081 157.292 22.0313 157.289 21.9787V20.4641C157.282 20.4331 157.282 20.4009 157.289 20.3698C157.296 20.3388 157.31 20.3098 157.33 20.2849C157.35 20.26 157.375 20.24 157.404 20.2262C157.432 20.2123 157.464 20.2052 157.496 20.2052C157.527 20.2052 157.559 20.2123 157.587 20.2262C157.616 20.24 157.641 20.26 157.661 20.2849C157.681 20.3098 157.695 20.3388 157.702 20.3698C157.709 20.4009 157.709 20.4331 157.702 20.4641V21.9787C157.699 22.0331 157.676 22.0843 157.636 22.1217C157.597 22.1592 157.545 22.1801 157.49 22.18ZM98.8109 20.5594C98.7547 20.5594 98.7008 20.5371 98.6611 20.4974C98.6214 20.4576 98.599 20.4038 98.599 20.3476V18.8329C98.6018 18.7786 98.6253 18.7274 98.6647 18.6899C98.7042 18.6525 98.7565 18.6316 98.8109 18.6317C98.8643 18.6317 98.9154 18.6529 98.9532 18.6906C98.9909 18.7284 99.0121 18.7796 99.0121 18.8329V20.3476C99.0122 20.402 98.9913 20.4543 98.9539 20.4937C98.9164 20.5332 98.8652 20.5567 98.8109 20.5594ZM157.49 19.1507C157.436 19.148 157.385 19.1245 157.347 19.085C157.31 19.0456 157.289 18.9932 157.289 18.9389V18.8329C157.288 18.6277 157.244 18.4249 157.158 18.2385C157.072 18.0521 156.947 17.8864 156.791 17.7526C156.771 17.7352 156.754 17.714 156.742 17.6902C156.73 17.6664 156.723 17.6405 156.721 17.614C156.719 17.5874 156.723 17.5607 156.731 17.5354C156.739 17.5101 156.753 17.4867 156.77 17.4666C156.787 17.4464 156.809 17.4299 156.832 17.4179C156.856 17.4059 156.882 17.3987 156.909 17.3968C156.935 17.3948 156.962 17.3981 156.987 17.4064C157.012 17.4148 157.036 17.428 157.056 17.4454C157.256 17.6173 157.417 17.8301 157.529 18.0694C157.64 18.3087 157.699 18.569 157.702 18.8329V18.9389C157.702 18.995 157.68 19.0489 157.64 19.0886C157.6 19.1284 157.546 19.1507 157.49 19.1507ZM99.4676 17.7314C99.4367 17.7291 99.4065 17.7204 99.3792 17.7058C99.3518 17.6912 99.3278 17.6711 99.3087 17.6466C99.2923 17.6252 99.2803 17.6008 99.2736 17.5747C99.2668 17.5485 99.2654 17.5214 99.2693 17.4947C99.2733 17.468 99.2825 17.4424 99.2966 17.4194C99.3106 17.3963 99.3292 17.3764 99.3511 17.3607C99.6982 17.106 100.117 16.9687 100.548 16.9688H100.908C100.961 16.9688 101.013 16.99 101.05 17.0277C101.088 17.0654 101.109 17.1166 101.109 17.17C101.109 17.2234 101.088 17.2746 101.05 17.3123C101.013 17.35 100.961 17.3712 100.908 17.3712H100.548C100.204 17.3681 99.8682 17.4799 99.5947 17.689C99.5593 17.719 99.5138 17.7341 99.4676 17.7314ZM155.51 17.3712H153.984C153.931 17.3712 153.88 17.35 153.842 17.3123C153.804 17.2746 153.783 17.2234 153.783 17.17C153.783 17.1166 153.804 17.0654 153.842 17.0277C153.88 16.99 153.931 16.9688 153.984 16.9688H155.51C155.563 16.9688 155.614 16.99 155.652 17.0277C155.69 17.0654 155.711 17.1166 155.711 17.17C155.711 17.2234 155.69 17.2746 155.652 17.3123C155.614 17.35 155.563 17.3712 155.51 17.3712ZM152.47 17.3712H150.955C150.902 17.3712 150.85 17.35 150.813 17.3123C150.775 17.2746 150.754 17.2234 150.754 17.17C150.754 17.1166 150.775 17.0654 150.813 17.0277C150.85 16.99 150.902 16.9688 150.955 16.9688H152.47C152.523 16.9688 152.574 16.99 152.612 17.0277C152.65 17.0654 152.671 17.1166 152.671 17.17C152.671 17.2234 152.65 17.2746 152.612 17.3123C152.574 17.35 152.523 17.3712 152.47 17.3712ZM149.44 17.3712H147.926C147.872 17.3712 147.821 17.35 147.783 17.3123C147.746 17.2746 147.724 17.2234 147.724 17.17C147.724 17.1166 147.746 17.0654 147.783 17.0277C147.821 16.99 147.872 16.9688 147.926 16.9688H149.44C149.494 16.9688 149.545 16.99 149.583 17.0277C149.62 17.0654 149.642 17.1166 149.642 17.17C149.642 17.2234 149.62 17.2746 149.583 17.3123C149.545 17.35 149.494 17.3712 149.44 17.3712ZM146.411 17.3712H144.886C144.832 17.3712 144.781 17.35 144.744 17.3123C144.706 17.2746 144.685 17.2234 144.685 17.17C144.685 17.1166 144.706 17.0654 144.744 17.0277C144.781 16.99 144.832 16.9688 144.886 16.9688H146.411C146.464 16.9688 146.516 16.99 146.553 17.0277C146.591 17.0654 146.612 17.1166 146.612 17.17C146.612 17.2234 146.591 17.2746 146.553 17.3123C146.516 17.35 146.464 17.3712 146.411 17.3712ZM143.371 17.3712H141.857C141.803 17.3712 141.752 17.35 141.714 17.3123C141.676 17.2746 141.655 17.2234 141.655 17.17C141.655 17.1166 141.676 17.0654 141.714 17.0277C141.752 16.99 141.803 16.9688 141.857 16.9688H143.371C143.425 16.9688 143.476 16.99 143.513 17.0277C143.551 17.0654 143.572 17.1166 143.572 17.17C143.572 17.2234 143.551 17.2746 143.513 17.3123C143.476 17.35 143.425 17.3712 143.371 17.3712ZM140.342 17.3712H138.827C138.774 17.3712 138.723 17.35 138.685 17.3123C138.647 17.2746 138.626 17.2234 138.626 17.17C138.626 17.1166 138.647 17.0654 138.685 17.0277C138.723 16.99 138.774 16.9688 138.827 16.9688H140.342C140.395 16.9688 140.446 16.99 140.484 17.0277C140.522 17.0654 140.543 17.1166 140.543 17.17C140.543 17.2234 140.522 17.2746 140.484 17.3123C140.446 17.35 140.395 17.3712 140.342 17.3712ZM137.313 17.3712H135.787C135.734 17.3712 135.683 17.35 135.645 17.3123C135.607 17.2746 135.586 17.2234 135.586 17.17C135.586 17.1166 135.607 17.0654 135.645 17.0277C135.683 16.99 135.734 16.9688 135.787 16.9688H137.313C137.366 16.9688 137.417 16.99 137.455 17.0277C137.493 17.0654 137.514 17.1166 137.514 17.17C137.514 17.2234 137.493 17.2746 137.455 17.3123C137.417 17.35 137.366 17.3712 137.313 17.3712ZM134.273 17.3712H132.758C132.705 17.3712 132.653 17.35 132.616 17.3123C132.578 17.2746 132.557 17.2234 132.557 17.17C132.557 17.1166 132.578 17.0654 132.616 17.0277C132.653 16.99 132.705 16.9688 132.758 16.9688H134.273C134.326 16.9688 134.377 16.99 134.415 17.0277C134.453 17.0654 134.474 17.1166 134.474 17.17C134.474 17.2234 134.453 17.2746 134.415 17.3123C134.377 17.35 134.326 17.3712 134.273 17.3712ZM131.243 17.3712H129.729C129.675 17.3712 129.624 17.35 129.586 17.3123C129.549 17.2746 129.527 17.2234 129.527 17.17C129.527 17.1166 129.549 17.0654 129.586 17.0277C129.624 16.99 129.675 16.9688 129.729 16.9688H131.243C131.297 16.9688 131.348 16.99 131.386 17.0277C131.423 17.0654 131.445 17.1166 131.445 17.17C131.445 17.2234 131.423 17.2746 131.386 17.3123C131.348 17.35 131.297 17.3712 131.243 17.3712ZM128.204 17.3712H126.689C126.635 17.3712 126.584 17.35 126.547 17.3123C126.509 17.2746 126.488 17.2234 126.488 17.17C126.488 17.1166 126.509 17.0654 126.547 17.0277C126.584 16.99 126.635 16.9688 126.689 16.9688H128.204C128.257 16.9688 128.308 16.99 128.346 17.0277C128.384 17.0654 128.405 17.1166 128.405 17.17C128.405 17.2234 128.384 17.2746 128.346 17.3123C128.308 17.35 128.257 17.3712 128.204 17.3712ZM125.174 17.3712H123.66C123.606 17.3712 123.555 17.35 123.517 17.3123C123.48 17.2746 123.458 17.2234 123.458 17.17C123.458 17.1166 123.48 17.0654 123.517 17.0277C123.555 16.99 123.606 16.9688 123.66 16.9688H125.174C125.228 16.9688 125.279 16.99 125.317 17.0277C125.354 17.0654 125.375 17.1166 125.375 17.17C125.375 17.2234 125.354 17.2746 125.317 17.3123C125.279 17.35 125.228 17.3712 125.174 17.3712ZM122.145 17.3712H120.63C120.577 17.3712 120.526 17.35 120.488 17.3123C120.45 17.2746 120.429 17.2234 120.429 17.17C120.429 17.1166 120.45 17.0654 120.488 17.0277C120.526 16.99 120.577 16.9688 120.63 16.9688H122.145C122.198 16.9688 122.249 16.99 122.287 17.0277C122.325 17.0654 122.346 17.1166 122.346 17.17C122.346 17.2234 122.325 17.2746 122.287 17.3123C122.249 17.35 122.198 17.3712 122.145 17.3712ZM119.105 17.3712H117.59C117.537 17.3712 117.486 17.35 117.448 17.3123C117.41 17.2746 117.389 17.2234 117.389 17.17C117.389 17.1166 117.41 17.0654 117.448 17.0277C117.486 16.99 117.537 16.9688 117.59 16.9688H119.105C119.158 16.9688 119.21 16.99 119.247 17.0277C119.285 17.0654 119.306 17.1166 119.306 17.17C119.306 17.2234 119.285 17.2746 119.247 17.3123C119.21 17.35 119.158 17.3712 119.105 17.3712ZM116.076 17.3712H114.561C114.508 17.3712 114.457 17.35 114.419 17.3123C114.381 17.2746 114.36 17.2234 114.36 17.17C114.36 17.1166 114.381 17.0654 114.419 17.0277C114.457 16.99 114.508 16.9688 114.561 16.9688H116.076C116.129 16.9688 116.18 16.99 116.218 17.0277C116.256 17.0654 116.277 17.1166 116.277 17.17C116.277 17.2234 116.256 17.2746 116.218 17.3123C116.18 17.35 116.129 17.3712 116.076 17.3712ZM113.046 17.3712H111.532C111.478 17.3712 111.427 17.35 111.389 17.3123C111.352 17.2746 111.331 17.2234 111.331 17.17C111.331 17.1166 111.352 17.0654 111.389 17.0277C111.427 16.99 111.478 16.9688 111.532 16.9688H113.046C113.1 16.9688 113.151 16.99 113.189 17.0277C113.226 17.0654 113.248 17.1166 113.248 17.17C113.248 17.2234 113.226 17.2746 113.189 17.3123C113.151 17.35 113.1 17.3712 113.046 17.3712ZM110.007 17.3712H108.492C108.439 17.3712 108.387 17.35 108.35 17.3123C108.312 17.2746 108.291 17.2234 108.291 17.17C108.291 17.1166 108.312 17.0654 108.35 17.0277C108.387 16.99 108.439 16.9688 108.492 16.9688H110.007C110.06 16.9688 110.111 16.99 110.149 17.0277C110.187 17.0654 110.208 17.1166 110.208 17.17C110.208 17.2234 110.187 17.2746 110.149 17.3123C110.111 17.35 110.06 17.3712 110.007 17.3712ZM106.977 17.3712H105.463C105.409 17.3712 105.358 17.35 105.32 17.3123C105.283 17.2746 105.261 17.2234 105.261 17.17C105.261 17.1166 105.283 17.0654 105.32 17.0277C105.358 16.99 105.409 16.9688 105.463 16.9688H106.977C107.031 16.9688 107.082 16.99 107.12 17.0277C107.157 17.0654 107.179 17.1166 107.179 17.17C107.179 17.2234 107.157 17.2746 107.12 17.3123C107.082 17.35 107.031 17.3712 106.977 17.3712ZM103.948 17.3712H102.423C102.369 17.3712 102.318 17.35 102.28 17.3123C102.243 17.2746 102.221 17.2234 102.221 17.17C102.221 17.1166 102.243 17.0654 102.28 17.0277C102.318 16.99 102.369 16.9688 102.423 16.9688H103.948C104.001 16.9688 104.053 16.99 104.09 17.0277C104.128 17.0654 104.149 17.1166 104.149 17.17C104.149 17.2234 104.128 17.2746 104.09 17.3123C104.053 17.35 104.001 17.3712 103.948 17.3712Z" fill="#C0DAFF"/>
<path id="Vector_3" d="M159.607 44.7098H105.694C105.424 44.7112 105.155 44.6591 104.905 44.5564C104.654 44.4538 104.426 44.3027 104.234 44.1117C104.043 43.9208 103.89 43.6938 103.786 43.4438C103.682 43.1938 103.629 42.9257 103.629 42.655V12.0549C103.629 11.7841 103.682 11.5161 103.786 11.2661C103.89 11.0161 104.043 10.7891 104.234 10.5981C104.426 10.4072 104.654 10.256 104.905 10.1534C105.155 10.0508 105.424 9.99863 105.694 10H159.607C160.152 10 160.675 10.2165 161.06 10.6019C161.446 10.9872 161.662 11.5099 161.662 12.0549V42.655C161.662 43.1999 161.446 43.7226 161.06 44.108C160.675 44.4933 160.152 44.7098 159.607 44.7098Z" fill="#71A92A"/>
<path id="Vector_4" d="M161.652 16.5547H103.629V22.5434H161.652V16.5547Z" fill="#A8FE3B"/>
<path id="Vector_5" d="M116.922 38.0469H108.395C108.134 38.0469 107.883 38.1507 107.699 38.3355C107.514 38.5202 107.41 38.7707 107.41 39.032C107.413 39.2914 107.518 39.5392 107.702 39.7217C107.887 39.9041 108.136 40.0065 108.395 40.0064H116.922C117.051 40.0078 117.178 39.9837 117.298 39.9353C117.417 39.887 117.526 39.8154 117.618 39.7248C117.709 39.6342 117.782 39.5263 117.832 39.4074C117.881 39.2884 117.907 39.1609 117.907 39.032C117.908 38.9022 117.884 38.7735 117.835 38.6534C117.786 38.5332 117.713 38.424 117.621 38.3323C117.53 38.2405 117.42 38.168 117.3 38.119C117.18 38.07 117.051 38.0455 116.922 38.0469Z" fill="#B7E181"/>
<path id="Vector_6" d="M130.047 38.0469H121.52C121.391 38.0455 121.262 38.07 121.142 38.119C121.021 38.168 120.912 38.2405 120.821 38.3323C120.729 38.424 120.656 38.5332 120.607 38.6534C120.558 38.7735 120.534 38.9022 120.535 39.032C120.535 39.1609 120.561 39.2884 120.61 39.4074C120.66 39.5263 120.733 39.6342 120.824 39.7248C120.916 39.8154 121.025 39.887 121.144 39.9353C121.264 39.9837 121.391 40.0078 121.52 40.0064H130.047C130.306 40.0065 130.555 39.9041 130.74 39.7217C130.924 39.5392 131.029 39.2914 131.032 39.032C131.032 38.7707 130.928 38.5202 130.743 38.3355C130.559 38.1507 130.308 38.0469 130.047 38.0469Z" fill="#B7E181"/>
<path id="Vector_7" d="M143.168 38.0469H134.631C134.502 38.0469 134.374 38.0724 134.255 38.1221C134.136 38.1717 134.029 38.2444 133.938 38.336C133.847 38.4276 133.776 38.5363 133.727 38.6558C133.679 38.7752 133.655 38.9031 133.656 39.0319C133.656 39.2904 133.759 39.5382 133.942 39.721C134.124 39.9037 134.372 40.0064 134.631 40.0064H143.168C143.427 40.0064 143.676 39.9041 143.861 39.7216C144.045 39.5392 144.15 39.2913 144.153 39.0319C144.153 38.7707 144.049 38.5201 143.864 38.3354C143.68 38.1507 143.429 38.0469 143.168 38.0469Z" fill="#B7E181"/>
<path id="Vector_8" d="M156.292 38.0469H147.755C147.493 38.0469 147.243 38.1507 147.058 38.3354C146.873 38.5201 146.77 38.7707 146.77 39.0319C146.772 39.2913 146.877 39.5392 147.062 39.7216C147.246 39.9041 147.495 40.0064 147.755 40.0064H156.292C156.55 40.0064 156.798 39.9037 156.981 39.721C157.163 39.5382 157.266 39.2904 157.266 39.0319C157.268 38.9031 157.243 38.7752 157.195 38.6558C157.147 38.5363 157.075 38.4276 156.985 38.336C156.894 38.2444 156.786 38.1717 156.667 38.1221C156.548 38.0724 156.421 38.0469 156.292 38.0469Z" fill="#B7E181"/>
<path id="Vector_9" d="M108.005 11.7696C107.862 11.7682 107.721 11.7951 107.588 11.8488C107.456 11.9024 107.336 11.9818 107.234 12.0822C107.133 12.1827 107.052 12.3023 106.997 12.4341C106.942 12.5658 106.914 12.7072 106.914 12.85V13.2313C106.917 13.5188 107.033 13.7936 107.237 13.9959C107.442 14.1982 107.718 14.3117 108.005 14.3116C108.292 14.3116 108.566 14.1978 108.769 13.9952C108.972 13.7926 109.085 13.5178 109.085 13.2313V12.85C109.085 12.5634 108.972 12.2886 108.769 12.086C108.566 11.8834 108.292 11.7696 108.005 11.7696Z" fill="#B7E181"/>
<path id="Vector_10" d="M110.336 13.0406C110.339 13.3787 110.475 13.7019 110.715 13.94C110.955 14.1781 111.279 14.3117 111.618 14.3116H116.13C116.467 14.3116 116.79 14.1777 117.028 13.9394C117.267 13.701 117.401 13.3777 117.401 13.0406C117.401 12.7035 117.267 12.3802 117.028 12.1419C116.79 11.9035 116.467 11.7696 116.13 11.7696H111.618C111.45 11.7682 111.283 11.8 111.128 11.8633C110.972 11.9265 110.831 12.0199 110.712 12.1381C110.593 12.2563 110.498 12.3968 110.434 12.5517C110.369 12.7066 110.336 12.8728 110.336 13.0406Z" fill="#B7E181"/>
<path id="Vector_11" d="M115.567 25.7617H109.742C108.806 25.7617 108.047 26.5205 108.047 27.4564V32.4812C108.047 33.4172 108.806 34.176 109.742 34.176H115.567C116.503 34.176 117.262 33.4172 117.262 32.4812V27.4564C117.262 26.5205 116.503 25.7617 115.567 25.7617Z" fill="#FF9F34"/>
</g>
<g id="Gear">
<path id="Vector_12" d="M223.088 37.6356C223.747 35.026 223.884 32.3119 223.49 29.6492L224.306 29.5327L225.937 29.2891H225.948C225.515 26.3496 224.507 23.5243 222.982 20.9745L220.853 22.2561C219.473 19.9431 217.647 17.927 215.483 16.3246L216.966 14.3227C214.581 12.5483 211.871 11.2599 208.99 10.5308L208.375 12.9564C205.767 12.2876 203.051 12.1507 200.389 12.5539L200.018 10.0859C197.08 10.5217 194.255 11.5292 191.704 13.0517L192.975 15.1913C190.659 16.5676 188.642 18.3935 187.043 20.5614L185.041 19.0679C183.268 21.4555 181.983 24.1694 181.26 27.0542L183.675 27.6686C183.011 30.2774 182.874 32.9925 183.273 35.6549L181.525 35.9091L180.815 36.0256H180.805C181.247 38.9626 182.254 41.7861 183.77 44.3403L185.91 43.0586C187.294 45.3722 189.122 47.3883 191.291 48.9901L189.808 50.992C192.187 52.7683 194.894 54.0569 197.773 54.7839L198.387 52.3584C200.999 53.0255 203.718 53.1659 206.384 52.7714L206.67 54.678L206.755 55.2288C209.69 54.7912 212.511 53.7837 215.059 52.263L213.788 50.1235C216.101 48.7439 218.117 46.9185 219.719 44.7534L221.732 46.2362C223.498 43.8494 224.779 41.1398 225.503 38.2605L223.088 37.6356ZM200.665 43.3446C198.552 42.8071 196.646 41.6554 195.188 40.0351C193.729 38.4148 192.784 36.3986 192.471 34.2413C192.158 32.0839 192.492 29.8822 193.43 27.9144C194.368 25.9466 195.868 24.301 197.741 23.1855C199.614 22.0701 201.776 21.5348 203.953 21.6474C206.13 21.7599 208.225 22.5153 209.972 23.818C211.72 25.1207 213.043 26.9122 213.773 28.9663C214.503 31.0203 214.608 33.2447 214.074 35.3583C213.355 38.1955 211.538 40.6307 209.023 42.1284C206.508 43.6261 203.502 44.0636 200.665 43.3446V43.3446Z" stroke="#A8FE3B" stroke-width="2" stroke-linejoin="round"/>
<path id="Vector_13" d="M232.6 59.772C231.72 58.6616 230.625 57.7395 229.381 57.0605L229.582 56.6686L230.005 55.9165C228.638 55.1579 227.133 54.679 225.578 54.5078L225.43 55.8106C224.022 55.6547 222.596 55.7771 221.235 56.1707L220.865 54.9103C219.362 55.348 217.958 56.0748 216.734 57.0499L217.56 58.0773C216.449 58.9608 215.524 60.0551 214.838 61.2972L213.694 60.6617C212.941 62.0359 212.463 63.5431 212.285 65.0998L213.588 65.248C213.428 66.6562 213.55 68.0822 213.948 69.4424L212.688 69.8026C213.123 71.3065 213.85 72.7101 214.827 73.9334L215.855 73.1178C216.736 74.2282 217.83 75.1503 219.075 75.8294L218.63 76.645L218.45 76.9839H218.439C219.814 77.7333 221.321 78.2081 222.877 78.382L223.015 77.0898C224.427 77.2417 225.856 77.1158 227.22 76.7191L227.591 77.9795C229.092 77.5521 230.493 76.8282 231.711 75.8506L230.895 74.8232C232.008 73.9409 232.931 72.8418 233.607 71.5926L234.507 72.0904L234.761 72.2281C235.515 70.8591 235.99 69.3544 236.159 67.8007L234.857 67.6524C235.017 66.2407 234.895 64.8112 234.496 63.4474L235.757 63.0873C235.329 61.5855 234.606 60.1845 233.628 58.967L232.6 59.772ZM227.845 70.9889C226.947 71.7031 225.857 72.1351 224.714 72.2304C223.57 72.3256 222.424 72.0798 221.42 71.524C220.416 70.9682 219.6 70.1274 219.074 69.1077C218.548 68.0881 218.335 66.9353 218.464 65.7952C218.593 64.655 219.056 63.5785 219.797 62.7017C220.537 61.825 221.52 61.1873 222.623 60.8691C223.725 60.551 224.897 60.5668 225.991 60.9145C227.084 61.2621 228.05 61.9261 228.766 62.8225C229.723 64.0291 230.164 65.5655 229.991 67.0959C229.818 68.6262 229.047 70.0259 227.845 70.9889V70.9889Z" stroke="#A8FE3B" stroke-width="2" stroke-linejoin="round"/>
<path id="Vector_14" d="M139.803 119.69C138.784 118.412 137.52 117.349 136.085 116.566L136.329 116.121L136.806 115.242H136.816C135.232 114.374 133.495 113.824 131.7 113.621L131.531 115.125C129.906 114.94 128.26 115.08 126.69 115.538L126.267 114.087C124.531 114.589 122.912 115.428 121.5 116.555L122.454 117.741C121.172 118.756 120.106 120.016 119.318 121.449L117.984 120.728C117.12 122.31 116.569 124.043 116.363 125.834L117.867 126.014C117.68 127.639 117.824 129.286 118.291 130.854L116.829 131.278C117.329 133.011 118.168 134.627 119.297 136.034L120.484 135.091C121.499 136.376 122.764 137.442 124.201 138.226L123.682 139.169L123.47 139.55C125.054 140.419 126.792 140.97 128.586 141.171L128.756 139.677C130.381 139.859 132.027 139.715 133.596 139.254L134.02 140.705C135.755 140.207 137.374 139.372 138.786 138.247L137.833 137.061C139.116 136.041 140.185 134.777 140.979 133.343L142.006 133.905L142.303 134.064C143.173 132.485 143.724 130.75 143.923 128.958L142.419 128.789C142.599 127.16 142.459 125.512 142.006 123.938L143.457 123.514C142.955 121.782 142.117 120.166 140.99 118.758L139.803 119.69ZM134.327 132.634C133.291 133.462 132.032 133.963 130.711 134.076C129.389 134.188 128.064 133.906 126.902 133.265C125.741 132.624 124.796 131.653 124.187 130.475C123.578 129.296 123.332 127.964 123.48 126.646C123.628 125.328 124.164 124.083 125.02 123.07C125.876 122.056 127.013 121.319 128.287 120.952C129.562 120.585 130.917 120.605 132.181 121.008C133.444 121.411 134.56 122.18 135.386 123.217C136.493 124.607 137.004 126.379 136.805 128.145C136.607 129.91 135.715 131.525 134.327 132.634V132.634Z" stroke="#6E9938" stroke-width="2" stroke-miterlimit="10"/>
</g>
</g>
<g id="phone">
<g id="phone_2">
<path id="Vector_15" d="M203.288 32.4323C202.113 25.4629 191.383 22.317 191.584 26.861L142.395 27.147C138.995 27.1682 136.231 30.2398 136.231 34L136.125 163.37C136.125 167.268 138.932 170.456 142.406 170.488L192.622 170.911C192.93 171.568 193.512 172.161 194.434 172.659C200.196 172.786 202.95 169.937 203.966 166.728C204.306 165.828 204.475 164.872 204.464 163.91C204.263 162.226 203.649 34.0635 203.288 32.4323Z" fill="#BDBDBD"/>
<path id="Vector_16" d="M193.892 172.681L136.261 172.31C132.66 172.289 129.747 169.016 129.758 165.002L129.97 31.9564C129.98 28.0904 132.84 24.9446 136.367 24.934L192.886 24.7539C196.445 24.7433 199.347 27.8786 199.379 31.7658L200.406 165.425C200.438 169.45 197.525 172.713 193.892 172.681Z" fill="white"/>
<path id="Vector_17" d="M194.685 171.718C194.446 171.748 194.205 171.762 193.964 171.76L136.344 171.326C133.251 171.305 130.72 168.434 130.731 164.928L130.932 32.0315C130.932 28.6526 133.421 25.8987 136.45 25.8881L192.969 25.6445H193.234C194.653 25.7081 195.977 26.3648 196.972 27.4663C198.001 28.6384 198.569 30.1438 198.572 31.7031L199.578 165.49C199.599 168.667 197.502 171.337 194.685 171.718Z" fill="black"/>
<path id="Vector_18" d="M196.581 32.3672L197.556 165.699L132.648 165.307L132.807 32.3672H196.581Z" fill="#4B8700"/>
</g>
<g id="login">
<path id="Vector_19" d="M174 99.4583H156.629C155.92 99.4583 155.24 99.1774 154.738 98.6772C154.236 98.1769 153.952 97.498 153.949 96.7891C153.952 96.0793 154.235 95.3993 154.737 94.8973C155.239 94.3954 155.919 94.1122 156.629 94.1094H174C174.71 94.1122 175.39 94.3954 175.892 94.8973C176.393 95.3993 176.677 96.0793 176.68 96.7891C176.677 97.498 176.393 98.1769 175.891 98.6772C175.389 99.1774 174.709 99.4583 174 99.4583Z" fill="#FF9F34"/>
<path id="Vector_20" d="M187.228 74.2695H142.286C140.812 74.2695 139.617 75.4646 139.617 76.9387V76.9472C139.617 78.4213 140.812 79.6163 142.286 79.6163H187.228C188.702 79.6163 189.897 78.4213 189.897 76.9472V76.9387C189.897 75.4646 188.702 74.2695 187.228 74.2695Z" fill="white"/>
<path id="Vector_21" d="M187.217 88.2212H142.286C141.578 88.2212 140.9 87.9399 140.399 87.4394C139.898 86.9388 139.617 86.2599 139.617 85.552C139.617 85.2015 139.686 84.8544 139.82 84.5305C139.955 84.2067 140.151 83.9124 140.399 83.6646C140.647 83.4167 140.941 83.2201 141.265 83.086C141.589 82.9519 141.936 82.8828 142.286 82.8828H187.217C187.926 82.8828 188.606 83.1637 189.108 83.6639C189.611 84.1642 189.894 84.8431 189.897 85.552C189.894 86.2609 189.611 86.9397 189.108 87.44C188.606 87.9403 187.926 88.2212 187.217 88.2212Z" fill="white"/>
<path id="Vector_22" d="M150.677 85.7843C150.691 85.9158 150.677 86.0487 150.636 86.1745C150.596 86.3003 150.529 86.4161 150.441 86.5144C150.352 86.6127 150.244 86.6913 150.123 86.7452C150.003 86.799 149.872 86.8268 149.74 86.8268C149.607 86.8268 149.477 86.799 149.356 86.7452C149.235 86.6913 149.127 86.6127 149.039 86.5144C148.95 86.4161 148.883 86.3003 148.843 86.1745C148.802 86.0487 148.788 85.9158 148.802 85.7843C148.827 85.5529 148.936 85.3387 149.109 85.1831C149.282 85.0275 149.507 84.9414 149.74 84.9414C149.972 84.9414 150.197 85.0275 150.37 85.1831C150.543 85.3387 150.652 85.5529 150.677 85.7843Z" fill="#A8FE3B"/>
<path id="Vector_23" d="M153.868 85.9738C153.977 85.4646 153.651 84.964 153.142 84.8557C152.633 84.7475 152.132 85.0726 152.024 85.5818C151.916 86.0911 152.241 86.5917 152.75 86.6999C153.259 86.8081 153.76 86.4831 153.868 85.9738Z" fill="#A8FE3B"/>
<path id="Vector_24" d="M156.859 86.4439C157.227 86.0758 157.227 85.4789 156.859 85.1108C156.491 84.7426 155.894 84.7426 155.526 85.1108C155.158 85.4789 155.158 86.0758 155.526 86.4439C155.894 86.8121 156.491 86.8121 156.859 86.4439Z" fill="#A8FE3B"/>
<path id="Vector_25" d="M160.078 86.4556C160.446 86.0875 160.446 85.4906 160.078 85.1225C159.71 84.7543 159.113 84.7543 158.745 85.1225C158.377 85.4906 158.377 86.0875 158.745 86.4556C159.113 86.8238 159.71 86.8238 160.078 86.4556Z" fill="#A8FE3B"/>
<path id="Vector_26" d="M163.006 86.6584C163.487 86.4592 163.716 85.9078 163.517 85.4268C163.317 84.9458 162.766 84.7174 162.285 84.9166C161.804 85.1158 161.576 85.6673 161.775 86.1483C161.974 86.6293 162.525 86.8577 163.006 86.6584Z" fill="#A8FE3B"/>
<path id="Vector_27" d="M166.817 86.0476C166.937 85.5409 166.623 85.0331 166.117 84.9133C165.61 84.7935 165.102 85.1072 164.982 85.6138C164.863 86.1205 165.176 86.6283 165.683 86.7481C166.19 86.8679 166.698 86.5542 166.817 86.0476Z" fill="#A8FE3B"/>
<path id="Vector_28" d="M169.761 86.4517C170.13 86.0836 170.13 85.4867 169.761 85.1186C169.393 84.7504 168.796 84.7504 168.428 85.1186C168.06 85.4867 168.06 86.0836 168.428 86.4517C168.796 86.8199 169.393 86.8199 169.761 86.4517Z" fill="#A8FE3B"/>
<path id="Vector_29" d="M172.988 86.4556C173.356 86.0875 173.356 85.4906 172.988 85.1225C172.62 84.7544 172.023 84.7543 171.655 85.1225C171.287 85.4906 171.287 86.0875 171.655 86.4556C172.023 86.8238 172.62 86.8238 172.988 86.4556Z" fill="#A8FE3B"/>
<path id="Vector_30" d="M175.909 86.6545C176.39 86.4553 176.618 85.9039 176.419 85.4229C176.22 84.9419 175.668 84.7135 175.187 84.9127C174.706 85.1119 174.478 85.6634 174.677 86.1444C174.876 86.6254 175.428 86.8538 175.909 86.6545Z" fill="#A8FE3B"/>
<path id="Vector_31" d="M172.071 63.7555C176.104 59.7225 176.104 53.1837 172.071 49.1507C168.038 45.1177 161.499 45.1177 157.466 49.1507C153.433 53.1837 153.433 59.7225 157.466 63.7555C161.499 67.7885 168.038 67.7885 172.071 63.7555Z" fill="white"/>
<path id="Vector_32" d="M164.783 56.0433C165.271 56.0399 165.752 55.9267 166.19 55.7122C166.628 55.4977 167.013 55.1873 167.315 54.804C167.777 54.2321 168.024 53.5163 168.014 52.781C168.039 52.3391 167.974 51.8966 167.822 51.4808C167.67 51.065 167.435 50.6845 167.131 50.3627C166.827 50.0409 166.461 49.7845 166.054 49.6093C165.648 49.4341 165.21 49.3438 164.767 49.3438C164.325 49.3438 163.887 49.4341 163.48 49.6093C163.074 49.7845 162.707 50.0409 162.403 50.3627C162.099 50.6845 161.864 51.065 161.713 51.4808C161.561 51.8966 161.496 52.3391 161.521 52.781C161.516 53.5155 161.762 54.2296 162.22 54.804C162.527 55.1897 162.917 55.5014 163.36 55.7159C163.804 55.9305 164.29 56.0424 164.783 56.0433Z" fill="#A8FE3B"/>
<path id="Vector_33" d="M170.513 61.8457C170.513 63.9005 159.031 63.9005 159.031 61.8457V59.4519C159.487 56.179 169.57 56.0413 170.513 59.4519V61.8457Z" fill="#A8FE3B"/>
<path id="Vector_34" d="M144.521 85.0626V84.9143C144.494 84.6531 144.372 84.4108 144.177 84.2347C143.983 84.0585 143.729 83.9609 143.467 83.9609C143.204 83.9609 142.951 84.0585 142.756 84.2347C142.561 84.4108 142.439 84.6531 142.413 84.9143V85.0626H142.254V86.9586C142.254 87.2763 144.679 87.2763 144.679 86.9586V85.0626H144.521ZM142.784 84.9143C142.784 84.5542 143.006 84.2153 143.461 84.2153C143.917 84.2153 144.15 84.533 144.15 84.9143V85.0626H142.784V84.9143ZM143.641 86.0159V86.5561C143.641 86.5793 143.637 86.6022 143.628 86.6235C143.618 86.6448 143.605 86.6639 143.588 86.6798C143.571 86.6957 143.551 86.708 143.529 86.7158C143.508 86.7237 143.485 86.727 143.461 86.7256C143.439 86.7271 143.416 86.7238 143.395 86.7159C143.373 86.7079 143.354 86.6955 143.338 86.6794C143.322 86.6634 143.31 86.644 143.302 86.6228C143.294 86.6015 143.29 86.5788 143.292 86.5561V86.0159C143.241 85.9868 143.199 85.9452 143.17 85.8951C143.14 85.845 143.124 85.7881 143.122 85.7299C143.122 85.64 143.158 85.5538 143.222 85.4903C143.285 85.4267 143.371 85.391 143.461 85.391C143.551 85.391 143.637 85.4267 143.701 85.4903C143.765 85.5538 143.8 85.64 143.8 85.7299C143.798 85.7868 143.783 85.8423 143.755 85.892C143.728 85.9417 143.689 85.9842 143.641 86.0159Z" fill="#4D4D4D"/>
<path id="Vector_35" d="M143.463 76.748C143.567 76.7477 143.67 76.7236 143.764 76.6778C143.857 76.6319 143.939 76.5654 144.003 76.4832C144.1 76.3634 144.153 76.2137 144.152 76.0596C144.152 75.877 144.079 75.7019 143.95 75.5727C143.821 75.4436 143.646 75.3711 143.463 75.3711C143.373 75.3711 143.284 75.389 143.201 75.4237C143.118 75.4584 143.043 75.5093 142.98 75.5734C142.917 75.6375 142.867 75.7134 142.834 75.7969C142.8 75.8804 142.784 75.9697 142.785 76.0596C142.785 76.2118 142.833 76.3601 142.923 76.4832C142.988 76.5648 143.07 76.6309 143.163 76.6767C143.257 76.7225 143.359 76.7469 143.463 76.748Z" fill="#4D4D4D"/>
<path id="Vector_36" d="M144.678 77.9676C144.678 78.4018 142.242 78.4018 142.242 77.9676V77.4697C142.338 76.7813 144.466 76.7495 144.668 77.4697L144.678 77.9676Z" fill="#4D4D4D"/>
<path id="Vector_37" d="M159.202 77.7238H149.362C149.154 77.7238 148.955 77.6413 148.808 77.4943C148.661 77.3473 148.578 77.1479 148.578 76.9401C148.578 76.8371 148.598 76.7352 148.638 76.6401C148.677 76.545 148.735 76.4586 148.808 76.3858C148.88 76.313 148.967 76.2553 149.062 76.2159C149.157 76.1765 149.259 76.1563 149.362 76.1562H159.202C159.305 76.1562 159.407 76.1765 159.502 76.2159C159.597 76.2553 159.683 76.313 159.756 76.3858C159.829 76.4586 159.887 76.545 159.926 76.6401C159.965 76.7352 159.986 76.8371 159.986 76.9401C159.986 77.1479 159.903 77.3473 159.756 77.4943C159.609 77.6413 159.41 77.7238 159.202 77.7238Z" fill="#A8FE3B"/>
<path id="Vector_38" d="M172.197 77.7238H162.346C162.138 77.7238 161.939 77.6413 161.792 77.4943C161.645 77.3473 161.563 77.1479 161.562 76.9401C161.562 76.8371 161.583 76.7352 161.622 76.6401C161.662 76.545 161.719 76.4586 161.792 76.3858C161.865 76.313 161.951 76.2553 162.046 76.2159C162.141 76.1765 162.243 76.1563 162.346 76.1562H172.197C172.3 76.1562 172.402 76.1765 172.497 76.2159C172.592 76.2553 172.678 76.313 172.751 76.3858C172.824 76.4586 172.882 76.545 172.921 76.6401C172.96 76.7352 172.981 76.8371 172.981 76.9401C172.981 77.1479 172.898 77.3473 172.751 77.4943C172.604 77.6413 172.405 77.7238 172.197 77.7238Z" fill="#A8FE3B"/>
</g>
<g id="key">
<path id="Vector_39" d="M151.516 127.039V146.518C151.516 148.689 177.995 148.689 177.995 146.518V127.039H151.516Z" fill="white"/>
<path id="Vector_40" d="M167.971 135.211C168.387 133.452 167.298 131.689 165.539 131.273C163.78 130.857 162.016 131.946 161.601 133.705C161.185 135.465 162.274 137.228 164.033 137.644C165.792 138.059 167.555 136.97 167.971 135.211Z" fill="#4B8700"/>
<path id="Vector_41" d="M163.421 135.406H166.101V142.905C166.101 143.262 165.959 143.604 165.707 143.857C165.454 144.109 165.112 144.251 164.755 144.251C164.399 144.251 164.056 144.109 163.804 143.857C163.552 143.604 163.41 143.262 163.41 142.905V135.406H163.421Z" fill="#4B8700"/>
<path id="Vector_42" d="M175.677 125.652H172.997V124.338C172.997 122.153 172.129 120.057 170.583 118.511C169.038 116.966 166.942 116.098 164.756 116.098C162.571 116.098 160.475 116.966 158.929 118.511C157.384 120.057 156.516 122.153 156.516 124.338V125.652H153.836V124.338C153.836 121.442 154.986 118.664 157.034 116.616C159.082 114.569 161.86 113.418 164.756 113.418C167.652 113.418 170.43 114.569 172.478 116.616C174.526 118.664 175.677 121.442 175.677 124.338V125.652Z" fill="white"/>
</g>
</g>
<g id="shield">
<path id="Vector_43" d="M217.862 89.0586C211.03 96.3776 200.142 102.373 188.48 104.925C188.47 105.699 188.459 110.009 188.364 129.901C188.247 156.423 213.488 169.388 217.417 171.379C221.209 169.631 246.778 156.688 246.895 130.166C246.979 110.274 247.001 105.963 247.001 105.18C235.371 102.521 224.62 96.4306 217.862 89.0586Z" fill="white"/>
<path id="Vector_44" d="M217.8 91.9414C210.767 98.3919 201.012 103.465 190.282 106.241L190.176 129.892C190.134 140.728 194.434 150.515 202.961 159.01C208.574 164.581 214.463 168.044 217.45 169.601L217.863 169.39V91.9944L217.8 91.9414Z" fill="#A8FE3B"/>
<path id="Vector_45" d="M217.863 91.9922V169.387C220.967 167.767 226.623 164.43 232.035 159.134C240.647 150.724 245.032 140.969 245.085 130.144L245.19 106.482C234.514 103.622 224.843 98.485 217.863 91.9922Z" fill="#95D346"/>
<path id="Vector_46" d="M239.341 115.707C231.185 116.967 220.064 124.414 213.052 133.364C212.067 129.138 207.65 125.293 205.341 124.445L198.34 131.478C202.714 133.449 207.491 139.03 208.127 144.74L215.117 145.83C218.062 140.005 225.678 126.077 240.824 118.588C240.528 117.444 239.458 115.866 239.341 115.707Z" fill="#246FFF"/>
</g>
</g>
</svg>
