<svg width="330" height="182" viewBox="0 0 330 182" fill="none" xmlns="http://www.w3.org/2000/svg">
<g id="Group 4441">
<path id="path204" d="M261.204 169.441H114.928C112.982 169.441 111.49 167.849 111.613 165.902L117.639 70.3004C117.762 68.3544 119.455 66.7613 121.401 66.7613H267.677C269.623 66.7613 271.115 68.3544 270.992 70.3004L264.966 165.902C264.843 167.849 263.15 169.441 261.204 169.441Z" fill="#17282F"/>
<path id="path206" d="M261.206 169.441H260.114C262.06 169.441 263.753 167.849 263.876 165.902L269.903 70.3004C270.025 68.3544 268.533 66.7613 266.586 66.7613H204.773H267.679C269.549 66.7613 271 68.2319 271.001 70.0739C271.001 70.1486 270.999 70.2241 270.994 70.3004L270.541 77.4896L270.07 84.967L269.605 92.3527L268.434 110.918L268.083 116.488L266.115 147.709L266.035 148.974L264.968 165.902C264.845 167.849 263.152 169.441 261.206 169.441Z" fill="#0A0D0E"/>
<path id="path208" d="M260.114 169.441H113.838C111.892 169.441 110.4 167.849 110.523 165.902L116.549 70.3004C116.672 68.3544 118.365 66.7613 120.311 66.7613H266.586C268.533 66.7613 270.025 68.3544 269.902 70.3004L263.876 165.902C263.753 167.849 262.06 169.441 260.114 169.441Z" fill="#17282F"/>
<path id="path210" d="M259.928 170.648H85.8735C84.191 170.648 82.7311 171.628 82.0578 173.033C81.6711 173.842 82.2627 174.773 83.1749 174.773H262.627C263.538 174.773 264.13 173.842 263.743 173.033C263.07 171.628 261.61 170.648 259.928 170.648Z" fill="#17282F"/>
<path id="path212" d="M262.626 174.773H232.476C231.564 174.773 230.972 173.842 231.359 173.033C232.032 171.628 233.492 170.648 235.174 170.648H259.927C261.609 170.648 263.069 171.628 263.743 173.033C263.826 173.207 263.863 173.387 263.863 173.561C263.86 174.2 263.342 174.773 262.626 174.773Z" fill="#0A0D0E"/>
<path id="path214" d="M244.579 173.664H238.191C237.882 173.664 237.629 173.411 237.629 173.102C237.629 172.794 237.882 172.541 238.191 172.541H244.579C244.887 172.541 245.14 172.794 245.14 173.102C245.14 173.411 244.887 173.664 244.579 173.664Z" fill="#A1C36F"/>
<path id="path216" d="M162.36 173.664H155.972C155.663 173.664 155.41 173.411 155.41 173.102C155.41 172.794 155.663 172.541 155.972 172.541H162.36C162.669 172.541 162.921 172.794 162.921 173.102C162.921 173.411 162.669 173.664 162.36 173.664Z" fill="#B1BABA"/>
<path id="path218" d="M251.195 173.664H247.018C246.763 173.664 246.555 173.456 246.555 173.201V173.004C246.555 172.749 246.763 172.541 247.018 172.541H251.195C251.45 172.541 251.658 172.749 251.658 173.004V173.201C251.658 173.456 251.45 173.664 251.195 173.664Z" fill="#A1C36F"/>
<path id="path220" d="M113.819 162.446L119.409 73.7584C119.457 73.0003 120.116 72.3801 120.874 72.3801H265.31C266.068 72.3801 266.649 73.0003 266.601 73.7584L261.011 162.446C260.963 163.204 260.303 163.824 259.545 163.824H115.11C114.352 163.824 113.771 163.204 113.819 162.446Z" fill="#292929"/>
<path id="path222" d="M113.904 161.094H112.383C111.62 161.094 111.042 160.477 111.089 159.714L116.682 71.0271C116.728 70.2722 117.39 69.6481 118.145 69.6481H165.613C165.697 70.5996 165.825 71.5148 166.003 72.3799H120.874C120.116 72.3799 119.456 73.0001 119.409 73.7581L113.904 161.094Z" fill="#1B3247"/>
<path id="path224" d="M147.877 161.094H113.906L119.411 73.7581C119.459 73.0001 120.119 72.3799 120.877 72.3799H166.006C166.229 73.4608 166.527 74.4623 166.909 75.3513C169.446 81.2656 146.001 87.179 153.175 95.5293C150.064 99.8696 148.012 111.936 148.012 111.936L149.175 112.727C148.32 115.523 147.479 118.323 146.648 121.125L141.934 137.303L141.347 139.306L141.052 140.301L141.012 140.435C140.985 140.436 140.958 140.436 140.931 140.436C140.412 140.436 139.639 140.323 138.86 140.102C137.779 139.823 136.612 139.395 135.443 138.893C133.092 137.887 130.71 136.61 128.348 135.261C127.174 134.573 125.984 133.888 124.813 133.166C123.649 132.448 122.463 131.686 121.343 130.972L118.022 134.887C122.159 139.085 126.497 142.845 131.797 146.023C133.139 146.8 134.547 147.536 136.136 148.167C137.694 148.741 139.39 149.302 141.689 149.302C141.76 149.302 141.833 149.301 141.905 149.301C143.092 149.274 144.541 149.006 145.947 148.238C147.352 147.471 148.528 146.184 149.188 144.956C149.344 144.657 149.521 144.334 149.634 144.043L149.816 143.594L149.93 143.289L150.302 142.279L151.033 140.264C152.67 135.694 154.216 131.13 155.726 126.554C156.282 131.083 156.984 136.241 157.861 142.118L147.877 161.094ZM141.206 140.423C141.257 140.389 141.314 140.357 141.371 140.34C141.42 140.321 141.46 140.313 141.486 140.313C141.553 140.313 141.532 140.364 141.375 140.393C141.327 140.406 141.27 140.416 141.206 140.423Z" fill="#373835"/>
<path id="path226" d="M236.682 72.3828H225.465L226.902 69.651H238.118L236.682 72.3828Z" fill="#1B3247"/>
<path id="path228" d="M199.781 142.516C199.807 138.304 200.02 134.008 200.579 128.984C200.58 128.991 200.582 128.998 200.584 129.005C200.834 126.733 201.154 124.314 201.562 121.687C201.684 121.931 201.753 122.063 201.753 122.063L204.316 120.23C204.862 121.977 205.42 123.721 205.99 125.463C206.336 126.543 206.691 127.622 207.051 128.699L199.781 142.516ZM213.844 115.787C213.654 115.134 213.463 114.481 213.271 113.828L215.841 111.99L213.844 115.787ZM217.002 109.783C216.11 107.611 213.946 102.558 211.623 98.6884L225.464 72.3812H236.68L217.002 109.783Z" fill="#373835"/>
<path id="path230" d="M263.788 72.3828H248.816L250.253 69.651H262.579C263.342 69.651 263.92 70.275 263.874 71.03L263.788 72.3828Z" fill="#1B3247"/>
<path id="path232" d="M256.818 161.094H203.714C203.492 160.549 203.25 160.001 203 159.464L212.083 142.202C212.386 142.641 212.789 143.158 213.493 143.699C214.204 144.264 215.412 144.799 216.596 144.829C216.676 144.832 216.755 144.834 216.833 144.834C217.9 144.834 218.743 144.538 219.322 144.262C220.559 143.634 221.081 143.05 221.559 142.561C222.014 142.063 222.344 141.616 222.637 141.19C223.216 140.339 223.651 139.557 224.054 138.786C224.846 137.251 225.484 135.773 226.087 134.295C227.248 131.335 228.258 128.413 229.165 125.466C231 119.581 232.497 113.683 233.772 107.676L230.725 106.767L248.817 72.3799H263.789L258.281 159.714C258.235 160.477 257.573 161.094 256.818 161.094ZM218.187 131.049L218.104 130.757L220.459 126.282C219.765 127.822 219.056 129.341 218.308 130.808C218.268 130.888 218.227 130.969 218.187 131.049Z" fill="#373835"/>
<path id="path234" d="M170.432 48.4753C166.221 53.2979 163.786 68.0778 166.909 75.3533C170.031 82.6296 133.823 89.9051 163.697 101.718C193.571 113.531 217.453 99.8346 208.807 87.594C200.162 75.3533 209.738 54.9704 199.733 49.825C190.684 45.1719 178.879 38.8031 170.432 48.4753Z" fill="#263238"/>
<path id="path236" d="M161.504 108C159.922 113.426 158.244 118.811 156.502 124.186C154.745 129.558 152.95 134.908 151.031 140.266L150.299 142.281L149.928 143.292L149.814 143.596L149.632 144.045C149.519 144.336 149.342 144.659 149.186 144.959C148.526 146.187 147.35 147.473 145.945 148.241C144.539 149.008 143.089 149.276 141.903 149.303C139.493 149.339 137.741 148.761 136.134 148.169C134.545 147.539 133.137 146.802 131.795 146.025C126.495 142.847 122.157 139.088 118.02 134.889L121.341 130.975C122.461 131.688 123.647 132.45 124.81 133.168C125.981 133.89 127.172 134.576 128.346 135.264C130.708 136.613 133.09 137.889 135.441 138.895C136.61 139.397 137.777 139.826 138.858 140.105C139.914 140.404 140.956 140.505 141.373 140.396C141.592 140.356 141.546 140.273 141.368 140.343C141.18 140.399 140.998 140.609 140.988 140.588L140.984 140.542L140.992 140.498L141.049 140.303L141.345 139.308L141.932 137.305L146.646 121.127C148.246 115.733 149.883 110.34 151.591 104.981L161.504 108Z" fill="#FFCEAC"/>
<path id="path238" d="M121.108 130.836L112.184 127.509L115.739 136.964C115.739 136.964 122.051 137.876 124.501 134.553L122.505 131.882C122.149 131.407 121.665 131.043 121.108 130.836Z" fill="#FFCEAC"/>
<path id="path240" d="M104.254 130.273L107.659 138.027L115.739 136.962L112.183 127.508L104.254 130.273Z" fill="#FFCEAC"/>
<path id="path242" d="M154.969 94.048C150.875 95.0911 148.012 111.937 148.012 111.937L159.292 119.609C159.292 119.609 170.109 102.614 166.96 98.1133C163.68 93.4255 160.943 92.5272 154.969 94.048Z" fill="#406FBF"/>
<path id="path244" d="M152.449 114.957L148.012 111.939C148.012 111.939 150.875 95.0934 154.969 94.0503C156.153 93.7491 157.209 93.5426 158.167 93.4425C156.207 93.7976 154.969 94.0503 154.969 94.0503C154.969 94.0503 153.789 94.4663 153.788 102.147C153.788 102.501 153.79 102.873 153.796 103.259C153.126 106.863 152.666 112.057 152.449 114.957Z" fill="#ECFFCF"/>
<path id="path246" d="M154.611 116.43L152.449 114.961C152.449 114.959 152.449 114.957 152.449 114.956L154.611 116.427C154.611 116.428 154.611 116.428 154.611 116.43Z" fill="#9F3A3F"/>
<path id="path248" d="M154.611 116.426L152.449 114.955C152.666 112.055 153.126 106.861 153.796 103.258C153.839 106.432 154.068 110.695 154.611 116.426Z" fill="#A1C46F"/>
<path id="path250" d="M154.97 94.0469C154.97 94.0469 150.238 95.7141 159.717 153.996C175.725 153.996 192.268 153.996 200.058 153.996C199.381 137.578 199.361 127.454 207.208 93.7596C207.208 93.7596 198.757 91.9207 190.078 91.5024C183.289 91.1757 177.728 90.9585 171.761 91.5031C163.893 92.2211 154.97 94.0469 154.97 94.0469Z" fill="#406FBF"/>
<path id="path252" d="M199.953 151.328H159.287C157.71 141.473 156.557 133.314 155.727 126.556C155.259 122.756 154.893 119.394 154.612 116.43C154.002 109.998 153.789 105.415 153.789 102.146C153.79 94.4651 154.97 94.0491 154.97 94.0491C154.97 94.0491 163.893 92.2233 171.761 91.5053C171.761 91.5053 165.785 100.335 176.018 100.335C186.252 100.335 190.078 91.5046 190.078 91.5046C197.026 91.8397 203.83 93.0854 206.266 93.5684C206.086 93.5492 205.906 93.5391 205.727 93.5391C201.674 93.5391 197.982 98.4226 196.405 103.277C196.222 103.838 196.14 104.496 196.14 105.222C196.14 107.34 196.831 110.045 197.729 112.665C198.151 117.587 199.822 125.555 200.582 128.985C199.986 134.35 199.783 138.885 199.783 143.372C199.783 145.989 199.852 148.589 199.953 151.328Z" fill="#4B8700"/>
<path id="path254" d="M200.587 129.004C200.586 128.997 200.584 128.99 200.582 128.983C200.834 126.717 201.156 124.304 201.563 121.681C201.564 121.683 201.564 121.684 201.565 121.686C201.158 124.314 200.837 126.733 200.587 129.004Z" fill="#B1BBC6"/>
<path id="path256" d="M200.58 128.984C199.82 125.555 198.149 117.587 197.727 112.665C199.102 116.678 200.962 120.492 201.561 121.683C201.154 124.305 200.832 126.718 200.58 128.984Z" fill="#A1C46F"/>
<path id="path258" d="M188.26 70.8802C187.105 76.7737 185.951 87.573 190.075 91.5058C190.075 91.5058 186.249 100.336 176.015 100.336C165.782 100.336 171.758 91.5066 171.758 91.5066C178.33 89.9373 178.161 85.0607 177.015 80.4808L188.26 70.8802Z" fill="#FFCEAC"/>
<path id="path260" d="M188.764 89.3005C187.795 91.2665 184.671 95.7625 175.929 97.3572C175.691 97.4011 175.433 97.361 175.234 97.2216C173.595 96.0791 172.585 93.6709 173.301 90.8767C173.497 90.1078 172.756 89.4291 172.023 89.7334C171.155 90.0924 170.428 90.5385 170.094 90.7549C169.959 90.8435 169.852 90.9622 169.776 91.1055C169.141 92.3096 166.553 98.1915 174.362 101.819C174.486 101.876 174.62 101.909 174.757 101.912C179.342 102.008 187.458 101.101 192.567 91.8843C192.755 91.5469 192.721 91.124 192.482 90.8212C191.918 90.1094 190.886 89.3952 190.12 88.9207C189.641 88.6256 189.013 88.7966 188.764 89.3005Z" fill="#FAFAF9"/>
<path id="path262" d="M190.911 113.554L180.51 113.253C180.051 113.239 179.705 112.854 179.741 112.396L179.841 111.115C179.877 110.657 180.282 110.293 180.742 110.306L191.142 110.608C191.6 110.621 191.947 111.007 191.911 111.464L191.81 112.745C191.775 113.204 191.37 113.567 190.911 113.554Z" fill="#FAFAF9"/>
<path id="path264" d="M177.585 83.7266C177.58 83.6526 177.573 83.5771 177.566 83.5024C177.573 83.5771 177.58 83.6518 177.586 83.7266C177.586 83.7266 177.585 83.7266 177.585 83.7266Z" fill="#111D23"/>
<path id="path266" d="M177.589 83.7266C177.582 83.6518 177.576 83.5771 177.569 83.5024C177.492 82.6326 177.328 81.7451 177.117 80.8638C177.834 80.9871 178.568 81.051 179.31 81.051C180.386 81.051 181.48 80.9178 182.568 80.6435C181.277 82.2251 179.232 83.4885 177.589 83.7266Z" fill="#EBA97C"/>
<path id="path268" d="M196.026 59.7445C194.165 69.4251 193.585 73.5629 188.009 77.934C179.623 84.5108 168.139 80.1088 167.069 70.0669C166.106 61.0287 169.31 46.7157 179.363 44.0671C189.269 41.4563 197.886 50.0638 196.026 59.7445Z" fill="#FFCEAC"/>
<path id="path270" d="M190.515 52.564C189.317 58.6293 189.034 66.6875 194.619 66.6875C200.204 66.6875 204.523 57.231 199.732 49.8261C194.94 42.4203 191.221 48.9894 190.515 52.564Z" fill="#17282F"/>
<path id="path272" d="M200.119 53.3129C200.121 59.9044 191.816 56.6449 188.135 53.8021C184.455 50.9594 184.251 51.2714 177.478 51.2591C170.705 51.246 169.304 50.7884 167.292 47.5351C165.28 44.2825 165.461 42.1423 169.993 42.8272C174.525 43.5121 170.716 38.8898 174.097 36.3221C177.478 33.7536 181.465 34.403 186.08 40.2595C190.696 46.116 200.114 41.8843 200.119 53.3129Z" fill="#17282F"/>
<path id="path274" d="M197.667 68.3384C196.794 71.3198 194.52 73.2773 192.589 72.7111C190.658 72.1448 189.8 69.2698 190.675 66.2884C191.548 63.3078 193.822 61.3502 195.754 61.9157C197.684 62.4819 198.541 65.3577 197.667 68.3384Z" fill="white"/>
<path id="path276" d="M182.226 75.793C180.465 75.793 178.704 75.4378 177.031 74.7275C176.884 74.6659 176.816 74.4956 176.879 74.3493C176.941 74.2021 177.109 74.1343 177.257 74.196C180.416 75.5364 183.902 75.5549 187.07 74.2483C190.168 72.9718 192.564 70.5782 193.817 67.5075C196.152 60.8922 198.487 52.6267 195.756 47.5044C194.696 45.5152 192.908 44.1856 190.443 43.5515C190.289 43.5115 190.196 43.3536 190.236 43.1995C190.275 43.0454 190.428 42.9514 190.588 42.9915C193.215 43.6679 195.126 45.0946 196.266 47.2317C199.104 52.5543 196.736 60.9731 194.357 67.7132C193.04 70.9411 190.531 73.4472 187.29 74.783C185.656 75.4563 183.941 75.793 182.226 75.793Z" fill="white"/>
<path id="path278" d="M194.252 71.9961C194.126 71.9961 194.002 71.9792 193.88 71.9437C193.341 71.7858 192.949 71.2904 192.73 70.5917C193.385 69.7173 193.932 68.7536 194.356 67.7158C194.84 66.3422 195.325 64.8993 195.765 63.4271C195.842 63.414 195.919 63.4078 195.996 63.4078C196.122 63.4078 196.246 63.4256 196.367 63.461C197.623 63.8292 198.085 66.0264 197.399 68.3691C196.778 70.4854 195.433 71.9961 194.252 71.9961ZM192.57 69.8244C192.473 69.0085 192.557 68.0348 192.849 67.0356C193.313 65.4532 194.182 64.209 195.085 63.6821C194.684 64.9948 194.249 66.2814 193.815 67.5101C193.48 68.3329 193.061 69.1072 192.57 69.8244Z" fill="#A1C36F"/>
<path id="path280" d="M192.731 70.5898C192.657 70.3549 192.603 70.0976 192.57 69.8225C193.062 69.1053 193.48 68.3311 193.816 67.5083C194.25 66.2795 194.684 64.993 195.086 63.6803C195.311 63.5485 195.54 63.4607 195.765 63.4253C195.325 64.8975 194.841 66.3404 194.356 67.714C193.932 68.7517 193.385 69.7155 192.731 70.5898Z" fill="#A8FE3B"/>
<path id="path282" d="M177.456 75.533L174.443 74.9513C173.913 74.8496 173.564 74.3334 173.666 73.8042L173.699 73.6355C173.801 73.1062 174.317 72.7565 174.846 72.8589L177.86 73.4398C178.389 73.5423 178.739 74.0584 178.637 74.5877L178.604 74.7564C178.502 75.2857 177.986 75.6354 177.456 75.533Z" fill="white"/>
<path id="path284" d="M173.918 60.5322C173.918 60.5322 172.128 63.7786 170.43 65.2377C171.353 66.3525 173.194 66.1353 173.194 66.1353L173.918 60.5322Z" fill="#E3A67C"/>
<path id="path286" d="M175.621 70.278L175.685 70.3011C178.37 70.6354 180.451 68.8967 180.539 68.822L180.556 68.6101L180.344 68.5932C180.324 68.6101 178.273 70.3211 175.722 70.0037C175.639 69.993 175.565 70.0515 175.555 70.1339L175.621 70.278Z" fill="#17282F"/>
<path id="path288" d="M184.429 56.7266C184.518 56.7674 184.624 56.7635 184.713 56.7081C184.853 56.6195 184.895 56.4346 184.808 56.2944C183.471 54.1673 181.389 54.1088 181.301 54.1072C181.136 54.1049 181 54.2359 180.996 54.4015C180.993 54.5664 181.125 54.7043 181.29 54.7074C181.364 54.7097 183.141 54.7713 184.299 56.6133L184.429 56.7266Z" fill="#17282F"/>
<path id="path290" d="M180.018 60.6693C179.883 61.4636 179.352 62.036 178.833 61.9481C178.313 61.8595 178.002 61.1439 178.137 60.3488C178.273 59.5538 178.803 58.9814 179.323 59.07C179.842 59.1586 180.154 59.8743 180.018 60.6693Z" fill="#17282F"/>
<path id="path292" d="M171.037 59.138C170.902 59.9323 170.372 60.5047 169.852 60.4169C169.332 60.3283 169.021 59.6118 169.157 58.8176C169.292 58.0225 169.822 57.4501 170.342 57.5387C170.862 57.6273 171.173 58.343 171.037 59.138Z" fill="#17282F"/>
<path id="path294" d="M170.561 57.6221L168.746 56.7469C168.746 56.7469 169.472 58.4048 170.561 57.6221Z" fill="#17282F"/>
<path id="path296" d="M179.546 59.1533L177.73 58.2782C177.73 58.2782 178.455 59.936 179.546 59.1533Z" fill="#17282F"/>
<path id="path298" d="M167.984 53.7737C168.082 53.8184 168.2 53.8084 168.291 53.739C170.018 52.4147 171.705 52.9741 171.776 52.9987C171.932 53.0526 172.103 52.9702 172.158 52.8138C172.212 52.6582 172.126 52.4856 171.974 52.4325C171.89 52.4032 169.918 51.7337 167.926 53.2629C167.795 53.3639 167.77 53.5518 167.87 53.6836L167.984 53.7737Z" fill="#17282F"/>
<path id="path300" d="M158.185 163.824C158.185 163.824 158.076 158.304 159.714 153.996C163.236 153.996 200.055 153.996 200.055 153.996C200.055 153.996 203.681 159.854 204.622 163.824C200.086 163.824 158.185 163.824 158.185 163.824Z" fill="#4B8700"/>
<path id="path302" d="M200.662 151.632L200.983 155.243C201.125 155.523 200.793 155.809 200.327 155.809H159.518C159.154 155.809 158.853 155.631 158.83 155.402L158.466 151.791C158.441 151.541 158.756 151.329 159.154 151.329H200.005C200.305 151.329 200.571 151.451 200.662 151.632Z" fill="#406FBF"/>
<path id="path304" d="M200.323 155.809H159.514C159.15 155.809 158.849 155.631 158.826 155.402L158.462 151.791C158.461 151.781 158.461 151.772 158.461 151.762C158.462 151.524 158.768 151.329 159.15 151.329H200.001C200.301 151.329 200.567 151.451 200.658 151.632L200.979 155.243C201.002 155.288 201.012 155.332 201.012 155.376C201.011 155.607 200.714 155.809 200.323 155.809Z" fill="#ECFFCF"/>
<path id="path306" d="M195.171 156.199H196.266C196.483 156.199 196.65 156.087 196.634 155.95L196.121 151.258C196.107 151.121 195.916 151.008 195.698 151.008H194.604C194.386 151.008 194.22 151.121 194.235 151.258L194.748 155.95C194.763 156.087 194.953 156.199 195.171 156.199Z" fill="#A1C36F"/>
<path id="path308" d="M162.59 156.199H163.684C163.902 156.199 164.068 156.087 164.053 155.95L163.54 151.258C163.525 151.121 163.334 151.008 163.116 151.008H162.022C161.804 151.008 161.639 151.121 161.653 151.258L162.166 155.95C162.182 156.087 162.372 156.199 162.59 156.199Z" fill="#A1C36F"/>
<path id="path310" d="M178.883 156.199H179.977C180.195 156.199 180.361 156.087 180.346 155.95L179.833 151.258C179.818 151.121 179.627 151.008 179.409 151.008H178.315C178.098 151.008 177.932 151.121 177.946 151.258L178.459 155.95C178.475 156.087 178.665 156.199 178.883 156.199Z" fill="#A1C36F"/>
<path id="path312" d="M210.654 105.145C212.429 110.897 214.132 116.692 215.762 122.488L218.217 131.167L219.442 135.479L219.753 136.542L219.909 137.074L219.945 137.199L219.952 137.229L219.954 137.259L219.827 137.069C219.725 136.93 219.56 136.683 219.119 136.345C218.703 136.009 217.859 135.634 217.054 135.614C216.253 135.583 215.704 135.8 215.422 135.936C214.868 136.234 214.921 136.307 214.965 136.253C215.032 136.204 215.173 136.06 215.324 135.875C215.63 135.502 215.981 134.989 216.32 134.444C217.004 133.341 217.668 132.089 218.305 130.809C219.609 128.252 220.796 125.538 221.987 122.818C223.163 120.088 224.318 117.326 225.45 114.549C226.62 111.788 227.711 108.971 228.85 106.209L233.769 107.678C232.495 113.685 230.998 119.583 229.162 125.467C228.255 128.415 227.245 131.336 226.084 134.297C225.482 135.774 224.843 137.253 224.051 138.787C223.648 139.559 223.214 140.34 222.635 141.192C222.342 141.618 222.011 142.065 221.557 142.563C221.078 143.051 220.557 143.636 219.32 144.263C218.698 144.56 217.773 144.88 216.593 144.831C215.409 144.801 214.202 144.266 213.49 143.701C212.749 143.131 212.341 142.588 212.033 142.134C211.725 141.671 211.547 141.303 211.382 140.941C211.309 140.774 211.231 140.594 211.175 140.443L211.033 140.062L210.832 139.519L210.43 138.431C209.908 136.986 209.379 135.551 208.889 134.108C207.902 131.225 206.916 128.352 205.99 125.464C204.103 119.694 202.349 113.905 200.711 108.061L210.654 105.145Z" fill="#FFCEAC"/>
<path id="path314" d="M207.205 93.7608C211.246 94.9896 217.433 110.852 217.433 110.852L201.753 122.062C201.753 122.062 194.702 108.5 196.401 103.276C198.17 97.8354 202.592 92.3579 207.205 93.7608Z" fill="#406FBF"/>
<path id="path316" d="M201.753 122.062C201.753 122.062 201.684 121.928 201.559 121.682C200.961 120.491 199.101 116.678 197.725 112.664C196.828 110.044 196.137 107.339 196.137 105.221C196.137 104.495 196.218 103.837 196.401 103.276C197.979 98.4217 201.67 93.5382 205.723 93.5382C206.213 93.5382 206.708 93.6098 207.205 93.7608C211.246 94.9896 217.433 110.852 217.433 110.852L213.271 113.828L204.316 120.23L201.753 122.062Z" fill="#ECFFCF"/>
<path id="path318" d="M229.021 108.304L226.871 98.8254L235.804 103.539C235.804 103.539 235.917 109.916 232.312 111.93L229.021 108.304Z" fill="#FFCEAC"/>
<path id="path320" d="M230.611 91.3061L236.312 95.3475L235.804 103.539L226.871 98.8258L230.611 91.3061Z" fill="#FFCEAC"/>
<path id="path322" d="M70.5577 43.6169H132.959C138.044 43.6169 141.949 47.777 141.637 52.8615L139.908 81.1093C139.597 86.1938 135.182 90.3539 130.098 90.3539H122.872L125.824 100.051L111.703 90.3539H67.6965C62.612 90.3539 58.7064 86.1938 59.0174 81.1093L60.7469 52.8615C61.0589 47.777 65.4732 43.6169 70.5577 43.6169Z" fill="#A8FE3B"/>
<path id="path324" d="M127.242 58.4102H74.4661C73.5086 58.4102 72.7728 57.6267 72.8314 56.6683C72.8899 55.7107 73.722 54.9272 74.6795 54.9272H127.456C128.413 54.9272 129.15 55.7107 129.09 56.6683C129.032 57.6267 128.201 58.4102 127.242 58.4102Z" fill="white"/>
<path id="path326" d="M96.0043 68.7266H73.8333C72.8757 68.7266 72.14 67.9431 72.1986 66.9855C72.2571 66.0271 73.0891 65.2436 74.0467 65.2436H96.2177C97.1753 65.2436 97.911 66.0271 97.8524 66.9855C97.7939 67.9431 96.9626 68.7266 96.0043 68.7266Z" fill="white"/>
<path id="path328" d="M114.95 79.0391H73.2005C72.2429 79.0391 71.5072 78.2556 71.5658 77.298C71.6243 76.3404 72.4556 75.5561 73.4139 75.5561H115.163C116.121 75.5561 116.857 76.3404 116.798 77.298C116.74 78.2556 115.908 79.0391 114.95 79.0391Z" fill="white"/>
<path id="path330" d="M112.234 68.7266H103.513C102.555 68.7266 101.819 67.9431 101.878 66.9855C101.937 66.0271 102.768 65.2436 103.726 65.2436H112.447C113.405 65.2436 114.141 66.0271 114.082 66.9855C114.023 67.9431 113.192 68.7266 112.234 68.7266Z" fill="white"/>
<path id="path332" d="M157.33 10.5789H135.612C133.086 10.5789 130.893 12.666 130.738 15.2166L129.88 29.3878C129.725 31.9389 131.665 34.026 134.19 34.026H137.78L135.724 38.8906L143.327 34.026H155.908C158.434 34.026 160.627 31.9389 160.782 29.3878L161.641 15.2166C161.796 12.666 159.856 10.5789 157.33 10.5789Z" fill="#528116"/>
<path id="path334" d="M133.993 38.3125L136.05 33.4479H132.46C130.028 33.4479 128.14 31.5127 128.141 29.0918C128.141 28.9985 128.144 28.9046 128.149 28.8097L129.008 14.6385C129.163 12.0879 131.356 10.0008 133.881 10.0008H155.599C158.032 10.0008 159.92 11.9354 159.919 14.3568C159.919 14.4502 159.916 14.5441 159.91 14.6385L159.78 16.7847L159.052 28.8097C159.011 29.4683 158.836 30.0957 158.553 30.6644C157.742 32.299 156.052 33.4479 154.178 33.4479H153.221H142.463H141.597L137.13 36.3059L133.993 38.3125Z" fill="#A8FE3B"/>
<path id="path336" d="M142.623 27.3493L142.63 27.2157C142.666 26.5868 143.169 26.0767 143.754 26.0767H143.878C144.463 26.0767 144.908 26.5868 144.872 27.2157L144.865 27.3493C144.829 27.9786 144.326 28.4883 143.741 28.4883H143.617C143.032 28.4883 142.587 27.9786 142.623 27.3493ZM144.873 24.305C144.765 24.8525 144.284 25.2439 143.77 25.2439H142.743C142.755 24.9296 142.763 24.7375 142.767 24.6693C142.808 23.9598 142.95 23.3759 143.194 22.9179C143.438 22.4604 143.903 21.9456 144.59 21.3731C145.277 20.8011 145.689 20.4262 145.827 20.249C146.04 19.9687 146.156 19.6595 146.175 19.322C146.202 18.853 146.05 18.4506 145.721 18.116C145.392 17.7814 144.932 17.6139 144.342 17.6139C143.772 17.6139 143.286 17.7886 142.884 18.1376C142.65 18.3403 142.453 18.6045 142.293 18.9306C142.066 19.3919 141.614 19.6816 141.148 19.6188C140.427 19.5221 140.042 18.6728 140.423 17.9765C140.647 17.566 140.948 17.1903 141.326 16.8502C142.119 16.1348 143.127 15.7769 144.35 15.7769C145.637 15.7769 146.641 16.139 147.36 16.8629C148.079 17.5868 148.411 18.4294 148.357 19.3907C148.326 19.9229 148.158 20.4262 147.852 20.9011C147.546 21.3761 146.912 22.0228 145.951 22.8408C145.453 23.2644 145.14 23.6049 145.011 23.8623C144.956 23.9726 144.91 24.1201 144.873 24.305Z" fill="white"/>
</g>
</svg>
