<svg width="188" height="188" viewBox="0 0 188 188" fill="none" xmlns="http://www.w3.org/2000/svg">
<g id="1">
<path id="Best Customer Service Saas" d="M41.1269 61.3206H44.3399C45.6713 61.3206 46.6205 61.518 47.1875 61.9128C47.7545 62.3076 48.038 62.8746 48.038 63.6138C48.038 64.017 47.9645 64.3593 47.8175 64.6407C47.6747 64.9221 47.492 65.1447 47.2694 65.3085C47.051 65.4723 46.8263 65.5836 46.5953 65.6424V65.7054C46.8473 65.7684 47.0972 65.8734 47.345 66.0204C47.597 66.1632 47.8049 66.3795 47.9687 66.6693C48.1367 66.9549 48.2207 67.3434 48.2207 67.8348C48.2207 68.3934 48.0779 68.8743 47.7923 69.2775C47.5109 69.6807 47.1077 69.9915 46.5827 70.2099C46.0577 70.4241 45.434 70.5312 44.7116 70.5312H41.1269V61.3206ZM43.6154 64.8549H44.3651C44.7767 64.8549 45.0665 64.7709 45.2345 64.6029C45.4025 64.4307 45.4865 64.2228 45.4865 63.9792C45.4865 63.7272 45.3899 63.5361 45.1967 63.4059C45.0077 63.2715 44.7137 63.2043 44.3147 63.2043H43.6154V64.8549ZM43.6154 66.6756V68.6097H44.4911C44.9237 68.6097 45.2261 68.5173 45.3983 68.3325C45.5705 68.1435 45.6566 67.9083 45.6566 67.6269C45.6566 67.4631 45.6188 67.3098 45.5432 67.167C45.4718 67.02 45.3479 66.9024 45.1715 66.8142C44.9951 66.7218 44.7515 66.6756 44.4407 66.6756H43.6154ZM55.2893 70.5312H49.8209V61.3206H55.2893V63.3177H52.3094V64.7667H55.0688V66.7638H52.3094V68.5026H55.2893V70.5312ZM62.925 67.734C62.925 68.2338 62.799 68.7084 62.547 69.1578C62.295 69.603 61.9023 69.9642 61.3689 70.2414C60.8397 70.5186 60.1551 70.6573 59.3151 70.6573C58.8951 70.6573 58.5255 70.6384 58.2063 70.6006C57.8913 70.5628 57.5973 70.5018 57.3243 70.4178C57.0513 70.3296 56.7677 70.2162 56.4737 70.0776V67.86C56.9736 68.112 57.4776 68.3052 57.9858 68.4396C58.494 68.5698 58.9539 68.6349 59.3655 68.6349C59.6133 68.6349 59.8149 68.6055 59.9703 68.5467C60.1299 68.4879 60.2475 68.4081 60.3231 68.3073C60.3987 68.2023 60.4365 68.0826 60.4365 67.9482C60.4365 67.7886 60.3798 67.6542 60.2664 67.545C60.1572 67.4316 59.9808 67.314 59.7372 67.1922C59.4936 67.0704 59.1723 66.9192 58.7733 66.7386C58.4331 66.579 58.1244 66.4152 57.8472 66.2472C57.5742 66.0792 57.339 65.8881 57.1416 65.6739C56.9484 65.4555 56.7992 65.2014 56.6942 64.9116C56.5892 64.6218 56.5367 64.2795 56.5367 63.8847C56.5367 63.2925 56.6816 62.7969 56.9715 62.3979C57.2655 61.9947 57.6729 61.6923 58.1937 61.4907C58.7187 61.2891 59.3235 61.1883 60.0081 61.1883C60.6087 61.1883 61.1484 61.2555 61.6272 61.3899C62.1102 61.5243 62.5428 61.6776 62.925 61.8498L62.1627 63.7713C61.7679 63.5907 61.3794 63.4479 60.9972 63.3429C60.615 63.2337 60.2601 63.1791 59.9325 63.1791C59.7183 63.1791 59.5419 63.2064 59.4033 63.261C59.2689 63.3114 59.1681 63.3807 59.1009 63.4689C59.0379 63.5571 59.0064 63.6579 59.0064 63.7713C59.0064 63.9141 59.061 64.0422 59.1702 64.1556C59.2836 64.269 59.4705 64.3929 59.7309 64.5273C59.9955 64.6575 60.3546 64.8276 60.8082 65.0376C61.2576 65.2392 61.6398 65.4576 61.9548 65.6928C62.2698 65.9238 62.5092 66.2031 62.673 66.5307C62.841 66.8541 62.925 67.2552 62.925 67.734ZM68.4123 70.5312H65.9238V63.3555H63.6747V61.3206H70.6551V63.3555H68.4123V70.5312ZM79.4248 63.2295C79.1308 63.2295 78.8683 63.2925 78.6373 63.4185C78.4063 63.5403 78.2089 63.7188 78.0451 63.954C77.8813 64.1892 77.7553 64.4769 77.6671 64.8171C77.5831 65.1531 77.5411 65.5353 77.5411 65.9637C77.5411 66.5433 77.6146 67.0305 77.7616 67.4253C77.9086 67.8201 78.1312 68.1183 78.4294 68.3199C78.7318 68.5215 79.1098 68.6223 79.5634 68.6223C79.975 68.6223 80.3698 68.5656 80.7478 68.4522C81.13 68.3388 81.5143 68.2023 81.9007 68.0427V70.1469C81.4933 70.3275 81.0754 70.4577 80.647 70.5376C80.2228 70.6174 79.7713 70.6573 79.2925 70.6573C78.2929 70.6573 77.4739 70.4598 76.8355 70.065C76.2013 69.666 75.733 69.1137 75.4306 68.4081C75.1324 67.7025 74.9833 66.8835 74.9833 65.9511C74.9833 65.2539 75.0799 64.6155 75.2731 64.0359C75.4705 63.4563 75.7582 62.9544 76.1362 62.5302C76.5142 62.1018 76.9804 61.7721 77.5348 61.5411C78.0934 61.3059 78.7318 61.1883 79.45 61.1883C79.8952 61.1883 80.3635 61.2408 80.8549 61.3458C81.3505 61.4466 81.8335 61.6104 82.3039 61.8372L81.5416 63.7965C81.2056 63.6369 80.8654 63.5025 80.521 63.3933C80.1766 63.2841 79.8112 63.2295 79.4248 63.2295ZM91.5335 61.3206V66.8646C91.5335 67.6374 91.3865 68.3094 91.0925 68.8806C90.7985 69.4476 90.3574 69.8865 89.7694 70.1973C89.1814 70.5039 88.4443 70.6573 87.5581 70.6573C86.2897 70.6573 85.3216 70.3317 84.6538 69.6807C83.986 69.0297 83.6521 68.1099 83.6521 66.9213V61.3206H86.1532V66.726C86.1532 67.377 86.275 67.8495 86.5186 68.1435C86.7622 68.4375 87.1213 68.5845 87.5959 68.5845C87.9361 68.5845 88.2133 68.5215 88.4275 68.3955C88.6417 68.2653 88.7971 68.0616 88.8937 67.7844C88.9945 67.5072 89.0449 67.1502 89.0449 66.7134V61.3206H91.5335ZM99.4904 67.734C99.4904 68.2338 99.3644 68.7084 99.1124 69.1578C98.8604 69.603 98.4677 69.9642 97.9343 70.2414C97.4051 70.5186 96.7205 70.6573 95.8805 70.6573C95.4605 70.6573 95.0909 70.6384 94.7717 70.6006C94.4567 70.5628 94.1627 70.5018 93.8897 70.4178C93.6167 70.3296 93.3332 70.2162 93.0392 70.0776V67.86C93.539 68.112 94.043 68.3052 94.5512 68.4396C95.0594 68.5698 95.5193 68.6349 95.9309 68.6349C96.1787 68.6349 96.3803 68.6055 96.5357 68.5467C96.6953 68.4879 96.8129 68.4081 96.8885 68.3073C96.9641 68.2023 97.0019 68.0826 97.0019 67.9482C97.0019 67.7886 96.9452 67.6542 96.8318 67.545C96.7226 67.4316 96.5462 67.314 96.3026 67.1922C96.059 67.0704 95.7377 66.9192 95.3387 66.7386C94.9985 66.579 94.6898 66.4152 94.4126 66.2472C94.1396 66.0792 93.9044 65.8881 93.707 65.6739C93.5138 65.4555 93.3647 65.2014 93.2597 64.9116C93.1547 64.6218 93.1022 64.2795 93.1022 63.8847C93.1022 63.2925 93.2471 62.7969 93.5369 62.3979C93.8309 61.9947 94.2383 61.6923 94.7591 61.4907C95.2841 61.2891 95.8889 61.1883 96.5735 61.1883C97.1741 61.1883 97.7138 61.2555 98.1926 61.3899C98.6756 61.5243 99.1082 61.6776 99.4904 61.8498L98.7281 63.7713C98.3333 63.5907 97.9448 63.4479 97.5626 63.3429C97.1804 63.2337 96.8255 63.1791 96.4979 63.1791C96.2837 63.1791 96.1073 63.2064 95.9687 63.261C95.8343 63.3114 95.7335 63.3807 95.6663 63.4689C95.6033 63.5571 95.5718 63.6579 95.5718 63.7713C95.5718 63.9141 95.6264 64.0422 95.7356 64.1556C95.849 64.269 96.0359 64.3929 96.2963 64.5273C96.5609 64.6575 96.92 64.8276 97.3736 65.0376C97.823 65.2392 98.2052 65.4576 98.5202 65.6928C98.8352 65.9238 99.0746 66.2031 99.2384 66.5307C99.4064 66.8541 99.4904 67.2552 99.4904 67.734ZM104.978 70.5312H102.489V63.3555H100.24V61.3206H107.221V63.3555H104.978V70.5312ZM117.156 65.9133C117.156 66.6231 117.07 67.2699 116.897 67.8537C116.729 68.4333 116.465 68.9331 116.104 69.3531C115.742 69.7731 115.278 70.0965 114.711 70.3233C114.144 70.546 113.466 70.6573 112.676 70.6573C111.904 70.6573 111.234 70.546 110.667 70.3233C110.104 70.0965 109.64 69.7752 109.274 69.3594C108.909 68.9394 108.638 68.4375 108.462 67.8537C108.285 67.2699 108.197 66.6189 108.197 65.9007C108.197 64.9431 108.355 64.1115 108.67 63.4059C108.989 62.6961 109.48 62.148 110.144 61.7616C110.807 61.371 111.656 61.1757 112.689 61.1757C113.739 61.1757 114.592 61.371 115.247 61.7616C115.906 62.1522 116.389 62.7024 116.696 63.4122C117.002 64.122 117.156 64.9557 117.156 65.9133ZM110.818 65.9133C110.818 66.4677 110.881 66.9444 111.007 67.3434C111.133 67.7424 111.332 68.049 111.605 68.2632C111.878 68.4774 112.235 68.5845 112.676 68.5845C113.134 68.5845 113.497 68.4774 113.766 68.2632C114.039 68.049 114.235 67.7424 114.352 67.3434C114.474 66.9444 114.535 66.4677 114.535 65.9133C114.535 65.0817 114.396 64.4244 114.119 63.9414C113.842 63.4584 113.365 63.2169 112.689 63.2169C112.24 63.2169 111.876 63.3261 111.599 63.5445C111.326 63.7629 111.127 64.0737 111.001 64.4769C110.879 64.8801 110.818 65.3589 110.818 65.9133ZM122.832 70.5312L120.948 63.8973H120.892C120.908 64.0695 120.925 64.3026 120.942 64.5966C120.963 64.8906 120.982 65.2077 120.999 65.5479C121.016 65.8881 121.024 66.2157 121.024 66.5307V70.5312H118.819V61.3206H122.133L124.054 67.86H124.105L125.988 61.3206H129.308V70.5312H127.022V66.4929C127.022 66.2031 127.026 65.8923 127.034 65.5605C127.047 65.2245 127.059 64.9095 127.072 64.6155C127.089 64.3173 127.103 64.0821 127.116 63.9099H127.059L125.201 70.5312H122.832ZM136.761 70.5312H131.293V61.3206H136.761V63.3177H133.781V64.7667H136.541V66.7638H133.781V68.5026H136.761V70.5312ZM141.392 61.3206C142.228 61.3206 142.923 61.4235 143.477 61.6293C144.032 61.8309 144.447 62.1333 144.725 62.5365C145.006 62.9397 145.147 63.4416 145.147 64.0422C145.147 64.416 145.084 64.7562 144.958 65.0628C144.832 65.3694 144.651 65.6445 144.416 65.8881C144.185 66.1275 143.908 66.3375 143.584 66.5181L146.268 70.5312H143.446L141.493 67.1796H140.863V70.5312H138.374V61.3206H141.392ZM141.354 63.2043H140.863V65.3085H141.329C141.711 65.3085 142.024 65.2245 142.268 65.0565C142.511 64.8885 142.633 64.5882 142.633 64.1556C142.633 63.8574 142.532 63.6243 142.331 63.4563C142.129 63.2883 141.804 63.2043 141.354 63.2043ZM57.2298 85.734C57.2298 86.2338 57.1038 86.7084 56.8517 87.1578C56.5997 87.603 56.207 87.9642 55.6736 88.2414C55.1444 88.5186 54.4598 88.6573 53.6198 88.6573C53.1998 88.6573 52.8302 88.6384 52.511 88.6006C52.196 88.5628 51.902 88.5018 51.629 88.4178C51.356 88.3296 51.0725 88.2162 50.7785 88.0776V85.86C51.2783 86.112 51.7823 86.3052 52.2905 86.4396C52.7987 86.5698 53.2586 86.6349 53.6702 86.6349C53.918 86.6349 54.1196 86.6055 54.275 86.5467C54.4346 86.4879 54.5522 86.4081 54.6278 86.3073C54.7034 86.2023 54.7412 86.0826 54.7412 85.9482C54.7412 85.7886 54.6845 85.6542 54.5711 85.545C54.4619 85.4316 54.2855 85.314 54.0419 85.1922C53.7983 85.0704 53.477 84.9192 53.078 84.7386C52.7378 84.579 52.4291 84.4152 52.1519 84.2472C51.8789 84.0792 51.6437 83.8881 51.4463 83.6739C51.2531 83.4555 51.104 83.2014 50.999 82.9116C50.894 82.6218 50.8415 82.2795 50.8415 81.8847C50.8415 81.2925 50.9864 80.7969 51.2762 80.3979C51.5702 79.9947 51.9776 79.6923 52.4984 79.4907C53.0234 79.2891 53.6282 79.1883 54.3128 79.1883C54.9134 79.1883 55.4531 79.2555 55.9319 79.3899C56.4149 79.5243 56.8475 79.6776 57.2298 79.8498L56.4674 81.7713C56.0726 81.5907 55.6841 81.4479 55.3019 81.3429C54.9197 81.2337 54.5648 81.1791 54.2372 81.1791C54.023 81.1791 53.8466 81.2064 53.708 81.261C53.5736 81.3114 53.4728 81.3807 53.4056 81.4689C53.3426 81.5571 53.3111 81.6579 53.3111 81.7713C53.3111 81.9141 53.3657 82.0422 53.4749 82.1556C53.5883 82.269 53.7752 82.3929 54.0356 82.5273C54.3002 82.6575 54.6593 82.8276 55.1129 83.0376C55.5623 83.2392 55.9445 83.4576 56.2595 83.6928C56.5745 83.9238 56.8139 84.2031 56.9777 84.5307C57.1458 84.8541 57.2298 85.2552 57.2298 85.734ZM64.122 88.5312H58.6536V79.3206H64.122V81.3177H61.1421V82.7667H63.9015V84.7638H61.1421V86.5026H64.122V88.5312ZM68.7525 79.3206C69.5883 79.3206 70.2834 79.4235 70.8378 79.6293C71.3922 79.8309 71.808 80.1333 72.0852 80.5365C72.3666 80.9397 72.5073 81.4416 72.5073 82.0422C72.5073 82.416 72.4443 82.7562 72.3183 83.0628C72.1923 83.3694 72.0117 83.6445 71.7765 83.8881C71.5455 84.1275 71.2683 84.3375 70.9449 84.5181L73.6287 88.5312H70.8063L68.8533 85.1796H68.2233V88.5312H65.7348V79.3206H68.7525ZM68.7147 81.2043H68.2233V83.3085H68.6895C69.0717 83.3085 69.3846 83.2245 69.6282 83.0565C69.8718 82.8885 69.9936 82.5882 69.9936 82.1556C69.9936 81.8574 69.8928 81.6243 69.6912 81.4563C69.4896 81.2883 69.1641 81.2043 68.7147 81.2043ZM82.4236 79.3206L79.4059 88.5312H76.4764L73.4712 79.3206H76.2685L77.5222 83.9889C77.5684 84.1653 77.6209 84.3921 77.6797 84.6693C77.7427 84.9423 77.7994 85.2153 77.8498 85.4883C77.9044 85.7613 77.938 85.9839 77.9506 86.1561C77.9674 85.9839 77.9989 85.7634 78.0451 85.4946C78.0913 85.2258 78.1417 84.957 78.1963 84.6882C78.2551 84.4152 78.3097 84.1905 78.3601 84.0141L79.639 79.3206H82.4236ZM83.4253 88.5312V79.3206H85.9264V88.5312H83.4253ZM92.0249 81.2295C91.7309 81.2295 91.4684 81.2925 91.2374 81.4185C91.0064 81.5403 90.809 81.7188 90.6451 81.954C90.4813 82.1892 90.3553 82.4769 90.2671 82.8171C90.1831 83.1531 90.1411 83.5353 90.1411 83.9637C90.1411 84.5433 90.2146 85.0305 90.3616 85.4253C90.5086 85.8201 90.7312 86.1183 91.0295 86.3199C91.3319 86.5215 91.7099 86.6223 92.1635 86.6223C92.5751 86.6223 92.9699 86.5656 93.3479 86.4522C93.7301 86.3388 94.1144 86.2023 94.5008 86.0427V88.1469C94.0934 88.3275 93.6755 88.4577 93.2471 88.5376C92.8229 88.6174 92.3714 88.6573 91.8926 88.6573C90.893 88.6573 90.0739 88.4598 89.4355 88.065C88.8013 87.666 88.333 87.1137 88.0306 86.4081C87.7324 85.7025 87.5833 84.8835 87.5833 83.9511C87.5833 83.2539 87.6799 82.6155 87.8731 82.0359C88.0705 81.4563 88.3582 80.9544 88.7362 80.5302C89.1142 80.1018 89.5804 79.7721 90.1348 79.5411C90.6934 79.3059 91.3319 79.1883 92.0501 79.1883C92.4953 79.1883 92.9636 79.2408 93.455 79.3458C93.9506 79.4466 94.4336 79.6104 94.904 79.8372L94.1417 81.7965C93.8057 81.6369 93.4655 81.5025 93.1211 81.3933C92.7767 81.2841 92.4113 81.2295 92.0249 81.2295ZM101.771 88.5312H96.3026V79.3206H101.771V81.3177H98.7911V82.7667H101.551V84.7638H98.7911V86.5026H101.771V88.5312ZM112.758 85.734C112.758 86.2338 112.632 86.7084 112.38 87.1578C112.128 87.603 111.736 87.9642 111.202 88.2414C110.673 88.5186 109.988 88.6573 109.148 88.6573C108.728 88.6573 108.359 88.6384 108.04 88.6006C107.725 88.5628 107.431 88.5018 107.158 88.4178C106.885 88.3296 106.601 88.2162 106.307 88.0776V85.86C106.807 86.112 107.311 86.3052 107.819 86.4396C108.327 86.5698 108.787 86.6349 109.199 86.6349C109.447 86.6349 109.648 86.6055 109.804 86.5467C109.963 86.4879 110.081 86.4081 110.156 86.3073C110.232 86.2023 110.27 86.0826 110.27 85.9482C110.27 85.7886 110.213 85.6542 110.1 85.545C109.99 85.4316 109.814 85.314 109.57 85.1922C109.327 85.0704 109.006 84.9192 108.607 84.7386C108.266 84.579 107.958 84.4152 107.68 84.2472C107.407 84.0792 107.172 83.8881 106.975 83.6739C106.782 83.4555 106.633 83.2014 106.528 82.9116C106.423 82.6218 106.37 82.2795 106.37 81.8847C106.37 81.2925 106.515 80.7969 106.805 80.3979C107.099 79.9947 107.506 79.6923 108.027 79.4907C108.552 79.2891 109.157 79.1883 109.841 79.1883C110.442 79.1883 110.982 79.2555 111.46 79.3899C111.943 79.5243 112.376 79.6776 112.758 79.8498L111.996 81.7713C111.601 81.5907 111.213 81.4479 110.83 81.3429C110.448 81.2337 110.093 81.1791 109.766 81.1791C109.552 81.1791 109.375 81.2064 109.237 81.261C109.102 81.3114 109.001 81.3807 108.934 81.4689C108.871 81.5571 108.84 81.6579 108.84 81.7713C108.84 81.9141 108.894 82.0422 109.003 82.1556C109.117 82.269 109.304 82.3929 109.564 82.5273C109.829 82.6575 110.188 82.8276 110.641 83.0376C111.091 83.2392 111.473 83.4576 111.788 83.6928C112.103 83.9238 112.342 84.2031 112.506 84.5307C112.674 84.8541 112.758 85.2552 112.758 85.734ZM119.833 88.5312L119.38 86.805H116.387L115.921 88.5312H113.187L116.192 79.2828H119.512L122.555 88.5312H119.833ZM118.863 84.7638L118.466 83.2518C118.424 83.088 118.363 82.8549 118.283 82.5525C118.204 82.2459 118.124 81.9309 118.044 81.6075C117.968 81.2799 117.91 81.0111 117.868 80.8011C117.83 81.0111 117.775 81.2715 117.704 81.5823C117.637 81.8889 117.565 82.1934 117.49 82.4958C117.418 82.7982 117.355 83.0502 117.301 83.2518L116.904 84.7638H118.863ZM129.208 88.5312L128.754 86.805H125.762L125.295 88.5312H122.561L125.566 79.2828H128.886L131.929 88.5312H129.208ZM128.237 84.7638L127.841 83.2518C127.799 83.088 127.738 82.8549 127.658 82.5525C127.578 82.2459 127.498 81.9309 127.418 81.6075C127.343 81.2799 127.284 81.0111 127.242 80.8011C127.204 81.0111 127.15 81.2715 127.078 81.5823C127.011 81.8889 126.94 82.1934 126.864 82.4958C126.793 82.7982 126.73 83.0502 126.675 83.2518L126.278 84.7638H128.237ZM138.954 85.734C138.954 86.2338 138.828 86.7084 138.576 87.1578C138.324 87.603 137.931 87.9642 137.398 88.2414C136.869 88.5186 136.184 88.6573 135.344 88.6573C134.924 88.6573 134.554 88.6384 134.235 88.6006C133.92 88.5628 133.626 88.5018 133.353 88.4178C133.08 88.3296 132.797 88.2162 132.503 88.0776V85.86C133.002 86.112 133.506 86.3052 134.015 86.4396C134.523 86.5698 134.983 86.6349 135.394 86.6349C135.642 86.6349 135.844 86.6055 135.999 86.5467C136.159 86.4879 136.276 86.4081 136.352 86.3073C136.428 86.2023 136.465 86.0826 136.465 85.9482C136.465 85.7886 136.409 85.6542 136.295 85.545C136.186 85.4316 136.01 85.314 135.766 85.1922C135.522 85.0704 135.201 84.9192 134.802 84.7386C134.462 84.579 134.153 84.4152 133.876 84.2472C133.603 84.0792 133.368 83.8881 133.17 83.6739C132.977 83.4555 132.828 83.2014 132.723 82.9116C132.618 82.6218 132.566 82.2795 132.566 81.8847C132.566 81.2925 132.71 80.7969 133 80.3979C133.294 79.9947 133.702 79.6923 134.223 79.4907C134.748 79.2891 135.352 79.1883 136.037 79.1883C136.638 79.1883 137.177 79.2555 137.656 79.3899C138.139 79.5243 138.572 79.6776 138.954 79.8498L138.192 81.7713C137.797 81.5907 137.408 81.4479 137.026 81.3429C136.644 81.2337 136.289 81.1791 135.961 81.1791C135.747 81.1791 135.571 81.2064 135.432 81.261C135.298 81.3114 135.197 81.3807 135.13 81.4689C135.067 81.5571 135.035 81.6579 135.035 81.7713C135.035 81.9141 135.09 82.0422 135.199 82.1556C135.312 82.269 135.499 82.3929 135.76 82.5273C136.024 82.6575 136.383 82.8276 136.837 83.0376C137.286 83.2392 137.669 83.4576 137.984 83.6928C138.299 83.9238 138.538 84.2031 138.702 84.5307C138.87 84.8541 138.954 85.2552 138.954 85.734Z" fill="#A8FE3B"/>
<path id="2023 Q1 Awards" d="M72.8384 125.281H64.8343V123.597L67.7086 120.692C68.2881 120.097 68.7528 119.601 69.1027 119.204C69.4577 118.802 69.7135 118.436 69.8702 118.107C70.032 117.778 70.113 117.426 70.113 117.05C70.113 116.596 69.985 116.256 69.7292 116.032C69.4786 115.802 69.1418 115.687 68.7189 115.687C68.2751 115.687 67.8443 115.789 67.4266 115.993C67.009 116.196 66.573 116.486 66.1187 116.862L64.803 115.304C65.1319 115.022 65.4791 114.755 65.8446 114.505C66.2153 114.254 66.6435 114.053 67.129 113.902C67.6198 113.745 68.2072 113.667 68.8912 113.667C69.643 113.667 70.2879 113.802 70.8257 114.074C71.3687 114.345 71.7864 114.716 72.0787 115.186C72.3711 115.651 72.5173 116.178 72.5173 116.768C72.5173 117.4 72.392 117.977 72.1414 118.499C71.8908 119.021 71.5253 119.538 71.0449 120.05C70.5698 120.561 69.9955 121.128 69.3219 121.749L67.8496 123.135V123.245H72.8384V125.281ZM81.9546 119.556C81.9546 120.48 81.8815 121.305 81.7353 122.031C81.5944 122.757 81.3646 123.373 81.0462 123.879C80.7329 124.386 80.3204 124.772 79.8087 125.038C79.297 125.305 78.6757 125.438 77.9448 125.438C77.0258 125.438 76.2714 125.206 75.6814 124.741C75.0914 124.271 74.6554 123.597 74.3735 122.72C74.0915 121.838 73.9505 120.783 73.9505 119.556C73.9505 118.319 74.0785 117.261 74.3343 116.384C74.5954 115.502 75.0183 114.826 75.603 114.356C76.1878 113.886 76.9684 113.651 77.9448 113.651C78.8585 113.651 79.6103 113.886 80.2003 114.356C80.7955 114.821 81.2367 115.494 81.5239 116.376C81.8111 117.254 81.9546 118.314 81.9546 119.556ZM76.3549 119.556C76.3549 120.428 76.4019 121.157 76.4959 121.741C76.5951 122.321 76.7595 122.757 76.9893 123.049C77.219 123.342 77.5375 123.488 77.9448 123.488C78.3468 123.488 78.6627 123.344 78.8924 123.057C79.1274 122.765 79.2944 122.329 79.3936 121.749C79.4928 121.164 79.5424 120.433 79.5424 119.556C79.5424 118.684 79.4928 117.956 79.3936 117.371C79.2944 116.786 79.1274 116.348 78.8924 116.055C78.6627 115.758 78.3468 115.609 77.9448 115.609C77.5375 115.609 77.219 115.758 76.9893 116.055C76.7595 116.348 76.5951 116.786 76.4959 117.371C76.4019 117.956 76.3549 118.684 76.3549 119.556ZM91.1962 125.281H83.1921V123.597L86.0663 120.692C86.6459 120.097 87.1106 119.601 87.4604 119.204C87.8154 118.802 88.0713 118.436 88.2279 118.107C88.3898 117.778 88.4707 117.426 88.4707 117.05C88.4707 116.596 88.3428 116.256 88.0869 116.032C87.8363 115.802 87.4996 115.687 87.0766 115.687C86.6328 115.687 86.2021 115.789 85.7844 115.993C85.3667 116.196 84.9307 116.486 84.4765 116.862L83.1607 115.304C83.4897 115.022 83.8369 114.755 84.2024 114.505C84.5731 114.254 85.0012 114.053 85.4868 113.902C85.9776 113.745 86.565 113.667 87.2489 113.667C88.0008 113.667 88.6456 113.802 89.1834 114.074C89.7264 114.345 90.1441 114.716 90.4365 115.186C90.7289 115.651 90.8751 116.178 90.8751 116.768C90.8751 117.4 90.7498 117.977 90.4991 118.499C90.2485 119.021 89.883 119.538 89.4027 120.05C88.9276 120.561 88.3532 121.128 87.6797 121.749L86.2073 123.135V123.245H91.1962V125.281ZM99.9286 116.392C99.9286 116.919 99.819 117.376 99.5997 117.763C99.3804 118.149 99.0828 118.465 98.7069 118.71C98.3362 118.956 97.9185 119.136 97.4538 119.251V119.298C98.3727 119.413 99.0697 119.695 99.5449 120.144C100.025 120.593 100.265 121.193 100.265 121.945C100.265 122.613 100.101 123.211 99.772 123.738C99.4483 124.266 98.947 124.681 98.2683 124.984C97.5895 125.286 96.715 125.438 95.6446 125.438C95.0129 125.438 94.4229 125.386 93.8746 125.281C93.3316 125.182 92.82 125.028 92.3396 124.819V122.759C92.8304 123.01 93.3447 123.201 93.8825 123.331C94.4203 123.456 94.9215 123.519 95.3862 123.519C96.2529 123.519 96.8586 123.37 97.2032 123.073C97.553 122.77 97.7279 122.347 97.7279 121.804C97.7279 121.485 97.647 121.217 97.4851 120.997C97.3232 120.778 97.0413 120.611 96.6393 120.496C96.2425 120.381 95.6864 120.324 94.9711 120.324H94.1018V118.468H94.9868C95.6916 118.468 96.2268 118.402 96.5923 118.272C96.963 118.136 97.2136 117.953 97.3441 117.724C97.4799 117.489 97.5478 117.222 97.5478 116.925C97.5478 116.517 97.4224 116.199 97.1718 115.969C96.9212 115.74 96.5035 115.625 95.9187 115.625C95.5533 115.625 95.2191 115.672 94.9163 115.766C94.6187 115.854 94.3498 115.964 94.1096 116.095C93.8694 116.22 93.658 116.343 93.4752 116.463L92.3553 114.794C92.8043 114.471 93.329 114.202 93.9295 113.988C94.5351 113.774 95.2556 113.667 96.091 113.667C97.271 113.667 98.2056 113.904 98.8948 114.379C99.584 114.855 99.9286 115.525 99.9286 116.392ZM116.908 119.541C116.908 120.392 116.806 121.172 116.603 121.882C116.404 122.587 116.096 123.198 115.678 123.715C115.261 124.232 114.731 124.636 114.089 124.929L116.845 128.007H113.736L111.637 125.438C111.601 125.438 111.569 125.438 111.543 125.438C111.517 125.438 111.488 125.438 111.457 125.438C110.522 125.438 109.713 125.3 109.029 125.023C108.345 124.741 107.779 124.339 107.33 123.817C106.886 123.295 106.554 122.671 106.335 121.945C106.116 121.219 106.006 120.412 106.006 119.525C106.006 118.34 106.199 117.308 106.586 116.431C106.977 115.549 107.578 114.865 108.387 114.379C109.196 113.894 110.225 113.651 111.473 113.651C112.715 113.651 113.736 113.894 114.535 114.379C115.339 114.865 115.934 115.549 116.321 116.431C116.712 117.314 116.908 118.35 116.908 119.541ZM108.551 119.541C108.551 120.339 108.651 121.029 108.849 121.608C109.053 122.182 109.369 122.626 109.797 122.94C110.225 123.248 110.778 123.402 111.457 123.402C112.146 123.402 112.705 123.248 113.133 122.94C113.561 122.626 113.872 122.182 114.065 121.608C114.263 121.029 114.363 120.339 114.363 119.541C114.363 118.34 114.138 117.395 113.689 116.705C113.24 116.016 112.501 115.672 111.473 115.672C110.789 115.672 110.23 115.828 109.797 116.142C109.369 116.45 109.053 116.893 108.849 117.473C108.651 118.047 108.551 118.736 108.551 119.541ZM124.466 125.281H122.046V118.656C122.046 118.473 122.048 118.248 122.053 117.982C122.059 117.711 122.067 117.434 122.077 117.152C122.087 116.865 122.098 116.606 122.108 116.376C122.051 116.444 121.933 116.562 121.756 116.729C121.584 116.891 121.422 117.037 121.27 117.168L119.955 118.225L118.788 116.768L122.476 113.831H124.466V125.281ZM79.5177 140.281L78.797 138.235H75.9796L75.2589 140.281H73.9837L76.7255 132.882H78.0662L80.8029 140.281H79.5177ZM78.4845 137.197L77.7839 135.181C77.757 135.093 77.7184 134.971 77.668 134.813C77.6176 134.652 77.5672 134.489 77.5168 134.324C77.4664 134.156 77.4244 134.015 77.3908 133.901C77.3572 134.038 77.3152 134.193 77.2648 134.364C77.2178 134.532 77.1707 134.69 77.1237 134.838C77.08 134.986 77.0464 135.1 77.0229 135.181L76.3173 137.197H78.4845ZM90.4898 132.913L88.5645 140.281H87.2441L86.0143 135.866C85.9841 135.759 85.9505 135.631 85.9135 135.483C85.8765 135.335 85.8396 135.184 85.8026 135.03C85.769 134.875 85.7388 134.734 85.7119 134.606C85.6884 134.475 85.6716 134.374 85.6615 134.304C85.6548 134.374 85.6397 134.473 85.6161 134.601C85.5926 134.729 85.564 134.87 85.5304 135.024C85.5002 135.176 85.4666 135.327 85.4296 135.478C85.3927 135.626 85.3591 135.757 85.3288 135.871L84.1192 140.281H82.8038L80.8835 132.913H82.0982L83.1616 137.232C83.1952 137.37 83.2288 137.519 83.2624 137.681C83.2994 137.839 83.333 137.998 83.3632 138.159C83.3968 138.321 83.4271 138.479 83.454 138.633C83.4808 138.784 83.5027 138.922 83.5195 139.046C83.5363 138.919 83.5581 138.778 83.585 138.623C83.6119 138.465 83.6404 138.306 83.6707 138.144C83.7043 137.98 83.7379 137.822 83.7715 137.671C83.8084 137.519 83.8454 137.383 83.8824 137.262L85.0819 132.913H86.2613L87.486 137.277C87.5229 137.402 87.5582 137.541 87.5918 137.696C87.6288 137.85 87.6641 138.008 87.6977 138.169C87.7313 138.331 87.7615 138.487 87.7884 138.638C87.8153 138.789 87.8371 138.925 87.8539 139.046C87.8774 138.882 87.9077 138.694 87.9446 138.482C87.9816 138.27 88.0236 138.055 88.0706 137.837C88.1177 137.618 88.1647 137.417 88.2117 137.232L89.2702 132.913H90.4898ZM96.0994 140.281L95.3787 138.235H92.5613L91.8406 140.281H90.5654L93.3072 132.882H94.6479L97.3846 140.281H96.0994ZM95.0662 137.197L94.3656 135.181C94.3387 135.093 94.3001 134.971 94.2497 134.813C94.1993 134.652 94.1489 134.489 94.0985 134.324C94.0481 134.156 94.0061 134.015 93.9725 133.901C93.9389 134.038 93.8969 134.193 93.8465 134.364C93.7995 134.532 93.7524 134.69 93.7054 134.838C93.6617 134.986 93.6281 135.1 93.6046 135.181L92.899 137.197H95.0662ZM100.429 132.913C101.064 132.913 101.588 132.99 102.001 133.145C102.418 133.299 102.727 133.534 102.929 133.85C103.134 134.166 103.236 134.568 103.236 135.055C103.236 135.418 103.169 135.727 103.034 135.982C102.9 136.237 102.724 136.449 102.505 136.617C102.287 136.785 102.053 136.92 101.805 137.02L103.896 140.281H102.53L100.751 137.328H99.5669V140.281H98.3573V132.913H100.429ZM100.348 133.921H99.5669V136.33H100.404C100.965 136.33 101.371 136.226 101.623 136.017C101.879 135.809 102.006 135.502 102.006 135.095C102.006 134.668 101.87 134.366 101.598 134.188C101.329 134.01 100.913 133.921 100.348 133.921ZM110.932 136.526C110.932 137.356 110.778 138.05 110.469 138.608C110.159 139.162 109.711 139.581 109.123 139.863C108.535 140.142 107.826 140.281 106.996 140.281H104.95V132.913H107.218C107.98 132.913 108.639 133.05 109.193 133.326C109.748 133.598 110.176 134.003 110.479 134.541C110.781 135.075 110.932 135.737 110.932 136.526ZM109.672 136.562C109.672 135.957 109.576 135.46 109.385 135.07C109.197 134.68 108.918 134.391 108.548 134.203C108.182 134.011 107.73 133.916 107.192 133.916H106.159V139.268H107.016C107.907 139.268 108.572 139.041 109.012 138.588C109.452 138.134 109.672 137.459 109.672 136.562ZM116.774 138.275C116.774 138.712 116.666 139.088 116.451 139.404C116.239 139.72 115.934 139.962 115.534 140.13C115.137 140.298 114.664 140.382 114.112 140.382C113.844 140.382 113.587 140.367 113.341 140.337C113.096 140.306 112.864 140.263 112.646 140.206C112.431 140.145 112.234 140.073 112.056 139.989V138.85C112.355 138.981 112.689 139.1 113.059 139.208C113.429 139.312 113.805 139.364 114.188 139.364C114.501 139.364 114.759 139.324 114.964 139.243C115.173 139.159 115.327 139.041 115.428 138.89C115.529 138.736 115.579 138.556 115.579 138.351C115.579 138.133 115.52 137.948 115.403 137.797C115.285 137.645 115.107 137.508 114.868 137.383C114.633 137.256 114.338 137.119 113.981 136.975C113.739 136.878 113.508 136.767 113.286 136.642C113.067 136.518 112.873 136.372 112.701 136.204C112.53 136.036 112.394 135.838 112.293 135.609C112.196 135.377 112.147 135.105 112.147 134.793C112.147 134.376 112.246 134.02 112.444 133.724C112.646 133.428 112.928 133.202 113.291 133.044C113.657 132.886 114.084 132.807 114.571 132.807C114.958 132.807 115.32 132.847 115.66 132.928C116.002 133.008 116.338 133.123 116.668 133.271L116.285 134.243C115.982 134.119 115.688 134.02 115.403 133.946C115.12 133.872 114.832 133.835 114.536 133.835C114.28 133.835 114.064 133.874 113.886 133.951C113.708 134.028 113.571 134.137 113.477 134.279C113.387 134.416 113.341 134.581 113.341 134.772C113.341 134.988 113.393 135.169 113.498 135.317C113.605 135.461 113.77 135.594 113.991 135.715C114.217 135.836 114.506 135.97 114.858 136.118C115.265 136.286 115.609 136.463 115.892 136.647C116.177 136.832 116.396 137.054 116.547 137.313C116.698 137.568 116.774 137.889 116.774 138.275Z" fill="#E28D25"/>
<g id="Frame">
<g id="Group">
<path id="Vector" d="M54.0034 138.361C53.5887 137.762 53.2431 137.255 52.9897 136.932C52.8515 136.771 52.7593 136.633 52.6902 136.541C52.6211 136.448 52.598 136.402 52.598 136.402C52.598 136.402 52.4829 136.61 52.2985 136.978C52.1373 137.347 51.9069 137.854 51.6535 138.499C51.1697 139.789 50.6628 141.586 50.5246 143.59C50.4325 144.604 50.5477 145.595 50.732 146.608C50.9393 147.622 51.2849 148.636 51.7917 149.58C51.9299 149.81 52.0682 150.041 52.2064 150.294C52.3677 150.525 52.552 150.732 52.7132 150.939C53.0818 151.354 53.4965 151.746 53.9573 152.114C54.8788 152.851 55.9846 153.45 57.2978 153.888C58.9565 152.46 59.3251 150.64 59.0487 148.728C58.9104 147.783 58.611 146.816 58.1963 145.871C58.1041 145.641 57.9889 145.41 57.8737 145.157C57.7816 144.926 57.6664 144.673 57.5742 144.443C57.3439 143.959 57.1135 143.498 56.8831 143.037C56.3993 142.116 55.8464 141.263 55.3396 140.503C54.8558 139.697 54.418 138.96 54.0034 138.361Z" fill="#A8FE3B"/>
<path id="Vector_2" d="M46.6586 134.469L46.4973 133.755C46.2669 132.811 45.9905 131.912 45.691 131.106C45.5528 130.714 45.3915 130.322 45.2533 129.954C45.1381 129.585 45.0229 129.24 44.9077 128.917C44.4469 127.65 44.0783 126.844 44.0783 126.844C44.0783 126.844 43.4563 127.535 42.673 128.71C42.2814 129.286 41.8437 130 41.429 130.783C41.0143 131.567 40.5996 132.465 40.3462 133.387C40.0928 134.308 39.9085 135.276 39.8394 136.289C39.8163 136.796 39.8163 137.28 39.8624 137.787C39.8854 138.04 39.9085 138.294 39.9545 138.547C40.0006 138.777 40.0697 139.031 40.1619 139.261C40.4844 140.206 40.9682 141.127 41.6594 141.98C42.0049 142.394 42.3966 142.809 42.8804 143.155C43.3642 143.5 43.9171 143.823 44.5161 144.099C46.4282 142.947 47.1194 141.266 47.2345 139.469C47.3267 138.547 47.2806 137.579 47.1194 136.612C47.0502 136.128 46.9351 135.667 46.8199 135.183C46.7968 134.93 46.7277 134.7 46.6586 134.469Z" fill="#A8FE3B"/>
<path id="Vector_3" d="M32.8326 132.164C33.2012 132.556 33.639 132.947 34.1228 133.293C36.1962 132.487 37.302 130.989 37.8549 129.284C37.9931 128.87 38.1083 128.409 38.2235 127.971C38.3157 127.51 38.4078 127.05 38.4539 126.589C38.5691 125.644 38.5461 124.723 38.523 123.824C38.5461 122.903 38.5 122.004 38.4309 121.175C38.3617 120.346 38.2235 119.631 38.2005 118.963C38.0853 117.673 37.901 116.844 37.901 116.844C37.901 116.844 37.1407 117.42 36.1271 118.433C35.5972 118.94 35.0212 119.539 34.4453 120.23C34.1458 120.576 33.8463 120.945 33.5929 121.336C33.3164 121.728 33.063 122.119 32.8326 122.534C32.3488 123.363 31.9342 124.285 31.6347 125.207C31.4734 125.667 31.3582 126.151 31.2661 126.635C31.22 127.119 31.1969 127.579 31.22 128.063C31.2661 129.008 31.4964 129.975 31.9572 130.874C32.1415 131.335 32.464 131.749 32.8326 132.164Z" fill="#A8FE3B"/>
<path id="Vector_4" d="M25.1403 120.21C25.3937 120.648 25.7163 121.062 26.0849 121.477C28.2735 121.016 29.6788 119.749 30.6234 118.229C30.7385 118.044 30.8537 117.837 30.9689 117.653C31.0841 117.445 31.1993 117.238 31.2915 117.031C31.4988 116.616 31.6831 116.178 31.8444 115.74C32.1669 114.865 32.3973 113.967 32.5585 113.068C32.7659 112.17 32.9502 111.294 33.0423 110.488C33.1115 110.073 33.1345 109.704 33.1806 109.336C33.2036 108.967 33.2266 108.622 33.2727 108.299C33.434 107.009 33.457 106.18 33.457 106.18C33.457 106.18 32.6046 106.64 31.4066 107.493C30.8077 107.908 30.1165 108.414 29.4023 109.013C28.6882 109.612 28.0201 110.28 27.352 111.018C26.7069 111.755 26.0849 112.561 25.578 113.437C25.3246 113.874 25.0942 114.312 24.9099 114.75C24.7487 115.188 24.6104 115.648 24.5183 116.109C24.334 117.031 24.334 117.952 24.5413 118.874C24.6796 119.334 24.8869 119.772 25.1403 120.21Z" fill="#A8FE3B"/>
<path id="Vector_5" d="M26.9133 105.555C27.5123 104.886 28.0883 104.103 28.5721 103.274C29.0559 102.467 29.4475 101.592 29.7931 100.763C30.5073 99.0578 31.0602 97.3991 31.3597 96.1551C31.7283 94.911 31.8896 94.0586 31.8896 94.0586C31.8896 94.0586 30.9911 94.4272 29.7009 95.1183C29.0559 95.4639 28.2956 95.9016 27.5354 96.3854C26.7751 96.8923 25.9918 97.4682 25.2316 98.1133C23.7111 99.4034 22.2366 100.97 21.5685 102.675C21.1999 103.527 21.0156 104.426 21.0156 105.347C21.0387 106.246 21.3612 107.167 21.8911 108.043C24.0566 107.927 25.6693 106.914 26.9133 105.555Z" fill="#A8FE3B"/>
<path id="Vector_6" d="M24.0561 93.993C24.4016 93.6935 24.7472 93.371 25.0697 93.0254C25.3923 92.6799 25.7148 92.3112 26.0143 91.9426C26.6133 91.1824 27.1431 90.3991 27.6039 89.5928C27.8343 89.2011 28.0416 88.8095 28.249 88.3948C28.4563 87.9801 28.6636 87.5885 28.848 87.1968C29.2166 86.4135 29.5161 85.6993 29.7464 85.0773C30.2072 83.8333 30.4836 83.0039 30.4836 83.0039C30.4836 83.0039 29.5621 83.3034 28.249 83.9254C26.9358 84.5244 25.208 85.4229 23.5492 86.5748C22.7198 87.1507 21.9135 87.7958 21.1763 88.4869C20.4621 89.1781 19.8401 89.9153 19.3563 90.6986C18.8725 91.4819 18.5269 92.3343 18.3887 93.2097C18.2966 94.0852 18.3887 94.9837 18.7573 95.9052C20.8998 95.9743 22.6277 95.191 24.0561 93.993Z" fill="#A8FE3B"/>
<path id="Vector_7" d="M17.8571 82.8878C19.8614 83.1412 21.6353 82.4961 23.1328 81.4133C23.893 80.8835 24.5841 80.2384 25.2062 79.5242C25.8743 78.8331 26.4502 78.0959 26.9801 77.3587C27.51 76.6214 27.9477 75.8612 28.4085 75.1701C28.8462 74.4789 29.2148 73.8569 29.5143 73.304C29.8138 72.7511 30.0442 72.2903 30.2054 71.9678C30.3667 71.6452 30.4588 71.4609 30.4588 71.4609C30.4588 71.4609 30.2285 71.507 29.8368 71.6222C29.4221 71.7144 28.8922 71.8987 28.2241 72.129C26.911 72.5898 25.1371 73.2809 23.4092 74.2485C22.9715 74.4789 22.5568 74.7554 22.1191 75.0088C21.7044 75.2852 21.3128 75.5847 20.9441 75.8842C20.1839 76.5063 19.5158 77.1744 18.9629 77.9116C17.8571 79.386 17.3963 81.0908 17.8571 82.8878Z" fill="#A8FE3B"/>
<path id="Vector_8" d="M24.6077 67.68C26.1282 66.7815 27.6257 65.5375 28.8237 64.2934C29.1232 63.9709 29.3996 63.6714 29.6761 63.3489C29.9756 63.0494 30.252 62.7499 30.5054 62.4734C31.0123 61.8975 31.473 61.3445 31.8186 60.8838C32.1642 60.423 32.4867 60.0314 32.694 59.778C32.9014 59.5015 33.0166 59.3633 33.0166 59.3633C33.0166 59.3633 32.1181 59.4324 30.7358 59.6858C29.3766 59.9392 27.6257 60.377 25.8287 61.0911C24.9302 61.4367 24.0318 61.8744 23.2024 62.3582C22.3961 62.8651 21.6588 63.441 21.0368 64.0861C20.7143 64.4086 20.4378 64.7542 20.1844 65.0997C19.931 65.4453 19.7237 65.8139 19.5854 66.2056C19.309 66.9889 19.1938 67.8182 19.332 68.6937C21.2672 69.0623 23.0411 68.5785 24.6077 67.68Z" fill="#A8FE3B"/>
<path id="Vector_9" d="M37.0059 49.0207C36.3378 49.0438 35.5315 49.0898 34.6791 49.1589C33.8037 49.2511 32.9282 49.3893 32.0067 49.5967C31.0852 49.804 30.1406 50.0574 29.2421 50.403C28.7814 50.5643 28.3437 50.7486 27.9059 50.9789C27.4913 51.1863 27.0996 51.4397 26.731 51.6931C25.2796 52.7298 24.1277 54.066 24.0586 55.7708C25.7864 56.3929 27.5604 56.1625 29.1961 55.5865C30.9239 55.0106 32.5366 54.066 33.9649 53.0754C35.4854 52.1308 36.7064 51.0941 37.651 50.3339C38.6186 49.5736 39.1945 49.0668 39.1945 49.0668C39.1945 49.0668 38.3652 48.9746 37.0059 49.0207Z" fill="#A8FE3B"/>
<path id="Vector_10" d="M45.5977 39.0672C44.2846 38.952 42.4876 38.8829 40.6676 39.0442C38.8246 39.2054 36.8433 39.574 35.1615 40.3343C33.5719 41.1176 32.1896 42.2234 31.6367 43.79C32.3739 44.2047 33.1572 44.435 33.9866 44.5272C34.839 44.6193 35.7144 44.5502 36.5899 44.412C37.4653 44.2507 38.3408 44.0204 39.2162 43.6978C40.0686 43.3983 40.898 43.0297 41.7504 42.6611C43.4322 41.9239 44.8375 41.0715 45.9433 40.4264C47.0491 39.8044 47.7403 39.3436 47.7403 39.3436C47.7403 39.3436 46.9109 39.1824 45.5977 39.0672Z" fill="#A8FE3B"/>
<path id="Vector_11" d="M44.3303 29.8749C42.7637 30.6121 41.4045 31.6949 40.8516 33.2154C43.5931 34.8741 47.5095 33.6301 50.6427 32.0865C52.2554 31.3032 53.7298 30.4508 54.7665 29.7827C55.8263 29.1146 56.4713 28.6308 56.4713 28.6308C56.4713 28.6308 53.269 28.1931 49.6521 28.5847C47.8321 28.746 45.8969 29.1146 44.3303 29.8749Z" fill="#A8FE3B"/>
<path id="Vector_12" d="M129.87 153.887C131.183 153.45 132.289 152.828 133.21 152.09C133.671 151.722 134.086 151.33 134.454 150.915C134.639 150.708 134.823 150.501 134.961 150.27C135.123 150.04 135.238 149.81 135.376 149.556C135.883 148.612 136.228 147.598 136.436 146.584C136.62 145.571 136.758 144.58 136.643 143.566C136.505 141.562 135.998 139.765 135.514 138.475C135.261 137.83 135.03 137.3 134.869 136.931C134.685 136.563 134.57 136.355 134.57 136.355C134.57 136.355 134.547 136.402 134.478 136.494C134.408 136.586 134.316 136.724 134.178 136.885C133.925 137.231 133.556 137.715 133.164 138.314C132.75 138.913 132.289 139.65 131.828 140.456C131.298 141.24 130.768 142.092 130.285 142.99C130.031 143.451 129.801 143.912 129.593 144.396C129.478 144.626 129.386 144.88 129.271 145.11C129.156 145.34 129.041 145.571 128.948 145.824C128.534 146.769 128.234 147.736 128.096 148.681C127.843 150.639 128.211 152.482 129.87 153.887Z" fill="#A8FE3B"/>
<path id="Vector_13" d="M144.522 128.733C143.739 127.581 143.117 126.867 143.117 126.867C143.117 126.867 142.725 127.65 142.287 128.941C142.172 129.263 142.057 129.609 141.942 129.977C141.804 130.346 141.642 130.715 141.504 131.129C141.205 131.936 140.928 132.834 140.698 133.779L140.537 134.493C140.467 134.723 140.398 134.954 140.352 135.184C140.237 135.645 140.145 136.128 140.053 136.612C139.892 137.557 139.845 138.524 139.938 139.469C140.076 141.289 140.767 142.948 142.656 144.1C143.255 143.823 143.785 143.501 144.292 143.155C144.776 142.809 145.144 142.395 145.513 141.98C146.204 141.151 146.711 140.229 147.01 139.262C147.079 139.031 147.148 138.778 147.218 138.547C147.264 138.294 147.287 138.041 147.31 137.787C147.356 137.28 147.356 136.774 147.333 136.29C147.287 135.299 147.102 134.308 146.826 133.387C146.573 132.488 146.158 131.567 145.743 130.784C145.352 130 144.914 129.309 144.522 128.733Z" fill="#A8FE3B"/>
<path id="Vector_14" d="M154.385 122.534C154.131 122.119 153.878 121.705 153.624 121.336C153.371 120.945 153.048 120.576 152.772 120.23C152.196 119.539 151.597 118.917 151.09 118.433C150.053 117.443 149.293 116.844 149.293 116.844C149.293 116.844 149.132 117.673 148.994 118.963C148.971 119.631 148.832 120.346 148.763 121.175C148.694 122.004 148.648 122.88 148.671 123.824C148.648 124.723 148.625 125.667 148.74 126.589C148.786 127.05 148.878 127.51 148.971 127.971C149.086 128.432 149.201 128.87 149.339 129.284C149.892 130.966 150.998 132.464 153.071 133.293C153.578 132.947 153.993 132.556 154.385 132.164C154.753 131.772 155.076 131.335 155.283 130.897C155.721 129.998 155.951 129.054 156.02 128.086C156.043 127.602 156.043 127.142 155.974 126.658C155.882 126.174 155.767 125.69 155.606 125.23C155.283 124.262 154.868 123.363 154.385 122.534Z" fill="#A8FE3B"/>
<path id="Vector_15" d="M156.572 118.225C157.516 119.746 158.921 121.013 161.11 121.473C161.502 121.059 161.801 120.644 162.055 120.206C162.308 119.769 162.515 119.331 162.608 118.87C162.815 117.949 162.792 117.004 162.631 116.106C162.538 115.645 162.423 115.184 162.262 114.746C162.078 114.309 161.847 113.848 161.594 113.433C161.087 112.581 160.488 111.774 159.82 111.037C159.152 110.3 158.507 109.632 157.77 109.033C157.055 108.434 156.364 107.927 155.765 107.512C154.567 106.66 153.715 106.199 153.715 106.199C153.715 106.199 153.738 107.029 153.876 108.319C153.922 108.641 153.945 108.987 153.991 109.355C154.037 109.724 154.06 110.116 154.13 110.507C154.245 111.314 154.406 112.189 154.613 113.088C154.775 113.963 155.005 114.862 155.328 115.737C155.489 116.175 155.673 116.612 155.88 117.027C155.996 117.234 156.088 117.442 156.203 117.649C156.341 117.833 156.456 118.041 156.572 118.225Z" fill="#A8FE3B"/>
<path id="Vector_16" d="M166.198 105.371C166.198 104.472 165.991 103.574 165.645 102.721C164.977 101.016 163.503 99.4268 161.982 98.1598C161.222 97.5147 160.416 96.9387 159.678 96.4319C158.918 95.9251 158.158 95.4873 157.513 95.1418C156.223 94.4506 155.324 94.082 155.324 94.082C155.324 94.082 155.485 94.9114 155.854 96.1785C156.154 97.4225 156.683 99.0813 157.421 100.786C157.743 101.638 158.158 102.491 158.642 103.297C159.125 104.104 159.701 104.887 160.3 105.578C161.521 106.937 163.157 107.951 165.323 108.089C165.853 107.191 166.152 106.269 166.198 105.371Z" fill="#A8FE3B"/>
<path id="Vector_17" d="M168.786 93.1863C168.671 92.3109 168.303 91.4815 167.819 90.6752C167.335 89.8919 166.713 89.1316 165.999 88.4635C165.285 87.7724 164.455 87.1273 163.626 86.5514C161.967 85.3995 160.239 84.501 158.926 83.902C157.613 83.303 156.691 82.9805 156.691 82.9805C156.691 82.9805 156.968 83.7868 157.429 85.0539C157.659 85.6759 157.982 86.4131 158.327 87.1734C158.511 87.565 158.696 87.9567 158.926 88.3714C159.133 88.763 159.341 89.1547 159.571 89.5693C160.032 90.3757 160.562 91.182 161.161 91.9192C161.46 92.2878 161.783 92.6564 162.105 93.002C162.428 93.3476 162.75 93.6701 163.119 93.9696C164.547 95.1676 166.275 95.9509 168.372 95.8587C168.763 94.9602 168.878 94.0617 168.786 93.1863Z" fill="#A8FE3B"/>
<path id="Vector_18" d="M168.207 77.9116C167.654 77.1744 166.963 76.5063 166.226 75.8842C165.857 75.5847 165.466 75.2852 165.051 75.0088C164.636 74.7323 164.199 74.4789 163.784 74.2485C162.056 73.2809 160.305 72.5898 158.969 72.129C158.301 71.8987 157.748 71.7374 157.356 71.6222C156.942 71.5301 156.734 71.4609 156.734 71.4609C156.734 71.4609 156.827 71.6452 156.988 71.9678C157.149 72.2903 157.379 72.7511 157.656 73.304C157.955 73.8569 158.324 74.502 158.762 75.1701C159.222 75.8382 159.637 76.6214 160.19 77.3587C160.72 78.0959 161.319 78.8561 161.987 79.5242C162.632 80.2154 163.3 80.8604 164.06 81.4133C165.558 82.4961 167.332 83.1412 169.336 82.8878C169.797 81.0908 169.336 79.386 168.207 77.9116Z" fill="#A8FE3B"/>
<path id="Vector_19" d="M166.984 65.0997C166.731 64.7542 166.455 64.4086 166.132 64.0861C165.51 63.441 164.75 62.8651 163.967 62.3582C163.137 61.8514 162.239 61.4367 161.34 61.0911C159.543 60.377 157.792 59.9162 156.433 59.6858C155.074 59.4324 154.152 59.3633 154.152 59.3633C154.152 59.3633 154.268 59.5245 154.475 59.778C154.682 60.0314 155.005 60.423 155.35 60.8838C155.719 61.3445 156.157 61.8975 156.663 62.4734C156.917 62.7499 157.193 63.0724 157.493 63.3489C157.769 63.6714 158.046 63.9709 158.345 64.2934C159.543 65.5605 161.041 66.8045 162.561 67.703C164.128 68.5785 165.902 69.0853 167.814 68.7167C167.952 67.8413 167.837 67.0119 167.56 66.2286C167.445 65.8139 167.238 65.4453 166.984 65.0997Z" fill="#A8FE3B"/>
<path id="Vector_20" d="M160.463 51.6687C160.095 51.4153 159.726 51.1619 159.288 50.9545C158.85 50.7472 158.413 50.5629 157.952 50.3786C157.054 50.033 156.109 49.7796 155.187 49.5723C154.266 49.3649 153.39 49.2267 152.515 49.1345C151.64 49.0424 150.856 48.9963 150.188 48.9963C148.852 48.9502 147.977 49.0193 147.977 49.0193C147.977 49.0193 148.553 49.5492 149.52 50.2864C150.465 51.0467 151.686 52.0604 153.206 53.028C154.611 54.0186 156.224 54.9631 157.975 55.5391C159.634 56.1381 161.385 56.3454 163.113 55.7234C163.066 54.0416 161.892 52.7054 160.463 51.6687Z" fill="#A8FE3B"/>
<path id="Vector_21" d="M152.032 40.3108C150.35 39.5736 148.369 39.182 146.526 39.0207C144.706 38.8594 142.886 38.9286 141.596 39.0438C140.306 39.1589 139.477 39.2972 139.477 39.2972C139.477 39.2972 140.168 39.7579 141.274 40.38C142.379 41.025 143.785 41.8774 145.466 42.6146C146.319 42.9832 147.148 43.3519 148.001 43.6514C148.853 43.9508 149.752 44.2043 150.627 44.3655C151.502 44.5268 152.378 44.5729 153.23 44.4807C154.06 44.3886 154.843 44.1812 155.58 43.7435C154.981 42.223 153.622 41.0941 152.032 40.3108Z" fill="#A8FE3B"/>
<path id="Vector_22" d="M136.551 32.0642C139.684 33.6308 143.601 34.8518 146.342 33.1931C145.766 31.6726 144.43 30.6128 142.864 29.8526C141.297 29.0923 139.362 28.7237 137.565 28.5394C133.948 28.1708 130.723 28.5855 130.723 28.5855C130.723 28.5855 131.368 29.0693 132.427 29.7374C133.464 30.4285 134.939 31.304 136.551 32.0642Z" fill="#A8FE3B"/>
<path id="Vector_23" d="M170.855 109.702C172.836 110.048 174.702 109.518 176.407 108.389C177.328 107.813 178.089 107.053 178.849 106.224C179.586 105.394 180.277 104.473 180.899 103.528C182.074 101.662 182.881 99.681 183.457 98.2065C183.963 96.7321 184.194 95.7184 184.194 95.7184C184.194 95.7184 183.272 96.1331 181.913 96.8703C181.245 97.2389 180.485 97.6767 179.609 98.1835C178.757 98.6903 177.858 99.2663 176.96 99.8883C175.186 101.132 173.527 102.584 172.237 104.219C172.168 104.289 172.122 104.381 172.076 104.45C172.698 101.57 173.205 98.6443 173.596 95.7184C175.255 95.6493 176.706 94.9582 177.95 93.8984C178.319 93.5759 178.688 93.2073 179.033 92.8387C179.356 92.447 179.655 92.0554 179.955 91.6177C180.531 90.7653 181.038 89.8438 181.475 88.8992C181.683 88.4384 181.89 87.9546 182.074 87.4939C182.236 87.0331 182.397 86.5954 182.535 86.1577C182.811 85.2822 183.042 84.4759 183.203 83.7617C183.549 82.3564 183.641 81.4118 183.641 81.4118C183.641 81.4118 182.811 81.8726 181.567 82.6329C180.323 83.3931 178.711 84.4989 177.19 85.8121C176.43 86.4572 175.693 87.1713 175.025 87.9316C174.748 88.2541 174.472 88.5767 174.218 88.8992C174.357 86.4341 174.403 83.946 174.31 81.481C175.485 81.1584 176.499 80.5134 177.374 79.6149C178.02 78.9468 178.596 78.1635 179.079 77.3341C179.54 76.4817 179.932 75.5602 180.231 74.6387C180.531 73.7172 180.83 72.7956 180.991 71.8972C181.153 71.0217 181.268 70.1693 181.337 69.4551C181.406 68.741 181.452 68.142 181.475 67.7273C181.498 67.3126 181.475 67.0592 181.475 67.0592C181.475 67.0592 181.291 67.1974 180.968 67.4278C180.646 67.6582 180.185 68.0037 179.632 68.4415C178.549 69.3169 177.121 70.5149 175.808 71.8972C175.485 72.2427 175.163 72.6113 174.863 72.9799C174.541 73.3486 174.241 73.7172 173.942 74.1088C173.85 74.224 173.804 74.3162 173.711 74.4313C173.389 72.0584 172.951 69.7086 172.375 67.3817C173.481 66.967 174.38 66.2298 175.071 65.2853C176.177 63.8799 176.683 61.9678 176.96 60.0556C177.029 59.5718 177.098 59.1111 177.121 58.6273C177.121 58.1665 177.121 57.6827 177.121 57.245C177.098 56.3465 177.029 55.4941 176.96 54.7799C176.891 54.0658 176.775 53.4668 176.66 53.0521C176.568 52.6374 176.499 52.407 176.499 52.407C176.499 52.407 175.9 53.006 175.094 53.9967C174.287 54.9873 173.135 56.3465 172.168 57.867C171.684 58.6273 171.246 59.4106 170.855 60.2399C170.693 60.5394 170.578 60.8389 170.44 61.1615C169.472 58.466 168.413 55.9779 167.238 53.6741C168.436 53.1442 169.265 52.1997 169.795 51.0247C170.394 49.5273 170.486 47.6151 170.279 45.726C169.979 43.883 169.449 42.0399 168.92 40.7268C168.367 39.4136 167.906 38.5612 167.906 38.5612C167.906 38.5612 167.491 39.2293 166.938 40.266C166.662 40.7959 166.362 41.4179 166.086 42.086C165.809 42.7772 165.464 43.5374 165.187 44.3437C164.911 45.1501 164.658 45.9564 164.519 46.7858C164.45 47.2004 164.381 47.6151 164.358 48.0298C164.358 48.168 164.335 48.3293 164.335 48.4675C162.63 45.7951 160.764 43.3301 158.714 40.9111C159.29 40.6116 159.75 40.243 160.096 39.7822C160.534 39.2063 160.787 38.5382 160.902 37.7779C161.018 37.0177 160.994 36.2113 160.856 35.3359C160.718 34.4835 160.511 33.585 160.165 32.7556C159.52 31.0969 158.668 29.4612 157.93 28.3093C157.17 27.1804 156.594 26.4432 156.594 26.4432C156.594 26.4432 156.318 27.1113 155.995 28.148C155.673 29.1847 155.327 30.5901 155.097 32.1797C154.889 33.7463 154.889 35.405 155.304 36.9485C155.327 37.0637 155.35 37.1559 155.396 37.2711C153 34.7599 150.351 32.2718 147.471 29.6685C150.328 28.0559 149.545 24.6923 147.955 21.6283C147.126 20.1308 146.112 18.7485 145.283 17.7118C144.545 16.606 143.923 15.9609 143.923 15.9609C143.923 15.9609 143.117 18.5642 143.14 21.5131C143.163 22.9875 143.393 24.5311 144.015 25.9825C144.154 26.282 144.292 26.5584 144.453 26.8349C141.827 24.508 137.242 22.1121 137.242 22.1121C155.465 37.3632 169.357 55.8167 171.431 76.9655C172.168 84.6372 171.246 92.3088 170.048 99.9344C168.712 108.528 166.524 117.098 162.077 125.069C155.189 137.394 145.997 147.254 133.51 154.949C133.51 154.949 114.757 164.349 94.6451 164.556C94.1613 164.556 93.6775 164.556 93.1937 164.556C92.9633 164.556 92.7329 164.556 92.5026 164.556C72.6438 164.256 53.6375 154.949 53.6375 154.949C41.1509 147.254 31.9587 137.394 25.0704 125.069C20.6241 117.098 18.4585 108.528 17.0992 99.9344C15.9013 92.3088 14.9798 84.6602 15.717 76.9655C17.7904 55.8167 31.7053 37.3632 49.9053 22.1121C49.9053 22.1121 45.3208 24.508 42.6944 26.8349C42.8557 26.5584 43.017 26.282 43.1322 25.9825C43.7312 24.5311 43.9846 22.9875 44.0076 21.5131C44.0767 18.5642 43.2704 15.9609 43.2704 15.9609C43.2704 15.9609 42.6714 16.606 41.842 17.6197C41.0357 18.6333 39.999 20.0156 39.1696 21.5361C37.58 24.6002 36.7967 27.9868 39.6534 29.5994C36.7737 32.2027 34.1243 34.6908 31.7284 37.202C31.7514 37.0868 31.7975 36.9946 31.8205 36.8794C32.2582 35.3359 32.2582 33.6771 32.0279 32.1106C31.7975 30.544 31.4519 29.1156 31.1294 28.0789C30.8068 27.0422 30.5304 26.3741 30.5304 26.3741C30.5304 26.3741 29.9544 27.1113 29.2172 28.2402C28.48 29.3921 27.6276 31.0278 26.9825 32.6865C26.637 33.5159 26.4296 34.3913 26.2914 35.2668C26.1532 36.1192 26.1301 36.9485 26.2453 37.7088C26.3605 38.469 26.6139 39.1371 27.0517 39.7131C27.3972 40.1739 27.858 40.5425 28.4339 40.842C26.3836 43.2379 24.4944 45.726 22.8127 48.3984C22.8127 48.2372 22.7896 48.0989 22.7896 47.9607C22.7666 47.546 22.6975 47.1313 22.6284 46.7166C22.4671 45.8873 22.2367 45.0579 21.9603 44.2746C21.6838 43.4913 21.3382 42.708 21.0618 42.0399C20.7623 41.3488 20.4628 40.7268 20.2094 40.2199C19.6795 39.1602 19.2648 38.5151 19.2648 38.5151C19.2648 38.5151 18.8041 39.3675 18.2511 40.6807C17.7213 42.0169 17.1914 43.8369 16.8919 45.6799C16.6846 47.546 16.7767 49.4812 17.3757 50.9787C17.9056 52.1536 18.7349 53.0982 19.9329 53.628C18.758 55.9549 17.6982 58.4199 16.7306 61.1154C16.6154 60.8159 16.4772 60.5164 16.316 60.1939C15.9243 59.3875 15.4866 58.5812 15.0028 57.821C14.0352 56.3004 12.9063 54.9412 12.077 53.9506C11.2706 52.9599 10.6716 52.361 10.6716 52.361C10.6716 52.361 10.6256 52.5913 10.5104 53.006C10.4182 53.4207 10.28 54.0197 10.2109 54.7339C10.1418 55.448 10.0727 56.3004 10.0496 57.1989C10.0266 57.6597 10.0266 58.1204 10.0496 58.5812C10.0727 59.065 10.1418 59.5258 10.2109 60.0096C10.4873 61.9217 11.0172 63.8108 12.1 65.2392C12.8142 66.2068 13.6896 66.921 14.7954 67.3356C14.2195 69.6625 13.7818 72.0124 13.4592 74.3853C13.3901 74.2701 13.321 74.1779 13.2289 74.0627C12.9524 73.6711 12.6299 73.3025 12.3073 72.9339C12.0079 72.5653 11.6853 72.1967 11.3628 71.8511C10.0496 70.4688 8.64431 69.2478 7.53848 68.3954C6.98557 67.9577 6.52481 67.6121 6.20228 67.3817C5.87975 67.1513 5.69544 67.0131 5.69544 67.0131C5.69544 67.0131 5.67241 67.2665 5.69544 67.6812C5.71848 68.0959 5.76456 68.6949 5.83367 69.4091C5.90279 70.1232 6.01798 70.9756 6.17924 71.8511C6.31747 72.7496 6.61696 73.6711 6.91646 74.5926C7.23899 75.5141 7.63063 76.4356 8.09139 77.2881C8.57519 78.1405 9.15114 78.9238 9.7962 79.5688C10.6716 80.4443 11.6853 81.0893 12.8603 81.4349C12.7681 83.9 12.8142 86.3881 12.9524 88.8531C12.699 88.5306 12.4456 88.2081 12.1461 87.8855C11.478 87.1253 10.7408 86.4341 9.98051 85.766C8.46 84.4529 6.84734 83.3701 5.60329 82.5868C4.35924 81.8035 3.52987 81.3658 3.52987 81.3658C3.52987 81.3658 3.62203 82.3334 3.9676 83.7157C4.12886 84.4068 4.35924 85.2362 4.6357 86.0886C4.77392 86.5263 4.93519 86.964 5.09646 87.4248C5.28076 87.8855 5.4881 88.3693 5.69544 88.8301C6.13317 89.7746 6.64 90.6962 7.21595 91.5486C7.49241 91.9632 7.81494 92.3779 8.13747 92.7696C8.48304 93.1612 8.85165 93.5068 9.22026 93.8293C10.4643 94.9121 11.9387 95.5802 13.5744 95.6493C13.9661 98.5751 14.4729 101.501 15.0949 104.381C15.0489 104.312 14.9798 104.219 14.9337 104.15C13.6435 102.538 11.9848 101.086 10.2109 99.8192C9.33545 99.1972 8.41393 98.6212 7.56152 98.1144C6.70912 97.6076 5.94886 97.1698 5.25772 96.8012C3.92152 96.1331 3 95.7184 3 95.7184C3 95.7184 3.23038 96.7321 3.73722 98.2065C4.31316 99.704 5.11949 101.662 6.29443 103.528C6.91646 104.473 7.58456 105.394 8.34481 106.224C9.10506 107.053 9.86532 107.79 10.7868 108.389C12.4916 109.495 14.3577 110.048 16.339 109.702C16.4311 110.071 16.5233 110.44 16.6154 110.808C17.3066 113.389 18.136 115.946 19.1266 118.457C18.9423 118.273 18.758 118.088 18.5506 117.881C18.136 117.512 17.6982 117.144 17.2375 116.798C16.7767 116.453 16.339 116.107 15.8552 115.785C14.8876 115.139 13.8739 114.54 12.8372 114.011C11.8235 113.458 10.7408 112.997 9.81924 112.559C8.87469 112.121 7.99924 111.753 7.23899 111.453C5.71848 110.854 4.68177 110.509 4.68177 110.509C4.68177 110.509 5.11949 111.546 5.90279 113.043C6.29443 113.803 6.87038 114.656 7.49241 115.554C8.11443 116.453 8.82861 117.397 9.6119 118.296C10.4643 119.194 11.3628 120.07 12.3073 120.83C12.7681 121.221 13.2519 121.567 13.7587 121.89C14.0122 122.051 14.2425 122.189 14.496 122.35C14.7724 122.489 15.0258 122.627 15.2792 122.742C17.3066 123.664 19.357 123.94 21.2922 123.295C22.6975 126.106 24.3101 128.87 26.1992 131.519C25.8998 131.289 25.6003 131.082 25.2777 130.874C24.7709 130.552 24.218 130.252 23.6651 129.976C23.1352 129.676 22.5823 129.423 22.0294 129.147C20.9005 128.64 19.7025 128.179 18.5276 127.787C17.9286 127.58 17.3527 127.396 16.7537 127.234C16.1777 127.073 15.6248 126.889 15.0949 126.728C14.0352 126.405 13.0446 126.152 12.1922 125.944C10.4873 125.53 9.35848 125.322 9.35848 125.322C9.35848 125.322 10.0496 126.336 11.2246 127.787C11.7775 128.525 12.5838 129.308 13.4362 130.16C14.3116 130.99 15.2562 131.865 16.2699 132.694C17.3527 133.501 18.5046 134.238 19.6565 134.86C20.2324 135.183 20.8314 135.459 21.4073 135.712C21.9833 135.966 22.5592 136.173 23.1813 136.334C25.5311 136.956 27.6967 136.91 29.5167 135.874C31.3367 138.154 33.2719 140.458 35.3223 142.693C35.2301 142.647 35.161 142.624 35.0689 142.578C34.7694 142.463 34.4699 142.347 34.1474 142.232C33.8479 142.117 33.5484 142.002 33.2489 141.91C32.6268 141.702 32.0048 141.518 31.3598 141.357C30.0696 141.034 28.7565 140.758 27.4433 140.55C26.1071 140.366 24.9091 140.159 23.7342 140.02C22.5823 139.882 21.4995 139.767 20.578 139.675C18.7349 139.514 17.537 139.468 17.537 139.468C17.537 139.468 18.5046 140.389 20.0942 141.679C20.4858 142.002 20.9235 142.347 21.3843 142.693C21.8451 143.038 22.398 143.384 22.9509 143.753C24.0567 144.467 25.2547 145.181 26.4987 145.849C26.8213 146.01 27.1208 146.172 27.4433 146.333C27.7658 146.471 28.1114 146.632 28.457 146.748C29.1251 147.024 29.8162 147.277 30.4843 147.485C31.8205 147.946 33.1567 148.268 34.4008 148.429C36.5433 148.66 38.4555 148.383 39.9529 147.462C41.6347 149.074 43.3856 150.641 45.2056 152.115C44.6527 152.046 44.0998 151.954 43.5238 151.908C42.1415 151.77 40.6901 151.747 39.377 151.701C36.7046 151.609 34.1243 151.724 32.2122 151.862C31.2676 151.931 30.4843 152 29.9314 152.046C29.4015 152.092 29.102 152.138 29.102 152.138C29.102 152.138 29.1711 152.185 29.3094 152.277C29.4476 152.369 29.6549 152.484 29.9314 152.645C30.4843 152.968 31.2676 153.406 32.2352 153.935C33.2028 154.442 34.3317 155.018 35.5757 155.594C36.8658 156.124 38.2481 156.654 39.6765 157.115C40.3906 157.345 41.1048 157.552 41.819 157.76C42.1876 157.852 42.5332 157.944 42.9018 158.036C43.2704 158.105 43.639 158.174 44.0076 158.244C45.482 158.474 46.8874 158.589 48.2005 158.566C49.9975 158.52 51.541 158.151 52.7851 157.414C53.4762 157.806 54.1443 158.197 54.8585 158.566C55.0198 158.658 55.135 158.681 55.2271 158.658C64.6727 163.865 76.376 167.067 86.0058 168.219C78.2881 169.647 69.2342 171.237 59.6274 172.688L49.2372 181.512C49.2372 181.512 72.5977 173.725 94.3917 168.772C116.186 173.725 139.546 181.512 139.546 181.512L129.156 172.688C119.296 171.191 110.011 169.555 102.179 168.104C114.089 166.745 124.111 163.243 132.128 158.658C132.22 158.658 132.289 158.635 132.404 158.566C133.095 158.197 133.787 157.806 134.478 157.414C135.699 158.151 137.265 158.52 139.062 158.566C140.375 158.612 141.781 158.474 143.255 158.244C143.624 158.174 143.992 158.128 144.361 158.036C144.73 157.944 145.075 157.852 145.444 157.76C146.158 157.575 146.895 157.345 147.609 157.115C149.038 156.654 150.42 156.124 151.71 155.594C152.954 155.018 154.083 154.442 155.051 153.912C156.018 153.406 156.802 152.945 157.354 152.622C157.631 152.461 157.838 152.346 157.977 152.254C158.115 152.161 158.184 152.115 158.184 152.115C158.184 152.115 157.884 152.092 157.354 152.023C156.802 151.977 156.018 151.908 155.074 151.839C153.162 151.701 150.604 151.586 147.932 151.678C146.619 151.747 145.167 151.747 143.785 151.908C143.232 151.954 142.656 152.023 142.103 152.115C143.923 150.641 145.674 149.074 147.356 147.462C148.853 148.36 150.766 148.637 152.908 148.429C154.152 148.268 155.488 147.946 156.825 147.508C157.493 147.277 158.184 147.024 158.852 146.748C159.198 146.609 159.52 146.471 159.866 146.333C160.188 146.172 160.511 146.01 160.81 145.849C162.054 145.181 163.252 144.467 164.358 143.753C164.911 143.384 165.441 143.061 165.925 142.693C166.385 142.324 166.823 142.002 167.215 141.679C168.781 140.389 169.772 139.468 169.772 139.468C169.772 139.468 168.574 139.514 166.731 139.675C165.809 139.767 164.727 139.859 163.575 140.02C162.4 140.159 161.202 140.366 159.866 140.573C158.552 140.781 157.239 141.057 155.949 141.38C155.304 141.541 154.682 141.725 154.06 141.933C153.761 142.025 153.461 142.14 153.162 142.255C152.862 142.37 152.54 142.463 152.24 142.578C152.148 142.601 152.079 142.647 151.987 142.693C154.037 140.435 155.972 138.154 157.792 135.874C159.612 136.91 161.801 136.956 164.128 136.334C164.727 136.173 165.303 135.966 165.902 135.712C166.478 135.459 167.077 135.183 167.652 134.86C168.804 134.238 169.979 133.478 171.039 132.694C172.053 131.865 173.02 131.013 173.896 130.16C174.748 129.331 175.554 128.525 176.107 127.787C177.282 126.336 177.973 125.322 177.973 125.322C177.973 125.322 176.845 125.53 175.14 125.944C174.287 126.152 173.297 126.428 172.237 126.728C171.707 126.889 171.154 127.05 170.578 127.234C170.002 127.419 169.403 127.603 168.804 127.81C167.606 128.202 166.431 128.663 165.303 129.17C164.727 129.423 164.174 129.699 163.667 129.999C163.114 130.275 162.584 130.575 162.077 130.897C161.755 131.105 161.432 131.312 161.133 131.543C163.022 128.893 164.634 126.129 166.04 123.318C167.998 123.986 170.048 123.71 172.053 122.765C172.306 122.65 172.583 122.512 172.836 122.373C173.089 122.235 173.32 122.074 173.573 121.913C174.057 121.59 174.541 121.245 175.025 120.853C175.969 120.093 176.868 119.217 177.72 118.319C178.503 117.42 179.194 116.476 179.84 115.577C180.439 114.679 181.038 113.826 181.429 113.066C182.212 111.569 182.65 110.532 182.65 110.532C182.65 110.532 181.613 110.877 180.093 111.476C179.333 111.776 178.434 112.145 177.513 112.582C176.591 113.02 175.508 113.504 174.472 114.034C173.435 114.564 172.398 115.162 171.454 115.808C170.97 116.13 170.532 116.476 170.071 116.821C169.611 117.167 169.173 117.535 168.758 117.904C168.551 118.088 168.367 118.273 168.182 118.457C169.173 115.946 170.002 113.389 170.693 110.808C170.67 110.44 170.763 110.071 170.855 109.702Z" fill="#A8FE3B"/>
</g>
</g>
<path id="Vector 220" d="M46.6797 101.691H143.018" stroke="#577688" stroke-width="1.72033"/>
</g>
</svg>
