<svg width="60" height="60" viewBox="0 0 60 60" fill="none" xmlns="http://www.w3.org/2000/svg">
<g id="&#229;&#156;&#176;&#229;&#157;&#128; 1" clip-path="url(#clip0_2072_71134)">
<path id="Vector" d="M29.98 59.9747C14.5077 59.9747 2.13281 56.5152 2.13281 50.8108C2.13281 47.1414 6.67405 44.7037 13.9936 43.1742C15.1353 42.8679 16.2685 43.577 16.3584 44.6951C16.4319 44.958 16.4494 45.2333 16.4097 45.5034C16.3701 45.7734 16.2741 46.0321 16.1281 46.2627C15.9821 46.4933 15.7893 46.6907 15.5622 46.842C15.3351 46.9934 15.0787 47.0954 14.8097 47.1414C9.44591 48.2681 6.24991 49.999 6.24991 50.8108C6.24991 51.0122 6.56052 51.3185 7.49018 51.929C8.62121 52.6444 10.2706 53.3535 12.4384 53.964C16.9775 55.2835 23.3781 56.0011 30.0785 56.0011C36.7854 56.0011 43.0789 55.2835 47.7208 53.964C49.88 53.3535 51.5337 52.6444 52.6669 51.929C53.4895 51.3185 53.8001 51.0122 53.8001 50.8108C53.8001 49.894 50.2978 48.0582 44.4177 46.94C44.1538 46.8988 43.9008 46.8049 43.674 46.6638C43.4471 46.5227 43.2509 46.3374 43.0972 46.119C42.9435 45.9005 42.8353 45.6533 42.7792 45.3921C42.7231 45.1309 42.7201 44.8611 42.7704 44.5987C42.8169 44.3349 42.9156 44.0829 43.0608 43.8577C43.2059 43.6325 43.3945 43.4385 43.6155 43.2871C43.8365 43.1356 44.0856 43.0299 44.348 42.9759C44.6105 42.922 44.881 42.9209 45.1439 42.9729C52.9775 44.4938 57.8272 47.045 57.8272 50.8108C57.8272 56.5152 45.4523 59.9747 29.98 59.9747ZM34.8618 48.6473C33.8401 49.5662 32.9275 50.2967 32.1328 50.8194C31.0532 51.5348 30.2306 51.854 29.4659 51.854C28.7119 51.854 27.8872 51.5348 26.8011 50.8194C25.8402 50.1623 24.9281 49.4363 24.0721 48.6473C21.9407 46.7323 19.6144 44.226 17.5152 41.5784C14.2442 37.4549 8.74973 29.467 8.74973 22.3531C8.74973 16.2846 10.729 10.698 14.3192 6.62801C16.1369 4.55747 18.3781 2.90143 20.8911 1.77189C23.5152 0.593737 26.3984 -0.00390625 29.4659 -0.00390625C32.5334 -0.00390625 35.4209 0.593738 38.0407 1.77189C40.5539 2.9022 42.7956 4.55811 44.6148 6.62801C48.2092 10.698 50.1821 16.2846 50.1821 22.3531C50.1821 29.467 44.6898 37.4484 41.4188 41.5784C39.3174 44.226 36.9911 46.7387 34.8618 48.6473ZM29.4659 3.71905C19.4923 3.71905 12.5198 11.377 12.5198 22.3467C12.5198 26.5752 15.2638 32.5473 20.0536 38.723C21.9407 41.1543 24.0657 43.517 26.0428 45.3656C27.8636 47.0664 28.9839 47.8054 29.4573 48.0518C29.935 47.8054 31.0532 47.0664 32.874 45.3656C35.0382 43.308 37.0412 41.0873 38.8654 38.723C43.6551 32.5473 46.397 26.5752 46.397 22.3467C46.412 11.377 39.4459 3.71905 29.4659 3.71905ZM29.4659 30.4074C26.7942 30.4175 24.2273 29.3693 22.3263 27.492C21.3892 26.5734 20.6451 25.4767 20.1379 24.2665C19.6306 23.0562 19.3703 21.7568 19.3724 20.4445C19.3724 17.7819 20.4241 15.2778 22.3263 13.3992C24.2264 11.5203 26.7938 10.4712 29.4659 10.4816C32.1649 10.4816 34.7012 11.5184 36.6055 13.3992C37.543 14.317 38.2874 15.4132 38.7947 16.6232C39.302 17.8332 39.562 19.1325 39.5594 20.4445C39.5594 23.1071 38.5098 25.6134 36.6055 27.492C34.7056 29.3709 32.1379 30.4194 29.4659 30.4074ZM29.4659 14.2024C25.9829 14.2024 23.151 17 23.151 20.4381C23.151 23.8761 25.9829 26.6716 29.4659 26.6716C32.9489 26.6716 35.7829 23.8761 35.7829 20.4381C35.7829 17 32.9575 14.2024 29.4659 14.2024Z" fill="#A8FE3B"/>
</g>
<defs>
<clipPath id="clip0_2072_71134">
<rect width="60" height="60" fill="white"/>
</clipPath>
</defs>
</svg>
