<svg width="60" height="60" viewBox="0 0 60 60" fill="none" xmlns="http://www.w3.org/2000/svg">
<g id="carbon:security" clip-path="url(#clip0_2072_71126)">
<g id="&#233;&#130;&#174;&#228;&#187;&#182; 1">
<path id="Vector" d="M56.2581 34.9872C57.4881 34.9872 58.4856 34.0122 58.4856 32.8047V18.4872C58.4856 13.6647 54.4956 9.74219 49.5831 9.74219H10.4181C5.51313 9.74219 1.51562 13.6647 1.51562 18.4872V43.7322C1.51562 48.5547 5.50563 52.4772 10.4181 52.4772H49.5831C54.4881 52.4772 58.4856 48.5547 58.4856 43.7322C58.4856 42.5247 57.4881 41.5497 56.2581 41.5497C55.0281 41.5497 54.0306 42.5247 54.0306 43.7322C54.0306 46.1397 52.0356 48.1047 49.5831 48.1047H10.4181C7.96563 48.1047 5.97062 46.1472 5.97062 43.7322V18.9447L25.3056 30.7497C26.7531 31.6347 28.3806 32.0772 30.0081 32.0772C31.6356 32.0772 33.2556 31.6347 34.7106 30.7497L54.0456 18.9447V32.7972C54.0381 34.0047 55.0356 34.9872 56.2581 34.9872ZM32.3481 27.0447C30.9006 27.9297 29.1006 27.9297 27.6456 27.0447L7.82312 14.9322C8.58062 14.3997 9.48813 14.1072 10.4181 14.1147H49.5831C50.5131 14.1147 51.4206 14.3997 52.1781 14.9322L32.3481 27.0447Z" fill="#A8FE3B"/>
</g>
</g>
<defs>
<clipPath id="clip0_2072_71126">
<rect width="60" height="60" fill="white"/>
</clipPath>
</defs>
</svg>
