<svg width="60" height="64" viewBox="0 0 60 64" fill="none" xmlns="http://www.w3.org/2000/svg">
<g id="Group 1000001489">
<path id="Vector" d="M1 15.0484L8.90845 15.15C8.90845 15.15 8.87594 10.3 8.90845 9.93732C8.94096 9.57949 9.21959 9.46827 9.66539 9.46827H15.0151C15.0151 9.46827 16.9701 -0.0673383 29.2577 0.000358757C40.9045 0.0632203 43.1382 9.36189 43.1382 9.36189C43.1382 9.36189 48.3485 9.43443 48.6922 9.43443C49.0358 9.43443 49.2076 9.71972 49.2076 10.1162V15.0775H57L56.6285 16.0107L54.353 20L3.62377 19.9952L1 15.0484Z" fill="#FFCCE1"/>
<path id="Vector_2" d="M8.50041 21.0458L3.46046 21.0508C3.46046 21.0508 1.32672 17.3637 1.13831 17.0747C0.888669 16.701 0.328151 16.7608 0.144452 16.7907C-0.171134 16.8355 0.078509 17.3736 0.431777 17.9117C0.785044 18.4499 2.28761 21.1155 2.28761 21.1155V57H55.6169L55.6593 21.2351C55.6593 21.2351 57.5339 17.9765 57.7176 17.6527C57.9013 17.3288 58.1792 16.8106 57.8401 16.7907C57.4727 16.7707 57.0488 16.701 56.6861 17.3039C56.2716 17.9965 54.5288 20.8714 54.5288 20.8714H49.4418V15.3009H41.6228C41.6228 15.3009 41.3449 3.9207 28.8345 4.00042C16.3288 4.08512 16.4701 15.2909 16.4701 15.2909H8.56635C8.56635 15.2959 8.50041 20.9461 8.50041 21.0458Z" fill="#E94B8B"/>
<path id="Vector_3" d="M3.04247 23.9126H8.04038V45.9502L3 46L3.04247 23.9126ZM9.30991 18.1792V40.2666L48 40.2218V18.2738H38.8867C38.8867 18.2738 39.538 7.12056 28.7635 7.00111C17.5926 6.87171 18.4232 18.0896 18.4232 18.0896L9.30991 18.1792Z" fill="#FF8FC7"/>
<path id="Vector_4" d="M18.8646 16L16 16.0246V55H18.9623C18.9669 55 18.8925 16 18.8646 16ZM39.0284 16.1817H42L41.9954 54.9853H38.8936C38.8936 54.9853 39.1028 16.0049 39.0284 16.1817Z" fill="#FFCCE1"/>
<path id="Vector_5" d="M54 22H50V44H53.9612L54 22Z" fill="#FF8FC7"/>
<path id="Vector_6" d="M23.0139 43.3575L23 55H35.9861L36 43L23.0139 43.3575Z" fill="#FFA828"/>
<path id="Vector_7" d="M24 45V54H28.3486V45.029L24 45ZM29.5942 45.0918H33.89L34 54H29.625L29.5942 45.0918Z" fill="#8A418C"/>
<path id="Vector_8" d="M9 43.0765C9 43.2246 9.03684 55.7928 9.10591 55.9027C9.17497 56.0126 12.5271 56.0508 12.6699 55.9027C12.7067 55.8645 12.6699 43 12.6699 43L9 43.0765ZM45.367 43.1911C45.367 43.1911 45.2335 55.3484 45.3301 55.6494C45.367 55.7593 48.7053 55.8549 48.8941 55.7211C49 55.6494 49 43.1529 49 43.1529L45.367 43.1911Z" fill="#FFCCE1"/>
<path id="Vector_9" d="M52.0277 51.7606C51.3409 51.731 49.9116 51.0549 50.0554 48.6716C50.1946 46.3376 51.2898 45.0299 52.0277 45.0003C52.7656 44.9707 54 47.0136 54 48.7308C54 50.7145 53.2343 51.8149 52.0277 51.7606ZM6.02935 45.0299C5.33788 45.0595 3.95032 46.984 4.00137 49.1404C4.05706 51.4152 5.20795 51.9382 5.94581 51.9974C6.68368 52.0566 7.97379 51.0944 7.9181 48.9973C7.86241 46.9001 6.71617 45.0003 6.02935 45.0299Z" fill="#2F7C31"/>
<path id="Vector_10" d="M4.02743 51.2625C3.95216 51.4685 4.05566 54.9846 4.05566 54.9846L7.22158 54.9794C7.22158 54.9794 7.27332 51.381 7.27332 51.2574C7.27803 51.139 4.06506 51.1596 4.02743 51.2625ZM50.7024 51.1081C50.6742 50.9537 53.953 50.9846 53.9813 51.0772C54.0424 51.278 53.9342 55 53.9342 55H50.7119L50.7024 51.1081Z" fill="#FF8FC7"/>
<path id="Vector_11" d="M8 39.6834C8 39.6834 8.03253 42.5644 8.05576 43.0413C8.079 43.5182 8.00465 43.9705 9.01303 43.9803C10.0028 43.9902 48.3678 44 48.865 44C49.3622 44 49.9245 43.7001 49.971 42.9479C50.0174 42.2006 49.9942 39.7866 49.9942 39.7866L28.4511 39L8 39.6834Z" fill="#BE0576"/>
<path id="Vector_12" d="M49.9768 40C49.9768 40 50 38.4615 50 37.986C50 37.5035 49.7168 37.1329 48.8999 37.1049C48.0829 37.0769 9.6669 37 8.8685 37C8.0701 37 8.05153 37.6294 8.0144 38.2168C7.97726 38.8042 8.02368 39.8531 8.02368 39.8531L49.9768 40Z" fill="#FFCCE1"/>
<path id="Vector_13" d="M43.3136 19H46.3077V23.9174H43.3136V19ZM43.2995 25.8531H46.2936V30.7705H43.2995V25.8531ZM43.2995 32.8284H46.2936V37.7458H43.2995V32.8284ZM10.9598 19.22H13.9539V24.1374H10.9598V19.22ZM10.9457 26.0731H13.9399V30.9905H10.9457V26.0731ZM10.9457 33.0484H13.9399V37.9658H10.9457V33.0484ZM4 26.1122H6.99416V31.0296H4V26.1122ZM4 33.0826H6.99416V38H4V33.0826ZM50.0058 25.8727H53V30.7901H50.0058V25.8727ZM50.0058 32.848H53V37.7654H50.0058V32.848Z" fill="#8A418C"/>
<path id="Vector_14" d="M29.1371 15.5557C29.1371 15.5557 30.9004 12.7146 33.9095 13.0235C36.6621 13.3071 38.0315 15.5152 37.9994 18.7413C37.9353 25.0111 29.2608 32 29.0135 32C28.7661 32 20 25.4213 20 18.4728C20 15.0442 22.7251 12.983 24.9556 13.0589C27.8043 13.1602 29.1371 15.5557 29.1371 15.5557Z" fill="#76167B"/>
<path id="Vector_15" d="M28.7125 19.8383C28.7125 19.8383 30.5351 17.0479 32.9574 17.0819C35.205 17.111 36.3713 18.9988 35.8944 21.3815C34.9642 26.0258 28.6606 31 28.4575 31C28.2545 31 21.3795 25.8365 21.0112 20.7264C20.8271 18.1398 22.9425 16.8247 24.7462 17.0188C27.1779 17.276 28.7125 19.8383 28.7125 19.8383Z" fill="#FE05A2"/>
</g>
</svg>
