<svg width="60" height="69" viewBox="0 0 60 69" fill="none" xmlns="http://www.w3.org/2000/svg">
<g id="Group 1000001516">
<path id="Vector" d="M52.5 24.1724H7.5C5.51149 24.1742 3.60498 24.8832 2.19889 26.1438C0.792799 27.4045 0.00198554 29.1137 0 30.8966V44.3448C0.00132369 45.5334 0.528533 46.6729 1.46593 47.5133C2.40332 48.3537 3.67432 48.8264 5 48.8276V64.5172C5.00132 65.7058 5.52853 66.8453 6.46593 67.6857C7.40332 68.5261 8.67432 68.9988 10 69H20C21.3257 68.9988 22.5967 68.5261 23.5341 67.6857C24.4715 66.8453 24.9987 65.7058 25 64.5172V37.6207H20V64.5172H10V44.3448H5V30.8966C5 30.3021 5.26339 29.732 5.73223 29.3117C6.20107 28.8913 6.83696 28.6552 7.5 28.6552H52.5C53.163 28.6552 53.7989 28.8913 54.2678 29.3117C54.7366 29.732 55 30.3021 55 30.8966V44.3448H50V64.5172H40V37.6207H35V64.5172C35.0013 65.7058 35.5285 66.8453 36.4659 67.6857C37.4033 68.5261 38.6743 68.9988 40 69H50C51.3257 68.9988 52.5967 68.5261 53.5341 67.6857C54.4715 66.8453 54.9987 65.7058 55 64.5172V48.8276C56.3257 48.8264 57.5967 48.3537 58.5341 47.5133C59.4715 46.6729 59.9987 45.5334 60 44.3448V30.8966C59.998 29.1137 59.2072 27.4045 57.8011 26.1438C56.395 24.8832 54.4885 24.1742 52.5 24.1724ZM15 21.931C13.0222 21.931 11.0888 21.4052 9.4443 20.4201C7.79981 19.4349 6.51808 18.0347 5.7612 16.3965C5.00433 14.7582 4.8063 12.9556 5.19215 11.2164C5.578 9.4773 6.53041 7.87979 7.92893 6.62594C9.32746 5.37209 11.1093 4.51821 13.0491 4.17227C14.9889 3.82634 16.9996 4.00388 18.8268 4.68246C20.6541 5.36104 22.2159 6.51017 23.3147 7.98455C24.4135 9.45892 25 11.1923 25 12.9655C24.9974 15.3426 23.9429 17.6216 22.0681 19.3025C20.1934 20.9833 17.6514 21.9287 15 21.931ZM15 8.48276C14.0111 8.48276 13.0444 8.74567 12.2221 9.23824C11.3999 9.73082 10.759 10.4309 10.3806 11.25C10.0022 12.0692 9.90315 12.9705 10.0961 13.8401C10.289 14.7096 10.7652 15.5084 11.4645 16.1353C12.1637 16.7622 13.0546 17.1892 14.0245 17.3621C14.9945 17.5351 15.9998 17.4463 16.9134 17.1071C17.827 16.7678 18.6079 16.1932 19.1573 15.456C19.7068 14.7188 20 13.8521 20 12.9655C19.9987 11.777 19.4715 10.6375 18.5341 9.79704C17.5967 8.95662 16.3257 8.48395 15 8.48276ZM45 21.931C43.0222 21.931 41.0888 21.4052 39.4443 20.4201C37.7998 19.4349 36.5181 18.0347 35.7612 16.3965C35.0043 14.7582 34.8063 12.9556 35.1921 11.2164C35.578 9.4773 36.5304 7.87979 37.9289 6.62594C39.3275 5.37209 41.1093 4.51821 43.0491 4.17227C44.9889 3.82634 46.9996 4.00388 48.8268 4.68246C50.6541 5.36104 52.2159 6.51017 53.3147 7.98455C54.4135 9.45892 55 11.1923 55 12.9655C54.9974 15.3426 53.9429 17.6216 52.0681 19.3025C50.1934 20.9833 47.6514 21.9287 45 21.931ZM45 8.48276C44.0111 8.48276 43.0444 8.74567 42.2221 9.23824C41.3999 9.73082 40.759 10.4309 40.3806 11.25C40.0022 12.0692 39.9031 12.9705 40.0961 13.8401C40.289 14.7096 40.7652 15.5084 41.4645 16.1353C42.1637 16.7622 43.0546 17.1892 44.0245 17.3621C44.9945 17.5351 45.9998 17.4463 46.9134 17.1071C47.827 16.7678 48.6079 16.1932 49.1573 15.456C49.7068 14.7188 50 13.8521 50 12.9655C49.9987 11.777 49.4715 10.6375 48.5341 9.79704C47.5967 8.95662 46.3257 8.48395 45 8.48276Z" fill="#A8FE3B"/>
</g>
</svg>
