<svg width="60" height="64" viewBox="0 0 60 64" fill="none" xmlns="http://www.w3.org/2000/svg">
<g id="Group 1000001515">
<g id="emojione:two-women-holding-hands">
<path id="Vector" d="M57.375 16.4628V35.6914H32.5312V16.4628C32.5312 -1.47719 57.375 -1.47719 57.375 16.4628Z" fill="#FFB300"/>
<path id="Vector_2" d="M54.7514 45.0068L47.8139 32.5181C46.6889 30.5358 49.3139 29.4455 50.3452 31.4278L57.2827 43.9165L54.7514 45.0068Z" fill="#FF4848"/>
<g id="Group">
<path id="Vector_3" d="M54.75 45.0057C56.0625 47.3845 56.7188 47.2854 57.375 46.8889C58.125 46.5916 58.5938 46.1951 57.2812 43.8163L54.75 45.0057ZM56.625 20.2267C56.625 16.5594 54 18.4426 54 18.4426C54.1875 13.2886 51.9375 12.793 51.9375 12.793C41.3438 12.793 35.9062 18.4426 35.9062 18.4426C35.9062 18.4426 33.2812 16.5594 33.2812 20.2267C33.2812 21.6143 33.75 22.8037 35.4375 22.9028C36.1875 28.5524 39.75 29.7418 45 29.7418C50.25 29.7418 53.7188 28.5524 54.4688 22.9028C56.1562 22.8037 56.625 21.6143 56.625 20.2267Z" fill="#FFDD67"/>
<path id="Vector_4" d="M42.1875 28.1562H47.7188V32.5174H42.1875V28.1562ZM46.875 62.4504V47.4839C46.875 45.1051 49.7812 45.1051 49.7812 47.4839V62.4504H46.875Z" fill="#FFDD67"/>
</g>
<path id="Vector_5" d="M45.75 60.4701C46.6875 59.3798 49.9688 59.3798 50.9062 60.4701V62.4524H45.75V60.4701Z" fill="#FF4848"/>
<path id="Vector_6" d="M40.2188 62.4538V47.4872C40.2188 45.1084 43.125 45.1084 43.125 47.4872V62.4538H40.2188Z" fill="#FFDD67"/>
<path id="Vector_7" d="M44.1562 60.4697C43.2187 59.3794 39.9375 59.3794 39 60.4697V62.452H44.1562V60.4697ZM48.6563 30.4375H47.7188C47.7188 31.3295 46.5 32.0234 44.9063 32.0234C43.4063 32.0234 42.0938 31.3295 42.0938 30.4375H41.1563C39.8438 31.5278 40.0312 36.6818 39 41.8359C37.7812 48.1793 35.625 52.1439 35.625 52.1439H54C54 52.1439 51.8438 48.1793 50.625 41.8359C49.875 36.5827 49.9688 31.4287 48.6563 30.4375Z" fill="#FF4848"/>
<path id="Vector_8" d="M2.625 16.4628V35.6914H27.375V16.4628C27.4688 -1.47719 2.625 -1.47719 2.625 16.4628Z" fill="#FFB300"/>
<g id="Group_2">
<path id="Vector_9" d="M3.375 20.23C3.375 16.5627 6 18.4459 6 18.4459C10.2188 15.6707 10.2188 10.7148 10.2188 10.7148C10.6875 15.1751 24.0938 18.4459 24.0938 18.4459C24.0938 18.4459 26.7188 16.5627 26.7188 20.23C26.7188 21.6176 26.25 22.807 24.5625 22.9061C23.8125 28.5558 20.25 29.7451 15 29.7451C9.75 29.7451 6.1875 28.5558 5.53125 22.9061C3.84375 22.807 3.375 21.6176 3.375 20.23ZM5.25 45.009L12.1875 32.5204C13.3125 30.5381 10.6875 29.4478 9.65625 31.4301L2.71875 43.9188L5.25 45.009Z" fill="#FFDD67"/>
<path id="Vector_10" d="M5.24845 45.01C3.93595 47.3888 3.2797 47.2897 2.62345 46.8932C1.87345 46.5959 1.4047 46.1994 2.7172 43.8206L5.24845 45.01ZM27.7484 42.6312L17.5297 32.9179C15.9359 31.4311 17.9984 29.5479 19.6859 31.0347L29.9047 40.748L27.7484 42.6312Z" fill="#FFDD67"/>
<path id="Vector_11" d="M27.75 42.6293C29.7187 44.5125 30.2813 44.116 30.8438 43.6205C31.4063 43.1249 31.7812 42.5302 29.8125 40.7461L27.75 42.6293Z" fill="#FFDD67"/>
</g>
<path id="Vector_12" d="M31.7813 42.6273L42 32.914C43.5938 31.4272 41.5312 29.544 39.8438 31.0308L29.625 40.7441L31.7813 42.6273Z" fill="#FF4848"/>
<path id="Vector_13" d="M31.7813 42.6272C29.8125 44.5104 29.25 44.114 28.6875 43.6184C28.125 43.1228 27.75 42.5281 29.7188 40.744L31.7813 42.6272ZM12.2813 28.1562H17.8125V32.5174H12.2813V28.1562ZM13.125 62.4504V47.4839C13.125 45.1051 10.2188 45.1051 10.2188 47.4839V62.4504H13.125Z" fill="#FFDD67"/>
<path id="Vector_14" d="M14.25 60.4701C13.3125 59.3798 10.0312 59.3798 9.09375 60.4701V62.4524H14.25V60.4701Z" fill="#C28FEF"/>
<path id="Vector_15" d="M19.7813 62.4538V47.4872C19.7813 45.1084 16.875 45.1084 16.875 47.4872V62.4538H19.7813Z" fill="#FFDD67"/>
<path id="Vector_16" d="M15.8438 60.4697C16.7812 59.3794 20.0625 59.3794 21 60.4697V62.452H15.8438V60.4697ZM11.3438 30.4375H12.2813C12.2813 31.3295 13.5 32.0234 15.0938 32.0234C16.5938 32.0234 17.9063 31.3295 17.9063 30.4375H18.8438C20.1563 31.5278 21.5625 49.2696 21.5625 49.2696H8.625C8.625 49.2696 10.0313 31.4287 11.3438 30.4375Z" fill="#C28FEF"/>
<g id="Group_3">
<path id="Vector_17" d="M40.6875 21.4188C41.6713 21.4188 42.4687 20.5756 42.4687 19.5356C42.4687 18.4955 41.6713 17.6523 40.6875 17.6523C39.7037 17.6523 38.9062 18.4955 38.9062 19.5356C38.9062 20.5756 39.7037 21.4188 40.6875 21.4188Z" fill="#937237"/>
<path id="Vector_18" d="M49.3125 21.4188C50.2963 21.4188 51.0937 20.5756 51.0937 19.5356C51.0937 18.4955 50.2963 17.6523 49.3125 17.6523C48.3287 17.6523 47.5312 18.4955 47.5312 19.5356C47.5312 20.5756 48.3287 21.4188 49.3125 21.4188Z" fill="#937237"/>
<path id="Vector_19" d="M47.814 25.1853C46.0327 26.672 43.9702 26.672 42.189 25.1853C42.0015 24.987 41.814 25.2844 41.9077 25.5817C42.4702 26.672 43.5952 27.5641 45.0015 27.5641C46.4077 27.5641 47.5327 26.5729 48.0952 25.5817C48.2827 25.3835 48.0952 25.0862 47.814 25.1853Z" fill="#937237"/>
<path id="Vector_20" d="M10.5938 21.4188C11.5775 21.4188 12.375 20.5756 12.375 19.5356C12.375 18.4955 11.5775 17.6523 10.5938 17.6523C9.60999 17.6523 8.8125 18.4955 8.8125 19.5356C8.8125 20.5756 9.60999 21.4188 10.5938 21.4188Z" fill="#937237"/>
<path id="Vector_21" d="M19.2187 21.4188C20.2025 21.4188 21 20.5756 21 19.5356C21 18.4955 20.2025 17.6523 19.2187 17.6523C18.235 17.6523 17.4375 18.4955 17.4375 19.5356C17.4375 20.5756 18.235 21.4188 19.2187 21.4188Z" fill="#937237"/>
<path id="Vector_22" d="M17.7202 25.1853C15.939 26.672 13.8765 26.672 12.0952 25.1853C11.9077 24.987 11.7202 25.2844 11.814 25.5817C12.3765 26.672 13.5015 27.5641 14.9077 27.5641C16.314 27.5641 17.439 26.5729 18.0015 25.5817C18.0952 25.3835 17.9077 25.0862 17.7202 25.1853Z" fill="#937237"/>
</g>
</g>
</g>
</svg>
