<svg width="194" height="206" viewBox="0 0 194 206" fill="none" xmlns="http://www.w3.org/2000/svg">
<g id="5">
<g id="Vector">
<path d="M30.6185 165.367C26.4165 162.919 23.832 158.423 23.832 153.56V13.6645C23.832 6.11781 29.9498 0 37.4965 0H96.2539V203.601L30.6185 165.367Z" fill="#515151"/>
<path d="M160.621 165.385C164.767 162.923 167.309 158.457 167.309 153.635V13.6645C167.309 6.11781 161.192 0 153.645 0H96.2539V203.601L160.621 165.385Z" fill="#676767"/>
</g>
<path id="Union" d="M77.125 0V30.3328L96.2551 38.2606L115.386 30.3328V0H77.125Z" fill="#FFC164"/>
<path id="Best Convenient" d="M76.1463 48.7799H79.9194C81.5559 48.7799 82.7904 49.017 83.6231 49.4912C84.4558 49.9653 84.8721 50.7835 84.8721 51.9458C84.8721 52.4316 84.7854 52.871 84.6119 53.2642C84.4442 53.6517 84.1985 53.9726 83.8746 54.227C83.5508 54.4757 83.1518 54.6434 82.6777 54.7301V54.8168C83.1692 54.9036 83.6058 55.0568 83.9874 55.2765C84.3748 55.4963 84.6784 55.8114 84.8981 56.222C85.1237 56.6325 85.2364 57.1645 85.2364 57.818C85.2364 58.5928 85.0514 59.252 84.6813 59.7956C84.317 60.3391 83.7937 60.7526 83.1114 61.0359C82.4348 61.3193 81.631 61.4609 80.7 61.4609H76.1463V48.7799ZM78.228 54.0102H80.223C81.1655 54.0102 81.819 53.8569 82.1833 53.5505C82.5476 53.244 82.7297 52.7959 82.7297 52.206C82.7297 51.6047 82.5129 51.171 82.0792 50.905C81.6513 50.639 80.9689 50.506 80.0322 50.506H78.228V54.0102ZM78.228 55.6929V59.7175H80.4225C81.3939 59.7175 82.0763 59.5296 82.4695 59.1537C82.8627 58.7779 83.0593 58.269 83.0593 57.6271C83.0593 57.2339 82.9697 56.8928 82.7904 56.6036C82.6169 56.3145 82.3307 56.0919 81.9317 55.9358C81.5327 55.7738 80.995 55.6929 80.3184 55.6929H78.228ZM91.4729 51.6769C92.3287 51.6769 93.063 51.8533 93.676 52.206C94.2889 52.5588 94.7602 53.059 95.0898 53.7066C95.4194 54.3542 95.5842 55.1291 95.5842 56.0312V57.1241H89.1743C89.1974 58.055 89.4461 58.7721 89.9203 59.2752C90.4002 59.7782 91.071 60.0298 91.9326 60.0298C92.5455 60.0298 93.0948 59.9719 93.5806 59.8563C94.0721 59.7349 94.5781 59.5585 95.0985 59.3272V60.9839C94.6185 61.2094 94.1299 61.3742 93.6326 61.4783C93.1353 61.5824 92.5397 61.6344 91.8458 61.6344C90.9033 61.6344 90.0735 61.4523 89.3565 61.088C88.6452 60.7179 88.0872 60.1685 87.6824 59.44C87.2834 58.7114 87.0839 57.8064 87.0839 56.7251C87.0839 55.6495 87.2661 54.7359 87.6304 53.9842C87.9947 53.2324 88.5064 52.66 89.1656 52.2668C89.8248 51.8735 90.5939 51.6769 91.4729 51.6769ZM91.4729 53.2122C90.831 53.2122 90.3106 53.4204 89.9116 53.8367C89.5184 54.253 89.2871 54.8631 89.2177 55.6669H93.5893C93.5835 55.1869 93.5025 54.7619 93.3464 54.3918C93.196 54.0217 92.9647 53.7326 92.6525 53.5244C92.346 53.3163 91.9528 53.2122 91.4729 53.2122ZM104.336 58.72C104.336 59.3503 104.183 59.8823 103.876 60.316C103.57 60.7497 103.122 61.0793 102.532 61.3048C101.948 61.5245 101.231 61.6344 100.381 61.6344C99.71 61.6344 99.1318 61.5853 98.646 61.487C98.1661 61.3944 97.7122 61.2499 97.2843 61.0533V59.2925C97.7411 59.5065 98.2528 59.6915 98.8195 59.8476C99.392 60.0037 99.9327 60.0818 100.442 60.0818C101.112 60.0818 101.595 59.9777 101.89 59.7696C102.185 59.5556 102.332 59.2723 102.332 58.9195C102.332 58.7114 102.272 58.5263 102.15 58.3644C102.035 58.1967 101.815 58.0261 101.491 57.8527C101.173 57.6734 100.705 57.4594 100.086 57.2108C99.4787 56.9679 98.967 56.7251 98.5506 56.4822C98.1343 56.2393 97.8192 55.9473 97.6052 55.6062C97.3912 55.2592 97.2843 54.8168 97.2843 54.2791C97.2843 53.429 97.6197 52.7843 98.2904 52.3448C98.967 51.8996 99.8604 51.6769 100.971 51.6769C101.56 51.6769 102.116 51.7377 102.636 51.8591C103.162 51.9747 103.677 52.1453 104.18 52.3708L103.538 53.9061C103.104 53.7153 102.668 53.5591 102.228 53.4377C101.795 53.3105 101.352 53.2469 100.901 53.2469C100.375 53.2469 99.9731 53.3278 99.6956 53.4898C99.4238 53.6517 99.2879 53.883 99.2879 54.1837C99.2879 54.4092 99.3544 54.6 99.4874 54.7561C99.6204 54.9123 99.8488 55.0684 100.173 55.2245C100.502 55.3806 100.959 55.5743 101.543 55.8056C102.116 56.0254 102.61 56.2567 103.026 56.4995C103.448 56.7366 103.772 57.0286 103.998 57.3756C104.223 57.7225 104.336 58.1707 104.336 58.72ZM110.113 59.9864C110.379 59.9864 110.642 59.9633 110.902 59.917C111.162 59.865 111.399 59.8042 111.613 59.7349V61.2788C111.388 61.3771 111.096 61.4609 110.737 61.5303C110.379 61.5997 110.006 61.6344 109.618 61.6344C109.075 61.6344 108.586 61.5448 108.152 61.3655C107.719 61.1805 107.375 60.8653 107.12 60.4201C106.866 59.9748 106.739 59.359 106.739 58.5726V53.4117H105.429V52.5009L106.834 51.781L107.502 49.7253H108.786V51.8591H111.535V53.4117H108.786V58.5466C108.786 59.0323 108.907 59.3937 109.15 59.6308C109.393 59.8679 109.714 59.9864 110.113 59.9864ZM53.7073 66.3672C53.1001 66.3672 52.5566 66.4771 52.0766 66.6968C51.6025 66.9165 51.2006 67.2346 50.871 67.6509C50.5414 68.0615 50.2899 68.5617 50.1164 69.1515C49.9429 69.7355 49.8562 70.3947 49.8562 71.1291C49.8562 72.1121 49.9949 72.9593 50.2725 73.6705C50.5501 74.376 50.9722 74.9195 51.5389 75.3012C52.1056 75.677 52.8226 75.865 53.69 75.865C54.2277 75.865 54.7511 75.8129 55.2599 75.7088C55.7688 75.6048 56.295 75.4631 56.8385 75.2838V77.0533C56.3239 77.2557 55.8035 77.4031 55.2773 77.4956C54.7511 77.5882 54.1439 77.6344 53.4558 77.6344C52.1605 77.6344 51.0849 77.3655 50.2291 76.8278C49.3791 76.29 48.743 75.5325 48.3209 74.5552C47.9046 73.578 47.6964 72.433 47.6964 71.1204C47.6964 70.1605 47.8294 69.2816 48.0954 68.4836C48.3614 67.6856 48.7488 66.9975 49.2577 66.4192C49.7665 65.8352 50.3939 65.3871 51.1399 65.0748C51.8916 64.7568 52.7503 64.5978 53.716 64.5978C54.3521 64.5978 54.9766 64.67 55.5895 64.8146C56.2082 64.9534 56.7807 65.1529 57.3069 65.4131L56.5783 67.1305C56.1389 66.9223 55.6791 66.7431 55.1992 66.5927C54.7193 66.4424 54.222 66.3672 53.7073 66.3672ZM67.8542 72.6383C67.8542 73.4363 67.7501 74.1447 67.542 74.7634C67.3338 75.3821 67.0302 75.9054 66.6312 76.3333C66.2322 76.7555 65.7523 77.0793 65.1914 77.3048C64.6305 77.5245 63.9973 77.6344 63.2918 77.6344C62.6326 77.6344 62.0283 77.5245 61.479 77.3048C60.9297 77.0793 60.4526 76.7555 60.0478 76.3333C59.6488 75.9054 59.3395 75.3821 59.1197 74.7634C58.9 74.1447 58.7901 73.4363 58.7901 72.6383C58.7901 71.5801 58.9723 70.6838 59.3366 69.9495C59.7067 69.2093 60.2329 68.6455 60.9152 68.2581C61.5975 67.8707 62.41 67.6769 63.3525 67.6769C64.2373 67.6769 65.0179 67.8707 65.6944 68.2581C66.371 68.6455 66.9001 69.2093 67.2817 69.9495C67.6634 70.6896 67.8542 71.5859 67.8542 72.6383ZM60.8892 72.6383C60.8892 73.338 60.973 73.9365 61.1407 74.4338C61.3142 74.9311 61.5802 75.3127 61.9387 75.5787C62.2972 75.8389 62.7598 75.9691 63.3265 75.9691C63.8932 75.9691 64.3558 75.8389 64.7143 75.5787C65.0728 75.3127 65.3359 74.9311 65.5036 74.4338C65.6713 73.9365 65.7552 73.338 65.7552 72.6383C65.7552 71.9386 65.6713 71.3459 65.5036 70.8602C65.3359 70.3687 65.0728 69.9957 64.7143 69.7413C64.3558 69.4811 63.8903 69.351 63.3178 69.351C62.4736 69.351 61.8578 69.6343 61.4703 70.201C61.0829 70.7677 60.8892 71.5801 60.8892 72.6383ZM75.2009 67.6769C76.2822 67.6769 77.1236 67.9574 77.7249 68.5183C78.3321 69.0734 78.6357 69.9668 78.6357 71.1985V77.4609H76.5974V71.5801C76.5974 70.8342 76.4441 70.2762 76.1376 69.9061C75.8312 69.5302 75.357 69.3423 74.7152 69.3423C73.7842 69.3423 73.1365 69.6285 72.7722 70.201C72.4137 70.7735 72.2345 71.6033 72.2345 72.6904V77.4609H70.1961V67.8591H71.7834L72.0697 69.1602H72.1824C72.3906 68.8248 72.6479 68.5501 72.9544 68.3361C73.2666 68.1164 73.6136 67.9516 73.9952 67.8417C74.3827 67.7319 74.7845 67.6769 75.2009 67.6769ZM83.6838 77.4609L80.0322 67.8591H82.1919L84.1695 73.497C84.2968 73.8555 84.4124 74.243 84.5165 74.6593C84.6206 75.0757 84.6929 75.4255 84.7333 75.7088H84.8027C84.8432 75.4139 84.9213 75.0612 85.0369 74.6506C85.1526 74.2343 85.2711 73.8498 85.3925 73.497L87.3702 67.8591H89.5213L85.8696 77.4609H83.6838ZM94.8036 67.6769C95.6594 67.6769 96.3938 67.8533 97.0067 68.206C97.6197 68.5588 98.0909 69.059 98.4205 69.7066C98.7501 70.3542 98.9149 71.1291 98.9149 72.0312V73.1241H92.505C92.5282 74.055 92.7768 74.7721 93.251 75.2752C93.7309 75.7782 94.4017 76.0298 95.2633 76.0298C95.8762 76.0298 96.4256 75.9719 96.9113 75.8563C97.4028 75.7349 97.9088 75.5585 98.4292 75.3272V76.9839C97.9493 77.2094 97.4606 77.3742 96.9633 77.4783C96.466 77.5824 95.8705 77.6344 95.1765 77.6344C94.234 77.6344 93.4042 77.4523 92.6872 77.088C91.9759 76.7179 91.4179 76.1685 91.0131 75.44C90.6142 74.7114 90.4147 73.8064 90.4147 72.7251C90.4147 71.6495 90.5968 70.7359 90.9611 69.9842C91.3254 69.2324 91.8372 68.66 92.4964 68.2668C93.1556 67.8735 93.9246 67.6769 94.8036 67.6769ZM94.8036 69.2122C94.1617 69.2122 93.6413 69.4204 93.2423 69.8367C92.8491 70.253 92.6178 70.8631 92.5484 71.6669H96.92C96.9142 71.1869 96.8332 70.7619 96.6771 70.3918C96.5268 70.0217 96.2955 69.7326 95.9832 69.5244C95.6767 69.3163 95.2835 69.2122 94.8036 69.2122ZM106.218 67.6769C107.3 67.6769 108.141 67.9574 108.742 68.5183C109.349 69.0734 109.653 69.9668 109.653 71.1985V77.4609H107.615V71.5801C107.615 70.8342 107.461 70.2762 107.155 69.9061C106.849 69.5302 106.374 69.3423 105.733 69.3423C104.802 69.3423 104.154 69.6285 103.79 70.201C103.431 70.7735 103.252 71.6033 103.252 72.6904V77.4609H101.213V67.8591H102.801L103.087 69.1602H103.2C103.408 68.8248 103.665 68.5501 103.972 68.3361C104.284 68.1164 104.631 67.9516 105.013 67.8417C105.4 67.7319 105.802 67.6769 106.218 67.6769ZM114.545 67.8591V77.4609H112.507V67.8591H114.545ZM113.539 64.1814C113.851 64.1814 114.12 64.2653 114.346 64.433C114.577 64.6006 114.693 64.8898 114.693 65.3003C114.693 65.7051 114.577 65.9942 114.346 66.1677C114.12 66.3354 113.851 66.4192 113.539 66.4192C113.215 66.4192 112.94 66.3354 112.715 66.1677C112.495 65.9942 112.385 65.7051 112.385 65.3003C112.385 64.8898 112.495 64.6006 112.715 64.433C112.94 64.2653 113.215 64.1814 113.539 64.1814ZM121.293 67.6769C122.149 67.6769 122.883 67.8533 123.496 68.206C124.109 68.5588 124.581 69.059 124.91 69.7066C125.24 70.3542 125.405 71.1291 125.405 72.0312V73.1241H118.995C119.018 74.055 119.266 74.7721 119.741 75.2752C120.221 75.7782 120.891 76.0298 121.753 76.0298C122.366 76.0298 122.915 75.9719 123.401 75.8563C123.892 75.7349 124.398 75.5585 124.919 75.3272V76.9839C124.439 77.2094 123.95 77.3742 123.453 77.4783C122.956 77.5824 122.36 77.6344 121.666 77.6344C120.724 77.6344 119.894 77.4523 119.177 77.088C118.466 76.7179 117.908 76.1685 117.503 75.44C117.104 74.7114 116.904 73.8064 116.904 72.7251C116.904 71.6495 117.086 70.7359 117.451 69.9842C117.815 69.2324 118.327 68.66 118.986 68.2668C119.645 67.8735 120.414 67.6769 121.293 67.6769ZM121.293 69.2122C120.651 69.2122 120.131 69.4204 119.732 69.8367C119.339 70.253 119.107 70.8631 119.038 71.6669H123.41C123.404 71.1869 123.323 70.7619 123.167 70.3918C123.016 70.0217 122.785 69.7326 122.473 69.5244C122.166 69.3163 121.773 69.2122 121.293 69.2122ZM132.708 67.6769C133.789 67.6769 134.631 67.9574 135.232 68.5183C135.839 69.0734 136.143 69.9668 136.143 71.1985V77.4609H134.104V71.5801C134.104 70.8342 133.951 70.2762 133.645 69.9061C133.338 69.5302 132.864 69.3423 132.222 69.3423C131.291 69.3423 130.644 69.6285 130.279 70.201C129.921 70.7735 129.741 71.6033 129.741 72.6904V77.4609H127.703V67.8591H129.29L129.577 69.1602H129.689C129.898 68.8248 130.155 68.5501 130.461 68.3361C130.774 68.1164 131.121 67.9516 131.502 67.8417C131.89 67.7319 132.292 67.6769 132.708 67.6769ZM142.57 75.9864C142.836 75.9864 143.099 75.9633 143.359 75.917C143.619 75.865 143.857 75.8042 144.071 75.7349V77.2788C143.845 77.3771 143.553 77.4609 143.194 77.5303C142.836 77.5997 142.463 77.6344 142.076 77.6344C141.532 77.6344 141.043 77.5448 140.61 77.3655C140.176 77.1805 139.832 76.8653 139.578 76.4201C139.323 75.9748 139.196 75.359 139.196 74.5726V69.4117H137.886V68.5009L139.291 67.781L139.959 65.7253H141.243V67.8591H143.992V69.4117H141.243V74.5466C141.243 75.0323 141.364 75.3937 141.607 75.6308C141.85 75.8679 142.171 75.9864 142.57 75.9864Z" fill="#DADADA"/>
<path id="2023" d="M82.1664 167.211H69.8924V164.629L74.3 160.173C75.1887 159.26 75.9013 158.5 76.4377 157.891C76.9822 157.275 77.3745 156.714 77.6147 156.21C77.8629 155.706 77.987 155.165 77.987 154.589C77.987 153.892 77.7908 153.372 77.3985 153.027C77.0142 152.675 76.4978 152.499 75.8493 152.499C75.1687 152.499 74.5082 152.655 73.8676 152.967C73.2271 153.28 72.5586 153.724 71.862 154.3L69.8443 151.91C70.3488 151.478 70.8812 151.07 71.4417 150.685C72.0101 150.301 72.6667 149.993 73.4113 149.761C74.1639 149.52 75.0646 149.4 76.1135 149.4C77.2664 149.4 78.2552 149.609 79.0799 150.025C79.9126 150.441 80.5531 151.01 81.0015 151.73C81.4498 152.443 81.674 153.252 81.674 154.156C81.674 155.125 81.4819 156.01 81.0975 156.81C80.7132 157.611 80.1528 158.404 79.4162 159.188C78.6876 159.973 77.8069 160.842 76.774 161.795L74.5162 163.92V164.088H82.1664V167.211ZM96.1458 158.432C96.1458 159.849 96.0338 161.114 95.8096 162.227C95.5934 163.34 95.2411 164.285 94.7527 165.061C94.2723 165.838 93.6398 166.43 92.8552 166.839C92.0705 167.247 91.1177 167.451 89.9968 167.451C88.5877 167.451 87.4307 167.095 86.526 166.382C85.6212 165.662 84.9527 164.629 84.5203 163.284C84.088 161.931 83.8718 160.313 83.8718 158.432C83.8718 156.534 84.068 154.913 84.4603 153.568C84.8606 152.215 85.5092 151.178 86.4059 150.457C87.3026 149.737 88.4996 149.376 89.9968 149.376C91.398 149.376 92.5509 149.737 93.4556 150.457C94.3684 151.17 95.0449 152.203 95.4853 153.556C95.9257 154.901 96.1458 156.526 96.1458 158.432ZM87.5588 158.432C87.5588 159.769 87.6309 160.886 87.775 161.782C87.9271 162.671 88.1793 163.34 88.5316 163.788C88.8839 164.237 89.3723 164.461 89.9968 164.461C90.6133 164.461 91.0977 164.241 91.45 163.8C91.8103 163.352 92.0665 162.683 92.2186 161.795C92.3708 160.898 92.4468 159.777 92.4468 158.432C92.4468 157.095 92.3708 155.978 92.2186 155.081C92.0665 154.184 91.8103 153.512 91.45 153.063C91.0977 152.607 90.6133 152.379 89.9968 152.379C89.3723 152.379 88.8839 152.607 88.5316 153.063C88.1793 153.512 87.9271 154.184 87.775 155.081C87.6309 155.978 87.5588 157.095 87.5588 158.432ZM110.317 167.211H98.0434V164.629L102.451 160.173C103.34 159.26 104.052 158.5 104.589 157.891C105.133 157.275 105.526 156.714 105.766 156.21C106.014 155.706 106.138 155.165 106.138 154.589C106.138 153.892 105.942 153.372 105.55 153.027C105.165 152.675 104.649 152.499 104 152.499C103.32 152.499 102.659 152.655 102.019 152.967C101.378 153.28 100.71 153.724 100.013 154.3L97.9954 151.91C98.4998 151.478 99.0322 151.07 99.5927 150.685C100.161 150.301 100.818 149.993 101.562 149.761C102.315 149.52 103.216 149.4 104.264 149.4C105.417 149.4 106.406 149.609 107.231 150.025C108.064 150.441 108.704 151.01 109.152 151.73C109.601 152.443 109.825 153.252 109.825 154.156C109.825 155.125 109.633 156.01 109.249 156.81C108.864 157.611 108.304 158.404 107.567 159.188C106.839 159.973 105.958 160.842 104.925 161.795L102.667 163.92V164.088H110.317V167.211ZM123.708 153.58C123.708 154.388 123.54 155.089 123.204 155.682C122.868 156.274 122.411 156.758 121.835 157.135C121.266 157.511 120.626 157.787 119.913 157.963V158.035C121.322 158.212 122.391 158.644 123.12 159.332C123.857 160.021 124.225 160.942 124.225 162.095C124.225 163.12 123.973 164.036 123.468 164.845C122.972 165.654 122.203 166.29 121.162 166.755C120.121 167.219 118.78 167.451 117.139 167.451C116.17 167.451 115.265 167.371 114.425 167.211C113.592 167.059 112.807 166.823 112.071 166.502V163.344C112.823 163.728 113.612 164.02 114.437 164.22C115.261 164.413 116.03 164.509 116.743 164.509C118.072 164.509 119.001 164.281 119.529 163.824C120.065 163.36 120.334 162.711 120.334 161.879C120.334 161.39 120.21 160.978 119.961 160.642C119.713 160.305 119.281 160.049 118.664 159.873C118.056 159.697 117.203 159.609 116.106 159.609H114.773V156.762H116.13C117.211 156.762 118.032 156.662 118.592 156.462C119.161 156.254 119.545 155.974 119.745 155.621C119.953 155.261 120.057 154.853 120.057 154.396C120.057 153.772 119.865 153.284 119.481 152.931C119.097 152.579 118.456 152.403 117.559 152.403C116.999 152.403 116.486 152.475 116.022 152.619C115.566 152.755 115.153 152.923 114.785 153.123C114.417 153.316 114.093 153.504 113.812 153.688L112.095 151.13C112.783 150.633 113.588 150.221 114.509 149.893C115.438 149.565 116.543 149.4 117.824 149.4C119.633 149.4 121.066 149.765 122.123 150.493C123.18 151.222 123.708 152.251 123.708 153.58Z" fill="#DADADA"/>
<path id="G2" d="M88.8278 15.6153H94.6326V23.2015C93.8653 23.4551 93.068 23.6586 92.2406 23.812C91.4133 23.9588 90.4759 24.0322 89.4283 24.0322C87.9738 24.0322 86.7395 23.7453 85.7253 23.1715C84.7111 22.5977 83.9405 21.7503 83.4134 20.6294C82.8863 19.5085 82.6228 18.1307 82.6228 16.496C82.6228 14.9614 82.9163 13.6337 83.5035 12.5128C84.0973 11.3919 84.9613 10.5245 86.0956 9.91065C87.2365 9.29681 88.6277 8.9899 90.269 8.9899C91.043 8.9899 91.8069 9.0733 92.5609 9.2401C93.3148 9.4069 93.9987 9.62375 94.6126 9.89063L93.5817 12.3727C93.1347 12.1458 92.6243 11.9557 92.0505 11.8022C91.4767 11.6487 90.8762 11.572 90.249 11.572C89.3483 11.572 88.5643 11.7788 87.8971 12.1925C87.2365 12.6062 86.7228 13.1867 86.3558 13.9339C85.9955 14.6745 85.8154 15.5486 85.8154 16.5561C85.8154 17.5102 85.9455 18.3576 86.2057 19.0982C86.4659 19.8321 86.8762 20.4092 87.4367 20.8296C87.9972 21.2432 88.7278 21.4501 89.6285 21.4501C90.0689 21.4501 90.4392 21.4301 90.7394 21.39C91.0463 21.3433 91.3332 21.2966 91.6001 21.2499V18.1974H88.8278V15.6153ZM107.333 23.832H97.1046V21.6803L100.778 17.9672C101.518 17.2066 102.112 16.5728 102.559 16.0657C103.013 15.5519 103.34 15.0849 103.54 14.6645C103.747 14.2442 103.85 13.7938 103.85 13.3134C103.85 12.733 103.687 12.2993 103.36 12.0124C103.039 11.7188 102.609 11.572 102.069 11.572C101.502 11.572 100.951 11.7021 100.417 11.9623C99.8835 12.2225 99.3264 12.5928 98.7459 13.0732L97.0646 11.0816C97.4849 10.7213 97.9286 10.381 98.3957 10.0608C98.8694 9.74051 99.4165 9.48363 100.037 9.29014C100.664 9.08998 101.415 8.9899 102.289 8.9899C103.25 8.9899 104.074 9.16337 104.761 9.51032C105.455 9.85727 105.989 10.331 106.362 10.9315C106.736 11.5253 106.923 12.1992 106.923 12.9531C106.923 13.7605 106.762 14.4977 106.442 15.1649C106.122 15.8322 105.655 16.4927 105.041 17.1466C104.434 17.8004 103.7 18.5244 102.839 19.3183L100.958 21.0898V21.2299H107.333V23.832Z" fill="black"/>
<rect id="Rectangle 1010" x="17" y="90.1875" width="158.508" height="45.0929" rx="6.83225" fill="#A8FE3B"/>
<path id="Convenient" d="M40.0273 108.572C39.3438 108.572 38.7318 108.696 38.1914 108.943C37.6576 109.191 37.2051 109.549 36.834 110.018C36.4629 110.48 36.1797 111.043 35.9844 111.707C35.7891 112.365 35.6914 113.107 35.6914 113.934C35.6914 115.04 35.8477 115.994 36.1602 116.795C36.4727 117.589 36.9479 118.201 37.5859 118.631C38.224 119.054 39.0312 119.266 40.0078 119.266C40.6133 119.266 41.2025 119.207 41.7754 119.09C42.3483 118.973 42.9408 118.813 43.5527 118.611V120.604C42.9733 120.831 42.3874 120.997 41.7949 121.102C41.2025 121.206 40.5189 121.258 39.7441 121.258C38.2858 121.258 37.0749 120.955 36.1113 120.35C35.1543 119.744 34.4382 118.891 33.9629 117.791C33.4941 116.691 33.2598 115.402 33.2598 113.924C33.2598 112.843 33.4095 111.854 33.709 110.955C34.0085 110.057 34.4447 109.282 35.0176 108.631C35.5905 107.973 36.2969 107.469 37.1367 107.117C37.9831 106.759 38.9499 106.58 40.0371 106.58C40.7533 106.58 41.4564 106.661 42.1465 106.824C42.8431 106.98 43.4876 107.205 44.0801 107.498L43.2598 109.432C42.765 109.197 42.2474 108.995 41.707 108.826C41.1667 108.657 40.6068 108.572 40.0273 108.572ZM59.2949 113.904C59.2949 115.005 59.1549 116.007 58.875 116.912C58.6016 117.811 58.1882 118.585 57.6348 119.236C57.0814 119.881 56.388 120.379 55.5547 120.73C54.7214 121.082 53.7448 121.258 52.625 121.258C51.4857 121.258 50.4961 121.082 49.6562 120.73C48.8229 120.379 48.1296 119.878 47.5762 119.227C47.0293 118.576 46.6191 117.798 46.3457 116.893C46.0723 115.988 45.9355 114.985 45.9355 113.885C45.9355 112.413 46.1764 111.131 46.6582 110.037C47.1465 108.937 47.8854 108.084 48.875 107.479C49.8711 106.867 51.1276 106.561 52.6445 106.561C54.1289 106.561 55.3626 106.863 56.3457 107.469C57.3288 108.074 58.0645 108.927 58.5527 110.027C59.0475 111.121 59.2949 112.413 59.2949 113.904ZM48.3965 113.904C48.3965 115.005 48.5462 115.958 48.8457 116.766C49.1452 117.566 49.6042 118.185 50.2227 118.621C50.8477 119.051 51.6484 119.266 52.625 119.266C53.6081 119.266 54.4089 119.051 55.0273 118.621C55.6458 118.185 56.1016 117.566 56.3945 116.766C56.6875 115.958 56.834 115.005 56.834 113.904C56.834 112.231 56.4987 110.923 55.8281 109.979C55.1641 109.028 54.1029 108.553 52.6445 108.553C51.668 108.553 50.8639 108.768 50.2324 109.197C49.6074 109.627 49.1452 110.242 48.8457 111.043C48.5462 111.837 48.3965 112.791 48.3965 113.904ZM74.2754 121.062H71.3945L64.4023 109.666H64.3145C64.3405 110.05 64.3633 110.457 64.3828 110.887C64.4089 111.316 64.4284 111.759 64.4414 112.215C64.4609 112.671 64.4772 113.133 64.4902 113.602V121.062H62.3613V106.785H65.2227L72.2051 118.104H72.2734C72.2604 117.771 72.2441 117.391 72.2246 116.961C72.2051 116.531 72.1855 116.089 72.166 115.633C72.153 115.171 72.1432 114.725 72.1367 114.295V106.785H74.2754V121.062ZM88.6113 106.785L83.6211 121.062H81.1406L76.1504 106.785H78.5527L81.5605 115.73C81.6517 115.991 81.7493 116.307 81.8535 116.678C81.9642 117.049 82.0651 117.423 82.1562 117.801C82.2539 118.178 82.3288 118.514 82.3809 118.807C82.4329 118.514 82.5046 118.178 82.5957 117.801C82.6934 117.423 82.7943 117.049 82.8984 116.678C83.0026 116.307 83.1003 115.988 83.1914 115.721L86.209 106.785H88.6113ZM98.5723 121.062H90.4863V106.785H98.5723V108.758H92.8301V112.635H98.2109V114.598H92.8301V119.08H98.5723V121.062ZM113.572 121.062H110.691L103.699 109.666H103.611C103.637 110.05 103.66 110.457 103.68 110.887C103.706 111.316 103.725 111.759 103.738 112.215C103.758 112.671 103.774 113.133 103.787 113.602V121.062H101.658V106.785H104.52L111.502 118.104H111.57C111.557 117.771 111.541 117.391 111.521 116.961C111.502 116.531 111.482 116.089 111.463 115.633C111.45 115.171 111.44 114.725 111.434 114.295V106.785H113.572V121.062ZM117.322 121.062V106.785H119.666V121.062H117.322ZM131.521 121.062H123.436V106.785H131.521V108.758H125.779V112.635H131.16V114.598H125.779V119.08H131.521V121.062ZM146.521 121.062H143.641L136.648 109.666H136.561C136.587 110.05 136.609 110.457 136.629 110.887C136.655 111.316 136.674 111.759 136.688 112.215C136.707 112.671 136.723 113.133 136.736 113.602V121.062H134.607V106.785H137.469L144.451 118.104H144.52C144.507 117.771 144.49 117.391 144.471 116.961C144.451 116.531 144.432 116.089 144.412 115.633C144.399 115.171 144.389 114.725 144.383 114.295V106.785H146.521V121.062ZM155.223 121.062H152.869V108.777H148.689V106.785H159.393V108.777H155.223V121.062Z" fill="black"/>
</g>
</svg>
