<svg width="609" height="213" viewBox="0 0 609 213" fill="none" xmlns="http://www.w3.org/2000/svg">
<g id="Content">
<g id="Awards">
<g id="4">
<rect id="Rectangle 1011" x="2.32812" y="0.59375" width="606.671" height="212.288" rx="28.305" fill="#676767"/>
<path id="for customer services" d="M276.341 102.848V104.244H270.623V108.678H275.265V110.075H270.623V116H268.906V102.848H276.341ZM282.925 116.17C281.956 116.17 281.076 115.95 280.283 115.509C279.503 115.069 278.887 114.446 278.434 113.641C277.993 112.824 277.773 111.88 277.773 110.811C277.773 109.754 278 108.823 278.453 108.018C278.918 107.2 279.547 106.578 280.34 106.15C281.132 105.71 282.019 105.489 283 105.489C283.982 105.489 284.868 105.71 285.661 106.15C286.453 106.578 287.076 107.194 287.529 107.999C287.995 108.804 288.227 109.741 288.227 110.811C288.227 111.88 287.988 112.824 287.51 113.641C287.045 114.446 286.409 115.069 285.604 115.509C284.799 115.95 283.906 116.17 282.925 116.17ZM282.925 114.66C283.541 114.66 284.12 114.516 284.661 114.226C285.202 113.937 285.636 113.503 285.963 112.924C286.303 112.346 286.472 111.641 286.472 110.811C286.472 109.98 286.309 109.276 285.982 108.697C285.655 108.119 285.227 107.691 284.699 107.414C284.17 107.125 283.598 106.98 282.981 106.98C282.352 106.98 281.774 107.125 281.245 107.414C280.73 107.691 280.314 108.119 280 108.697C279.685 109.276 279.528 109.98 279.528 110.811C279.528 111.654 279.679 112.364 279.981 112.943C280.296 113.522 280.711 113.956 281.226 114.245C281.742 114.522 282.308 114.66 282.925 114.66ZM292.202 107.339C292.504 106.747 292.932 106.288 293.485 105.961C294.051 105.634 294.737 105.471 295.542 105.471V107.244H295.089C293.165 107.244 292.202 108.288 292.202 110.377V116H290.485V105.659H292.202V107.339ZM301.914 109.414C301.914 108.131 302.203 106.98 302.782 105.961C303.36 104.93 304.147 104.124 305.14 103.546C306.147 102.967 307.26 102.678 308.48 102.678C309.915 102.678 311.166 103.024 312.236 103.716C313.305 104.408 314.085 105.389 314.575 106.659H312.519C312.154 105.867 311.625 105.257 310.934 104.829C310.254 104.401 309.436 104.187 308.48 104.187C307.562 104.187 306.738 104.401 306.008 104.829C305.279 105.257 304.706 105.867 304.291 106.659C303.876 107.439 303.669 108.358 303.669 109.414C303.669 110.459 303.876 111.377 304.291 112.169C304.706 112.949 305.279 113.553 306.008 113.981C306.738 114.409 307.562 114.622 308.48 114.622C309.436 114.622 310.254 114.415 310.934 114C311.625 113.572 312.154 112.962 312.519 112.169H314.575C314.085 113.427 313.305 114.402 312.236 115.094C311.166 115.774 309.915 116.113 308.48 116.113C307.26 116.113 306.147 115.83 305.14 115.264C304.147 114.685 303.36 113.887 302.782 112.868C302.203 111.849 301.914 110.698 301.914 109.414ZM326.302 105.659V116H324.585V114.472C324.258 115 323.799 115.415 323.208 115.717C322.629 116.006 321.987 116.151 321.283 116.151C320.478 116.151 319.755 115.987 319.113 115.66C318.471 115.321 317.962 114.817 317.584 114.151C317.22 113.484 317.037 112.673 317.037 111.717V105.659H318.736V111.49C318.736 112.509 318.993 113.295 319.509 113.849C320.025 114.39 320.729 114.66 321.623 114.66C322.541 114.66 323.264 114.377 323.793 113.811C324.321 113.245 324.585 112.421 324.585 111.339V105.659H326.302ZM332.863 116.17C332.07 116.17 331.359 116.038 330.73 115.774C330.101 115.497 329.604 115.119 329.24 114.641C328.875 114.151 328.673 113.591 328.636 112.962H330.409C330.46 113.478 330.699 113.899 331.127 114.226C331.567 114.553 332.139 114.717 332.844 114.717C333.498 114.717 334.014 114.572 334.391 114.283C334.768 113.993 334.957 113.629 334.957 113.188C334.957 112.735 334.756 112.402 334.353 112.188C333.951 111.962 333.328 111.742 332.485 111.528C331.718 111.327 331.089 111.125 330.598 110.924C330.12 110.71 329.705 110.402 329.353 109.999C329.013 109.584 328.843 109.043 328.843 108.377C328.843 107.848 329 107.364 329.315 106.924C329.629 106.483 330.076 106.137 330.655 105.886C331.233 105.621 331.894 105.489 332.636 105.489C333.781 105.489 334.706 105.779 335.41 106.357C336.114 106.936 336.492 107.729 336.542 108.735H334.825C334.787 108.194 334.567 107.76 334.165 107.433C333.775 107.106 333.246 106.942 332.58 106.942C331.963 106.942 331.472 107.074 331.108 107.339C330.743 107.603 330.56 107.949 330.56 108.377C330.56 108.716 330.667 108.999 330.881 109.226C331.108 109.44 331.384 109.616 331.711 109.754C332.051 109.88 332.517 110.024 333.108 110.188C333.85 110.389 334.454 110.591 334.919 110.792C335.385 110.981 335.781 111.27 336.108 111.66C336.448 112.05 336.624 112.559 336.637 113.188C336.637 113.754 336.479 114.264 336.165 114.717C335.85 115.17 335.404 115.528 334.825 115.792C334.259 116.044 333.605 116.17 332.863 116.17ZM341.155 107.074V113.169C341.155 113.673 341.262 114.031 341.476 114.245C341.69 114.446 342.061 114.547 342.589 114.547H343.854V116H342.306C341.35 116 340.633 115.78 340.155 115.34C339.677 114.899 339.438 114.176 339.438 113.169V107.074H338.098V105.659H339.438V103.055H341.155V105.659H343.854V107.074H341.155ZM350.444 116.17C349.475 116.17 348.595 115.95 347.802 115.509C347.022 115.069 346.406 114.446 345.953 113.641C345.513 112.824 345.293 111.88 345.293 110.811C345.293 109.754 345.519 108.823 345.972 108.018C346.437 107.2 347.066 106.578 347.859 106.15C348.651 105.71 349.538 105.489 350.52 105.489C351.501 105.489 352.388 105.71 353.18 106.15C353.973 106.578 354.596 107.194 355.048 107.999C355.514 108.804 355.747 109.741 355.747 110.811C355.747 111.88 355.508 112.824 355.03 113.641C354.564 114.446 353.929 115.069 353.124 115.509C352.319 115.95 351.425 116.17 350.444 116.17ZM350.444 114.66C351.061 114.66 351.639 114.516 352.18 114.226C352.721 113.937 353.155 113.503 353.482 112.924C353.822 112.346 353.992 111.641 353.992 110.811C353.992 109.98 353.828 109.276 353.501 108.697C353.174 108.119 352.746 107.691 352.218 107.414C351.69 107.125 351.117 106.98 350.501 106.98C349.872 106.98 349.293 107.125 348.765 107.414C348.249 107.691 347.834 108.119 347.519 108.697C347.205 109.276 347.048 109.98 347.048 110.811C347.048 111.654 347.198 112.364 347.5 112.943C347.815 113.522 348.23 113.956 348.746 114.245C349.262 114.522 349.828 114.66 350.444 114.66ZM370.44 105.471C371.245 105.471 371.962 105.64 372.591 105.98C373.22 106.307 373.717 106.804 374.082 107.471C374.446 108.137 374.629 108.949 374.629 109.905V116H372.931V110.15C372.931 109.119 372.673 108.332 372.157 107.792C371.654 107.238 370.968 106.961 370.1 106.961C369.207 106.961 368.496 107.251 367.968 107.829C367.439 108.395 367.175 109.219 367.175 110.301V116H365.477V110.15C365.477 109.119 365.219 108.332 364.703 107.792C364.2 107.238 363.514 106.961 362.646 106.961C361.753 106.961 361.042 107.251 360.514 107.829C359.986 108.395 359.722 109.219 359.722 110.301V116H358.004V105.659H359.722V107.15C360.061 106.609 360.514 106.194 361.08 105.905C361.659 105.615 362.294 105.471 362.986 105.471C363.854 105.471 364.621 105.666 365.288 106.055C365.955 106.445 366.452 107.018 366.779 107.773C367.068 107.043 367.546 106.477 368.213 106.074C368.88 105.672 369.622 105.471 370.44 105.471ZM386.881 110.433C386.881 110.76 386.862 111.106 386.824 111.471H378.559C378.622 112.49 378.968 113.289 379.597 113.868C380.238 114.434 381.012 114.717 381.918 114.717C382.66 114.717 383.277 114.547 383.767 114.207C384.27 113.855 384.623 113.39 384.824 112.811H386.673C386.396 113.805 385.843 114.616 385.013 115.245C384.182 115.862 383.151 116.17 381.918 116.17C380.937 116.17 380.056 115.95 379.276 115.509C378.509 115.069 377.905 114.446 377.465 113.641C377.024 112.824 376.804 111.88 376.804 110.811C376.804 109.741 377.018 108.804 377.446 107.999C377.873 107.194 378.471 106.578 379.238 106.15C380.018 105.71 380.911 105.489 381.918 105.489C382.899 105.489 383.767 105.703 384.522 106.131C385.277 106.559 385.855 107.15 386.258 107.905C386.673 108.647 386.881 109.49 386.881 110.433ZM385.107 110.075C385.107 109.421 384.962 108.861 384.673 108.395C384.384 107.917 383.987 107.559 383.484 107.32C382.993 107.068 382.446 106.942 381.842 106.942C380.974 106.942 380.232 107.219 379.616 107.773C379.012 108.326 378.666 109.094 378.578 110.075H385.107ZM390.864 107.339C391.166 106.747 391.594 106.288 392.148 105.961C392.714 105.634 393.399 105.471 394.204 105.471V107.244H393.752C391.827 107.244 390.864 108.288 390.864 110.377V116H389.147V105.659H390.864V107.339ZM405.388 116.132C404.52 116.132 403.74 115.981 403.048 115.679C402.369 115.365 401.834 114.937 401.444 114.396C401.054 113.843 400.853 113.207 400.84 112.49H402.67C402.733 113.107 402.985 113.629 403.425 114.056C403.878 114.472 404.532 114.679 405.388 114.679C406.205 114.679 406.847 114.478 407.313 114.075C407.791 113.66 408.03 113.132 408.03 112.49C408.03 111.987 407.891 111.578 407.614 111.264C407.338 110.949 406.992 110.71 406.577 110.547C406.161 110.383 405.602 110.207 404.897 110.018C404.029 109.792 403.331 109.565 402.803 109.339C402.287 109.112 401.84 108.76 401.463 108.282C401.098 107.792 400.916 107.137 400.916 106.32C400.916 105.603 401.098 104.967 401.463 104.414C401.828 103.86 402.337 103.433 402.991 103.131C403.658 102.829 404.419 102.678 405.275 102.678C406.507 102.678 407.514 102.986 408.294 103.602C409.086 104.219 409.533 105.037 409.634 106.055H407.747C407.684 105.552 407.419 105.112 406.954 104.735C406.489 104.345 405.872 104.15 405.105 104.15C404.388 104.15 403.803 104.338 403.35 104.716C402.897 105.081 402.67 105.596 402.67 106.263C402.67 106.741 402.803 107.131 403.067 107.433C403.344 107.735 403.677 107.968 404.067 108.131C404.469 108.282 405.029 108.458 405.746 108.66C406.614 108.899 407.313 109.138 407.841 109.377C408.369 109.603 408.822 109.962 409.2 110.452C409.577 110.93 409.766 111.584 409.766 112.415C409.766 113.056 409.596 113.66 409.256 114.226C408.916 114.792 408.413 115.251 407.747 115.604C407.08 115.956 406.294 116.132 405.388 116.132ZM421.728 110.433C421.728 110.76 421.709 111.106 421.671 111.471H413.406C413.469 112.49 413.815 113.289 414.444 113.868C415.085 114.434 415.859 114.717 416.765 114.717C417.507 114.717 418.123 114.547 418.614 114.207C419.117 113.855 419.469 113.39 419.671 112.811H421.52C421.243 113.805 420.69 114.616 419.859 115.245C419.029 115.862 417.998 116.17 416.765 116.17C415.784 116.17 414.903 115.95 414.123 115.509C413.356 115.069 412.752 114.446 412.311 113.641C411.871 112.824 411.651 111.88 411.651 110.811C411.651 109.741 411.865 108.804 412.293 107.999C412.72 107.194 413.318 106.578 414.085 106.15C414.865 105.71 415.758 105.489 416.765 105.489C417.746 105.489 418.614 105.703 419.369 106.131C420.124 106.559 420.702 107.15 421.105 107.905C421.52 108.647 421.728 109.49 421.728 110.433ZM419.954 110.075C419.954 109.421 419.809 108.861 419.52 108.395C419.23 107.917 418.834 107.559 418.331 107.32C417.84 107.068 417.293 106.942 416.689 106.942C415.821 106.942 415.079 107.219 414.463 107.773C413.859 108.326 413.513 109.094 413.425 110.075H419.954ZM425.711 107.339C426.013 106.747 426.441 106.288 426.995 105.961C427.561 105.634 428.246 105.471 429.051 105.471V107.244H428.598C426.674 107.244 425.711 108.288 425.711 110.377V116H423.994V105.659H425.711V107.339ZM434.883 114.415L438.091 105.659H439.921L435.864 116H433.864L429.807 105.659H431.656L434.883 114.415ZM442.498 103.98C442.171 103.98 441.894 103.867 441.668 103.64C441.441 103.414 441.328 103.137 441.328 102.81C441.328 102.483 441.441 102.206 441.668 101.98C441.894 101.753 442.171 101.64 442.498 101.64C442.813 101.64 443.077 101.753 443.291 101.98C443.517 102.206 443.63 102.483 443.63 102.81C443.63 103.137 443.517 103.414 443.291 103.64C443.077 103.867 442.813 103.98 442.498 103.98ZM443.328 105.659V116H441.611V105.659H443.328ZM445.613 110.811C445.613 109.741 445.827 108.811 446.255 108.018C446.683 107.213 447.274 106.59 448.029 106.15C448.796 105.71 449.67 105.489 450.652 105.489C451.922 105.489 452.966 105.798 453.784 106.414C454.614 107.03 455.162 107.886 455.426 108.98H453.577C453.4 108.351 453.054 107.854 452.539 107.49C452.035 107.125 451.406 106.942 450.652 106.942C449.67 106.942 448.878 107.282 448.274 107.961C447.67 108.628 447.368 109.578 447.368 110.811C447.368 112.056 447.67 113.019 448.274 113.698C448.878 114.377 449.67 114.717 450.652 114.717C451.406 114.717 452.035 114.541 452.539 114.188C453.042 113.836 453.388 113.333 453.577 112.679H455.426C455.149 113.736 454.596 114.585 453.765 115.226C452.935 115.855 451.897 116.17 450.652 116.17C449.67 116.17 448.796 115.95 448.029 115.509C447.274 115.069 446.683 114.446 446.255 113.641C445.827 112.836 445.613 111.893 445.613 110.811ZM467.152 110.433C467.152 110.76 467.133 111.106 467.095 111.471H458.83C458.893 112.49 459.239 113.289 459.868 113.868C460.51 114.434 461.283 114.717 462.189 114.717C462.931 114.717 463.548 114.547 464.038 114.207C464.542 113.855 464.894 113.39 465.095 112.811H466.944C466.668 113.805 466.114 114.616 465.284 115.245C464.454 115.862 463.422 116.17 462.189 116.17C461.208 116.17 460.327 115.95 459.547 115.509C458.78 115.069 458.176 114.446 457.736 113.641C457.296 112.824 457.075 111.88 457.075 110.811C457.075 109.741 457.289 108.804 457.717 107.999C458.145 107.194 458.742 106.578 459.51 106.15C460.29 105.71 461.183 105.489 462.189 105.489C463.17 105.489 464.038 105.703 464.793 106.131C465.548 106.559 466.127 107.15 466.529 107.905C466.944 108.647 467.152 109.49 467.152 110.433ZM465.378 110.075C465.378 109.421 465.234 108.861 464.944 108.395C464.655 107.917 464.259 107.559 463.755 107.32C463.265 107.068 462.718 106.942 462.114 106.942C461.246 106.942 460.503 107.219 459.887 107.773C459.283 108.326 458.937 109.094 458.849 110.075H465.378ZM473.079 116.17C472.287 116.17 471.576 116.038 470.947 115.774C470.318 115.497 469.821 115.119 469.456 114.641C469.092 114.151 468.89 113.591 468.853 112.962H470.626C470.677 113.478 470.916 113.899 471.343 114.226C471.784 114.553 472.356 114.717 473.061 114.717C473.715 114.717 474.231 114.572 474.608 114.283C474.985 113.993 475.174 113.629 475.174 113.188C475.174 112.735 474.973 112.402 474.57 112.188C474.168 111.962 473.545 111.742 472.702 111.528C471.935 111.327 471.306 111.125 470.815 110.924C470.337 110.71 469.922 110.402 469.57 109.999C469.23 109.584 469.06 109.043 469.06 108.377C469.06 107.848 469.217 107.364 469.532 106.924C469.846 106.483 470.293 106.137 470.872 105.886C471.45 105.621 472.111 105.489 472.853 105.489C473.998 105.489 474.922 105.779 475.627 106.357C476.331 106.936 476.709 107.729 476.759 108.735H475.042C475.004 108.194 474.784 107.76 474.381 107.433C473.991 107.106 473.463 106.942 472.796 106.942C472.18 106.942 471.689 107.074 471.325 107.339C470.96 107.603 470.777 107.949 470.777 108.377C470.777 108.716 470.884 108.999 471.098 109.226C471.325 109.44 471.601 109.616 471.928 109.754C472.268 109.88 472.733 110.024 473.325 110.188C474.067 110.389 474.671 110.591 475.136 110.792C475.602 110.981 475.998 111.27 476.325 111.66C476.665 112.05 476.841 112.559 476.853 113.188C476.853 113.754 476.696 114.264 476.382 114.717C476.067 115.17 475.621 115.528 475.042 115.792C474.476 116.044 473.822 116.17 473.079 116.17Z" fill="white" fill-opacity="0.5"/>
<g id="10 Years">
<rect id="Rectangle 1012" x="117.434" y="130.797" width="95.2936" height="35.8531" rx="5.66101" fill="black" fill-opacity="0.25"/>
<path id="years" d="M132.464 147.929L135.134 142.66H138.058L133.812 150.476V155.457H131.116V150.564L126.871 142.66H129.812L132.464 147.929ZM151.52 155.457H144.15V142.66H151.52V144.883H146.863V147.693H151.196V149.916H146.863V153.216H151.52V155.457ZM166.514 155.457L165.586 152.411H160.921L159.993 155.457H157.07L161.586 142.607H164.904L169.438 155.457H166.514ZM164.939 150.135L164.011 147.159C163.953 146.961 163.874 146.707 163.775 146.397C163.681 146.082 163.585 145.764 163.486 145.443C163.392 145.117 163.316 144.834 163.258 144.594C163.2 144.834 163.118 145.131 163.013 145.487C162.914 145.837 162.818 146.17 162.724 146.485C162.631 146.8 162.564 147.025 162.523 147.159L161.604 150.135H164.939ZM179.268 142.66C180.429 142.66 181.386 142.8 182.139 143.08C182.897 143.36 183.46 143.783 183.828 144.349C184.196 144.915 184.38 145.63 184.38 146.494C184.38 147.077 184.269 147.588 184.047 148.026C183.825 148.463 183.533 148.834 183.172 149.137C182.81 149.441 182.419 149.689 181.999 149.881L185.763 155.457H182.751L179.697 150.546H178.252V155.457H175.539V142.66H179.268ZM179.075 144.883H178.252V148.341H179.128C180.026 148.341 180.668 148.192 181.053 147.894C181.444 147.591 181.64 147.147 181.64 146.564C181.64 145.957 181.43 145.525 181.01 145.268C180.595 145.012 179.95 144.883 179.075 144.883ZM199.409 151.903C199.409 152.662 199.225 153.321 198.857 153.881C198.49 154.442 197.953 154.873 197.247 155.177C196.546 155.48 195.695 155.632 194.691 155.632C194.247 155.632 193.813 155.603 193.387 155.545C192.966 155.486 192.561 155.402 192.17 155.291C191.785 155.174 191.417 155.031 191.067 154.862V152.341C191.674 152.609 192.304 152.851 192.958 153.067C193.611 153.283 194.259 153.391 194.901 153.391C195.344 153.391 195.7 153.333 195.969 153.216C196.243 153.1 196.441 152.939 196.564 152.735C196.687 152.531 196.748 152.297 196.748 152.035C196.748 151.714 196.64 151.439 196.424 151.212C196.208 150.984 195.91 150.771 195.531 150.573C195.158 150.374 194.735 150.161 194.262 149.934C193.964 149.794 193.64 149.624 193.29 149.426C192.94 149.222 192.608 148.974 192.292 148.682C191.977 148.39 191.718 148.037 191.513 147.623C191.315 147.203 191.216 146.701 191.216 146.117C191.216 145.353 191.391 144.699 191.741 144.157C192.091 143.614 192.59 143.2 193.238 142.914C193.891 142.622 194.662 142.476 195.549 142.476C196.214 142.476 196.847 142.555 197.448 142.712C198.055 142.864 198.688 143.086 199.347 143.378L198.472 145.487C197.883 145.248 197.355 145.064 196.888 144.936C196.421 144.801 195.945 144.734 195.461 144.734C195.123 144.734 194.834 144.79 194.595 144.901C194.355 145.006 194.174 145.157 194.052 145.356C193.929 145.548 193.868 145.773 193.868 146.03C193.868 146.333 193.956 146.59 194.131 146.8C194.311 147.004 194.58 147.203 194.936 147.395C195.298 147.588 195.747 147.813 196.284 148.069C196.937 148.379 197.495 148.702 197.956 149.041C198.423 149.374 198.781 149.767 199.032 150.223C199.283 150.672 199.409 151.232 199.409 151.903Z" fill="#A8FE3B"/>
<path id="10" d="M150.246 119.066H133.066V88.0898C133.066 87.5185 133.066 86.476 133.066 84.9621C133.066 83.4197 133.08 81.7202 133.108 79.8636C133.166 78.007 133.237 76.3361 133.323 74.8508C132.58 75.7363 131.88 76.4932 131.223 77.1216C130.595 77.75 129.981 78.3355 129.381 78.8782L122.269 84.7479L113.486 73.9511L134.994 56.4277H150.246V119.066ZM209.629 87.8327C209.629 92.8598 209.229 97.3585 208.429 101.329C207.629 105.27 206.344 108.627 204.573 111.397C202.831 114.168 200.517 116.282 197.632 117.738C194.747 119.195 191.206 119.923 187.007 119.923C181.78 119.923 177.495 118.652 174.154 116.11C170.812 113.539 168.341 109.869 166.741 105.099C165.17 100.3 164.385 94.545 164.385 87.8327C164.385 81.0633 165.099 75.2793 166.527 70.4807C167.984 65.6535 170.369 61.9546 173.682 59.3839C176.996 56.8133 181.437 55.5279 187.007 55.5279C192.234 55.5279 196.504 56.8133 199.817 59.3839C203.159 61.9261 205.63 65.6107 207.23 70.4378C208.829 75.2364 209.629 81.0347 209.629 87.8327ZM181.223 87.8327C181.223 91.9172 181.366 95.3448 181.651 98.1154C181.966 100.886 182.537 102.971 183.365 104.371C184.222 105.742 185.436 106.427 187.007 106.427C188.578 106.427 189.778 105.742 190.606 104.371C191.434 102.971 192.005 100.9 192.32 98.1583C192.634 95.3877 192.791 91.9458 192.791 87.8327C192.791 83.6911 192.634 80.235 192.32 77.4643C192.005 74.6937 191.434 72.6086 190.606 71.209C189.778 69.7809 188.578 69.0668 187.007 69.0668C185.436 69.0668 184.222 69.7809 183.365 71.209C182.537 72.6086 181.966 74.6937 181.651 77.4643C181.366 80.235 181.223 83.6911 181.223 87.8327Z" fill="#A8FE3B"/>
</g>
<path id="5 Star Awards" d="M277.353 71.4829C278.794 71.4829 280.073 71.757 281.191 72.3052C282.32 72.8534 283.207 73.6597 283.852 74.7239C284.497 75.7881 284.819 77.0995 284.819 78.6582C284.819 80.3566 284.464 81.8239 283.755 83.0601C283.056 84.2856 282.008 85.2262 280.611 85.8819C279.224 86.5376 277.493 86.8655 275.419 86.8655C274.182 86.8655 273.016 86.758 271.92 86.543C270.834 86.3387 269.883 86.0216 269.066 85.5916V81.2864C269.883 81.7164 270.861 82.0819 272 82.3829C273.15 82.6731 274.231 82.8183 275.241 82.8183C276.23 82.8183 277.063 82.6893 277.74 82.4313C278.418 82.1625 278.928 81.7541 279.272 81.2058C279.627 80.6469 279.804 79.9374 279.804 79.0774C279.804 77.9272 279.417 77.0458 278.643 76.433C277.869 75.8203 276.682 75.514 275.08 75.514C274.467 75.514 273.828 75.5731 273.161 75.6913C272.505 75.8096 271.957 75.9278 271.516 76.0461L269.533 74.9819L270.42 62.9693H283.207V67.1938H274.79L274.354 71.8215C274.72 71.7462 275.118 71.671 275.548 71.5957C275.978 71.5205 276.579 71.4829 277.353 71.4829ZM311.811 79.9965C311.811 81.3939 311.472 82.6086 310.795 83.6406C310.118 84.6726 309.129 85.468 307.828 86.027C306.538 86.586 304.969 86.8655 303.12 86.8655C302.303 86.8655 301.502 86.8117 300.718 86.7042C299.944 86.5967 299.196 86.4408 298.476 86.2366C297.767 86.0216 297.09 85.7583 296.445 85.4465V80.8027C297.563 81.2972 298.724 81.7433 299.927 82.141C301.131 82.5388 302.325 82.7376 303.507 82.7376C304.324 82.7376 304.98 82.6301 305.474 82.4151C305.979 82.2002 306.345 81.9045 306.571 81.5283C306.796 81.1521 306.909 80.7221 306.909 80.2384C306.909 79.6471 306.71 79.1419 306.313 78.7227C305.915 78.3035 305.367 77.9111 304.668 77.5456C303.98 77.1801 303.201 76.7878 302.33 76.3685C301.782 76.1106 301.185 75.7988 300.54 75.4333C299.895 75.0571 299.282 74.6002 298.702 74.0628C298.122 73.5253 297.643 72.8749 297.267 72.1117C296.901 71.3378 296.719 70.4133 296.719 69.3383C296.719 67.9302 297.041 66.7262 297.686 65.7265C298.331 64.7268 299.25 63.9636 300.443 63.4369C301.647 62.8994 303.066 62.6306 304.7 62.6306C305.926 62.6306 307.092 62.7758 308.199 63.066C309.317 63.3455 310.483 63.754 311.698 64.2914L310.086 68.1774C309 67.7367 308.027 67.3981 307.167 67.1616C306.307 66.9143 305.431 66.7907 304.539 66.7907C303.916 66.7907 303.383 66.8928 302.943 67.0971C302.502 67.2906 302.169 67.5701 301.943 67.9355C301.717 68.2903 301.604 68.7041 301.604 69.1771C301.604 69.7361 301.766 70.2091 302.088 70.596C302.421 70.9723 302.916 71.3378 303.572 71.6925C304.238 72.0472 305.066 72.4611 306.055 72.9341C307.259 73.5038 308.285 74.1004 309.134 74.7239C309.994 75.3366 310.655 76.0622 311.118 76.9006C311.58 77.7284 311.811 78.7603 311.811 79.9965ZM323.292 82.9473C323.829 82.9473 324.35 82.8935 324.856 82.786C325.372 82.6785 325.882 82.5441 326.387 82.3829V86.0431C325.861 86.2796 325.205 86.4731 324.42 86.6236C323.646 86.7848 322.797 86.8655 321.873 86.8655C320.798 86.8655 319.83 86.6935 318.97 86.3495C318.121 85.9947 317.449 85.3874 316.955 84.5274C316.471 83.6567 316.229 82.4474 316.229 80.8995V72.2085H313.875V70.1284L316.584 68.4838L318.003 64.6784H321.147V68.516H326.194V72.2085H321.147V80.8995C321.147 81.5874 321.341 82.1034 321.727 82.4474C322.125 82.7806 322.647 82.9473 323.292 82.9473ZM337.433 68.1452C339.851 68.1452 341.705 68.6719 342.995 69.7253C344.285 70.7788 344.93 72.3805 344.93 74.5304V86.543H341.496L340.545 84.0921H340.416C339.9 84.737 339.373 85.2638 338.835 85.6723C338.298 86.0807 337.68 86.3817 336.981 86.5752C336.282 86.7687 335.433 86.8655 334.433 86.8655C333.369 86.8655 332.413 86.6612 331.563 86.2527C330.725 85.8442 330.064 85.2208 329.58 84.3823C329.096 83.5331 328.854 82.4581 328.854 81.1575C328.854 79.244 329.526 77.8359 330.87 76.9329C332.214 76.0192 334.229 75.514 336.917 75.4172L340.045 75.3205V74.5304C340.045 73.5844 339.797 72.8911 339.303 72.4503C338.808 72.0096 338.121 71.7892 337.239 71.7892C336.368 71.7892 335.514 71.9129 334.675 72.1601C333.837 72.4073 332.998 72.7191 332.16 73.0953L330.531 69.7737C331.488 69.2685 332.558 68.8707 333.74 68.5805C334.933 68.2903 336.164 68.1452 337.433 68.1452ZM340.045 78.1906L338.142 78.2551C336.551 78.2981 335.444 78.5829 334.82 79.1097C334.208 79.6364 333.901 80.3297 333.901 81.1897C333.901 81.9422 334.122 82.4796 334.562 82.8021C335.003 83.1139 335.578 83.2697 336.288 83.2697C337.341 83.2697 338.228 82.958 338.948 82.3345C339.679 81.7111 340.045 80.8242 340.045 79.674V78.1906ZM360.071 68.1774C360.318 68.1774 360.603 68.1935 360.926 68.2258C361.259 68.2473 361.528 68.2795 361.732 68.3225L361.361 72.9341C361.2 72.8803 360.969 72.8427 360.668 72.8212C360.377 72.7889 360.125 72.7728 359.91 72.7728C359.276 72.7728 358.658 72.8534 358.056 73.0147C357.464 73.1759 356.932 73.4393 356.459 73.8048C355.986 74.1595 355.61 74.6325 355.331 75.2237C355.062 75.8042 354.927 76.519 354.927 77.3682V86.543H350.01V68.516H353.734L354.46 71.5474H354.702C355.056 70.9347 355.497 70.3757 356.024 69.8704C356.561 69.3545 357.169 68.946 357.846 68.645C358.534 68.3333 359.276 68.1774 360.071 68.1774ZM388.401 86.543L386.692 80.9317H378.098L376.389 86.543H371.003L379.323 62.8725H385.435L393.787 86.543H388.401ZM385.499 76.7394L383.79 71.2571C383.682 70.8917 383.537 70.4241 383.355 69.8543C383.183 69.2739 383.005 68.688 382.822 68.0968C382.65 67.4948 382.511 66.9735 382.403 66.5327C382.296 66.9735 382.145 67.5217 381.952 68.1774C381.769 68.8224 381.592 69.4351 381.42 70.0156C381.248 70.596 381.124 71.0099 381.049 71.2571L379.356 76.7394H385.499ZM411.201 86.543L409.815 80.2384C409.739 79.8621 409.616 79.3085 409.444 78.5776C409.272 77.8359 409.084 77.0458 408.879 76.2073C408.686 75.3581 408.503 74.5734 408.331 73.8531C408.17 73.1329 408.052 72.6062 407.976 72.273H407.831C407.756 72.6062 407.638 73.1329 407.476 73.8531C407.315 74.5734 407.133 75.3581 406.928 76.2073C406.735 77.0565 406.552 77.8573 406.38 78.6098C406.208 79.3515 406.079 79.9159 405.993 80.3029L404.542 86.543H399.253L394.126 68.516H399.027L401.107 76.4975C401.247 77.0565 401.382 77.723 401.51 78.4969C401.639 79.2602 401.752 80.0019 401.849 80.7221C401.957 81.4316 402.037 81.9959 402.091 82.4151H402.22C402.241 82.1034 402.284 81.6896 402.349 81.1736C402.424 80.6576 402.505 80.1255 402.591 79.5773C402.688 79.0183 402.774 78.5184 402.849 78.0777C402.935 77.6262 402.999 77.3199 403.042 77.1586L405.267 68.516H410.685L412.798 77.1586C412.873 77.4704 412.969 77.9648 413.088 78.6421C413.217 79.3193 413.33 80.018 413.426 80.7382C413.523 81.4477 413.577 82.0067 413.588 82.4151H413.717C413.76 82.0497 413.835 81.5068 413.942 80.7866C414.05 80.0664 414.173 79.3139 414.313 78.5292C414.464 77.7337 414.614 77.0565 414.765 76.4975L416.925 68.516H421.746L416.554 86.543H411.201ZM432.05 68.1452C434.469 68.1452 436.323 68.6719 437.613 69.7253C438.903 70.7788 439.548 72.3805 439.548 74.5304V86.543H436.113L435.162 84.0921H435.033C434.517 84.737 433.99 85.2638 433.453 85.6723C432.915 86.0807 432.297 86.3817 431.598 86.5752C430.9 86.7687 430.05 86.8655 429.051 86.8655C427.987 86.8655 427.03 86.6612 426.181 86.2527C425.342 85.8442 424.681 85.2208 424.197 84.3823C423.714 83.5331 423.472 82.4581 423.472 81.1575C423.472 79.244 424.144 77.8359 425.487 76.9329C426.831 76.0192 428.847 75.514 431.534 75.4172L434.662 75.3205V74.5304C434.662 73.5844 434.415 72.8911 433.92 72.4503C433.426 72.0096 432.738 71.7892 431.856 71.7892C430.986 71.7892 430.131 71.9129 429.293 72.1601C428.454 72.4073 427.616 72.7191 426.777 73.0953L425.149 69.7737C426.105 69.2685 427.175 68.8707 428.357 68.5805C429.551 68.2903 430.781 68.1452 432.05 68.1452ZM434.662 78.1906L432.759 78.2551C431.168 78.2981 430.061 78.5829 429.438 79.1097C428.825 79.6364 428.519 80.3297 428.519 81.1897C428.519 81.9422 428.739 82.4796 429.18 82.8021C429.621 83.1139 430.196 83.2697 430.905 83.2697C431.959 83.2697 432.845 82.958 433.566 82.3345C434.297 81.7111 434.662 80.8242 434.662 79.674V78.1906ZM454.688 68.1774C454.936 68.1774 455.221 68.1935 455.543 68.2258C455.876 68.2473 456.145 68.2795 456.349 68.3225L455.978 72.9341C455.817 72.8803 455.586 72.8427 455.285 72.8212C454.995 72.7889 454.742 72.7728 454.527 72.7728C453.893 72.7728 453.275 72.8534 452.673 73.0147C452.082 73.1759 451.55 73.4393 451.077 73.8048C450.604 74.1595 450.227 74.6325 449.948 75.2237C449.679 75.8042 449.545 76.519 449.545 77.3682V86.543H444.627V68.516H448.352L449.077 71.5474H449.319C449.674 70.9347 450.114 70.3757 450.641 69.8704C451.179 69.3545 451.786 68.946 452.463 68.645C453.151 68.3333 453.893 68.1774 454.688 68.1774ZM465.33 86.8655C463.32 86.8655 461.681 86.0807 460.413 84.5113C459.155 82.9311 458.526 80.6146 458.526 77.5617C458.526 74.4766 459.166 72.144 460.445 70.5638C461.724 68.9729 463.396 68.1774 465.459 68.1774C466.319 68.1774 467.077 68.2956 467.733 68.5321C468.389 68.7686 468.953 69.0857 469.426 69.4835C469.91 69.8812 470.318 70.3273 470.651 70.8218H470.813C470.748 70.4778 470.668 69.9726 470.571 69.3061C470.485 68.6289 470.442 67.9355 470.442 67.2261V61.4536H475.376V86.543H471.603L470.651 84.2049H470.442C470.13 84.6994 469.738 85.1509 469.265 85.5594C468.803 85.9571 468.249 86.2742 467.604 86.5107C466.959 86.7472 466.201 86.8655 465.33 86.8655ZM467.056 82.9473C468.399 82.9473 469.345 82.5495 469.894 81.7541C470.453 80.9478 470.748 79.7385 470.78 78.1261V77.594C470.78 75.8418 470.512 74.5035 469.974 73.579C469.437 72.6438 468.437 72.1762 466.975 72.1762C465.889 72.1762 465.04 72.6438 464.427 73.579C463.815 74.5142 463.508 75.8633 463.508 77.6262C463.508 79.3892 463.815 80.7167 464.427 81.6089C465.051 82.5011 465.927 82.9473 467.056 82.9473ZM493.096 81.1897C493.096 82.4151 492.806 83.4525 492.226 84.3017C491.656 85.1402 490.801 85.7798 489.662 86.2205C488.523 86.6505 487.104 86.8655 485.405 86.8655C484.148 86.8655 483.067 86.7848 482.164 86.6236C481.272 86.4623 480.369 86.1936 479.455 85.8174V81.7541C480.434 82.1948 481.482 82.5603 482.6 82.8505C483.728 83.13 484.717 83.2697 485.566 83.2697C486.523 83.2697 487.206 83.13 487.614 82.8505C488.033 82.5603 488.243 82.184 488.243 81.7218C488.243 81.4208 488.157 81.1521 487.985 80.9156C487.824 80.6684 487.469 80.3942 486.921 80.0933C486.373 79.7815 485.513 79.3784 484.341 78.8839C483.212 78.411 482.282 77.9326 481.551 77.4489C480.831 76.9651 480.294 76.3954 479.939 75.7397C479.595 75.0732 479.423 74.2294 479.423 73.2082C479.423 71.542 480.068 70.2897 481.358 69.4512C482.659 68.602 484.395 68.1774 486.566 68.1774C487.684 68.1774 488.748 68.2903 489.759 68.516C490.78 68.7417 491.828 69.1019 492.903 69.5963L491.42 73.1437C490.527 72.7567 489.684 72.4396 488.888 72.1923C488.103 71.9451 487.302 71.8215 486.486 71.8215C485.765 71.8215 485.222 71.9182 484.857 72.1117C484.491 72.3052 484.309 72.6008 484.309 72.9986C484.309 73.2888 484.4 73.5468 484.583 73.7725C484.776 73.9983 485.142 74.2509 485.679 74.5304C486.228 74.7991 487.028 75.1485 488.082 75.5784C489.103 75.9977 489.99 76.4384 490.742 76.9006C491.495 77.3521 492.075 77.9165 492.484 78.5937C492.892 79.2602 493.096 80.1255 493.096 81.1897Z" fill="white"/>
<g id="Star">
<path id="Star 1" d="M284.096 135.569C284.584 134.067 286.71 134.067 287.198 135.569L289.366 142.242C289.584 142.914 290.21 143.369 290.916 143.369H297.932C299.512 143.369 300.168 145.39 298.891 146.318L293.215 150.442C292.643 150.857 292.404 151.593 292.622 152.265L294.79 158.937C295.278 160.439 293.559 161.689 292.281 160.76L286.605 156.636C286.034 156.221 285.26 156.221 284.689 156.636L279.013 160.76C277.735 161.689 276.016 160.439 276.504 158.937L278.672 152.265C278.89 151.593 278.651 150.857 278.079 150.442L272.403 146.318C271.126 145.39 271.782 143.369 273.362 143.369H280.378C281.084 143.369 281.71 142.914 281.928 142.242L284.096 135.569Z" fill="#FFB545"/>
<path id="Star 3" d="M358.756 135.569C359.245 134.067 361.37 134.067 361.858 135.569L364.026 142.242C364.244 142.914 364.87 143.369 365.577 143.369H372.592C374.172 143.369 374.829 145.39 373.551 146.318L367.875 150.442C367.303 150.857 367.064 151.593 367.283 152.265L369.451 158.937C369.939 160.439 368.219 161.689 366.941 160.76L361.266 156.636C360.694 156.221 359.92 156.221 359.349 156.636L353.673 160.76C352.395 161.689 350.676 160.439 351.164 158.937L353.332 152.265C353.55 151.593 353.311 150.857 352.739 150.442L347.064 146.318C345.786 145.39 346.442 143.369 348.022 143.369H355.038C355.744 143.369 356.37 142.914 356.588 142.242L358.756 135.569Z" fill="#FFB545"/>
<path id="Star 5" d="M396.088 135.569C396.577 134.067 398.702 134.067 399.19 135.569L401.358 142.242C401.576 142.914 402.202 143.369 402.909 143.369H409.924C411.504 143.369 412.161 145.39 410.883 146.318L405.207 150.442C404.635 150.857 404.396 151.593 404.615 152.265L406.783 158.937C407.271 160.439 405.551 161.689 404.273 160.76L398.598 156.636C398.026 156.221 397.252 156.221 396.681 156.636L391.005 160.76C389.727 161.689 388.008 160.439 388.496 158.937L390.664 152.265C390.882 151.593 390.643 150.857 390.071 150.442L384.396 146.318C383.118 145.39 383.774 143.369 385.354 143.369H392.37C393.076 143.369 393.702 142.914 393.92 142.242L396.088 135.569Z" fill="#FFB545"/>
<path id="Star 2" d="M321.428 135.569C321.916 134.067 324.042 134.067 324.53 135.569L326.698 142.242C326.916 142.914 327.542 143.369 328.248 143.369H335.264C336.844 143.369 337.5 145.39 336.223 146.318L330.547 150.442C329.975 150.857 329.736 151.593 329.954 152.265L332.122 158.937C332.61 160.439 330.891 161.689 329.613 160.76L323.937 156.636C323.366 156.221 322.592 156.221 322.021 156.636L316.345 160.76C315.067 161.689 313.348 160.439 313.836 158.937L316.004 152.265C316.222 151.593 315.983 150.857 315.411 150.442L309.735 146.318C308.458 145.39 309.114 143.369 310.694 143.369H317.71C318.416 143.369 319.042 142.914 319.26 142.242L321.428 135.569Z" fill="#FFB545"/>
<path id="Star 4" d="M433.42 135.569C433.909 134.067 436.034 134.067 436.522 135.569L438.69 142.242C438.908 142.914 439.534 143.369 440.241 143.369H447.256C448.836 143.369 449.493 145.39 448.215 146.318L442.539 150.442C441.967 150.857 441.728 151.593 441.947 152.265L444.115 158.937C444.603 160.439 442.883 161.689 441.605 160.76L435.93 156.636C435.358 156.221 434.584 156.221 434.013 156.636L428.337 160.76C427.059 161.689 425.34 160.439 425.828 158.937L427.996 152.265C428.214 151.593 427.975 150.857 427.404 150.442L421.728 146.318C420.45 145.39 421.107 143.369 422.686 143.369H429.702C430.408 143.369 431.034 142.914 431.252 142.242L433.42 135.569Z" fill="#FFB545"/>
</g>
<g id="Flower">
<g id="Group">
<path id="Vector" d="M535.489 161.828C535.766 161.828 536.07 161.845 536.387 161.897C536.466 161.915 536.545 161.932 536.624 161.949C536.703 161.967 536.782 161.984 536.875 162.001C537.033 162.036 537.204 162.088 537.376 162.157C538.075 162.4 538.827 162.798 539.592 163.266C540.331 163.699 541.083 164.184 541.756 164.634C542.429 165.084 543.022 165.517 543.444 165.812C543.867 166.106 544.117 166.297 544.117 166.297C544.117 166.297 544.051 166.331 543.919 166.401C543.787 166.453 543.603 166.557 543.378 166.643C542.903 166.816 542.244 167.042 541.492 167.249C541.307 167.301 541.109 167.353 540.911 167.388C540.714 167.423 540.503 167.457 540.305 167.492C539.896 167.544 539.474 167.596 539.051 167.613C538.22 167.665 537.363 167.527 536.637 167.267C535.186 166.747 534.197 165.569 533.59 164.599C532.97 163.612 532.719 162.798 532.719 162.798C532.719 162.798 533.22 162.382 534.038 162.123C534.434 161.967 534.922 161.828 535.489 161.828Z" fill="#FFEF64"/>
<path id="Vector_2" d="M533.259 154.256C533.602 153.546 534.051 152.922 534.513 152.316C534.737 152.022 534.988 151.745 535.225 151.485C535.344 151.346 535.462 151.225 535.581 151.121C535.7 151 535.805 150.879 535.924 150.757C536.373 150.307 536.782 149.943 537.072 149.701C537.362 149.441 537.547 149.285 537.547 149.285C537.547 149.285 537.547 149.632 537.534 150.186C537.52 150.757 537.481 151.519 537.389 152.403C537.296 153.269 537.151 154.256 536.94 155.209C536.716 156.127 536.426 157.027 536.069 157.772C535.99 157.963 535.885 158.136 535.792 158.309C535.753 158.396 535.7 158.465 535.647 158.552C535.594 158.621 535.555 158.69 535.502 158.759C535.291 159.037 535.08 159.262 534.856 159.47C534.645 159.677 534.42 159.833 534.209 159.972C533.998 160.11 533.787 160.232 533.589 160.301C532.798 160.595 532.23 160.543 532.23 160.543C532.23 160.543 532.138 159.66 532.23 158.448C532.283 157.841 532.362 157.149 532.534 156.438C532.573 156.265 532.626 156.075 532.679 155.902C532.732 155.711 532.784 155.538 532.837 155.347C532.956 154.966 533.088 154.603 533.259 154.256Z" fill="#FFEF64"/>
<path id="Vector_3" d="M544.486 156.352C544.538 156.283 544.604 156.213 544.697 156.109C544.881 155.902 545.158 155.607 545.528 155.347C545.712 155.209 545.91 155.07 546.148 154.949C546.372 154.828 546.636 154.724 546.886 154.602C547.414 154.395 548.047 154.273 548.773 154.291C549.142 154.308 549.512 154.325 549.908 154.377C550.303 154.429 550.712 154.499 551.121 154.585C551.53 154.672 551.952 154.776 552.348 154.88C552.744 154.984 553.14 155.087 553.509 155.191C554.248 155.399 554.907 155.59 555.369 155.746C555.844 155.901 556.121 155.988 556.121 155.988C556.121 155.988 555.884 156.213 555.461 156.542C555.264 156.716 555.013 156.906 554.723 157.114C554.591 157.218 554.432 157.339 554.274 157.443C554.116 157.547 553.944 157.651 553.773 157.772C553.43 157.98 553.06 158.205 552.678 158.396C552.48 158.5 552.295 158.586 552.097 158.69C552.005 158.742 551.9 158.794 551.807 158.829C551.702 158.863 551.609 158.898 551.504 158.95C550.686 159.244 549.868 159.435 549.116 159.435C547.586 159.383 546.412 158.621 545.607 157.893C545.211 157.53 544.894 157.166 544.697 156.889C544.486 156.612 544.38 156.438 544.38 156.438C544.38 156.438 544.446 156.404 544.486 156.352Z" fill="#FFEF64"/>
<path id="Vector_4" d="M546.597 150.5C546.412 151.314 546.109 151.989 545.779 152.543C545.621 152.82 545.436 153.046 545.265 153.236C545.08 153.427 544.908 153.6 544.737 153.738C544.394 154.016 544.077 154.206 543.853 154.31C543.747 154.362 543.642 154.397 543.576 154.414C543.51 154.431 543.47 154.449 543.47 154.449C543.47 154.449 543.404 154.241 543.312 153.894C543.22 153.548 543.114 153.046 543.035 152.422C542.864 151.21 542.784 149.599 543.141 148.04C543.312 147.243 543.602 146.464 543.932 145.754C544.249 145.026 544.618 144.333 544.961 143.762C545.133 143.485 545.291 143.19 545.436 142.965C545.581 142.723 545.713 142.515 545.832 142.342C546.056 141.995 546.214 141.805 546.214 141.805C546.214 141.805 546.294 142.134 546.386 142.671C546.491 143.208 546.61 143.987 546.703 144.853C546.755 145.303 546.795 145.771 546.821 146.256C546.848 146.724 546.848 147.209 546.848 147.711C546.848 148.196 546.821 148.681 546.782 149.166C546.769 149.634 546.703 150.101 546.597 150.5Z" fill="#FFEF64"/>
<path id="Vector_5" d="M554.975 145.39C555.107 145.13 555.305 144.749 555.608 144.368C555.898 143.97 556.281 143.571 556.756 143.19C557.217 142.809 557.785 142.463 558.497 142.22C558.735 142.134 558.985 142.065 559.236 142.013C559.486 141.943 559.75 141.891 560.014 141.839C561.333 141.58 562.837 141.476 563.972 141.389C565.12 141.302 565.938 141.285 565.938 141.285C565.938 141.285 565.66 141.753 565.186 142.428C564.724 143.121 564.011 143.97 563.22 144.784C563.101 144.905 562.969 145.026 562.851 145.148C562.785 145.217 562.719 145.269 562.653 145.338C562.587 145.39 562.521 145.442 562.455 145.511C562.191 145.737 561.914 145.944 561.637 146.152C561.36 146.343 561.083 146.533 560.806 146.672C560.529 146.828 560.252 146.966 559.975 147.053C558.497 147.538 557.204 147.243 556.281 146.81C555.344 146.377 554.777 145.84 554.777 145.84C554.777 145.84 554.843 145.667 554.975 145.39Z" fill="#FFEF64"/>
<path id="Vector_6" d="M554.489 143.14C554.225 143.538 553.961 143.833 553.763 144.006C553.565 144.179 553.433 144.266 553.433 144.266C553.433 144.266 552.985 143.573 552.562 142.482C552.127 141.373 551.692 139.849 551.705 138.221C551.705 137.615 551.745 136.991 551.837 136.402C551.876 136.108 551.942 135.813 552.008 135.519C552.074 135.242 552.127 134.93 552.193 134.653C552.312 134.168 552.431 133.7 552.562 133.284C552.602 133.181 552.628 133.077 552.655 132.973C552.694 132.869 552.708 132.782 552.747 132.678C552.8 132.488 552.853 132.315 552.905 132.159C553.117 131.518 553.275 131.137 553.275 131.137C553.275 131.137 553.684 131.933 554.159 133.163C554.277 133.475 554.396 133.804 554.528 134.15C554.594 134.324 554.647 134.514 554.713 134.687C554.779 134.861 554.818 135.051 554.884 135.242C555.095 135.986 555.28 136.801 555.412 137.597C555.465 137.909 555.504 138.203 555.531 138.498C555.557 138.792 555.57 139.087 555.57 139.364C555.57 140.23 555.438 140.975 555.241 141.616C555.029 142.239 554.752 142.741 554.489 143.14Z" fill="#FFEF64"/>
<path id="Vector_7" d="M564.843 132.399C564.553 132.416 564.289 132.416 564.039 132.382C563.049 132.295 562.39 131.983 562.39 131.983C562.39 131.983 562.403 131.81 562.482 131.499C562.522 131.343 562.574 131.169 562.64 130.962C562.693 130.754 562.772 130.529 562.865 130.286C563.062 129.801 563.326 129.281 563.709 128.745C563.801 128.623 563.894 128.502 563.999 128.346C564.105 128.208 564.21 128.086 564.329 127.948C564.566 127.688 564.843 127.428 565.147 127.186C565.463 126.961 565.806 126.735 566.176 126.51C566.519 126.285 566.901 126.077 567.271 125.869C568.023 125.454 568.827 125.09 569.553 124.761C570.265 124.432 570.885 124.155 571.347 123.964C571.809 123.774 572.086 123.652 572.086 123.652C572.086 123.652 571.98 123.999 571.783 124.57C571.677 124.847 571.558 125.194 571.413 125.558C571.255 125.921 571.083 126.32 570.885 126.735C570.688 127.151 570.463 127.584 570.239 128.017C570.186 128.121 570.12 128.225 570.054 128.329C569.988 128.433 569.936 128.537 569.856 128.641C569.725 128.848 569.593 129.056 569.447 129.247C569.17 129.645 568.88 130.026 568.577 130.373C568.432 130.546 568.273 130.719 568.115 130.858C567.957 130.996 567.798 131.135 567.627 131.273C566.981 131.776 566.321 132.053 565.714 132.209C565.411 132.33 565.12 132.382 564.843 132.399Z" fill="#FFEF64"/>
<path id="Vector_8" d="M561.888 127.777C561.822 128.452 561.677 129.024 561.518 129.509C561.439 129.751 561.347 129.959 561.268 130.132C561.188 130.323 561.083 130.461 561.017 130.583C560.872 130.825 560.753 130.946 560.753 130.946C560.753 130.946 560.173 130.444 559.526 129.543C559.368 129.318 559.196 129.076 559.038 128.799C558.867 128.521 558.695 128.227 558.537 127.898C558.22 127.257 557.943 126.547 557.758 125.767C557.706 125.577 557.679 125.369 557.64 125.161C557.6 124.953 557.574 124.746 557.547 124.538C557.495 124.122 557.468 123.706 557.455 123.291C557.442 122.459 557.429 121.645 557.481 120.918C557.508 120.554 557.534 120.225 557.561 119.913C557.574 119.601 557.6 119.342 557.627 119.116C557.666 118.666 557.706 118.406 557.706 118.406C557.706 118.406 557.904 118.631 558.22 119.03C558.537 119.428 558.972 119.982 559.434 120.658C559.882 121.333 560.344 122.113 560.753 122.944C560.964 123.36 561.149 123.793 561.32 124.226C561.479 124.642 561.611 125.075 561.703 125.49C561.795 125.906 561.848 126.304 561.888 126.685C561.901 126.876 561.914 127.066 561.914 127.24C561.914 127.326 561.914 127.413 561.914 127.499C561.901 127.603 561.901 127.69 561.888 127.777Z" fill="#FFEF64"/>
<path id="Vector_9" d="M570.607 115.218C570.33 115.478 570.04 115.686 569.763 115.876C569.196 116.24 568.655 116.448 568.167 116.586C567.203 116.846 566.504 116.777 566.504 116.777C566.504 116.777 566.425 116.032 566.61 114.975C566.649 114.716 566.729 114.439 566.795 114.127C566.86 113.832 566.953 113.521 567.085 113.191C567.203 112.88 567.349 112.533 567.533 112.204C567.626 112.031 567.718 111.875 567.824 111.702C567.876 111.615 567.929 111.529 567.995 111.442C568.048 111.355 568.101 111.269 568.167 111.182C569.116 109.831 570.647 108.463 571.86 107.337C572.48 106.783 573.034 106.298 573.43 105.952C573.839 105.64 574.09 105.449 574.09 105.449C574.09 105.449 574.05 105.83 573.971 106.436C573.892 107.043 573.773 107.891 573.575 108.827C573.364 109.762 573.074 110.784 572.731 111.754C572.652 111.996 572.546 112.239 572.441 112.464C572.335 112.689 572.23 112.914 572.124 113.139C571.9 113.573 571.662 113.971 571.412 114.317C571.148 114.664 570.897 114.975 570.607 115.218Z" fill="#FFEF64"/>
<path id="Vector_10" d="M564.708 116.327C564.708 116.327 564.036 116.033 563.218 115.392C562.796 115.063 562.347 114.647 561.912 114.145C561.701 113.885 561.49 113.625 561.292 113.314C561.081 113.019 560.883 112.69 560.711 112.344C560.54 111.997 560.381 111.616 560.249 111.235C560.118 110.854 560.025 110.456 559.906 110.057C559.682 109.261 559.537 108.464 559.432 107.754C559.3 107.044 559.22 106.42 559.168 105.97C559.128 105.519 559.115 105.242 559.115 105.242C559.115 105.242 559.352 105.398 559.735 105.658C560.118 105.935 560.645 106.333 561.239 106.818C561.819 107.321 562.466 107.927 563.02 108.585C563.587 109.243 564.102 109.971 564.471 110.715C564.669 111.079 564.788 111.443 564.893 111.807C564.999 112.17 565.065 112.517 565.117 112.846C565.17 113.175 565.183 113.504 565.197 113.798C565.21 114.093 565.17 114.387 565.144 114.63C564.999 115.686 564.708 116.327 564.708 116.327Z" fill="#FFEF64"/>
<path id="Vector_11" d="M572.138 92.4947C572.099 92.8931 572.033 93.2915 571.967 93.6898C571.822 94.4693 571.663 95.214 571.386 95.8549C571.03 96.7209 570.608 97.3964 570.146 97.9333C569.684 98.4703 569.223 98.8686 568.774 99.1631C567.89 99.752 567.204 99.9252 567.204 99.9252C567.204 99.9252 567.152 99.752 567.086 99.4402C567.033 99.1284 566.94 98.6954 566.901 98.1585C566.861 97.6216 566.875 96.998 566.98 96.2879C567.072 95.5951 567.244 94.8157 567.574 94.0016C567.679 93.7245 567.811 93.4473 567.943 93.1702C568.009 93.0317 568.075 92.8931 568.154 92.7372C568.22 92.5986 568.299 92.4428 568.365 92.3042C568.735 91.5941 569.144 90.8666 569.566 90.1911C569.975 89.4983 570.397 88.8401 570.753 88.2859C571.465 87.16 572.006 86.3633 572.006 86.3633C572.006 86.3633 572.085 86.9349 572.178 87.8355C572.231 88.2859 572.244 88.8228 572.257 89.4117C572.27 90.0006 572.27 90.6241 572.244 91.2823C572.217 91.6807 572.178 92.0964 572.138 92.4947Z" fill="#FFEF64"/>
<path id="Vector_12" d="M560.674 97.7219C560.582 97.618 560.503 97.5141 560.423 97.4102C560.344 97.3063 560.252 97.185 560.173 97.0811C560.001 96.8559 559.843 96.6134 559.698 96.371C559.553 96.1285 559.421 95.8687 559.289 95.6262C559.157 95.349 559.025 95.1066 558.906 94.8641C558.695 94.4311 558.511 93.998 558.352 93.5997C558.273 93.3918 558.194 93.2013 558.128 93.0281C558.062 92.8376 557.996 92.6817 557.93 92.5258C557.693 91.9023 557.574 91.5039 557.574 91.5039C557.574 91.5039 558.313 91.6598 559.355 92.0235C559.605 92.1101 559.896 92.214 560.173 92.3353C560.45 92.4565 560.74 92.5951 561.043 92.751C561.637 93.0454 562.231 93.4092 562.785 93.8248C563.22 94.1366 563.59 94.5003 563.919 94.8641C564.421 95.4356 564.79 96.0592 565.027 96.6827C565.252 97.2889 565.37 97.8952 565.423 98.3974C565.476 98.9171 565.489 99.3501 565.45 99.6618C565.423 99.9736 565.384 100.147 565.384 100.147C565.384 100.147 564.684 100.095 563.761 99.7658C562.824 99.4194 561.624 98.8131 560.674 97.7219Z" fill="#FFEF64"/>
<path id="Vector_13" d="M566.528 80.5753C566.198 81.2508 565.829 81.8224 565.473 82.2554C564.76 83.1214 564.14 83.5371 564.14 83.5371C564.14 83.5371 564.048 83.3812 563.916 83.1214C563.784 82.8443 563.626 82.4459 563.468 81.9436C563.309 81.4413 563.177 80.8351 563.111 80.125C563.085 79.7786 563.085 79.3975 563.085 78.9991C563.085 78.6008 563.111 78.1851 563.177 77.7347C563.243 77.2844 563.336 76.8168 563.441 76.3318C563.494 76.0893 563.56 75.8468 563.626 75.587C563.692 75.3445 563.745 75.102 563.811 74.8422C564.074 73.855 564.378 72.8677 564.668 71.967C564.813 71.5167 564.958 71.101 565.077 70.72C565.196 70.3389 565.315 70.0098 565.407 69.7327C565.592 69.1611 565.71 68.832 565.71 68.832C565.71 68.832 565.855 69.1611 566.053 69.7327C566.172 70.0098 566.278 70.3562 566.383 70.7546C566.502 71.153 566.621 71.586 566.739 72.0363C566.792 72.2615 566.858 72.504 566.911 72.7465C566.964 72.9889 567.016 73.2314 567.056 73.5086C567.135 74.0282 567.214 74.5478 567.267 75.0847C567.32 75.6216 567.359 76.1413 567.359 76.6436C567.359 77.1632 567.32 77.6655 567.254 78.1331C567.109 79.0857 566.858 79.8825 566.528 80.5753Z" fill="#FFEF64"/>
<path id="Vector_14" d="M556.546 83.1061C556.269 82.881 555.992 82.6212 555.728 82.3613C555.477 82.1015 555.24 81.8244 555.002 81.5473C554.778 81.2702 554.541 81.0104 554.343 80.7505C554.145 80.4907 553.96 80.2309 553.802 80.0058C553.723 79.8845 553.644 79.7806 553.578 79.6767C553.512 79.5728 553.446 79.4862 553.38 79.3996C553.142 79.0531 553.01 78.8453 553.01 78.8453C553.01 78.8453 553.274 78.8107 553.723 78.7587C554.171 78.7241 554.791 78.6721 555.491 78.7067C556.177 78.7414 556.968 78.828 557.733 78.9839C557.931 79.0358 558.116 79.0705 558.314 79.1224C558.498 79.1744 558.683 79.2437 558.855 79.3129C559.211 79.4515 559.554 79.6074 559.857 79.7979C560.161 79.9884 560.438 80.1963 560.688 80.4215C560.939 80.6466 561.137 80.9064 561.322 81.1489C561.678 81.6512 561.928 82.1881 562.1 82.6558C562.271 83.1234 562.337 83.5565 562.377 83.8509C562.416 84.1627 562.43 84.3359 562.43 84.3359C562.43 84.3359 561.744 84.5437 560.781 84.5437C560.293 84.5437 559.738 84.5091 559.158 84.3705C558.564 84.2493 557.958 84.0241 557.364 83.6777C557.1 83.5565 556.823 83.3486 556.546 83.1061Z" fill="#FFEF64"/>
<path id="Vector_15" d="M559.604 65.82C559.432 66.5821 559.195 67.2403 558.944 67.7945C558.456 68.8684 557.942 69.4746 557.942 69.4746C557.942 69.4746 557.44 69.0416 556.939 68.1756C556.807 67.9504 556.688 67.7079 556.57 67.4308C556.451 67.171 556.319 66.8592 556.213 66.5474C556.002 65.8893 555.844 65.1098 555.778 64.1919C555.699 63.2912 555.712 62.2693 555.778 61.2127C555.844 60.1562 555.91 59.117 556.002 58.147C556.095 57.1944 556.187 56.3457 556.253 55.7395C556.332 55.1333 556.372 54.7695 556.372 54.7695C556.372 54.7695 556.425 54.8388 556.517 54.9601C556.596 55.0986 556.728 55.2891 556.886 55.5316C557.19 56.0166 557.612 56.7094 558.034 57.5062C558.443 58.3375 558.852 59.2902 559.182 60.2601C559.498 61.2474 559.723 62.2693 559.802 63.2219C559.815 63.4644 559.828 63.6896 559.828 63.9147C559.828 64.1399 559.815 64.3651 559.802 64.5902C559.749 65.0232 559.683 65.4389 559.604 65.82Z" fill="#FFEF64"/>
<path id="Vector_16" d="M550.515 71.64C550.356 71.5707 550.211 71.5014 550.053 71.4148C549.974 71.3802 549.908 71.3455 549.829 71.2936C549.749 71.2589 549.67 71.207 549.591 71.1723C548.971 70.8432 548.417 70.4449 547.929 70.0811C547.428 69.7347 547.005 69.3883 546.715 69.1285C546.57 68.99 546.451 68.886 546.372 68.8167C546.293 68.7475 546.24 68.7128 546.24 68.7128C546.24 68.7128 546.306 68.6782 546.425 68.6262C546.544 68.5743 546.715 68.4877 546.913 68.4011C547.322 68.2279 547.916 67.9854 548.602 67.7775C548.945 67.6736 549.301 67.5697 549.683 67.4831C549.868 67.4484 550.066 67.3965 550.251 67.3618C550.435 67.3272 550.633 67.3099 550.818 67.2925C551.583 67.2059 552.362 67.2059 553.048 67.3618C553.72 67.5177 554.274 67.8295 554.736 68.1759C554.974 68.3491 555.171 68.5396 555.356 68.7475C555.528 68.9553 555.673 69.1632 555.805 69.371C556.319 70.1851 556.504 70.8779 556.504 70.8779C556.504 70.8779 555.884 71.3109 554.947 71.6573C554.485 71.8305 553.931 71.9864 553.338 72.0557C552.744 72.125 552.137 72.1076 551.478 71.9864C551.148 71.8825 550.818 71.7785 550.515 71.64Z" fill="#FFEF64"/>
<path id="Vector_17" d="M548.719 57.0211C548.6 57.3675 548.508 57.558 548.508 57.558C548.508 57.558 548.468 57.5407 548.402 57.506C548.336 57.4714 548.244 57.4194 548.139 57.3502C547.914 57.2116 547.598 56.9864 547.268 56.6573C546.608 55.9818 545.79 54.9773 545.276 53.2452C545.104 52.6736 544.933 52.0501 544.801 51.3919C544.629 50.5605 544.484 49.6772 544.366 48.8285C544.234 47.9971 544.115 47.1831 544.036 46.4556C543.851 45.0353 543.746 43.9961 543.746 43.9961C543.746 43.9961 544.141 44.3079 544.722 44.8448C545.012 45.1046 545.342 45.4337 545.711 45.7974C546.067 46.1785 546.424 46.6115 546.793 47.0791C547.017 47.3563 547.228 47.6507 547.439 47.9625C547.492 48.0318 547.545 48.1184 547.598 48.1876C547.65 48.2569 547.69 48.3435 547.743 48.4301C547.835 48.586 547.928 48.7592 548.033 48.9151C548.402 49.5733 548.706 50.2488 548.917 50.9243C549.062 51.3573 549.154 51.8249 549.207 52.2406C549.26 52.6563 549.3 53.072 549.3 53.4704C549.313 54.2671 549.22 54.9773 549.102 55.5835C548.983 56.1897 548.838 56.6747 548.719 57.0211Z" fill="#FFEF64"/>
<path id="Vector_18" d="M539.974 61.9564C539.578 61.8524 539.208 61.7312 538.865 61.6099C538.522 61.506 538.206 61.4021 537.942 61.2982C537.428 61.0903 537.098 60.9344 537.098 60.9344C537.098 60.9344 537.691 60.3456 538.602 59.6354C539.05 59.2717 539.591 58.8906 540.172 58.5269C540.739 58.1805 541.346 57.8687 541.966 57.6262C542.427 57.4357 542.889 57.2972 543.338 57.2279C544.683 57.072 545.752 57.5743 546.425 58.1978C546.768 58.4923 547.018 58.804 547.177 59.0119C547.256 59.1158 547.322 59.2197 547.361 59.289C547.401 59.3583 547.414 59.3929 547.414 59.3929C547.414 59.3929 547.295 59.5488 547.071 59.7913C546.847 60.0338 546.517 60.3456 546.095 60.6746C545.686 61.0037 545.185 61.3501 544.644 61.6273C544.367 61.7658 544.076 61.8871 543.773 61.9737C543.47 62.0776 543.166 62.1469 542.836 62.1988C541.886 62.3547 540.897 62.1642 539.974 61.9564Z" fill="#FFEF64"/>
<path id="Vector_19" d="M525.846 163.16C526.109 163.125 526.426 163.073 526.795 163.004C526.98 162.969 527.178 162.952 527.376 162.9C527.574 162.848 527.798 162.796 528.009 162.744C528.458 162.64 528.933 162.536 529.447 162.415C529.948 162.259 530.489 162.103 531.043 161.947C531.32 161.861 531.611 161.791 531.888 161.688C532.165 161.584 532.455 161.48 532.745 161.376C533.312 161.168 533.906 160.977 534.473 160.718C536.782 159.817 538.998 158.553 540.621 157.548C541.017 157.288 541.399 157.046 541.716 156.838C541.887 156.734 542.032 156.63 542.178 156.543C542.323 156.457 542.441 156.353 542.56 156.266C543.022 155.937 543.273 155.747 543.273 155.747C543.273 155.747 543.536 155.556 543.998 155.227C544.447 154.881 545.08 154.344 545.845 153.737C547.336 152.438 549.301 150.637 551.082 148.576C552.877 146.532 554.526 144.28 555.686 142.531C555.845 142.323 555.964 142.098 556.095 141.89C556.227 141.682 556.346 141.492 556.452 141.301C556.676 140.938 556.874 140.626 557.045 140.349C557.217 140.089 557.322 139.864 557.401 139.725C557.481 139.569 557.533 139.5 557.533 139.5C557.533 139.5 557.705 139.188 558.008 138.651C558.153 138.374 558.351 138.062 558.549 137.664C558.747 137.266 558.971 136.833 559.222 136.348C559.341 136.105 559.473 135.863 559.605 135.603C559.737 135.343 559.855 135.066 559.987 134.772C560.251 134.2 560.515 133.594 560.805 132.988C561.056 132.347 561.333 131.689 561.597 131.03C561.663 130.857 561.729 130.701 561.808 130.528C561.874 130.355 561.926 130.182 561.992 130.008C562.111 129.662 562.243 129.316 562.362 128.969C563.338 126.181 564.156 123.288 564.618 121.071C564.684 120.794 564.736 120.534 564.802 120.274C564.855 120.032 564.921 119.789 564.947 119.564C565.027 119.114 565.106 118.715 565.159 118.386C565.277 117.728 565.343 117.364 565.343 117.364C565.343 117.364 565.356 117.278 565.396 117.105C565.422 116.931 565.462 116.672 565.502 116.343C565.554 116.014 565.607 115.615 565.66 115.165C565.726 114.714 565.818 114.195 565.858 113.623C565.91 113.052 565.976 112.445 566.042 111.787C566.056 111.631 566.082 111.458 566.095 111.302C566.108 111.129 566.122 110.973 566.135 110.783C566.148 110.436 566.174 110.09 566.201 109.726C566.319 108.306 566.319 106.764 566.346 105.24C566.306 103.716 566.306 102.192 566.201 100.754C566.188 100.408 566.161 100.044 566.135 99.6976C566.122 99.5244 566.122 99.3512 566.095 99.1953C566.082 99.0221 566.056 98.8663 566.042 98.6931C565.976 98.0522 565.91 97.4287 565.858 96.8571C565.805 96.2855 565.726 95.7832 565.66 95.3156C565.594 94.8652 565.541 94.4669 565.502 94.1378C565.449 93.8087 565.422 93.5489 565.396 93.3757C565.356 93.2025 565.343 93.0985 565.343 93.0985C565.343 93.0985 565.277 92.7348 565.159 92.0766C565.106 91.7476 565.027 91.3492 564.947 90.8989C564.908 90.6737 564.855 90.4312 564.802 90.1887C564.75 89.9289 564.684 89.6691 564.618 89.392C564.156 87.175 563.338 84.2998 562.362 81.4939C562.23 81.1474 562.111 80.801 561.992 80.4546C561.926 80.2814 561.874 80.1082 561.808 79.935C561.742 79.7618 561.676 79.6059 561.597 79.4327C561.32 78.7572 561.056 78.099 560.805 77.4755C560.528 76.852 560.251 76.2458 559.987 75.6915C559.855 75.4144 559.737 75.1199 559.605 74.8601C559.473 74.6003 559.341 74.3578 559.222 74.1153C558.985 73.6304 558.747 73.1974 558.549 72.799C558.351 72.4006 558.153 72.0888 558.008 71.8117C557.705 71.2575 557.533 70.963 557.533 70.963C557.533 70.963 557.481 70.8764 557.401 70.7379C557.322 70.5993 557.204 70.3741 557.045 70.1143C556.887 69.8545 556.676 69.5254 556.452 69.1617C556.333 68.9712 556.214 68.7806 556.095 68.5728C555.964 68.365 555.832 68.1571 555.686 67.9319C554.526 66.1826 552.877 63.9309 551.082 61.8871C549.288 59.826 547.336 58.0246 545.845 56.7256C545.08 56.1194 544.447 55.5825 543.998 55.2361C543.536 54.907 543.273 54.7164 543.273 54.7164C543.273 54.7164 543.009 54.5259 542.56 54.1968C542.441 54.1102 542.323 54.0236 542.178 53.9197C542.032 53.8331 541.887 53.7292 541.716 53.6253C541.61 53.556 541.492 53.4867 541.373 53.4001C541.36 53.4001 541.36 53.4001 541.346 53.4001C541.056 53.4347 540.647 53.452 540.159 53.4174C539.183 53.3654 537.916 53.0883 536.808 52.2916C536.228 51.9105 535.687 51.3736 535.212 50.802C534.988 50.5076 534.737 50.2304 534.513 49.936C534.289 49.6589 534.091 49.3644 533.906 49.0873C533.55 48.533 533.22 48.0481 533.009 47.6843C532.798 47.3206 532.679 47.0954 532.679 47.0954C532.679 47.0954 532.943 47.0781 533.392 47.0781C533.84 47.0781 534.46 47.0954 535.159 47.1647C535.331 47.182 535.515 47.1994 535.7 47.234C535.885 47.2686 536.07 47.3033 536.254 47.3379C536.624 47.4072 537.006 47.5111 537.376 47.6151C538.128 47.8575 538.88 48.152 539.46 48.585C540.054 49.0007 540.515 49.5203 540.858 50.0399C541.188 50.5769 541.399 51.1138 541.558 51.6161C541.703 52.1011 541.769 52.5341 541.795 52.8285C541.808 52.8805 541.808 52.9498 541.808 53.0017C541.848 53.0364 541.901 53.0537 541.94 53.0883C542.098 53.1922 542.257 53.2962 542.402 53.3828C542.547 53.4867 542.666 53.5733 542.784 53.6599C543.246 53.989 543.51 54.1968 543.51 54.1968C543.51 54.1968 543.774 54.3874 544.236 54.7164C544.684 55.0629 545.331 55.5998 546.109 56.2233C547.613 57.5224 549.592 59.3583 551.399 61.4368C553.206 63.5152 554.869 65.7669 556.056 67.5509C556.214 67.7587 556.333 67.9839 556.465 68.1917C556.597 68.3996 556.715 68.5901 556.834 68.7806C557.072 69.1444 557.27 69.4735 557.428 69.7333C557.599 69.9931 557.705 70.2182 557.797 70.3568C557.876 70.4954 557.929 70.582 557.929 70.582C557.929 70.582 558.101 70.8937 558.417 71.448C558.576 71.7251 558.76 72.0542 558.971 72.4526C559.169 72.851 559.394 73.3013 559.644 73.7863C559.776 74.0287 559.895 74.2885 560.027 74.5484C560.159 74.8082 560.277 75.1026 560.409 75.3797C560.673 75.9513 560.95 76.5575 561.227 77.1811C561.491 77.8219 561.755 78.4801 562.032 79.1729C562.098 79.3461 562.164 79.5193 562.243 79.6752C562.309 79.8484 562.362 80.0216 562.428 80.1948C562.56 80.5412 562.678 80.905 562.81 81.2514C563.8 84.0746 564.631 86.9844 565.093 89.2188C565.159 89.4959 565.211 89.7557 565.277 90.0155C565.33 90.2753 565.396 90.5005 565.436 90.743C565.515 91.1933 565.594 91.609 565.647 91.9381C565.765 92.5963 565.845 92.9773 565.845 92.9773C565.845 92.9773 565.858 93.0812 565.897 93.2544C565.937 93.4276 565.963 93.6874 566.016 94.0339C566.056 94.3629 566.122 94.7786 566.188 95.229C566.253 95.6966 566.333 96.2162 566.385 96.7878C566.438 97.3594 566.504 97.9829 566.57 98.6411C566.583 98.8143 566.61 98.9702 566.623 99.1434C566.636 99.3166 566.649 99.4898 566.662 99.663C566.676 100.009 566.702 100.356 566.728 100.737C566.847 102.174 566.847 103.716 566.887 105.258C566.847 106.799 566.847 108.341 566.728 109.778C566.702 110.142 566.689 110.488 566.662 110.835C566.649 111.008 566.649 111.181 566.623 111.337C566.61 111.51 566.583 111.683 566.57 111.839C566.504 112.497 566.438 113.121 566.385 113.693C566.333 114.264 566.24 114.784 566.188 115.251C566.122 115.719 566.069 116.117 566.016 116.447C565.963 116.776 565.937 117.035 565.897 117.226C565.871 117.399 565.845 117.503 565.845 117.503C565.845 117.503 565.779 117.884 565.647 118.542C565.594 118.871 565.515 119.27 565.436 119.737C565.383 119.963 565.317 120.205 565.264 120.465C565.211 120.725 565.145 120.984 565.079 121.262C564.618 123.496 563.8 126.406 562.797 129.229C562.678 129.575 562.546 129.939 562.415 130.286C562.349 130.459 562.296 130.632 562.23 130.805C562.164 130.978 562.085 131.152 562.019 131.307C561.742 131.983 561.478 132.641 561.214 133.299C560.937 133.923 560.66 134.529 560.396 135.101C560.264 135.378 560.145 135.672 560.014 135.932C559.882 136.192 559.75 136.452 559.631 136.694C559.38 137.179 559.156 137.629 558.958 138.028C558.76 138.426 558.562 138.755 558.404 139.032C558.087 139.587 557.916 139.898 557.916 139.898C557.916 139.898 557.863 139.985 557.784 140.124C557.705 140.262 557.586 140.487 557.415 140.747C557.256 141.007 557.045 141.336 556.821 141.7C556.702 141.89 556.584 142.081 556.452 142.289C556.32 142.496 556.201 142.722 556.043 142.929C554.869 144.713 553.206 146.965 551.386 149.044C549.578 151.122 547.6 152.941 546.096 154.257C545.317 154.881 544.684 155.418 544.222 155.764C543.761 156.093 543.497 156.284 543.497 156.284C543.497 156.284 543.233 156.474 542.771 156.82C542.653 156.907 542.521 156.994 542.389 157.098C542.244 157.184 542.085 157.288 541.927 157.392C541.597 157.6 541.228 157.842 540.819 158.12C539.17 159.124 536.94 160.388 534.605 161.306C534.025 161.566 533.444 161.757 532.864 161.965C532.574 162.069 532.283 162.172 532.006 162.276C531.729 162.38 531.439 162.45 531.162 162.536C530.608 162.692 530.067 162.848 529.553 163.004C529.038 163.125 528.55 163.229 528.101 163.333C527.877 163.385 527.666 163.437 527.455 163.472C527.244 163.523 527.046 163.541 526.861 163.575C526.492 163.627 526.175 163.679 525.898 163.731C525.371 163.818 525.067 163.87 525.067 163.87L525.014 163.281C525.028 163.298 525.318 163.246 525.846 163.16Z" fill="#FFEF64"/>
</g>
<g id="Group_2">
<path id="Vector_20" d="M89.4522 159.262C89.1858 159.262 88.894 159.278 88.5896 159.328C88.5135 159.344 88.4374 159.361 88.3613 159.377C88.2852 159.394 88.209 159.41 88.1203 159.427C87.968 159.46 87.8031 159.51 87.6382 159.576C86.9659 159.807 86.2429 160.187 85.5072 160.633C84.7968 161.047 84.0738 161.509 83.4268 161.939C82.7799 162.369 82.2091 162.782 81.8032 163.063C81.3973 163.344 81.1562 163.526 81.1562 163.526C81.1562 163.526 81.2197 163.559 81.3465 163.625C81.4734 163.674 81.651 163.774 81.8666 163.856C82.3233 164.022 82.9575 164.236 83.6805 164.435C83.8581 164.484 84.0484 164.534 84.2387 164.567C84.429 164.6 84.6319 164.633 84.8222 164.666C85.2154 164.716 85.6213 164.765 86.0272 164.782C86.8264 164.831 87.6509 164.699 88.3486 164.451C89.7439 163.955 90.6953 162.832 91.2788 161.906C91.875 160.964 92.116 160.187 92.116 160.187C92.116 160.187 91.634 159.791 90.8475 159.543C90.467 159.394 89.9976 159.262 89.4522 159.262Z" fill="#FFEF64"/>
<path id="Vector_21" d="M91.5952 152.04C91.2654 151.363 90.8341 150.768 90.3902 150.189C90.1745 149.908 89.9335 149.644 89.7052 149.396C89.591 149.264 89.4769 149.148 89.3627 149.049C89.2485 148.933 89.1471 148.817 89.0329 148.702C88.6016 148.272 88.2084 147.925 87.9293 147.694C87.6502 147.446 87.4727 147.297 87.4727 147.297C87.4727 147.297 87.4727 147.627 87.4853 148.156C87.498 148.702 87.5361 149.429 87.6249 150.272C87.7137 151.098 87.8532 152.04 88.0562 152.949C88.2718 153.825 88.5509 154.685 88.8934 155.395C88.9695 155.577 89.071 155.742 89.1597 155.908C89.1978 155.99 89.2485 156.056 89.2993 156.139C89.35 156.205 89.3881 156.271 89.4388 156.337C89.6418 156.602 89.8447 156.817 90.0604 157.015C90.2633 157.213 90.479 157.362 90.6819 157.494C90.8849 157.626 91.0878 157.742 91.2781 157.808C92.0392 158.089 92.5847 158.04 92.5847 158.04C92.5847 158.04 92.6735 157.197 92.5847 156.04C92.5339 155.461 92.4578 154.8 92.2929 154.123C92.2549 153.957 92.2041 153.776 92.1534 153.61C92.1026 153.428 92.0519 153.263 92.0012 153.081C91.887 152.718 91.7601 152.371 91.5952 152.04Z" fill="#FFEF64"/>
<path id="Vector_22" d="M80.8013 154.039C80.7506 153.972 80.6872 153.906 80.5984 153.807C80.4208 153.609 80.1544 153.328 79.7992 153.08C79.6217 152.948 79.4314 152.816 79.2031 152.7C78.9874 152.584 78.7337 152.485 78.4927 152.369C77.9853 152.171 77.3764 152.055 76.6788 152.072C76.3236 152.088 75.9684 152.105 75.5879 152.155C75.2073 152.204 74.8141 152.27 74.4209 152.353C74.0276 152.435 73.6217 152.535 73.2412 152.634C72.8606 152.733 72.4801 152.832 72.1249 152.931C71.4145 153.13 70.7803 153.311 70.3363 153.46C69.8797 153.609 69.6133 153.692 69.6133 153.692C69.6133 153.692 69.8416 153.906 70.2475 154.22C70.4378 154.386 70.6788 154.567 70.9579 154.766C71.0847 154.865 71.2369 154.981 71.3892 155.08C71.5414 155.179 71.7063 155.278 71.8712 155.394C72.201 155.592 72.5562 155.807 72.924 155.989C73.1143 156.088 73.2919 156.171 73.4822 156.27C73.571 156.319 73.6724 156.369 73.7612 156.402C73.8627 156.435 73.9515 156.468 74.053 156.518C74.8395 156.799 75.6259 156.98 76.349 156.98C77.8204 156.931 78.9494 156.204 79.7231 155.51C80.1037 155.162 80.4081 154.815 80.5984 154.551C80.8013 154.287 80.9028 154.121 80.9028 154.121C80.9028 154.121 80.8394 154.088 80.8013 154.039Z" fill="#FFEF64"/>
<path id="Vector_23" d="M78.7723 148.453C78.9499 149.23 79.2416 149.874 79.5587 150.403C79.7109 150.668 79.8885 150.882 80.0534 151.064C80.231 151.246 80.3959 151.411 80.5608 151.543C80.8906 151.808 81.1951 151.99 81.4107 152.089C81.5122 152.138 81.6137 152.171 81.6771 152.188C81.7405 152.205 81.7786 152.221 81.7786 152.221C81.7786 152.221 81.842 152.023 81.9308 151.692C82.0196 151.362 82.1211 150.882 82.1972 150.287C82.3621 149.13 82.4382 147.593 82.0957 146.106C81.9308 145.346 81.6517 144.602 81.3346 143.924C81.0302 143.23 80.675 142.569 80.3452 142.024C80.1803 141.759 80.0281 141.478 79.8885 141.264C79.749 141.032 79.6222 140.834 79.508 140.669C79.2923 140.338 79.1401 140.156 79.1401 140.156C79.1401 140.156 79.064 140.47 78.9752 140.983C78.8737 141.495 78.7596 142.239 78.6708 143.065C78.62 143.495 78.582 143.941 78.5566 144.404C78.5313 144.85 78.5312 145.313 78.5312 145.792C78.5312 146.255 78.5566 146.718 78.5947 147.18C78.6074 147.627 78.6708 148.073 78.7723 148.453Z" fill="#FFEF64"/>
<path id="Vector_24" d="M70.7169 143.577C70.5901 143.329 70.3998 142.966 70.108 142.602C69.829 142.222 69.4611 141.842 69.0045 141.478C68.5605 141.115 68.015 140.784 67.3301 140.553C67.1017 140.47 66.8607 140.404 66.6197 140.354C66.3787 140.288 66.125 140.239 65.8713 140.189C64.6028 139.941 63.1567 139.842 62.0658 139.759C60.9622 139.677 60.1758 139.66 60.1758 139.66C60.1758 139.66 60.4422 140.106 60.8988 140.751C61.3428 141.412 62.0278 142.222 62.7889 142.999C62.903 143.114 63.0299 143.23 63.144 143.346C63.2075 143.412 63.2709 143.461 63.3343 143.528C63.3977 143.577 63.4612 143.627 63.5246 143.693C63.7783 143.908 64.0447 144.106 64.3111 144.304C64.5774 144.486 64.8438 144.668 65.1102 144.8C65.3766 144.949 65.643 145.081 65.9093 145.164C67.3301 145.626 68.5732 145.345 69.4611 144.932C70.3617 144.519 70.9072 144.007 70.9072 144.007C70.9072 144.007 70.8438 143.842 70.7169 143.577Z" fill="#FFEF64"/>
<path id="Vector_25" d="M71.1847 141.43C71.4384 141.81 71.6921 142.091 71.8824 142.256C72.0726 142.422 72.1995 142.504 72.1995 142.504C72.1995 142.504 72.6308 141.843 73.0367 140.802C73.4553 139.744 73.8739 138.29 73.8612 136.736C73.8612 136.158 73.8231 135.563 73.7344 135.001C73.6963 134.72 73.6329 134.439 73.5694 134.158C73.506 133.893 73.4553 133.596 73.3919 133.332C73.2777 132.869 73.1635 132.423 73.0367 132.026C72.9986 131.927 72.9733 131.828 72.9479 131.728C72.9098 131.629 72.8972 131.547 72.8591 131.447C72.8084 131.266 72.7576 131.1 72.7069 130.952C72.5039 130.34 72.3517 129.977 72.3517 129.977C72.3517 129.977 71.9585 130.737 71.5018 131.91C71.3876 132.208 71.2735 132.522 71.1466 132.852C71.0832 133.018 71.0325 133.199 70.969 133.365C70.9056 133.53 70.8676 133.712 70.8041 133.893C70.6012 134.604 70.4236 135.381 70.2967 136.141C70.246 136.439 70.208 136.72 70.1826 137.001C70.1572 137.282 70.1445 137.563 70.1445 137.827C70.1445 138.653 70.2714 139.364 70.4617 139.975C70.6646 140.57 70.931 141.05 71.1847 141.43Z" fill="#FFEF64"/>
<path id="Vector_26" d="M61.2257 131.182C61.5048 131.199 61.7585 131.199 61.9995 131.166C62.9509 131.083 63.5851 130.785 63.5851 130.785C63.5851 130.785 63.5724 130.62 63.4963 130.323C63.4583 130.174 63.4075 130.009 63.3441 129.81C63.2934 129.612 63.2172 129.397 63.1285 129.166C62.9382 128.703 62.6845 128.207 62.3166 127.695C62.2278 127.579 62.139 127.464 62.0376 127.315C61.9361 127.183 61.8346 127.067 61.7204 126.935C61.4921 126.687 61.2257 126.439 60.934 126.207C60.6295 125.993 60.2997 125.778 59.9445 125.563C59.6147 125.348 59.2469 125.15 58.8917 124.951C58.1687 124.555 57.3949 124.208 56.6972 123.894C56.0122 123.58 55.416 123.315 54.9721 123.133C54.5281 122.952 54.2617 122.836 54.2617 122.836C54.2617 122.836 54.3632 123.166 54.5535 123.712C54.655 123.976 54.7691 124.307 54.9086 124.654C55.0609 125.001 55.2258 125.381 55.416 125.778C55.6063 126.174 55.822 126.588 56.0376 127.001C56.0883 127.1 56.1518 127.199 56.2152 127.298C56.2786 127.397 56.3294 127.497 56.4055 127.596C56.5323 127.794 56.6592 127.992 56.7987 128.174C57.0651 128.554 57.3441 128.918 57.6359 129.248C57.7754 129.414 57.9277 129.579 58.0799 129.711C58.2321 129.843 58.3843 129.976 58.5492 130.108C59.1708 130.587 59.805 130.852 60.3885 131C60.6803 131.116 60.9593 131.166 61.2257 131.182Z" fill="#FFEF64"/>
<path id="Vector_27" d="M64.0683 126.769C64.1318 127.414 64.2713 127.959 64.4235 128.422C64.4996 128.653 64.5884 128.852 64.6645 129.017C64.7406 129.199 64.8421 129.331 64.9055 129.447C65.0451 129.678 65.1592 129.794 65.1592 129.794C65.1592 129.794 65.7174 129.314 66.3389 128.455C66.4912 128.24 66.6561 128.009 66.8083 127.744C66.9732 127.48 67.1381 127.199 67.2903 126.885C67.5947 126.273 67.8611 125.596 68.0387 124.852C68.0894 124.67 68.1148 124.472 68.1529 124.274C68.1909 124.075 68.2163 123.877 68.2417 123.679C68.2924 123.282 68.3178 122.885 68.3305 122.489C68.3431 121.695 68.3558 120.919 68.3051 120.225C68.2797 119.877 68.2543 119.563 68.229 119.266C68.2163 118.969 68.1909 118.721 68.1656 118.506C68.1275 118.076 68.0894 117.828 68.0894 117.828C68.0894 117.828 67.8992 118.043 67.5947 118.423C67.2903 118.803 66.8717 119.332 66.4277 119.977C65.9964 120.621 65.5525 121.365 65.1592 122.158C64.9563 122.555 64.7787 122.968 64.6138 123.381C64.4616 123.778 64.3347 124.191 64.2459 124.588C64.1571 124.984 64.1064 125.365 64.0683 125.728C64.0557 125.91 64.043 126.092 64.043 126.257C64.043 126.34 64.043 126.422 64.043 126.505C64.0557 126.604 64.0557 126.687 64.0683 126.769Z" fill="#FFEF64"/>
<path id="Vector_28" d="M55.6847 114.786C55.9511 115.034 56.2302 115.232 56.4966 115.414C57.042 115.761 57.5621 115.96 58.0314 116.092C58.9574 116.34 59.6297 116.274 59.6297 116.274C59.6297 116.274 59.7059 115.563 59.5283 114.555C59.4902 114.307 59.4141 114.042 59.3507 113.745C59.2873 113.464 59.1985 113.166 59.0716 112.852C58.9574 112.555 58.8179 112.224 58.6403 111.91C58.5515 111.745 58.4627 111.596 58.3613 111.431C58.3105 111.349 58.2598 111.266 58.1964 111.183C58.1456 111.101 58.0949 111.018 58.0314 110.935C57.1181 109.646 55.6467 108.341 54.4797 107.266C53.8835 106.737 53.3507 106.275 52.9702 105.944C52.577 105.647 52.3359 105.465 52.3359 105.465C52.3359 105.465 52.374 105.828 52.4501 106.407C52.5262 106.985 52.6404 107.795 52.8306 108.688C53.0336 109.58 53.3127 110.555 53.6425 111.481C53.7186 111.712 53.8201 111.943 53.9215 112.158C54.023 112.373 54.1245 112.588 54.226 112.803C54.4416 113.216 54.67 113.596 54.911 113.927C55.1647 114.257 55.4057 114.555 55.6847 114.786Z" fill="#FFEF64"/>
<path id="Vector_29" d="M61.3547 115.847C61.3547 115.847 62.0016 115.566 62.7881 114.954C63.194 114.64 63.6253 114.244 64.0439 113.764C64.2468 113.517 64.4498 113.269 64.6401 112.971C64.843 112.69 65.0333 112.376 65.1982 112.046C65.3631 111.715 65.5153 111.352 65.6422 110.988C65.769 110.624 65.8578 110.244 65.972 109.864C66.1876 109.104 66.3271 108.344 66.4286 107.666C66.5555 106.988 66.6316 106.393 66.6823 105.964C66.7204 105.534 66.7331 105.27 66.7331 105.27C66.7331 105.27 66.5047 105.418 66.1369 105.666C65.769 105.931 65.2616 106.311 64.6908 106.774C64.1327 107.253 63.5111 107.831 62.9783 108.459C62.4329 109.087 61.9382 109.781 61.583 110.492C61.3927 110.839 61.2786 111.186 61.1771 111.533C61.0756 111.88 61.0122 112.211 60.9614 112.525C60.9107 112.839 60.898 113.153 60.8853 113.434C60.8726 113.715 60.9107 113.996 60.9361 114.227C61.0756 115.235 61.3547 115.847 61.3547 115.847Z" fill="#FFEF64"/>
<path id="Vector_30" d="M54.2123 93.1045C54.2504 93.4846 54.3138 93.8648 54.3772 94.2449C54.5168 94.9886 54.669 95.6993 54.9354 96.3108C55.2779 97.1371 55.6838 97.7817 56.1278 98.294C56.5717 98.8064 57.0157 99.1865 57.447 99.4675C58.2969 100.029 58.9565 100.195 58.9565 100.195C58.9565 100.195 59.0072 100.029 59.0706 99.7319C59.1214 99.4344 59.2102 99.0212 59.2482 98.5089C59.2863 97.9966 59.2736 97.4016 59.1721 96.724C59.0833 96.0629 58.9184 95.3192 58.6013 94.5424C58.4998 94.2779 58.373 94.0135 58.2461 93.7491C58.1827 93.6169 58.1193 93.4846 58.0432 93.3359C57.9797 93.2037 57.9036 93.0549 57.8402 92.9227C57.485 92.2451 57.0918 91.551 56.6859 90.9064C56.2927 90.2453 55.8867 89.6173 55.5443 89.0884C54.8593 88.0142 54.3392 87.2539 54.3392 87.2539C54.3392 87.2539 54.2631 87.7993 54.1743 88.6587C54.1235 89.0884 54.1109 89.6008 54.0982 90.1627C54.0855 90.7246 54.0855 91.3196 54.1109 91.9476C54.1362 92.3277 54.1743 92.7244 54.2123 93.1045Z" fill="#FFEF64"/>
<path id="Vector_31" d="M65.2351 98.0973C65.3239 97.9981 65.4001 97.899 65.4762 97.7998C65.5523 97.7007 65.6411 97.585 65.7172 97.4858C65.8821 97.2709 66.0343 97.0396 66.1738 96.8082C66.3134 96.5768 66.4402 96.3289 66.5671 96.0975C66.6939 95.8331 66.8208 95.6017 66.9349 95.3703C67.1379 94.9572 67.3155 94.544 67.4677 94.1638C67.5438 93.9655 67.6199 93.7837 67.6833 93.6184C67.7468 93.4367 67.8102 93.2879 67.8736 93.1392C68.1019 92.5442 68.2161 92.1641 68.2161 92.1641C68.2161 92.1641 67.5057 92.3128 66.5036 92.6599C66.2626 92.7425 65.9836 92.8417 65.7172 92.9574C65.4508 93.0731 65.1717 93.2053 64.88 93.354C64.3092 93.635 63.7383 93.982 63.2056 94.3787C62.787 94.6762 62.4318 95.0233 62.1147 95.3703C61.6326 95.9157 61.2775 96.5107 61.0491 97.1057C60.8335 97.6841 60.7193 98.2626 60.6686 98.7419C60.6179 99.2377 60.6052 99.6509 60.6432 99.9483C60.6686 100.246 60.7066 100.411 60.7066 100.411C60.7066 100.411 61.3789 100.362 62.2669 100.048C63.1675 99.717 64.3218 99.1385 65.2351 98.0973Z" fill="#FFEF64"/>
<path id="Vector_32" d="M59.6038 81.7327C59.921 82.3773 60.2761 82.9227 60.6186 83.3359C61.3036 84.1622 61.8998 84.5589 61.8998 84.5589C61.8998 84.5589 61.9886 84.4101 62.1154 84.1622C62.2423 83.8978 62.3945 83.5177 62.5467 83.0384C62.6989 82.5591 62.8258 81.9807 62.8892 81.303C62.9146 80.9725 62.9146 80.6089 62.9146 80.2288C62.9146 79.8487 62.8892 79.452 62.8258 79.0223C62.7624 78.5926 62.6736 78.1464 62.5721 77.6836C62.5214 77.4522 62.4579 77.2208 62.3945 76.9729C62.3311 76.7415 62.2803 76.5102 62.2169 76.2623C61.9632 75.3202 61.6715 74.3782 61.3924 73.5188C61.2529 73.0891 61.1133 72.6924 60.9992 72.3288C60.885 71.9652 60.7708 71.6512 60.6821 71.3868C60.5045 70.8414 60.3903 70.5273 60.3903 70.5273C60.3903 70.5273 60.2508 70.8414 60.0605 71.3868C59.9463 71.6512 59.8448 71.9817 59.7434 72.3619C59.6292 72.742 59.515 73.1552 59.4009 73.5849C59.3501 73.7997 59.2867 74.0311 59.236 74.2625C59.1852 74.4939 59.1345 74.7252 59.0964 74.9897C59.0203 75.4855 58.9442 75.9813 58.8935 76.4936C58.8427 77.006 58.8047 77.5018 58.8047 77.9811C58.8047 78.4769 58.8427 78.9562 58.9062 79.4024C59.0457 80.3114 59.2867 81.0717 59.6038 81.7327Z" fill="#FFEF64"/>
<path id="Vector_33" d="M69.2043 84.1463C69.4707 83.9314 69.7371 83.6835 69.9908 83.4356C70.2318 83.1877 70.4601 82.9233 70.6885 82.6589C70.9041 82.3944 71.1324 82.1465 71.3227 81.8986C71.513 81.6507 71.6906 81.4028 71.8428 81.1879C71.9189 81.0722 71.995 80.9731 72.0584 80.8739C72.1219 80.7748 72.1853 80.6921 72.2487 80.6095C72.477 80.2789 72.6039 80.0806 72.6039 80.0806C72.6039 80.0806 72.3502 80.0476 71.9189 79.998C71.4876 79.9649 70.8914 79.9153 70.2191 79.9484C69.5595 79.9815 68.7984 80.0641 68.0627 80.2128C67.8724 80.2624 67.6948 80.2955 67.5046 80.3451C67.327 80.3946 67.1494 80.4607 66.9845 80.5268C66.642 80.6591 66.3122 80.8078 66.0204 80.9896C65.7287 81.1714 65.4623 81.3697 65.2213 81.5846C64.9803 81.7994 64.79 82.0473 64.6124 82.2787C64.2699 82.758 64.0289 83.2704 63.864 83.7166C63.6991 84.1628 63.6357 84.576 63.5976 84.857C63.5596 85.1545 63.5469 85.3197 63.5469 85.3197C63.5469 85.3197 64.2065 85.518 65.1325 85.518C65.6018 85.518 66.1346 85.485 66.6927 85.3528C67.2635 85.2371 67.8471 85.0222 68.4179 84.6917C68.6716 84.576 68.9379 84.3777 69.2043 84.1463Z" fill="#FFEF64"/>
<path id="Vector_34" d="M66.2625 67.6537C66.4274 68.3809 66.6557 69.0089 66.8968 69.5378C67.3661 70.5625 67.8608 71.1409 67.8608 71.1409C67.8608 71.1409 68.3428 70.7277 68.8249 69.9014C68.9517 69.6865 69.0659 69.4552 69.18 69.1907C69.2942 68.9428 69.4211 68.6453 69.5225 68.3478C69.7255 67.7198 69.8777 66.9761 69.9411 66.1001C70.0172 65.2407 70.0046 64.2656 69.9411 63.2575C69.8777 62.2493 69.8143 61.2577 69.7255 60.3322C69.6367 59.4232 69.5479 58.6133 69.4845 58.0349C69.4084 57.4564 69.3703 57.1094 69.3703 57.1094C69.3703 57.1094 69.3196 57.1755 69.2308 57.2912C69.1547 57.4234 69.0278 57.6052 68.8756 57.8366C68.5839 58.2993 68.1779 58.9604 67.772 59.7207C67.3788 60.514 66.9856 61.423 66.6684 62.3485C66.364 63.2905 66.1484 64.2656 66.0722 65.1746C66.0596 65.406 66.0469 65.6209 66.0469 65.8357C66.0469 66.0506 66.0596 66.2654 66.0722 66.4803C66.123 66.8934 66.1864 67.2901 66.2625 67.6537Z" fill="#FFEF64"/>
<path id="Vector_35" d="M75.005 73.2077C75.1573 73.1416 75.2968 73.0755 75.449 72.9929C75.5251 72.9598 75.5885 72.9268 75.6646 72.8772C75.7408 72.8441 75.8169 72.7945 75.893 72.7615C76.4892 72.4475 77.0219 72.0674 77.4913 71.7203C77.9733 71.3897 78.3792 71.0592 78.6583 70.8113C78.7978 70.6791 78.912 70.5799 78.9881 70.5138C79.0642 70.4477 79.1149 70.4146 79.1149 70.4146C79.1149 70.4146 79.0515 70.3816 78.9373 70.332C78.8232 70.2824 78.6583 70.1998 78.468 70.1172C78.0748 69.9519 77.504 69.7205 76.8443 69.5222C76.5145 69.423 76.172 69.3239 75.8042 69.2412C75.6266 69.2082 75.4363 69.1586 75.2587 69.1255C75.0811 69.0925 74.8909 69.0759 74.7133 69.0594C73.9776 68.9768 73.2291 68.9768 72.5695 69.1255C71.9226 69.2743 71.3898 69.5718 70.9459 69.9023C70.7175 70.0676 70.5273 70.2494 70.3497 70.4477C70.1848 70.646 70.0452 70.8443 69.9184 71.0427C69.4237 71.8194 69.2461 72.4805 69.2461 72.4805C69.2461 72.4805 69.8423 72.8937 70.7429 73.2243C71.1869 73.3895 71.7196 73.5383 72.2905 73.6044C72.8613 73.6705 73.4448 73.654 74.079 73.5383C74.3962 73.4391 74.7133 73.3399 75.005 73.2077Z" fill="#FFEF64"/>
<path id="Vector_36" d="M76.7273 59.2565C76.8415 59.5871 76.9303 59.7689 76.9303 59.7689C76.9303 59.7689 76.9683 59.7524 77.0317 59.7193C77.0952 59.6862 77.184 59.6367 77.2854 59.5706C77.5011 59.4383 77.8055 59.2235 78.1226 58.9095C78.7569 58.2649 79.5434 57.3063 80.0381 55.6536C80.203 55.1082 80.3679 54.5132 80.4947 53.8852C80.6596 53.0919 80.7992 52.249 80.9133 51.4392C81.0402 50.6459 81.1543 49.8691 81.2304 49.175C81.408 47.8198 81.5095 46.8281 81.5095 46.8281C81.5095 46.8281 81.129 47.1256 80.5708 47.638C80.2918 47.8859 79.9746 48.1999 79.6195 48.5469C79.277 48.9105 78.9345 49.3237 78.5793 49.77C78.3637 50.0344 78.1607 50.3154 77.9577 50.6128C77.907 50.6789 77.8563 50.7616 77.8055 50.8277C77.7548 50.8938 77.7167 50.9764 77.666 51.0591C77.5772 51.2078 77.4884 51.3731 77.3869 51.5218C77.0317 52.1499 76.74 52.7944 76.537 53.439C76.3975 53.8522 76.3087 54.2984 76.258 54.695C76.2072 55.0917 76.1692 55.4883 76.1692 55.8685C76.1565 56.6287 76.2453 57.3063 76.3594 57.8848C76.4736 58.4632 76.6131 58.926 76.7273 59.2565Z" fill="#FFEF64"/>
<path id="Vector_37" d="M85.1387 63.9689C85.5192 63.8698 85.8744 63.7541 86.2042 63.6384C86.534 63.5392 86.8384 63.4401 87.0921 63.3409C87.5868 63.1426 87.904 62.9938 87.904 62.9938C87.904 62.9938 87.3331 62.4319 86.4579 61.7543C86.0266 61.4072 85.5065 61.0436 84.9484 60.6966C84.4029 60.366 83.8194 60.0685 83.2232 59.8372C82.7793 59.6554 82.3353 59.5231 81.904 59.457C80.6101 59.3083 79.5827 59.7876 78.9357 60.3825C78.6059 60.6635 78.3649 60.961 78.2127 61.1593C78.1366 61.2585 78.0732 61.3576 78.0351 61.4238C77.9971 61.4899 77.9844 61.5229 77.9844 61.5229C77.9844 61.5229 78.0985 61.6717 78.3142 61.903C78.5298 62.1344 78.8469 62.4319 79.2529 62.7459C79.6461 63.0599 80.1281 63.3905 80.6482 63.6549C80.9146 63.7871 81.1937 63.9028 81.4854 63.9855C81.7772 64.0846 82.0689 64.1507 82.386 64.2003C83.2993 64.3491 84.2507 64.1673 85.1387 63.9689Z" fill="#FFEF64"/>
<path id="Vector_38" d="M98.7244 160.534C98.4707 160.501 98.1662 160.452 97.8111 160.386C97.6335 160.353 97.4432 160.336 97.2529 160.287C97.0627 160.237 96.847 160.187 96.6441 160.138C96.2128 160.039 95.7561 159.939 95.2614 159.824C94.7794 159.675 94.2593 159.526 93.7265 159.378C93.4602 159.295 93.1811 159.229 92.9147 159.13C92.6483 159.03 92.3693 158.931 92.0902 158.832C91.5447 158.634 90.9739 158.452 90.4285 158.204C88.2086 157.345 86.0776 156.138 84.5173 155.18C84.1368 154.932 83.7689 154.7 83.4645 154.502C83.2996 154.403 83.16 154.304 83.0205 154.221C82.881 154.138 82.7668 154.039 82.6526 153.957C82.2087 153.643 81.9677 153.461 81.9677 153.461C81.9677 153.461 81.714 153.279 81.27 152.965C80.8387 152.634 80.2298 152.122 79.4941 151.544C78.0607 150.304 76.1707 148.585 74.4582 146.619C72.7331 144.668 71.1475 142.52 70.0312 140.851C69.879 140.652 69.7648 140.437 69.638 140.239C69.5111 140.041 69.3969 139.859 69.2955 139.677C69.0798 139.33 68.8895 139.033 68.7246 138.768C68.5597 138.52 68.4583 138.305 68.3821 138.173C68.306 138.024 68.2553 137.958 68.2553 137.958C68.2553 137.958 68.0904 137.661 67.7986 137.149C67.6591 136.884 67.4688 136.587 67.2786 136.206C67.0883 135.826 66.8726 135.413 66.6316 134.95C66.5175 134.719 66.3906 134.488 66.2638 134.24C66.1369 133.992 66.0228 133.727 65.8959 133.446C65.6422 132.901 65.3885 132.323 65.1094 131.744C64.8684 131.133 64.6021 130.505 64.3484 129.877C64.2849 129.711 64.2215 129.563 64.1454 129.397C64.082 129.232 64.0312 129.067 63.9678 128.901C63.8536 128.571 63.7268 128.24 63.6126 127.91C62.674 125.249 61.8875 122.489 61.4435 120.373C61.3801 120.109 61.3294 119.861 61.2659 119.613C61.2152 119.382 61.1518 119.15 61.1264 118.936C61.0503 118.506 60.9742 118.126 60.9234 117.812C60.8093 117.184 60.7458 116.837 60.7458 116.837C60.7458 116.837 60.7332 116.754 60.6951 116.589C60.6697 116.424 60.6317 116.176 60.5936 115.862C60.5429 115.548 60.4922 115.167 60.4414 114.738C60.378 114.308 60.2892 113.812 60.2511 113.267C60.2004 112.721 60.137 112.143 60.0736 111.515C60.0609 111.366 60.0355 111.201 60.0228 111.052C60.0101 110.887 59.9974 110.738 59.9848 110.556C59.9721 110.226 59.9467 109.895 59.9213 109.548C59.8072 108.193 59.8072 106.722 59.7818 105.268C59.8199 103.813 59.8199 102.359 59.9213 100.987C59.934 100.657 59.9594 100.31 59.9848 99.979C59.9974 99.8137 59.9974 99.6485 60.0228 99.4997C60.0355 99.3344 60.0609 99.1857 60.0736 99.0204C60.137 98.4089 60.2004 97.8139 60.2511 97.2685C60.3019 96.7231 60.378 96.2439 60.4414 95.7976C60.5048 95.3679 60.5556 94.9878 60.5936 94.6738C60.6444 94.3598 60.6697 94.1119 60.6951 93.9466C60.7332 93.7813 60.7458 93.6822 60.7458 93.6822C60.7458 93.6822 60.8093 93.3351 60.9234 92.7071C60.9742 92.393 61.0503 92.0129 61.1264 91.5832C61.1645 91.3684 61.2152 91.137 61.2659 90.9056C61.3167 90.6577 61.3801 90.4098 61.4435 90.1453C61.8875 88.0299 62.674 85.2864 63.6126 82.609C63.7395 82.2784 63.8536 81.9479 63.9678 81.6173C64.0312 81.4521 64.082 81.2868 64.1454 81.1215C64.2088 80.9563 64.2722 80.8075 64.3484 80.6422C64.6147 79.9977 64.8684 79.3696 65.1094 78.7747C65.3758 78.1797 65.6422 77.6012 65.8959 77.0724C66.0228 76.8079 66.1369 76.527 66.2638 76.2791C66.3906 76.0312 66.5175 75.7998 66.6316 75.5684C66.86 75.1056 67.0883 74.6925 67.2786 74.3123C67.4688 73.9322 67.6591 73.6347 67.7986 73.3703C68.0904 72.8414 68.2553 72.5605 68.2553 72.5605C68.2553 72.5605 68.306 72.4778 68.3821 72.3456C68.4583 72.2134 68.5724 71.9985 68.7246 71.7506C68.8769 71.5027 69.0798 71.1887 69.2955 70.8416C69.4096 70.6598 69.5238 70.478 69.638 70.2797C69.7648 70.0814 69.8916 69.8831 70.0312 69.6682C71.1475 67.999 72.7331 65.8504 74.4582 63.9002C76.1834 61.9335 78.0607 60.2147 79.4941 58.9752C80.2298 58.3967 80.8387 57.8844 81.27 57.5538C81.714 57.2398 81.9677 57.058 81.9677 57.058C81.9677 57.058 82.2214 56.8762 82.6526 56.5622C82.7668 56.4796 82.881 56.3969 83.0205 56.2978C83.16 56.2151 83.2996 56.116 83.4645 56.0168C83.566 55.9507 83.6801 55.8846 83.7943 55.8019C83.807 55.8019 83.807 55.8019 83.8197 55.8019C84.0987 55.835 84.4919 55.8515 84.9613 55.8185C85.9 55.7689 87.1177 55.5045 88.1832 54.7442C88.7414 54.3806 89.2615 53.8683 89.7181 53.3229C89.9338 53.0419 90.1748 52.7775 90.3904 52.4965C90.6061 52.2321 90.7963 51.9511 90.9739 51.6867C91.3164 51.1578 91.6335 50.6951 91.8365 50.348C92.0395 50.0009 92.1536 49.7861 92.1536 49.7861C92.1536 49.7861 91.8999 49.7695 91.4686 49.7695C91.0373 49.7695 90.4412 49.7861 89.7689 49.8522C89.604 49.8687 89.4264 49.8852 89.2488 49.9183C89.0712 49.9513 88.8936 49.9844 88.716 50.0174C88.3608 50.0835 87.993 50.1827 87.6378 50.2819C86.9148 50.5133 86.1917 50.7942 85.6336 51.2074C85.0628 51.604 84.6188 52.0999 84.289 52.5957C83.9719 53.108 83.7689 53.6204 83.6167 54.0996C83.4772 54.5624 83.4137 54.9756 83.3884 55.2565C83.3757 55.3061 83.3757 55.3722 83.3757 55.4218C83.3376 55.4549 83.2869 55.4714 83.2488 55.5045C83.0966 55.6036 82.9444 55.7028 82.8049 55.7854C82.6653 55.8846 82.5512 55.9672 82.437 56.0498C81.993 56.3639 81.7393 56.5622 81.7393 56.5622C81.7393 56.5622 81.4856 56.744 81.0417 57.058C80.6104 57.3885 79.9888 57.9009 79.2404 58.4959C77.7943 59.7354 75.8916 61.4873 74.1538 63.4705C72.4159 65.4538 70.8176 67.6023 69.676 69.3046C69.5238 69.5029 69.4096 69.7178 69.2828 69.9161C69.1559 70.1144 69.0418 70.2962 68.9276 70.478C68.6993 70.8251 68.509 71.1391 68.3568 71.387C68.1919 71.6349 68.0904 71.8498 68.0016 71.982C67.9255 72.1142 67.8748 72.1969 67.8748 72.1969C67.8748 72.1969 67.7099 72.4944 67.4054 73.0232C67.2532 73.2877 67.0756 73.6017 66.8726 73.9818C66.6824 74.3619 66.4667 74.7916 66.2257 75.2544C66.0989 75.4858 65.9847 75.7337 65.8579 75.9816C65.731 76.2295 65.6168 76.5105 65.49 76.7749C65.2363 77.3203 64.9699 77.8987 64.7035 78.4937C64.4498 79.1052 64.1961 79.7332 63.9298 80.3943C63.8663 80.5596 63.8029 80.7249 63.7268 80.8736C63.6634 81.0389 63.6126 81.2042 63.5492 81.3694C63.4224 81.7 63.3082 82.047 63.1813 82.3776C62.23 85.0715 61.4308 87.8481 60.9869 89.9801C60.9234 90.2445 60.8727 90.4924 60.8093 90.7403C60.7585 90.9882 60.6951 91.2031 60.6571 91.4345C60.5809 91.8642 60.5048 92.2608 60.4541 92.5748C60.3399 93.2029 60.2638 93.5665 60.2638 93.5665C60.2638 93.5665 60.2511 93.6656 60.2131 93.8309C60.175 93.9962 60.1497 94.2441 60.0989 94.5746C60.0609 94.8886 59.9974 95.2853 59.934 95.715C59.8706 96.1612 59.7945 96.657 59.7437 97.2024C59.693 97.7478 59.6296 98.3428 59.5662 98.9708C59.5535 99.1361 59.5281 99.2849 59.5154 99.4501C59.5027 99.6154 59.49 99.7807 59.4774 99.9459C59.4647 100.276 59.4393 100.607 59.4139 100.971C59.2998 102.342 59.2998 103.813 59.2617 105.284C59.2998 106.755 59.2998 108.226 59.4139 109.598C59.4393 109.945 59.452 110.275 59.4774 110.606C59.49 110.771 59.49 110.936 59.5154 111.085C59.5281 111.251 59.5535 111.416 59.5662 111.565C59.6296 112.193 59.693 112.788 59.7437 113.333C59.7945 113.878 59.8833 114.374 59.934 114.82C59.9974 115.267 60.0482 115.647 60.0989 115.961C60.1497 116.275 60.175 116.523 60.2131 116.704C60.2385 116.87 60.2638 116.969 60.2638 116.969C60.2638 116.969 60.3272 117.332 60.4541 117.961C60.5048 118.275 60.5809 118.655 60.6571 119.101C60.7078 119.316 60.7712 119.547 60.822 119.795C60.8727 120.043 60.9361 120.291 60.9995 120.555C61.4435 122.687 62.23 125.464 63.194 128.158C63.3082 128.488 63.435 128.835 63.5619 129.166C63.6253 129.331 63.6761 129.496 63.7395 129.662C63.8029 129.827 63.879 129.992 63.9424 130.141C64.2088 130.786 64.4625 131.414 64.7162 132.042C64.9826 132.637 65.249 133.215 65.5027 133.76C65.6295 134.025 65.7437 134.306 65.8705 134.554C65.9974 134.802 66.1242 135.05 66.2384 135.281C66.4794 135.744 66.6951 136.173 66.8853 136.554C67.0756 136.934 67.2659 137.248 67.4181 137.512C67.7225 138.041 67.8874 138.338 67.8874 138.338C67.8874 138.338 67.9382 138.421 68.0143 138.553C68.0904 138.686 68.2046 138.9 68.3695 139.148C68.5217 139.396 68.7246 139.71 68.9403 140.057C69.0544 140.239 69.1686 140.421 69.2955 140.619C69.4223 140.818 69.5365 141.032 69.6887 141.231C70.8176 142.933 72.4159 145.082 74.1665 147.065C75.9043 149.048 77.807 150.783 79.2531 152.039C80.0015 152.634 80.6104 153.147 81.0543 153.477C81.4983 153.791 81.752 153.973 81.752 153.973C81.752 153.973 82.0057 154.155 82.4497 154.486C82.5638 154.568 82.6907 154.651 82.8175 154.75C82.9571 154.833 83.1093 154.932 83.2615 155.031C83.5786 155.229 83.9338 155.461 84.327 155.725C85.9127 156.684 88.0564 157.89 90.3016 158.766C90.8598 159.014 91.4179 159.196 91.976 159.394C92.2551 159.493 92.5342 159.592 92.8005 159.692C93.0669 159.791 93.346 159.857 93.6124 159.939C94.1451 160.088 94.6652 160.237 95.1599 160.386C95.6546 160.501 96.124 160.601 96.5553 160.7C96.7709 160.749 96.9739 160.799 97.1768 160.832C97.3798 160.882 97.5701 160.898 97.7477 160.931C98.1028 160.981 98.4073 161.03 98.6736 161.08C99.181 161.162 99.4728 161.212 99.4728 161.212L99.5235 160.65C99.5108 160.667 99.2318 160.617 98.7244 160.534Z" fill="#FFEF64"/>
</g>
</g>
<line id="Line 7" x1="240.562" y1="57.2031" x2="240.562" y2="166.649" stroke="#C1C1C1" stroke-width="0.943502"/>
</g>
</g>
</g>
</svg>
