<svg width="194" height="206" viewBox="0 0 194 206" fill="none" xmlns="http://www.w3.org/2000/svg">
<g id="2">
<g id="Vector">
<path d="M33.5169 167.304C29.3149 164.857 26.7305 160.36 26.7305 155.497V15.602C26.7305 8.05531 32.8483 1.9375 40.395 1.9375H99.1524V205.539L33.5169 167.304Z" fill="#515151"/>
<path d="M163.519 167.322C167.666 164.86 170.208 160.395 170.208 155.573V15.602C170.208 8.05531 164.09 1.9375 156.543 1.9375H99.1524V205.539L163.519 167.322Z" fill="#676767"/>
</g>
<path id="Union" d="M80.0234 1.9375V32.2703L99.1536 40.1981L118.284 32.2703V1.9375H80.0234Z" fill="#FFC164"/>
<path id="Best Useability" d="M79.5448 50.7174H83.3178C84.9543 50.7174 86.1889 50.9545 87.0215 51.4287C87.8542 51.9028 88.2706 52.721 88.2706 53.8833C88.2706 54.3691 88.1838 54.8085 88.0103 55.2017C87.8427 55.5892 87.5969 55.9101 87.2731 56.1645C86.9493 56.4132 86.5503 56.5809 86.0761 56.6676V56.7543C86.5676 56.8411 87.0042 56.9943 87.3858 57.214C87.7733 57.4338 88.0768 57.7489 88.2966 58.1595C88.5221 58.57 88.6349 59.102 88.6349 59.7555C88.6349 60.5303 88.4498 61.1895 88.0797 61.7331C87.7154 62.2766 87.1921 62.6901 86.5098 62.9734C85.8332 63.2568 85.0295 63.3984 84.0985 63.3984H79.5448V50.7174ZM81.6265 55.9477H83.6214C84.564 55.9477 85.2174 55.7944 85.5817 55.488C85.946 55.1815 86.1281 54.7334 86.1281 54.1435C86.1281 53.5422 85.9113 53.1085 85.4776 52.8425C85.0497 52.5765 84.3674 52.4435 83.4306 52.4435H81.6265V55.9477ZM81.6265 57.6304V61.655H83.8209C84.7924 61.655 85.4747 61.4671 85.8679 61.0912C86.2611 60.7154 86.4577 60.2065 86.4577 59.5646C86.4577 59.1714 86.3681 58.8303 86.1889 58.5411C86.0154 58.252 85.7291 58.0294 85.3302 57.8733C84.9312 57.7113 84.3934 57.6304 83.7168 57.6304H81.6265ZM94.8713 53.6144C95.7271 53.6144 96.4615 53.7908 97.0744 54.1435C97.6874 54.4963 98.1586 54.9965 98.4882 55.6441C98.8179 56.2917 98.9827 57.0666 98.9827 57.9687V59.0616H92.5727C92.5959 59.9925 92.8445 60.7096 93.3187 61.2127C93.7986 61.7157 94.4694 61.9673 95.331 61.9673C95.9439 61.9673 96.4933 61.9094 96.979 61.7938C97.4705 61.6724 97.9765 61.496 98.4969 61.2647V62.9214C98.017 63.1469 97.5284 63.3117 97.0311 63.4158C96.5338 63.5199 95.9382 63.5719 95.2443 63.5719C94.3017 63.5719 93.4719 63.3898 92.7549 63.0255C92.0436 62.6554 91.4856 62.106 91.0809 61.3775C90.6819 60.6489 90.4824 59.7439 90.4824 58.6626C90.4824 57.587 90.6645 56.6734 91.0288 55.9217C91.3931 55.1699 91.9049 54.5975 92.5641 54.2043C93.2233 53.811 93.9924 53.6144 94.8713 53.6144ZM94.8713 55.1497C94.2294 55.1497 93.709 55.3579 93.31 55.7742C92.9168 56.1905 92.6855 56.8006 92.6161 57.6044H96.9877C96.9819 57.1244 96.901 56.6994 96.7448 56.3293C96.5945 55.9592 96.3632 55.6701 96.0509 55.4619C95.7445 55.2538 95.3512 55.1497 94.8713 55.1497ZM107.734 60.6575C107.734 61.2878 107.581 61.8198 107.275 62.2535C106.968 62.6872 106.52 63.0168 105.93 63.2423C105.346 63.462 104.629 63.5719 103.779 63.5719C103.108 63.5719 102.53 63.5228 102.044 63.4245C101.565 63.3319 101.111 63.1874 100.683 62.9908V61.23C101.14 61.444 101.651 61.629 102.218 61.7851C102.79 61.9412 103.331 62.0193 103.84 62.0193C104.511 62.0193 104.994 61.9152 105.288 61.7071C105.583 61.4931 105.731 61.2098 105.731 60.857C105.731 60.6489 105.67 60.4638 105.549 60.3019C105.433 60.1342 105.213 59.9636 104.889 59.7902C104.571 59.6109 104.103 59.3969 103.484 59.1483C102.877 58.9054 102.365 58.6626 101.949 58.4197C101.533 58.1768 101.218 57.8848 101.004 57.5437C100.79 57.1967 100.683 56.7543 100.683 56.2166C100.683 55.3665 101.018 54.7218 101.689 54.2823C102.365 53.8371 103.259 53.6144 104.369 53.6144C104.959 53.6144 105.514 53.6752 106.034 53.7966C106.561 53.9122 107.075 54.0828 107.578 54.3083L106.936 55.8436C106.503 55.6528 106.066 55.4966 105.627 55.3752C105.193 55.248 104.751 55.1844 104.3 55.1844C103.773 55.1844 103.372 55.2653 103.094 55.4273C102.822 55.5892 102.686 55.8205 102.686 56.1212C102.686 56.3467 102.753 56.5375 102.886 56.6936C103.019 56.8498 103.247 57.0059 103.571 57.162C103.901 57.3181 104.357 57.5118 104.942 57.7431C105.514 57.9629 106.008 58.1942 106.425 58.437C106.847 58.6741 107.171 58.9661 107.396 59.3131C107.622 59.66 107.734 60.1082 107.734 60.6575ZM113.511 61.9239C113.777 61.9239 114.04 61.9008 114.301 61.8545C114.561 61.8025 114.798 61.7417 115.012 61.6724V63.2163C114.786 63.3146 114.494 63.3984 114.136 63.4678C113.777 63.5372 113.404 63.5719 113.017 63.5719C112.473 63.5719 111.985 63.4823 111.551 63.303C111.117 63.118 110.773 62.8028 110.519 62.3576C110.264 61.9123 110.137 61.2965 110.137 60.5101V55.3492H108.827V54.4384L110.233 53.7185L110.9 51.6628H112.184V53.7966H114.934V55.3492H112.184V60.4841C112.184 60.9698 112.306 61.3312 112.548 61.5683C112.791 61.8054 113.112 61.9239 113.511 61.9239ZM68.1821 66.7174V74.9228C68.1821 75.8075 67.9942 76.5997 67.6183 77.2994C67.2483 77.9991 66.6874 78.5542 65.9356 78.9647C65.1839 79.3695 64.2385 79.5719 63.0993 79.5719C61.4744 79.5719 60.237 79.1469 59.3869 78.2969C58.5427 77.4411 58.1206 76.3048 58.1206 74.8881V66.7174H60.2023V74.7059C60.2023 75.7641 60.4509 76.5448 60.9482 77.0478C61.4455 77.5509 62.1886 77.8025 63.1774 77.8025C63.8597 77.8025 64.4148 77.6839 64.8427 77.4468C65.2764 77.204 65.5945 76.8512 65.7969 76.3886C66.005 75.9203 66.1091 75.3565 66.1091 74.6973V66.7174H68.1821ZM77.6712 76.6575C77.6712 77.2878 77.518 77.8198 77.2115 78.2535C76.905 78.6872 76.4569 79.0168 75.8671 79.2423C75.2831 79.462 74.566 79.5719 73.716 79.5719C73.0452 79.5719 72.467 79.5228 71.9812 79.4245C71.5013 79.3319 71.0474 79.1874 70.6195 78.9908V77.23C71.0763 77.444 71.588 77.629 72.1547 77.7851C72.7272 77.9412 73.2678 78.0193 73.7767 78.0193C74.4475 78.0193 74.9303 77.9152 75.2252 77.7071C75.5201 77.4931 75.6676 77.2098 75.6676 76.857C75.6676 76.6489 75.6069 76.4638 75.4854 76.3019C75.3698 76.1342 75.1501 75.9636 74.8262 75.7902C74.5082 75.6109 74.0398 75.3969 73.4211 75.1483C72.8139 74.9054 72.3022 74.6626 71.8858 74.4197C71.4695 74.1768 71.1543 73.8848 70.9404 73.5437C70.7264 73.1967 70.6195 72.7543 70.6195 72.2166C70.6195 71.3665 70.9548 70.7218 71.6256 70.2823C72.3022 69.8371 73.1956 69.6144 74.3058 69.6144C74.8956 69.6144 75.4507 69.6752 75.9712 69.7966C76.4974 69.9122 77.012 70.0828 77.5151 70.3083L76.8732 71.8436C76.4396 71.6528 76.003 71.4966 75.5635 71.3752C75.1298 71.248 74.6875 71.1844 74.2364 71.1844C73.7102 71.1844 73.3083 71.2653 73.0308 71.4273C72.759 71.5892 72.6231 71.8205 72.6231 72.1212C72.6231 72.3467 72.6896 72.5375 72.8226 72.6936C72.9556 72.8498 73.184 73.0059 73.5078 73.162C73.8374 73.3181 74.2942 73.5118 74.8783 73.7431C75.4507 73.9629 75.9451 74.1942 76.3615 74.437C76.7836 74.6741 77.1074 74.9661 77.333 75.3131C77.5585 75.66 77.6712 76.1082 77.6712 76.6575ZM83.6995 69.6144C84.5553 69.6144 85.2897 69.7908 85.9026 70.1435C86.5156 70.4963 86.9868 70.9965 87.3164 71.6441C87.6461 72.2917 87.8109 73.0666 87.8109 73.9687V75.0616H81.4009C81.4241 75.9925 81.6727 76.7096 82.1469 77.2127C82.6268 77.7157 83.2976 77.9673 84.1592 77.9673C84.7721 77.9673 85.3215 77.9094 85.8072 77.7938C86.2987 77.6724 86.8047 77.496 87.3251 77.2647V78.9214C86.8452 79.1469 86.3566 79.3117 85.8593 79.4158C85.362 79.5199 84.7664 79.5719 84.0725 79.5719C83.1299 79.5719 82.3001 79.3898 81.5831 79.0255C80.8718 78.6554 80.3138 78.106 79.9091 77.3775C79.5101 76.6489 79.3106 75.7439 79.3106 74.6626C79.3106 73.587 79.4927 72.6734 79.857 71.9217C80.2213 71.1699 80.7331 70.5975 81.3923 70.2043C82.0515 69.811 82.8205 69.6144 83.6995 69.6144ZM83.6995 71.1497C83.0576 71.1497 82.5372 71.3579 82.1382 71.7742C81.745 72.1905 81.5137 72.8006 81.4443 73.6044H85.8159C85.8101 73.1244 85.7291 72.6994 85.573 72.3293C85.4227 71.9592 85.1914 71.6701 84.8791 71.4619C84.5726 71.2538 84.1794 71.1497 83.6995 71.1497ZM93.8738 69.6144C95.0881 69.6144 96.0047 69.8833 96.6234 70.4211C97.2479 70.9589 97.5602 71.7973 97.5602 72.9365V79.3984H96.1116L95.7213 78.0367H95.6519C95.3802 78.3836 95.0997 78.6698 94.8106 78.8954C94.5214 79.1209 94.1861 79.2886 93.8044 79.3984C93.4286 79.5141 92.9688 79.5719 92.4253 79.5719C91.8528 79.5719 91.3411 79.4678 90.89 79.2597C90.439 79.0457 90.0834 78.7219 89.8232 78.2882C89.563 77.8545 89.4328 77.3052 89.4328 76.6402C89.4328 75.6514 89.8 74.9083 90.5344 74.411C91.2746 73.9137 92.3906 73.6391 93.8825 73.587L95.5478 73.5263V73.0232C95.5478 72.3582 95.3917 71.8841 95.0795 71.6007C94.773 71.3174 94.3393 71.1757 93.7784 71.1757C93.2984 71.1757 92.833 71.2451 92.3819 71.3839C91.9309 71.5227 91.4914 71.6932 91.0635 71.8956L90.4043 70.4558C90.8727 70.2071 91.4047 70.0048 92.0003 69.8486C92.6017 69.6925 93.2262 69.6144 93.8738 69.6144ZM95.5392 74.81L94.2988 74.8534C93.2811 74.8881 92.567 75.0616 92.1564 75.3738C91.7458 75.6861 91.5406 76.114 91.5406 76.6575C91.5406 77.1317 91.6822 77.4786 91.9656 77.6984C92.2489 77.9123 92.6219 78.0193 93.0845 78.0193C93.79 78.0193 94.374 77.8198 94.8366 77.4208C95.305 77.016 95.5392 76.4233 95.5392 75.6427V74.81ZM102.452 65.9021V69.1547C102.452 69.5306 102.441 69.9007 102.417 70.265C102.4 70.6235 102.383 70.9039 102.365 71.1063H102.452C102.712 70.69 103.074 70.3401 103.536 70.0568C104.005 69.7677 104.603 69.6231 105.332 69.6231C106.471 69.6231 107.388 70.0423 108.081 70.8808C108.775 71.7135 109.122 72.9481 109.122 74.5845C109.122 75.6716 108.963 76.5852 108.645 77.3254C108.327 78.0656 107.879 78.6265 107.301 79.0081C106.728 79.384 106.055 79.5719 105.28 79.5719C104.551 79.5719 103.961 79.4389 103.51 79.1729C103.065 78.9011 102.715 78.586 102.461 78.2275H102.313L101.94 79.3984H100.414V65.9021H102.452ZM104.794 71.2798C104.216 71.2798 103.756 71.3954 103.415 71.6268C103.08 71.8581 102.837 72.205 102.686 72.6676C102.536 73.1244 102.458 73.7056 102.452 74.411V74.5932C102.452 75.6629 102.62 76.4812 102.955 77.0478C103.296 77.6145 103.915 77.8979 104.811 77.8979C105.523 77.8979 106.069 77.6116 106.451 77.0392C106.832 76.4609 107.023 75.634 107.023 74.5585C107.023 73.4714 106.832 72.6531 106.451 72.1038C106.075 71.5545 105.523 71.2798 104.794 71.2798ZM113.52 69.7966V79.3984H111.482V69.7966H113.52ZM112.514 66.1189C112.826 66.1189 113.095 66.2028 113.32 66.3705C113.552 66.5381 113.667 66.8273 113.667 67.2378C113.667 67.6426 113.552 67.9317 113.32 68.1052C113.095 68.2729 112.826 68.3567 112.514 68.3567C112.19 68.3567 111.915 68.2729 111.69 68.1052C111.47 67.9317 111.36 67.6426 111.36 67.2378C111.36 66.8273 111.47 66.5381 111.69 66.3705C111.915 66.2028 112.19 66.1189 112.514 66.1189ZM118.49 79.3984H116.443V65.9021H118.49V79.3984ZM123.443 69.7966V79.3984H121.404V69.7966H123.443ZM122.436 66.1189C122.749 66.1189 123.018 66.2028 123.243 66.3705C123.474 66.5381 123.59 66.8273 123.59 67.2378C123.59 67.6426 123.474 67.9317 123.243 68.1052C123.018 68.2729 122.749 68.3567 122.436 68.3567C122.113 68.3567 121.838 68.2729 121.612 68.1052C121.393 67.9317 121.283 67.6426 121.283 67.2378C121.283 66.8273 121.393 66.5381 121.612 66.3705C121.838 66.2028 122.113 66.1189 122.436 66.1189ZM129.939 77.9239C130.205 77.9239 130.468 77.9008 130.729 77.8545C130.989 77.8025 131.226 77.7417 131.44 77.6724V79.2163C131.214 79.3146 130.922 79.3984 130.564 79.4678C130.205 79.5372 129.832 79.5719 129.445 79.5719C128.901 79.5719 128.413 79.4823 127.979 79.303C127.545 79.118 127.201 78.8028 126.947 78.3576C126.692 77.9123 126.565 77.2965 126.565 76.5101V71.3492H125.255V70.4384L126.661 69.7185L127.328 67.6628H128.612V69.7966H131.362V71.3492H128.612V76.4841C128.612 76.9698 128.734 77.3312 128.977 77.5683C129.219 77.8054 129.54 77.9239 129.939 77.9239ZM131.943 69.7966H134.163L136.132 75.2784C136.219 75.5271 136.297 75.7728 136.367 76.0157C136.442 76.2528 136.505 76.4869 136.557 76.7182C136.615 76.9495 136.661 77.1808 136.696 77.4121H136.748C136.806 77.1115 136.887 76.7761 136.991 76.406C137.101 76.0301 137.222 75.6543 137.355 75.2784L139.246 69.7966H141.441L137.321 80.7168C137.084 81.3414 136.792 81.8733 136.445 82.3128C136.103 82.7581 135.699 83.0935 135.23 83.319C134.762 83.5503 134.227 83.6659 133.626 83.6659C133.337 83.6659 133.085 83.6486 132.871 83.6139C132.657 83.585 132.475 83.5532 132.325 83.5185V81.8878C132.446 81.9167 132.599 81.9427 132.784 81.9659C132.969 81.989 133.16 82.0006 133.357 82.0006C133.721 82.0006 134.036 81.9283 134.302 81.7837C134.568 81.6392 134.794 81.4339 134.979 81.1679C135.164 80.9077 135.317 80.6099 135.438 80.2745L135.777 79.3724L131.943 69.7966Z" fill="#DADADA"/>
<path id="2023" d="M85.0649 169.148H72.7908V166.566L77.1984 162.111C78.0872 161.198 78.7997 160.437 79.3362 159.829C79.8806 159.212 80.2729 158.652 80.5131 158.147C80.7613 157.643 80.8854 157.103 80.8854 156.526C80.8854 155.83 80.6893 155.309 80.297 154.965C79.9126 154.613 79.3962 154.436 78.7477 154.436C78.0671 154.436 77.4066 154.593 76.7661 154.905C76.1255 155.217 75.457 155.661 74.7604 156.238L72.7428 153.848C73.2472 153.416 73.7796 153.007 74.3401 152.623C74.9086 152.239 75.5651 151.93 76.3097 151.698C77.0623 151.458 77.9631 151.338 79.0119 151.338C80.1649 151.338 81.1537 151.546 81.9783 151.962C82.811 152.379 83.4515 152.947 83.8999 153.668C84.3483 154.38 84.5725 155.189 84.5725 156.094C84.5725 157.063 84.3803 157.947 83.996 158.748C83.6117 159.549 83.0512 160.341 82.3146 161.126C81.586 161.911 80.7053 162.779 79.6724 163.732L77.4146 165.858V166.026H85.0649V169.148ZM99.0443 160.369C99.0443 161.786 98.9322 163.051 98.708 164.164C98.4918 165.277 98.1395 166.222 97.6511 166.999C97.1708 167.775 96.5382 168.368 95.7536 168.776C94.969 169.184 94.0162 169.389 92.8953 169.389C91.4861 169.389 90.3292 169.032 89.4244 168.32C88.5197 167.599 87.8511 166.566 87.4188 165.221C86.9864 163.868 86.7703 162.251 86.7703 160.369C86.7703 158.472 86.9664 156.85 87.3587 155.505C87.7591 154.152 88.4076 153.115 89.3043 152.395C90.2011 151.674 91.398 151.314 92.8953 151.314C94.2964 151.314 95.4493 151.674 96.3541 152.395C97.2668 153.107 97.9434 154.14 98.3837 155.493C98.8241 156.838 99.0443 158.464 99.0443 160.369ZM90.4573 160.369C90.4573 161.706 90.5293 162.823 90.6734 163.72C90.8256 164.609 91.0778 165.277 91.4301 165.726C91.7823 166.174 92.2707 166.398 92.8953 166.398C93.5118 166.398 93.9962 166.178 94.3484 165.738C94.7087 165.289 94.9649 164.621 95.1171 163.732C95.2692 162.835 95.3453 161.714 95.3453 160.369C95.3453 159.032 95.2692 157.915 95.1171 157.019C94.9649 156.122 94.7087 155.449 94.3484 155.001C93.9962 154.544 93.5118 154.316 92.8953 154.316C92.2707 154.316 91.7823 154.544 91.4301 155.001C91.0778 155.449 90.8256 156.122 90.6734 157.019C90.5293 157.915 90.4573 159.032 90.4573 160.369ZM113.216 169.148H100.942V166.566L105.349 162.111C106.238 161.198 106.951 160.437 107.487 159.829C108.032 159.212 108.424 158.652 108.664 158.147C108.912 157.643 109.036 157.103 109.036 156.526C109.036 155.83 108.84 155.309 108.448 154.965C108.064 154.613 107.547 154.436 106.899 154.436C106.218 154.436 105.558 154.593 104.917 154.905C104.277 155.217 103.608 155.661 102.911 156.238L100.894 153.848C101.398 153.416 101.931 153.007 102.491 152.623C103.06 152.239 103.716 151.93 104.461 151.698C105.213 151.458 106.114 151.338 107.163 151.338C108.316 151.338 109.305 151.546 110.129 151.962C110.962 152.379 111.603 152.947 112.051 153.668C112.499 154.38 112.723 155.189 112.723 156.094C112.723 157.063 112.531 157.947 112.147 158.748C111.763 159.549 111.202 160.341 110.466 161.126C109.737 161.911 108.856 162.779 107.823 163.732L105.566 165.858V166.026H113.216V169.148ZM126.607 155.517C126.607 156.326 126.439 157.027 126.102 157.619C125.766 158.211 125.31 158.696 124.733 159.072C124.165 159.449 123.524 159.725 122.812 159.901V159.973C124.221 160.149 125.29 160.581 126.018 161.27C126.755 161.959 127.123 162.879 127.123 164.032C127.123 165.057 126.871 165.974 126.367 166.783C125.87 167.591 125.102 168.228 124.061 168.692C123.02 169.156 121.679 169.389 120.037 169.389C119.069 169.389 118.164 169.309 117.323 169.148C116.491 168.996 115.706 168.76 114.969 168.44V165.281C115.722 165.666 116.511 165.958 117.335 166.158C118.16 166.35 118.929 166.446 119.641 166.446C120.97 166.446 121.899 166.218 122.427 165.762C122.964 165.297 123.232 164.649 123.232 163.816C123.232 163.328 123.108 162.915 122.86 162.579C122.612 162.243 122.179 161.987 121.563 161.81C120.954 161.634 120.102 161.546 119.005 161.546H117.672V158.7H119.029C120.11 158.7 120.93 158.6 121.491 158.4C122.059 158.191 122.443 157.911 122.644 157.559C122.852 157.199 122.956 156.79 122.956 156.334C122.956 155.709 122.764 155.221 122.379 154.869C121.995 154.516 121.355 154.34 120.458 154.34C119.897 154.34 119.385 154.412 118.921 154.557C118.464 154.693 118.052 154.861 117.684 155.061C117.315 155.253 116.991 155.441 116.711 155.625L114.993 153.067C115.682 152.571 116.487 152.159 117.407 151.83C118.336 151.502 119.441 151.338 120.722 151.338C122.531 151.338 123.965 151.702 125.022 152.431C126.078 153.159 126.607 154.188 126.607 155.517Z" fill="#DADADA"/>
<path id="G2" d="M91.7263 17.5528H97.531V25.139C96.7637 25.3926 95.9664 25.5961 95.1391 25.7495C94.3117 25.8963 93.3743 25.9697 92.3268 25.9697C90.8722 25.9697 89.6379 25.6828 88.6237 25.109C87.6096 24.5352 86.8389 23.6878 86.3118 22.5669C85.7848 21.446 85.5212 20.0682 85.5212 18.4335C85.5212 16.8989 85.8148 15.5712 86.4019 14.4503C86.9957 13.3294 87.8598 12.462 88.994 11.8481C90.135 11.2343 91.5261 10.9274 93.1675 10.9274C93.9414 10.9274 94.7054 11.0108 95.4593 11.1776C96.2133 11.3444 96.8972 11.5612 97.511 11.8281L96.4802 14.3102C96.0331 14.0833 95.5227 13.8932 94.9489 13.7397C94.3751 13.5862 93.7746 13.5095 93.1474 13.5095C92.2467 13.5095 91.4627 13.7163 90.7955 14.13C90.135 14.5437 89.6212 15.1242 89.2543 15.8714C88.894 16.612 88.7138 17.4861 88.7138 18.4936C88.7138 19.4477 88.8439 20.2951 89.1041 21.0357C89.3643 21.7696 89.7747 22.3467 90.3351 22.7671C90.8956 23.1807 91.6262 23.3876 92.5269 23.3876C92.9673 23.3876 93.3376 23.3676 93.6378 23.3275C93.9448 23.2808 94.2317 23.2341 94.4985 23.1874V20.1349H91.7263V17.5528ZM110.231 25.7695H100.003V23.6178L103.676 19.9047C104.417 19.1441 105.01 18.5103 105.458 18.0032C105.911 17.4894 106.238 17.0224 106.438 16.602C106.645 16.1817 106.749 15.7313 106.749 15.2509C106.749 14.6705 106.585 14.2368 106.258 13.9499C105.938 13.6563 105.508 13.5095 104.967 13.5095C104.4 13.5095 103.85 13.6396 103.316 13.8998C102.782 14.16 102.225 14.5303 101.644 15.0107L99.963 13.0191C100.383 12.6588 100.827 12.3185 101.294 11.9983C101.768 11.678 102.315 11.4211 102.935 11.2276C103.563 11.0275 104.313 10.9274 105.187 10.9274C106.148 10.9274 106.972 11.1009 107.659 11.4478C108.353 11.7948 108.887 12.2685 109.261 12.869C109.634 13.4628 109.821 14.1367 109.821 14.8906C109.821 15.698 109.661 16.4352 109.341 17.1024C109.02 17.7697 108.553 18.4302 107.94 19.0841C107.332 19.7379 106.598 20.4619 105.738 21.2558L103.856 23.0273V23.1674H110.231V25.7695Z" fill="black"/>
<rect id="Rectangle 1010" x="19.8984" y="92.125" width="158.508" height="45.0929" rx="6.83225" fill="#A8FE3B"/>
<path id="Reliable" d="M48.3519 106.521C49.9492 106.521 51.2677 106.715 52.3072 107.104C53.3551 107.493 54.1327 108.084 54.6397 108.879C55.1553 109.673 55.413 110.683 55.413 111.909C55.413 112.821 55.244 113.599 54.906 114.241C54.5679 114.883 54.1242 115.416 53.5749 115.838C53.0255 116.261 52.4382 116.599 51.8128 116.853L57.0737 125.055H53.6383L49.1633 117.626H46.1842V125.055H43.1417V106.521H48.3519ZM48.1491 109.056H46.1842V115.116H48.2886C49.6999 115.116 50.7225 114.854 51.3564 114.33C51.9987 113.806 52.3199 113.033 52.3199 112.01C52.3199 110.937 51.9776 110.176 51.293 109.728C50.6169 109.28 49.5689 109.056 48.1491 109.056ZM70.2198 125.055H59.7232V106.521H70.2198V109.082H62.7657V114.114H69.7508V116.662H62.7657V122.481H70.2198V125.055ZM74.2258 125.055V106.521H77.2683V122.469H85.1407V125.055H74.2258ZM88.348 125.055V106.521H91.3905V125.055H88.348ZM107.769 125.055L105.956 119.908H98.8699L97.0571 125.055H93.8498L100.746 106.445H104.118L111.002 125.055H107.769ZM105.17 117.296L103.408 112.226C103.341 112.006 103.243 111.697 103.117 111.3C102.99 110.894 102.863 110.485 102.736 110.07C102.61 109.648 102.504 109.293 102.419 109.006C102.335 109.352 102.229 109.741 102.103 110.172C101.984 110.594 101.866 110.992 101.748 111.363C101.638 111.735 101.553 112.023 101.494 112.226L99.7193 117.296H105.17ZM113.449 106.521H118.963C121.355 106.521 123.159 106.867 124.376 107.56C125.593 108.253 126.202 109.449 126.202 111.148C126.202 111.858 126.075 112.5 125.821 113.075C125.576 113.641 125.217 114.11 124.744 114.482C124.27 114.845 123.687 115.091 122.994 115.217V115.344C123.713 115.471 124.351 115.695 124.909 116.016C125.475 116.337 125.918 116.798 126.24 117.398C126.569 117.998 126.734 118.775 126.734 119.73C126.734 120.863 126.464 121.826 125.923 122.621C125.39 123.415 124.625 124.019 123.628 124.434C122.639 124.848 121.465 125.055 120.104 125.055H113.449V106.521ZM116.491 114.165H119.407C120.784 114.165 121.739 113.941 122.272 113.493C122.804 113.045 123.07 112.39 123.07 111.528C123.07 110.649 122.753 110.016 122.12 109.627C121.494 109.238 120.497 109.044 119.128 109.044H116.491V114.165ZM116.491 116.624V122.507H119.698C121.118 122.507 122.115 122.232 122.69 121.683C123.265 121.133 123.552 120.39 123.552 119.451C123.552 118.877 123.421 118.378 123.159 117.956C122.906 117.533 122.487 117.208 121.904 116.979C121.321 116.743 120.535 116.624 119.546 116.624H116.491ZM130.562 125.055V106.521H133.605V122.469H141.477V125.055H130.562ZM155.181 125.055H144.685V106.521H155.181V109.082H147.727V114.114H154.712V116.662H147.727V122.481H155.181V125.055Z" fill="black"/>
</g>
</svg>
