<svg width="29" height="29" viewBox="0 0 29 29" fill="none" xmlns="http://www.w3.org/2000/svg">
<g id="wpf:bank-cards" clip-path="url(#clip0_2072_70801)">
<path id="Vector" d="M18.9332 0.850055C18.7183 0.858651 18.5109 0.897335 18.2948 0.951061L3.68446 4.50993C1.95623 4.9333 0.873723 6.6762 1.29666 8.40513L3.33743 16.7672C3.4611 17.2653 3.70235 17.7264 4.04096 18.1119C4.37957 18.4974 4.80569 18.796 5.28363 18.9829L5.28539 16.9681C5.28798 14.0056 7.70027 11.5954 10.6628 11.5954L24.1955 11.5954L22.188 3.30108C22.0104 2.58008 21.5896 1.94259 20.9965 1.4961C20.4034 1.04961 19.6743 0.821437 18.9321 0.850055H18.9332ZM20.2379 5.48454L21.1083 9.14441L17.481 10.0169L16.5773 6.39037L20.2379 5.48454ZM10.6609 13.7445C8.88146 13.7445 7.43602 15.1887 7.43447 16.9681L7.42697 25.5644C7.42541 27.3439 8.86833 28.788 10.6478 28.788H25.6913C27.4707 28.788 28.9162 27.3439 28.9177 25.5644L28.9252 16.9681C28.9268 15.1887 27.4839 13.7445 25.7044 13.7445L10.6609 13.7445ZM10.6594 15.4573L25.7029 15.4573C26.5314 15.4573 27.2131 16.1397 27.2124 16.9681L27.2115 18.0427H9.14635L9.14728 16.9681C9.14801 16.1397 9.83093 15.4573 10.6594 15.4573ZM9.14353 21.2663H27.2087L27.2049 25.5644C27.2042 26.3929 26.5213 27.0752 25.6928 27.0752H10.6493C10.2493 27.073 9.86644 26.9131 9.58385 26.6302C9.30125 26.3474 9.14169 25.9644 9.13978 25.5644L9.14353 21.2663Z" fill="white"/>
</g>
<defs>
<clipPath id="clip0_2072_70801">
<rect width="27.938" height="27.938" fill="white" transform="matrix(1 0 -0.000872669 1 1.00391 0.851562)"/>
</clipPath>
</defs>
</svg>
