<svg width="23" height="23" viewBox="0 0 23 23" fill="none" xmlns="http://www.w3.org/2000/svg">
<g id="navigation 1" clip-path="url(#clip0_2088_71263)">
<g id="Navigation">
<path id="Vector" d="M21.382 2.69644L13.3673 20.1831C13.3002 20.3296 13.1865 20.4497 13.0439 20.5247C12.9013 20.5996 12.7379 20.6252 12.5792 20.5975C12.4205 20.5697 12.2755 20.4901 12.1668 20.3712C12.0582 20.2522 11.992 20.1006 11.9787 19.9401L11.3011 11.8112L3.1722 11.1336C3.01165 11.1203 2.86005 11.0541 2.74111 10.9454C2.62216 10.8368 2.54258 10.6918 2.51481 10.5331C2.48704 10.3744 2.51265 10.211 2.58763 10.0684C2.66261 9.9258 2.78273 9.81208 2.92921 9.74501L20.4158 1.73031C20.551 1.66835 20.7019 1.64925 20.8483 1.67555C20.9946 1.70186 21.1294 1.77232 21.2346 1.87747C21.3397 1.98262 21.4102 2.11742 21.4365 2.26378C21.4628 2.41014 21.4437 2.56104 21.3818 2.69623L21.382 2.69644Z" fill="#A8FE3B"/>
</g>
</g>
<defs>
<clipPath id="clip0_2088_71263">
<rect width="23.3155" height="23.3155" fill="white" transform="translate(0.316406 -0.519531)"/>
</clipPath>
</defs>
</svg>
