<svg width="111" height="308" viewBox="0 0 111 308" fill="none" xmlns="http://www.w3.org/2000/svg">
<g id="Group 1261156675">
<path id="Decore" d="M8.27743 20.4283C16.4691 10.5001 37.1823 -4.76457 54.5019 13.6026C71.8214 31.9699 48.4556 66.3463 34.6078 81.2387C27.7814 85.3754 13.5435 92.4079 11.203 87.4438C8.27742 81.2387 6.52207 68.2079 30.512 57.0386C45.9201 50.4198 79.1939 43.3873 89.0239 68.2079C93.5099 78.9635 94.29 103.949 61.5233 117.849L20.5649 135.844M20.5649 135.844C4.96175 136.469 -17.4678 129.029 17.6393 94.2695C28.7566 88.8917 55.6722 78.012 74.396 77.5156C85.1232 79.7908 105.758 91.0428 102.482 117.849C102.872 123.227 95.5773 136.589 63.2787 147.013C55.8672 148.668 39.2888 152.101 32.2674 152.598L7.10726 156.321L20.5649 135.844ZM20.5649 135.844C30.8033 132.948 54.9671 128.025 69.7151 131.5C88.15 135.844 95.4603 132.121 110.088 156.321C112.624 168.731 110.79 194.172 83.1728 196.654C55.5552 199.136 37.7285 194.379 32.2674 191.69V168.731M32.2674 168.731C52.3565 170.593 95.4603 169.228 107.163 148.875C112.819 134.396 113.248 104.818 69.7151 102.336C59.1829 102.75 36.7143 104.074 31.0972 106.059L32.2674 150.116C52.7466 151.977 95.8114 160.789 104.237 181.141C108.723 192.931 110.205 217.752 80.2472 222.716C69.13 223.13 43.9698 221.599 32.2674 212.167M32.2674 168.731V212.167M32.2674 168.731C44.945 171.834 72.8747 180.397 83.1728 189.829C95.6554 200.171 113.95 225.818 87.2686 245.675C78.8819 248.777 56.6083 251.26 34.6078 236.367M32.2674 212.167L34.6078 236.367M32.2674 212.167C46.3103 222.095 74.9811 246.171 77.3216 263.049C78.2968 273.391 75.6833 294.944 57.4275 298.419C52.7466 299.246 41.1612 299.163 32.2674 292.213L34.6078 236.367" stroke="#A8FE3B" stroke-width="1.16578"/>
</g>
</svg>
