<svg width="259" height="85" viewBox="0 0 259 85" fill="none" xmlns="http://www.w3.org/2000/svg">
<g id="Icon">
<g id="Icon_2">
<path id="Vector" d="M17.8192 29.6547C17.8233 29.975 17.7632 30.2929 17.6423 30.5896C17.5215 30.8863 17.3424 31.1559 17.1157 31.3824C16.8889 31.6089 16.6191 31.7877 16.322 31.9084C16.025 32.0291 15.7067 32.0892 15.3861 32.0851H2.00358C1.55156 32.0815 1.10903 31.9551 0.723311 31.7197C0.337593 31.4843 0.0231906 31.1485 -0.186277 30.7484C-0.38106 30.3409 -0.461309 29.8883 -0.418452 29.4388C-0.375594 28.9893 -0.211241 28.5599 0.0570411 28.1965C2.21036 25.3092 5.08372 23.0362 8.39067 21.604C6.96968 20.3047 5.87789 18.6869 5.20518 16.8838C4.53247 15.0807 4.29807 13.1437 4.52126 11.2324C4.74445 9.32113 5.41886 7.4901 6.48898 5.89003C7.5591 4.28996 8.99432 2.9666 10.6765 2.02887C12.3588 1.09114 14.2399 0.565855 16.1651 0.496238C18.0903 0.426621 20.0045 0.814666 21.7502 1.62844C23.4959 2.44221 25.0232 3.65844 26.2063 5.17703C27.3895 6.69562 28.1947 8.47315 28.5556 10.3633C28.6456 10.8556 28.5832 11.3636 28.3767 11.8196C28.1702 12.2755 27.8294 12.6577 27.3999 12.9153C23.4661 15.2453 20.4743 18.8787 18.9446 23.1837C18.1905 25.2576 17.8095 27.4483 17.8192 29.6547ZM74.5123 28.1965C72.3589 25.3092 69.4856 23.0362 66.1786 21.604C67.5996 20.3047 68.6914 18.6869 69.3641 16.8838C70.0368 15.0807 70.2712 13.1437 70.048 11.2324C69.8249 9.32113 69.1504 7.4901 68.0803 5.89003C67.0102 4.28996 65.575 2.9666 63.8927 2.02887C62.2105 1.09114 60.3294 0.565855 58.4042 0.496238C56.479 0.426621 54.5648 0.814666 52.8191 1.62844C51.0734 2.44221 49.5461 3.65844 48.363 5.17703C47.1798 6.69562 46.3746 8.47315 46.0137 10.3633C45.9237 10.8556 45.9861 11.3636 46.1926 11.8196C46.3991 12.2755 46.7398 12.6577 47.1694 12.9153C51.1083 15.2393 54.1019 18.8748 55.6247 23.1837C56.3788 25.2576 56.7598 27.4483 56.7501 29.6547C56.746 29.975 56.8061 30.2929 56.927 30.5896C57.0478 30.8863 57.2269 31.1559 57.4536 31.3824C57.6804 31.6089 57.9502 31.7877 58.2473 31.9084C58.5443 32.0291 58.8626 32.0892 59.1832 32.0851H72.5657C73.0176 32.0851 73.4605 31.9594 73.8449 31.7221C74.2293 31.4848 74.5399 31.1453 74.742 30.7416C74.9441 30.3379 75.0296 29.886 74.9891 29.4364C74.9485 28.9869 74.7834 28.5575 74.5123 28.1965ZM46.1657 41.2295C48.5873 39.3756 50.3665 36.8104 51.2534 33.8944C52.1402 30.9784 52.0902 27.8582 51.1102 24.972C50.1303 22.0859 48.2697 19.579 45.7899 17.8035C43.3101 16.0281 40.3357 15.0732 37.2846 15.0732C34.2336 15.0732 31.2592 16.0281 28.7794 17.8035C26.2996 19.579 24.439 22.0859 23.4591 24.972C22.4791 27.8582 22.4291 30.9784 23.3159 33.8944C24.2028 36.8104 25.982 39.3756 28.4035 41.2295C23.6726 43.3275 19.8372 47.0294 17.5759 51.6803C17.396 52.0499 17.3154 52.4599 17.3421 52.87C17.3687 53.2801 17.5017 53.6763 17.728 54.0196C17.9386 54.3717 18.2371 54.6632 18.5943 54.8656C18.9515 55.0679 19.3551 55.1742 19.7658 55.174H54.8035C55.2142 55.1742 55.6178 55.0679 55.975 54.8656C56.3322 54.6632 56.6307 54.3717 56.8413 54.0196C57.0676 53.6763 57.2006 53.2801 57.2272 52.87C57.2539 52.4599 57.1733 52.0499 56.9934 51.6803C54.7321 47.0294 50.8967 43.3275 46.1657 41.2295Z" fill="#A8FE3B"/>
<path id="Vector_2" d="M17.8192 29.6547C17.8233 29.975 17.7632 30.2929 17.6423 30.5896C17.5215 30.8863 17.3424 31.1558 17.1157 31.3824C16.8889 31.6089 16.6191 31.7877 16.322 31.9084C16.025 32.0291 15.7067 32.0892 15.3861 32.0851H2.00359C1.55156 32.0814 1.10903 31.9551 0.723313 31.7197C0.337595 31.4842 0.0231942 31.1485 -0.186273 30.7484C-0.381056 30.3409 -0.46131 29.8882 -0.418452 29.4388C-0.375595 28.9893 -0.211238 28.5599 0.0570445 28.1965C2.21037 25.3092 5.08372 23.0362 8.39067 21.604C6.96968 20.3047 5.8779 18.6869 5.20519 16.8838C4.53248 15.0807 4.29807 13.1437 4.52126 11.2324C4.74445 9.32113 5.41886 7.4901 6.48898 5.89003C7.5591 4.28996 8.99433 2.9666 10.6765 2.02887C12.3588 1.09114 14.2399 0.565855 16.1651 0.496238C18.0903 0.426621 20.0045 0.814667 21.7502 1.62844C23.4959 2.44221 25.0232 3.65844 26.2063 5.17703C27.3895 6.69562 28.1947 8.47315 28.5556 10.3633C28.6456 10.8556 28.5832 11.3636 28.3767 11.8196C28.1702 12.2755 27.8294 12.6577 27.3999 12.9153C23.4661 15.2453 20.4743 18.8787 18.9446 23.1837C18.1905 25.2576 17.8095 27.4483 17.8192 29.6547Z" fill="#FFB545"/>
</g>
<g id="Rectangle 1017" filter="url(#filter0_b_2072_71427)">
<rect x="34.457" y="33.4883" width="220.629" height="44.3143" rx="9.42857" fill="#EDEDFF" fill-opacity="0.5"/>
<rect x="34.9285" y="33.9597" width="219.686" height="43.3714" rx="8.95714" stroke="#EAEAF7" stroke-width="0.942857" style="mix-blend-mode:multiply"/>
</g>
</g>
<defs>
<filter id="filter0_b_2072_71427" x="25.0285" y="24.0597" width="239.486" height="63.1696" filterUnits="userSpaceOnUse" color-interpolation-filters="sRGB">
<feFlood flood-opacity="0" result="BackgroundImageFix"/>
<feGaussianBlur in="BackgroundImageFix" stdDeviation="4.71429"/>
<feComposite in2="SourceAlpha" operator="in" result="effect1_backgroundBlur_2072_71427"/>
<feBlend mode="normal" in="SourceGraphic" in2="effect1_backgroundBlur_2072_71427" result="shape"/>
</filter>
</defs>
</svg>
