<svg width="867" height="386" viewBox="0 0 867 386" fill="none" xmlns="http://www.w3.org/2000/svg">
<g id="Group 1261156669">
<g id="Group 1261156668">
<g id="Image">
<g id="Mask group">
<mask id="mask0_2072_72240" style="mask-type:alpha" maskUnits="userSpaceOnUse" x="0" y="0" width="868" height="386">
<rect id="Rectangle 1019" width="867.429" height="385.629" rx="28.2857" fill="#F8F8F8"/>
</mask>
<g mask="url(#mask0_2072_72240)">
<path id="Vector" d="M595.938 43.5198L600.008 58.7086M590.379 53.1491L605.567 49.0793" stroke="#A8FE3B" stroke-width="1.88571" stroke-linecap="round"/>
<path id="Rectangle 1018" d="M755.229 348.855C668.789 348.855 598.715 278.782 598.715 192.341C598.715 105.901 668.789 35.8269 755.229 35.8269L826.886 35.8269C913.327 35.8269 983.401 105.901 983.401 192.341C983.401 278.782 913.327 348.855 826.886 348.855L755.229 348.855Z" fill="#989898"/>
</g>
</g>
<path id="Vector 221" d="M763.4 182.443C763.4 185.22 765.651 187.471 768.428 187.471C771.206 187.471 773.457 185.22 773.457 182.443C773.457 179.665 771.206 177.414 768.428 177.414C765.651 177.414 763.4 179.665 763.4 182.443ZM722.695 53.0804L722.452 53.9912L722.695 53.0804ZM710.439 337.111L710.145 338.007L710.439 337.111ZM545.914 84.8569L555.685 89.6579L554.958 78.7951L545.914 84.8569ZM557.245 85.3967C559.741 85.4235 562.244 85.5253 564.754 85.6996L564.884 83.8185C562.339 83.6417 559.799 83.5383 557.265 83.5111L557.245 85.3967ZM572.235 86.4297C574.714 86.7403 577.197 87.1186 579.683 87.5623L580.014 85.7059C577.497 85.2566 574.982 84.8734 572.47 84.5586L572.235 86.4297ZM587.045 89.0638C589.486 89.623 591.928 90.2428 594.37 90.921L594.875 89.104C592.406 88.4184 589.936 87.7915 587.466 87.2257L587.045 89.0638ZM601.558 93.0837C603.948 93.8581 606.337 94.6863 608.724 95.5662L609.376 93.797C606.967 92.9086 604.554 92.0721 602.139 91.2897L601.558 93.0837ZM615.706 98.2903C618.029 99.2463 620.349 100.25 622.663 101.298L623.441 99.5804C621.108 98.5231 618.768 97.511 616.423 96.5464L615.706 98.2903ZM629.456 104.512C631.705 105.621 633.948 106.771 636.184 107.961L637.07 106.296C634.818 105.098 632.557 103.939 630.29 102.821L629.456 104.512ZM642.795 111.605C644.97 112.846 647.136 114.122 649.294 115.433L650.273 113.821C648.101 112.502 645.919 111.217 643.729 109.967L642.795 111.605ZM655.716 119.452C657.819 120.807 659.912 122.194 661.994 123.61L663.055 122.051C660.96 120.626 658.854 119.231 656.737 117.867L655.716 119.452ZM668.206 127.947C670.246 129.407 672.273 130.894 674.288 132.408L675.42 130.9C673.395 129.378 671.355 127.882 669.304 126.413L668.206 127.947ZM680.28 137.016C682.259 138.572 684.223 140.153 686.173 141.756L687.371 140.299C685.411 138.688 683.435 137.099 681.446 135.534L680.28 137.016ZM691.958 146.613C693.871 148.253 695.768 149.914 697.649 151.594L698.905 150.187C697.015 148.499 695.108 146.83 693.186 145.182L691.958 146.613ZM703.238 156.687C705.083 158.403 706.911 160.136 708.721 161.885L710.031 160.529C708.213 158.772 706.376 157.03 704.522 155.306L703.238 156.687ZM714.11 167.196C715.892 168.985 717.653 170.789 719.394 172.605L720.755 171.3C719.007 169.475 717.237 167.663 715.447 165.865L714.11 167.196ZM724.565 178.103C726.284 179.966 727.98 181.841 729.654 183.724L731.063 182.472C729.382 180.579 727.678 178.696 725.951 176.825L724.565 178.103ZM734.601 189.402C736.253 191.334 737.879 193.274 739.479 195.22L740.936 194.023C739.328 192.067 737.694 190.118 736.035 188.177L734.601 189.402ZM744.214 201.095C745.786 203.086 747.33 205.081 748.844 207.079L750.347 205.94C748.825 203.932 747.273 201.927 745.693 199.926L744.214 201.095ZM753.354 213.158C754.839 215.204 756.292 217.25 757.712 219.295L759.261 218.219C757.834 216.163 756.373 214.106 754.88 212.05L753.354 213.158ZM761.978 225.588C763.367 227.688 764.72 229.784 766.034 231.875L767.631 230.872C766.308 228.768 764.948 226.659 763.55 224.547L761.978 225.588ZM770.019 238.39C771.305 240.554 772.548 242.709 773.747 244.853L775.393 243.932C774.186 241.774 772.934 239.605 771.64 237.427L770.019 238.39ZM777.385 251.583C778.549 253.816 779.662 256.033 780.723 258.232L782.421 257.413C781.352 255.196 780.23 252.961 779.057 250.711L777.385 251.583ZM783.928 265.188C784.946 267.508 785.901 269.802 786.79 272.068L788.545 271.379C787.647 269.089 786.682 266.772 785.655 264.43L783.928 265.188ZM789.412 279.22C790.238 281.652 790.981 284.043 791.639 286.39L793.454 285.881C792.787 283.5 792.034 281.076 791.197 278.613L789.412 279.22ZM793.427 293.641C793.967 296.2 794.393 298.692 794.699 301.111L796.569 300.874C796.256 298.4 795.822 295.857 795.272 293.252L793.427 293.641ZM795.266 308.54C795.322 311.105 795.219 313.563 794.952 315.904L796.825 316.118C797.103 313.684 797.209 311.14 797.151 308.498L795.266 308.54ZM793.476 323.161C792.734 325.59 791.759 327.843 790.545 329.906L792.17 330.863C793.466 328.662 794.498 326.271 795.279 323.712L793.476 323.161ZM786.048 335.632C784.356 337.27 782.416 338.717 780.214 339.956L781.138 341.6C783.476 340.284 785.548 338.741 787.36 336.987L786.048 335.632ZM773.5 342.822C771.272 343.521 768.855 344.067 766.242 344.448L766.514 346.314C769.217 345.92 771.733 345.353 774.065 344.622L773.5 342.822ZM758.716 345.071C756.407 345.131 753.977 345.086 751.423 344.93L751.308 346.812C753.912 346.971 756.397 347.017 758.765 346.956L758.716 345.071ZM743.706 344.172C741.408 343.866 739.025 343.482 736.555 343.019L736.207 344.872C738.708 345.341 741.124 345.73 743.457 346.041L743.706 344.172ZM728.884 341.385C726.619 340.848 724.289 340.25 721.894 339.59L721.394 341.408C723.809 342.074 726.161 342.677 728.449 343.22L728.884 341.385ZM714.551 337.434C713.294 337.044 712.021 336.637 710.732 336.215L710.145 338.007C711.443 338.432 712.725 338.841 713.991 339.235L714.551 337.434ZM710.732 336.215C709.49 335.808 708.26 335.394 707.041 334.974L706.427 336.757C707.654 337.18 708.894 337.597 710.145 338.007L710.732 336.215ZM699.87 332.377C697.527 331.486 695.229 330.571 692.978 329.631L692.252 331.371C694.522 332.319 696.838 333.242 699.2 334.14L699.87 332.377ZM685.931 326.542C683.623 325.481 681.368 324.394 679.163 323.281L678.313 324.964C680.539 326.088 682.815 327.185 685.143 328.255L685.931 326.542ZM672.475 319.739C670.236 318.497 668.054 317.226 665.929 315.928L664.946 317.538C667.094 318.849 669.299 320.133 671.56 321.388L672.475 319.739ZM659.611 311.883C657.477 310.45 655.405 308.988 653.395 307.499L652.272 309.015C654.307 310.521 656.402 312 658.56 313.449L659.611 311.883ZM647.49 302.907C645.501 301.281 643.577 299.626 641.72 297.945L640.454 299.343C642.336 301.046 644.283 302.721 646.297 304.367L647.49 302.907ZM636.301 292.779C634.495 290.965 632.758 289.123 631.091 287.255L629.684 288.51C631.375 290.404 633.134 292.271 634.965 294.11L636.301 292.779ZM626.249 281.52C624.661 279.529 623.145 277.512 621.701 275.472L620.162 276.562C621.627 278.631 623.164 280.677 624.775 282.696L626.249 281.52ZM617.53 269.206C616.189 267.058 614.92 264.887 613.724 262.696L612.069 263.599C613.283 265.823 614.57 268.026 615.931 270.205L617.53 269.206ZM610.304 255.971C609.228 253.691 608.225 251.391 607.292 249.076L605.543 249.78C606.489 252.129 607.507 254.462 608.599 256.776L610.304 255.971ZM604.676 241.986C603.873 239.6 603.141 237.198 602.479 234.785L600.661 235.284C601.332 237.731 602.074 240.167 602.888 242.588L604.676 241.986ZM600.688 227.447C600.159 224.984 599.7 222.511 599.308 220.032L597.445 220.327C597.842 222.839 598.308 225.346 598.844 227.843L600.688 227.447ZM598.33 212.549C598.07 210.043 597.876 207.533 597.747 205.021L595.864 205.118C595.995 207.662 596.191 210.205 596.454 212.744L598.33 212.549ZM597.55 197.477C597.548 194.957 597.608 192.438 597.729 189.923L595.845 189.833C595.723 192.378 595.662 194.927 595.664 197.479L597.55 197.477ZM598.273 182.39C598.514 179.882 598.814 177.38 599.171 174.889L597.305 174.622C596.943 177.141 596.64 179.672 596.396 182.21L598.273 182.39ZM600.414 167.433C600.884 164.958 601.41 162.495 601.989 160.048L600.154 159.614C599.569 162.088 599.037 164.578 598.561 167.081L600.414 167.433ZM603.892 152.726C604.58 150.298 605.32 147.889 606.109 145.503L604.319 144.911C603.521 147.323 602.774 149.758 602.078 152.212L603.892 152.726ZM608.637 138.378C609.534 136.013 610.479 133.674 611.47 131.364L609.737 130.62C608.735 132.955 607.78 135.319 606.874 137.71L608.637 138.378ZM614.592 124.499C615.691 122.212 616.836 119.959 618.024 117.742L616.362 116.852C615.161 119.093 614.004 121.37 612.892 123.681L614.592 124.499ZM621.738 111.164C623.032 108.989 624.367 106.854 625.741 104.763L624.166 103.727C622.775 105.842 621.425 108.001 620.117 110.201L621.738 111.164ZM630.048 98.5348C631.536 96.4879 633.064 94.491 634.627 92.5479L633.158 91.3658C631.575 93.3333 630.029 95.3545 628.523 97.4259L630.048 98.5348ZM639.513 86.7822C641.207 84.885 642.937 83.0496 644.699 81.2799L643.363 79.9491C641.576 81.7436 639.823 83.604 638.106 85.5262L639.513 86.7822ZM650.16 76.1038C652.055 74.4099 653.982 72.7912 655.938 71.2521L654.772 69.7702C652.784 71.3343 650.827 72.9784 648.903 74.6978L650.16 76.1038ZM662.026 66.7846C664.12 65.3564 666.242 64.0196 668.387 62.779L667.443 61.1466C665.256 62.4113 663.095 63.7731 660.963 65.2267L662.026 66.7846ZM675.021 59.2882C677.316 58.1989 679.632 57.2211 681.966 56.3603L681.313 54.5911C678.925 55.4722 676.556 56.4721 674.212 57.5846L675.021 59.2882ZM689.124 54.1055C691.556 53.4705 694.001 52.9653 696.455 52.5959L696.175 50.7311C693.652 51.1108 691.142 51.6297 688.648 52.281L689.124 54.1055ZM703.906 51.8988C706.397 51.8088 708.892 51.8633 711.388 52.0687L711.543 50.1893C708.971 49.9777 706.401 49.9216 703.838 50.0143L703.906 51.8988ZM718.776 53.1241C720.002 53.3748 721.228 53.6636 722.452 53.9912L722.939 52.1696C721.679 51.8322 720.417 51.5348 719.154 51.2766L718.776 53.1241ZM722.452 53.9912C723.665 54.3161 724.856 54.6513 726.023 54.9967L726.558 53.1884C725.375 52.8383 724.168 52.4986 722.939 52.1696L722.452 53.9912ZM732.948 57.2564C735.309 58.1038 737.563 58.9972 739.714 59.9337L740.467 58.2047C738.276 57.251 735.983 56.3424 733.585 55.4816L732.948 57.2564ZM746.261 63.0787C748.47 64.2481 750.552 65.4695 752.511 66.7387L753.536 65.1559C751.529 63.8556 749.4 62.6064 747.144 61.4121L746.261 63.0787ZM758.376 70.9591C760.323 72.5178 762.122 74.133 763.779 75.7986L765.116 74.4683C763.407 72.7514 761.556 71.0889 759.554 69.4868L758.376 70.9591ZM768.551 81.2084C770.058 83.1459 771.409 85.1375 772.614 87.1752L774.237 86.2152C772.992 84.1094 771.596 82.0516 770.039 80.0505L768.551 81.2084ZM775.887 93.6065C776.848 95.8312 777.664 98.0989 778.347 100.401L780.155 99.8648C779.451 97.4938 778.61 95.1551 777.618 92.8584L775.887 93.6065ZM780.015 107.442C780.445 109.816 780.753 112.215 780.953 114.63L782.832 114.475C782.628 112.003 782.312 109.543 781.871 107.106L780.015 107.442ZM781.239 121.889C781.235 124.308 781.136 126.734 780.956 129.157L782.837 129.297C783.02 126.831 783.12 124.36 783.124 121.892L781.239 121.889ZM780.186 136.402C779.855 138.816 779.455 141.218 778.999 143.6L780.851 143.954C781.313 141.543 781.719 139.108 782.054 136.658L780.186 136.402ZM777.459 150.738C776.888 153.131 776.271 155.492 775.622 157.81L777.438 158.318C778.093 155.979 778.716 153.595 779.294 151.176L777.459 150.738ZM773.533 164.828C772.784 167.21 772.016 169.531 771.245 171.779L773.029 172.39C773.804 170.13 774.577 167.793 775.332 165.393L773.533 164.828ZM768.805 178.676C768.378 179.851 767.957 180.998 767.544 182.116L769.313 182.769C769.727 181.65 770.149 180.499 770.577 179.32L768.805 178.676Z" fill="#A8FE3B"/>
<circle id="Ellipse 200" cx="736.843" cy="189.042" r="58.9286" fill="#666464" fill-opacity="0.42"/>
<g id="Twitter">
<circle id="Ellipse 201" cx="670.842" cy="60.8143" r="27.8143" fill="#65C8FF"/>
</g>
<circle id="Ellipse 205" cx="5.18571" cy="5.18571" r="5.18571" transform="matrix(-1 0 0 1 583.629 323.398)" fill="#525252"/>
<circle id="Ellipse 206" cx="556.759" cy="308.786" r="14.6143" fill="#E6EFF1"/>
<g id="Logo">
<rect id="Rectangle 487" x="698.66" y="149.914" width="76.3714" height="76.3714" rx="38.1857" fill="#6B6B6B"/>
<g id="Slack" filter="url(#filter0_b_2072_72240)">
<circle id="Ellipse 204" cx="670.846" cy="317.271" r="27.8143" fill="#DDDDDD" fill-opacity="0.5"/>
</g>
</g>
<g id="Facebook" filter="url(#filter1_b_2072_72240)">
<circle id="Ellipse 203" cx="606.728" cy="232.416" r="27.8143" fill="#DDDDDD" fill-opacity="0.5"/>
</g>
<g id="Shopyfy" filter="url(#filter2_b_2072_72240)">
<circle id="Ellipse 202" cx="606.728" cy="137.185" r="27.8143" fill="#DDDDDD" fill-opacity="0.5"/>
</g>
<g id="More">
<g id="Rectangle 1017" filter="url(#filter3_b_2072_72240)">
<rect x="443.988" y="81.0391" width="90.2157" height="44.3143" rx="9.42857" transform="rotate(-10.7897 443.988 81.0391)" fill="#A8FE3B"/>
<rect x="444.54" y="81.4139" width="89.2728" height="43.3714" rx="8.95714" transform="rotate(-10.7897 444.54 81.4139)" stroke="#ECECEC" stroke-width="0.942857" style="mix-blend-mode:multiply"/>
</g>
<path id="More_2" d="M488.85 100.018L483.529 90.7321L483.456 90.746C483.515 90.9654 483.592 91.2657 483.687 91.6469C483.782 92.0281 483.879 92.4369 483.979 92.8734C484.079 93.3098 484.168 93.7289 484.244 94.1305L485.488 100.659L483.714 100.997L481.446 89.096L484.189 88.5732L489.296 97.4447L489.345 97.4354L490.946 87.2856L493.681 86.7644L495.949 98.6655L494.085 99.0208L492.822 92.3946C492.753 92.031 492.683 91.6365 492.613 91.2111C492.549 90.7847 492.489 90.38 492.432 89.997C492.382 89.613 492.34 89.306 492.308 89.076L492.242 89.0884L490.576 99.6894L488.85 100.018ZM506.002 92.0592C506.145 92.8081 506.174 93.4915 506.089 94.1094C506.005 94.7273 505.813 95.2727 505.516 95.7457C505.217 96.2132 504.824 96.603 504.338 96.9149C503.851 97.2215 503.276 97.4378 502.614 97.564C501.996 97.6819 501.409 97.6869 500.854 97.5789C500.298 97.4655 499.792 97.2469 499.337 96.9232C498.886 96.5929 498.502 96.1571 498.185 95.6158C497.868 95.0744 497.639 94.4292 497.496 93.6803C497.307 92.6872 497.317 91.8135 497.528 91.0591C497.743 90.2983 498.136 89.675 498.707 89.1894C499.278 88.7037 500.006 88.3766 500.89 88.2081C501.721 88.0498 502.488 88.092 503.192 88.3346C503.896 88.5772 504.494 89.0117 504.984 89.6381C505.475 90.2644 505.814 91.0715 506.002 92.0592ZM499.466 93.3049C499.591 93.9616 499.777 94.5082 500.023 94.945C500.275 95.3806 500.593 95.6912 500.977 95.8768C501.36 96.0568 501.817 96.0962 502.349 95.9949C502.881 95.8935 503.292 95.6887 503.582 95.3803C503.87 95.0666 504.049 94.6613 504.118 94.1646C504.186 93.6679 504.158 93.0913 504.032 92.4346C503.907 91.7779 503.723 91.2367 503.478 90.8108C503.233 90.3795 502.919 90.0766 502.537 89.9019C502.154 89.7218 501.694 89.683 501.157 89.7853C500.365 89.9363 499.837 90.3124 499.575 90.9135C499.313 91.5147 499.276 92.3118 499.466 93.3049ZM511.88 86.1137C512.032 86.0848 512.199 86.0614 512.381 86.0435C512.563 86.0257 512.722 86.0179 512.857 86.0202L513.019 87.8452C512.899 87.8344 512.754 87.8369 512.582 87.8526C512.416 87.8674 512.268 87.8872 512.138 87.912C511.796 87.9771 511.481 88.0962 511.194 88.2691C510.905 88.4366 510.663 88.6571 510.468 88.9305C510.271 89.1985 510.137 89.5137 510.066 89.876C509.994 90.2383 510.001 90.642 510.086 91.087L510.984 95.8002L509.063 96.1663L507.346 87.155L508.843 86.8695L509.406 88.4073L509.496 88.3902C509.614 88.0359 509.781 87.7004 509.996 87.3838C510.211 87.0672 510.475 86.7977 510.787 86.5751C511.103 86.3461 511.467 86.1923 511.88 86.1137ZM518.099 84.9285C518.902 84.7755 519.623 84.8096 520.261 85.031C520.899 85.2525 521.431 85.6376 521.856 86.1865C522.282 86.7353 522.575 87.433 522.736 88.2796L522.932 89.3053L516.916 90.4518C517.104 91.3213 517.466 91.9498 518.001 92.3371C518.541 92.7234 519.216 92.8395 520.024 92.6854C520.599 92.5758 521.105 92.4233 521.54 92.2279C521.979 92.026 522.423 91.77 522.87 91.4598L523.166 93.0146C522.756 93.3121 522.327 93.5542 521.879 93.7408C521.431 93.9274 520.881 94.0828 520.23 94.2069C519.345 94.3755 518.534 94.353 517.796 94.1393C517.062 93.9192 516.44 93.5034 515.93 92.8921C515.425 92.2796 515.076 91.466 514.883 90.4512C514.69 89.4418 514.698 88.5517 514.905 87.7811C515.113 87.0104 515.491 86.3817 516.039 85.8947C516.587 85.4078 517.274 85.0857 518.099 84.9285ZM518.373 86.3694C517.771 86.4842 517.32 86.7726 517.02 87.2347C516.725 87.6958 516.617 88.3097 516.696 89.0764L520.799 88.2945C520.707 87.8452 520.555 87.4608 520.343 87.1414C520.135 86.8209 519.867 86.591 519.536 86.4514C519.212 86.3109 518.824 86.2835 518.373 86.3694Z" fill="black"/>
<circle id="Ellipse 207" cx="471.082" cy="98.2616" r="8.48571" transform="rotate(4.21027 471.082 98.2616)" fill="#5ABF64"/>
<path id="Vector_2" d="M470.412 94.6078L471.822 102.003M467.42 99.0101L474.815 97.6007" stroke="white" stroke-width="1.88571" stroke-linecap="round"/>
</g>
</g>
<g id="203-CZE 1">
<path id="Vector_3" d="M717 175.668H757V202.334H717V175.668Z" fill="#0052B4"/>
<path id="Vector_4" d="M757 189V202.333H717L733.811 189H757Z" fill="#D80027"/>
<path id="Vector_5" d="M757 175.668V189.001H733.811L717 175.668H757Z" fill="#F0F0F0"/>
</g>
<g id="&#233;&#133;&#146;&#229;&#186;&#151; 1" clip-path="url(#clip0_2072_72240)">
<path id="Vector_6" d="M684.125 76H656V74.125H657.875V60.0625C657.875 58.4688 659.094 57.25 660.688 57.25H671.938C673.531 57.25 674.75 58.4688 674.75 60.0625V74.125H675.688V59.125C675.688 57.5312 674.469 56.3125 672.875 56.3125H667.25V48.8125C667.25 47.2188 668.469 46 670.062 46H681.312C682.906 46 684.125 47.2188 684.125 48.8125V74.125H686V76H684.125ZM665.375 61H661.625V62.875H665.375V61ZM665.375 64.75H661.625V66.625H665.375V64.75ZM665.375 68.5H661.625V70.375H665.375V68.5ZM671 61H667.25V62.875H671V61ZM671 64.75H667.25V66.625H671V64.75ZM671 68.5H667.25V70.375H671V68.5ZM674.75 49.75H671V51.625H674.75V49.75ZM674.75 53.5H671V55.375H674.75V53.5ZM680.375 49.75H676.625V51.625H680.375V49.75ZM680.375 53.5H676.625V55.375H680.375V53.5Z" fill="white"/>
</g>
<g id="&#233;&#163;&#158;&#232;&#161;&#140; &#230;&#151;&#133;&#230;&#184;&#184; &#229;&#135;&#186;&#229;&#183;&#174; &#233;&#163;&#158;&#230;&#156;&#186; 800 1">
<path id="Vector_7" d="M616.512 139.055C615.243 139.439 602.344 143.171 602.344 143.171C602.344 143.171 598.772 144.366 596.13 141.144L599.063 139.925C599.572 140.098 600.047 140.083 600.677 139.881L604.011 139.055L599.01 131.649C599.01 131.649 597.996 130.04 601.509 130.825C601.509 130.825 607.863 135.692 609.009 136.585C609.009 136.585 609.595 136.919 610.676 136.585L615.677 134.939C615.677 134.939 619.063 133.904 619.843 135.762C620.663 137.71 617.777 138.671 616.512 139.055ZM595.567 140.549C594.261 139.09 594.012 138.232 594.012 138.232C594.012 138.232 594.281 136.447 596.511 138.232C597.161 138.753 597.853 139.11 598.292 139.403L595.567 140.549Z" fill="white"/>
</g>
<g id="&#230;&#151;&#133;&#230;&#184;&#184;&#230;&#153;&#175;&#231;&#130;&#185; 1">
<path id="Vector_8" d="M611.207 233.397C611.605 232.868 612.395 232.868 612.793 233.397L618.796 241.391C619.293 242.052 618.825 243 618.003 243H605.997C605.175 243 604.707 242.052 605.204 241.391L611.207 233.397Z" fill="#FFC164"/>
<path id="Vector_9" d="M597.683 224.987C600.425 222.953 603.388 223.768 604.913 223.978C606.146 222.864 606.606 222.78 607.651 222.087C608.696 221.393 612.248 220.51 615.111 221.33C617.974 222.15 619.06 223.369 618.997 223.978C618.935 224.588 618.35 224.987 617.221 224.987C616.093 224.987 613.397 224.399 612.708 224.399C612.018 224.399 610.931 224.987 610.931 225.492C610.931 225.996 611.934 225.492 614.358 226.291C616.782 227.09 618.642 230.159 617.974 230.684C617.305 231.21 615.299 230.411 614.045 229.801C612.791 229.192 608.549 228.519 608.09 228.624C607.63 228.729 608.591 232.996 608.905 236.234C609.218 239.471 610.263 239.534 611.496 241.132C612.482 242.41 611.907 242.897 611.496 242.981C609.204 242.995 604.311 243.015 603.074 242.981C601.528 242.939 602.28 241.741 602.448 241.573C602.615 241.405 603.618 240.417 604.913 238.735C606.209 237.054 606.064 235.067 605.618 232.456C605.012 228.904 604.913 228.981 604.098 228.981C603.283 228.981 599.585 235.834 598.331 234.468C597.077 233.102 599.982 228.855 599.585 228.162C599.188 227.468 594.716 231.357 594.173 230.411C593.629 229.465 594.256 227.531 597.683 224.987Z" fill="#A8FE3B"/>
</g>
<g id="&#229;&#175;&#188;&#232;&#136;&#170;&#229;&#156;&#176;&#229;&#157;&#128; (2) 1">
<path id="Vector_10" d="M671.003 309.441C672.212 309.441 673.372 309.921 674.227 310.776C675.082 311.632 675.563 312.791 675.563 314.001C675.563 315.21 675.082 316.37 674.227 317.225C673.372 318.08 672.212 318.561 671.003 318.561C669.794 318.561 668.634 318.08 667.779 317.225C666.924 316.37 666.443 315.21 666.443 314.001C666.443 312.791 666.924 311.632 667.779 310.776C668.634 309.921 669.794 309.441 671.003 309.441ZM681.006 314.003C681.006 312.445 680.642 310.91 679.944 309.518C679.246 308.126 678.232 306.916 676.984 305.985C675.736 305.054 674.287 304.427 672.754 304.154C671.221 303.882 669.645 303.971 668.152 304.415C666.66 304.859 665.291 305.645 664.156 306.711C663.021 307.777 662.15 309.093 661.613 310.555C661.076 312.017 660.888 313.584 661.064 315.131C661.239 316.679 661.774 318.164 662.625 319.468L670.108 329.445C670.191 329.612 670.319 329.752 670.477 329.85C670.635 329.948 670.818 330 671.004 330C671.19 330 671.373 329.948 671.531 329.85C671.69 329.752 671.818 329.612 671.901 329.445L679.397 319.468C680.407 317.893 681.006 316.022 681.006 314.003Z" fill="#40BBFF"/>
</g>
</g>
</g>
<defs>
<filter id="filter0_b_2072_72240" x="635.031" y="281.457" width="71.6289" height="71.6289" filterUnits="userSpaceOnUse" color-interpolation-filters="sRGB">
<feFlood flood-opacity="0" result="BackgroundImageFix"/>
<feGaussianBlur in="BackgroundImageFix" stdDeviation="4"/>
<feComposite in2="SourceAlpha" operator="in" result="effect1_backgroundBlur_2072_72240"/>
<feBlend mode="normal" in="SourceGraphic" in2="effect1_backgroundBlur_2072_72240" result="shape"/>
</filter>
<filter id="filter1_b_2072_72240" x="570.914" y="196.602" width="71.6289" height="71.6289" filterUnits="userSpaceOnUse" color-interpolation-filters="sRGB">
<feFlood flood-opacity="0" result="BackgroundImageFix"/>
<feGaussianBlur in="BackgroundImageFix" stdDeviation="4"/>
<feComposite in2="SourceAlpha" operator="in" result="effect1_backgroundBlur_2072_72240"/>
<feBlend mode="normal" in="SourceGraphic" in2="effect1_backgroundBlur_2072_72240" result="shape"/>
</filter>
<filter id="filter2_b_2072_72240" x="570.914" y="101.371" width="71.6289" height="71.6289" filterUnits="userSpaceOnUse" color-interpolation-filters="sRGB">
<feFlood flood-opacity="0" result="BackgroundImageFix"/>
<feGaussianBlur in="BackgroundImageFix" stdDeviation="4"/>
<feComposite in2="SourceAlpha" operator="in" result="effect1_backgroundBlur_2072_72240"/>
<feBlend mode="normal" in="SourceGraphic" in2="effect1_backgroundBlur_2072_72240" result="shape"/>
</filter>
<filter id="filter3_b_2072_72240" x="436.157" y="56.3175" width="112.58" height="76.0837" filterUnits="userSpaceOnUse" color-interpolation-filters="sRGB">
<feFlood flood-opacity="0" result="BackgroundImageFix"/>
<feGaussianBlur in="BackgroundImageFix" stdDeviation="4.71428"/>
<feComposite in2="SourceAlpha" operator="in" result="effect1_backgroundBlur_2072_72240"/>
<feBlend mode="normal" in="SourceGraphic" in2="effect1_backgroundBlur_2072_72240" result="shape"/>
</filter>
<clipPath id="clip0_2072_72240">
<rect width="30" height="30" fill="white" transform="translate(656 46)"/>
</clipPath>
</defs>
</svg>
