<svg width="279" height="87" viewBox="0 0 279 87" fill="none" xmlns="http://www.w3.org/2000/svg">
<g id="Group 1261156671">
<g id="Group 1261156670">
<g id="&#229;&#144;&#131;&#229;&#150;&#157;&#231;&#142;&#169;&#228;&#185;&#144; 1">
<g id="Group 1000001492">
<path id="Vector" d="M50.6258 21.4677H47.4318C47.3094 19.5326 45.706 18 43.7387 18H9.00034C6.95577 18 5.29758 19.6582 5.29758 21.7028V37.8983C5.29758 44.4313 9.98238 49.8695 16.1773 51.0415H6.47924C5.11083 51.0415 4 52.1523 4 53.5208C4 54.8892 5.11083 56 6.47924 56H47.8922C49.2606 56 50.3715 54.8892 50.3715 53.5208C50.3715 52.1523 49.2606 51.0415 47.8922 51.0415H36.5714C41.1951 50.1625 44.9751 46.9073 46.5914 42.596H47.1806C53.0053 42.596 57.7448 37.8565 57.7448 32.0319V28.5899C57.748 24.6618 54.5508 21.4677 50.6258 21.4677ZM15.5462 37.5087C15.5462 38.8771 14.4354 39.988 13.0669 39.988C11.6985 39.988 10.5877 38.8771 10.5877 37.5087V29.4238C10.5877 28.0554 11.6985 26.9446 13.0669 26.9446C14.4354 26.9446 15.5462 28.0554 15.5462 29.4238V37.5087ZM52.7863 32.0319C52.7863 35.0359 50.4101 37.4862 47.4415 37.6246V26.4262H50.6226C51.8139 26.4262 52.7863 27.3954 52.7863 28.5899V32.0319Z" fill="#A8FE3B"/>
<path id="Vector_2" d="M44.901 24.2432C44.901 22.1246 44.6917 20.0542 44.3086 18.0483C44.1218 18.0193 43.9319 18 43.7387 18H9.00034C6.95577 18 5.29758 19.6582 5.29758 21.7028V37.8983C5.29758 44.4313 9.98238 49.8695 16.1773 51.0415H6.47924C5.11083 51.0415 4 52.1523 4 53.5208C4 54.8892 5.11083 56 6.47924 56H20.5465C34.5719 52.2457 44.901 39.4535 44.901 24.2432ZM15.5462 37.5087C15.5462 38.8771 14.4354 39.988 13.0669 39.988C11.6985 39.988 10.5877 38.8771 10.5877 37.5087V29.4238C10.5877 28.0554 11.6985 26.9446 13.0669 26.9446C14.4354 26.9446 15.5462 28.0554 15.5462 29.4238V37.5087Z" fill="#A8FE3B"/>
<path id="Vector_3" d="M35.4502 18H8.99964C6.95507 18 5.29688 19.6582 5.29688 21.7028V37.8983C5.29688 40.5707 6.07928 43.0564 7.42838 45.1429C21.7178 43.2303 33.0966 32.1446 35.4502 18ZM15.5455 37.5087C15.5455 38.8771 14.4346 39.988 13.0662 39.988C11.6978 39.988 10.587 38.8771 10.587 37.5087V29.4238C10.587 28.0554 11.6978 26.9446 13.0662 26.9446C14.4346 26.9446 15.5455 28.0554 15.5455 29.4238V37.5087Z" fill="#A8FE3B"/>
<path id="Vector_4" d="M10.587 29.749V29.4238C10.587 28.0554 11.6978 26.9446 13.0662 26.9446C13.546 26.9446 13.9903 27.083 14.3703 27.3181C17.7713 24.7847 20.6538 21.6213 22.8608 18H8.99964C6.95507 18 5.29688 19.6582 5.29688 21.7028V32.0737C7.13538 31.4523 8.90626 30.6731 10.587 29.749Z" fill="#A8FE3B"/>
</g>
<path id="Vector 225" d="M17 16C18.5385 16 21.3077 14.5968 20.0769 8.984C18.8462 3.37121 20.8462 3.61883 22 4.44424" stroke="#FFB545" stroke-width="3" stroke-linecap="round"/>
<path id="Vector 226" d="M24 16C25.5385 16 28.3077 14.5968 27.0769 8.984C25.8462 3.37121 27.8462 3.61883 29 4.44424" stroke="#FFB545" stroke-width="3" stroke-linecap="round"/>
<path id="Vector 227" d="M31 16C32.5385 16 35.3077 14.5968 34.0769 8.984C32.8462 3.37121 34.8462 3.61883 36 4.44424" stroke="#FFB545" stroke-width="3" stroke-linecap="round"/>
</g>
<g id="Icon">
<g id="Background" filter="url(#filter0_b_2072_72243)">
<rect x="33" y="42" width="246" height="45" rx="9.42857" fill="#EDEDFF" fill-opacity="0.5"/>
<rect x="33.4714" y="42.4714" width="245.057" height="44.0571" rx="8.95714" stroke="#EAEAF7" stroke-width="0.942857" style="mix-blend-mode:multiply"/>
</g>
</g>
</g>
</g>
<defs>
<filter id="filter0_b_2072_72243" x="23.5714" y="32.5714" width="264.857" height="63.8571" filterUnits="userSpaceOnUse" color-interpolation-filters="sRGB">
<feFlood flood-opacity="0" result="BackgroundImageFix"/>
<feGaussianBlur in="BackgroundImageFix" stdDeviation="4.71429"/>
<feComposite in2="SourceAlpha" operator="in" result="effect1_backgroundBlur_2072_72243"/>
<feBlend mode="normal" in="SourceGraphic" in2="effect1_backgroundBlur_2072_72243" result="shape"/>
</filter>
</defs>
</svg>
