<svg width="210" height="85" viewBox="0 0 210 85" fill="none" xmlns="http://www.w3.org/2000/svg">
<g id="Icon">
<g id="Icon_2">
<path id="Vector" d="M17.75 17H58.6719C60.1074 17 61.5195 17.416 62.7266 18.1895L70.5547 23.2227C72.6992 24.6055 74 26.9785 74 29.5332V54.5C74 56.5684 72.3184 58.25 70.25 58.25H17.75C15.6816 58.25 14 56.5684 14 54.5V20.75C14 18.6758 15.6816 17 17.75 17ZM45.875 28.25C45.875 26.1816 44.1934 24.5 42.125 24.5H38.6094C38.4805 24.5 38.375 24.6055 38.375 24.7344V31.7656C38.375 31.8945 38.4805 32 38.6094 32H45.6406C45.7695 32 45.875 31.8945 45.875 31.7656V28.25ZM45.6406 33.875H38.6094C38.4805 33.875 38.375 33.9805 38.375 34.1094V41.1406C38.375 41.2695 38.4805 41.375 38.6094 41.375H45.6406C45.7695 41.375 45.875 41.2695 45.875 41.1406V34.1094C45.875 33.9805 45.7695 33.875 45.6406 33.875ZM42.125 50.75C44.1934 50.75 45.875 49.0684 45.875 47V43.4844C45.875 43.3555 45.7695 43.25 45.6406 43.25H38.6094C38.4805 43.25 38.375 43.3555 38.375 43.4844V50.5156C38.375 50.6445 38.4805 50.75 38.6094 50.75H42.125ZM36.5 50.5156V24.7344C36.5 24.6055 36.3945 24.5 36.2656 24.5H32.9844C32.8555 24.5 32.75 24.6055 32.75 24.7344V50.5156C32.75 50.6445 32.8555 50.75 32.9844 50.75H36.2656C36.3945 50.75 36.5 50.6445 36.5 50.5156ZM23.375 47C23.375 49.0684 25.0566 50.75 27.125 50.75H30.6406C30.7695 50.75 30.875 50.6445 30.875 50.5156V43.4844C30.875 43.3555 30.7695 43.25 30.6406 43.25H23.375V47ZM23.375 41.375H30.6406C30.7695 41.375 30.875 41.2695 30.875 41.1406V34.1094C30.875 33.9805 30.7695 33.875 30.6406 33.875H23.375V41.375ZM23.375 32H30.6406C30.7695 32 30.875 31.8945 30.875 31.7656V24.7344C30.875 24.6055 30.7695 24.5 30.6406 24.5H27.125C25.0566 24.5 23.375 26.1816 23.375 28.25V32Z" fill="#A8FE3B"/>
<g id="Icon_3">
<path id="Vector_2" d="M29.1057 9.96182L29.0996 9.95816L29.0934 9.95456L18.8052 3.90893C18.8037 3.90805 18.8022 3.90717 18.8007 3.90629C18.2904 3.60307 17.7083 3.44118 17.1126 3.44118C16.5169 3.44118 15.9348 3.60308 15.4245 3.9063L5.13178 9.95456L5.12565 9.95816L5.11956 9.96182C4.60148 10.2733 4.17806 10.7168 3.88611 11.2423L5.1224 11.9291L3.88611 11.2423C3.59434 11.7674 3.44224 12.359 3.44118 12.9584V12.9609L3.44118 25.0358L3.44119 25.0383C3.44224 25.6376 3.59434 26.2292 3.88611 26.7544C4.17806 27.2799 4.60148 27.7233 5.11956 28.0348L5.12565 28.0385L5.13178 28.0421L15.42 34.0877C15.4215 34.0886 15.423 34.0895 15.4244 34.0903C15.9348 34.3936 16.5168 34.5555 17.1126 34.5555C17.7084 34.5555 18.2904 34.3936 18.8008 34.0903C18.8023 34.0895 18.8037 34.0886 18.8052 34.0877L29.0934 28.0421L29.0996 28.0385L29.1057 28.0348C29.6237 27.7233 30.0472 27.2799 30.3391 26.7544C30.6309 26.2292 30.783 25.6376 30.784 25.0383V25.0358L30.784 12.9609L30.784 12.9584C30.783 12.359 30.6309 11.7674 30.3391 11.2423C30.0472 10.7168 29.6237 10.2733 29.1057 9.96182ZM17.1126 22.1791C16.5327 22.1791 15.9608 22.0003 15.4689 21.6581C14.9763 21.3153 14.5839 20.822 14.3501 20.2341C14.1161 19.6458 14.054 18.9953 14.174 18.3672C14.2939 17.7393 14.5887 17.1701 15.0126 16.7287C15.4359 16.2879 15.9681 15.9946 16.5386 15.8764C17.1087 15.7583 17.7003 15.8184 18.2411 16.0516C18.7826 16.2852 19.2548 16.6849 19.5912 17.2092C19.9279 17.734 20.1109 18.3568 20.1109 18.9983C20.1109 19.86 19.7817 20.6754 19.2127 21.268C18.6455 21.8585 17.8889 22.1791 17.1126 22.1791Z" fill="#FFB545" stroke="#F8F8F8" stroke-width="2.82857"/>
</g>
</g>
<g id="Rectangle 1017" filter="url(#filter0_b_2072_71397)">
<rect x="34.9844" y="38.957" width="172.543" height="44.3143" rx="9.42857" fill="#EDEDFF" fill-opacity="0.5"/>
<rect x="35.4558" y="39.4285" width="171.6" height="43.3714" rx="8.95714" stroke="#EAEAF7" stroke-width="0.942857" style="mix-blend-mode:multiply"/>
</g>
</g>
<defs>
<filter id="filter0_b_2072_71397" x="25.5558" y="29.5285" width="191.4" height="63.1696" filterUnits="userSpaceOnUse" color-interpolation-filters="sRGB">
<feFlood flood-opacity="0" result="BackgroundImageFix"/>
<feGaussianBlur in="BackgroundImageFix" stdDeviation="4.71429"/>
<feComposite in2="SourceAlpha" operator="in" result="effect1_backgroundBlur_2072_71397"/>
<feBlend mode="normal" in="SourceGraphic" in2="effect1_backgroundBlur_2072_71397" result="shape"/>
</filter>
</defs>
</svg>
